<svg width="3840" height="2160" viewBox="0 0 3840 2160" fill="none" xmlns="http://www.w3.org/2000/svg">
<rect x="816" y="1080" width="2424" height="144" fill="#EEEEEE"/>
<g filter="url(#filter0_d_1119_116248)">
<rect x="816" y="1224" width="2424" height="96" fill="#D9D9D9"/>
<rect x="814" y="1222" width="2428" height="100" stroke="#474747" stroke-width="4"/>
</g>
<g filter="url(#filter1_d_1119_116248)">
<rect x="816" y="864" width="2424" height="216" fill="#D9D9D9"/>
<rect x="814" y="862" width="2428" height="220" stroke="#474747" stroke-width="4"/>
</g>
<rect width="48" height="48" transform="translate(2064 864)" fill="#212121"/>
<path d="M2095.97 892.849C2095.95 892.776 2095.91 892.707 2095.86 892.648C2095.8 892.59 2095.74 892.542 2095.67 892.507C2095.6 892.472 2095.53 892.451 2095.45 892.446C2095.37 892.44 2095.29 892.45 2095.22 892.475L2093.93 892.905L2091.79 888.623C2091.74 888.525 2091.66 888.442 2091.57 888.384C2091.48 888.326 2091.37 888.296 2091.26 888.296H2085.33V886.518H2089.48C2089.64 886.518 2089.79 886.455 2089.9 886.344C2090.01 886.233 2090.07 886.082 2090.07 885.925C2090.07 885.768 2090.01 885.617 2089.9 885.506C2089.79 885.395 2089.64 885.333 2089.48 885.333H2085.33V884.666C2085.89 884.522 2086.38 884.179 2086.7 883.701C2087.02 883.223 2087.16 882.644 2087.09 882.072C2087.02 881.499 2086.74 880.973 2086.31 880.592C2085.87 880.21 2085.32 880 2084.74 880C2084.16 880 2083.6 880.21 2083.17 880.592C2082.74 880.973 2082.46 881.499 2082.39 882.072C2082.31 882.644 2082.45 883.223 2082.78 883.701C2083.1 884.179 2083.59 884.522 2084.15 884.666V885.467C2082.87 885.759 2081.74 886.511 2080.98 887.58C2080.23 888.649 2079.89 889.96 2080.03 891.263C2080.18 892.565 2080.8 893.768 2081.78 894.642C2082.76 895.516 2084.02 895.999 2085.33 896C2087.81 896 2090.05 894.318 2090.65 892C2090.67 891.924 2090.67 891.846 2090.66 891.769C2090.65 891.692 2090.62 891.617 2090.58 891.55C2090.54 891.483 2090.49 891.425 2090.43 891.378C2090.37 891.331 2090.3 891.297 2090.22 891.277C2090.15 891.258 2090.07 891.254 2089.99 891.264C2089.91 891.275 2089.84 891.301 2089.77 891.341C2089.7 891.38 2089.65 891.433 2089.6 891.495C2089.55 891.557 2089.52 891.628 2089.5 891.703C2089.04 893.481 2087.25 894.815 2085.33 894.815C2084.33 894.814 2083.37 894.456 2082.62 893.804C2081.86 893.152 2081.37 892.251 2081.23 891.265C2081.08 890.279 2081.3 889.275 2081.83 888.435C2082.37 887.595 2083.19 886.976 2084.15 886.691V888.888C2084.15 889.046 2084.21 889.196 2084.32 889.307C2084.43 889.419 2084.58 889.481 2084.74 889.481H2090.89L2093.1 893.895C2093.16 894.022 2093.27 894.122 2093.4 894.177C2093.53 894.231 2093.68 894.236 2093.82 894.191L2095.59 893.598C2095.74 893.549 2095.87 893.442 2095.94 893.301C2096.01 893.161 2096.02 892.998 2095.97 892.849ZM2083.55 882.369C2083.55 882.135 2083.62 881.906 2083.75 881.711C2083.88 881.516 2084.07 881.364 2084.28 881.274C2084.5 881.185 2084.74 881.161 2084.97 881.207C2085.2 881.253 2085.41 881.365 2085.58 881.531C2085.74 881.697 2085.86 881.908 2085.9 882.138C2085.95 882.368 2085.92 882.606 2085.83 882.823C2085.74 883.04 2085.59 883.225 2085.4 883.355C2085.2 883.485 2084.97 883.555 2084.74 883.555C2084.42 883.555 2084.12 883.43 2083.9 883.207C2083.68 882.985 2083.55 882.684 2083.55 882.369Z" fill="white"/>
<rect width="48" height="48" transform="translate(2016 1272)" fill="#212121"/>
<path d="M2047.97 1300.85C2047.95 1300.78 2047.91 1300.71 2047.86 1300.65C2047.8 1300.59 2047.74 1300.54 2047.67 1300.51C2047.6 1300.47 2047.53 1300.45 2047.45 1300.45C2047.37 1300.44 2047.29 1300.45 2047.22 1300.47L2045.93 1300.9L2043.79 1296.62C2043.74 1296.52 2043.66 1296.44 2043.57 1296.38C2043.48 1296.33 2043.37 1296.3 2043.26 1296.3H2037.33V1294.52H2041.48C2041.64 1294.52 2041.79 1294.46 2041.9 1294.34C2042.01 1294.23 2042.07 1294.08 2042.07 1293.93C2042.07 1293.77 2042.01 1293.62 2041.9 1293.51C2041.79 1293.39 2041.64 1293.33 2041.48 1293.33H2037.33V1292.67C2037.89 1292.52 2038.38 1292.18 2038.7 1291.7C2039.02 1291.22 2039.16 1290.64 2039.09 1290.07C2039.02 1289.5 2038.74 1288.97 2038.31 1288.59C2037.87 1288.21 2037.32 1288 2036.74 1288C2036.16 1288 2035.6 1288.21 2035.17 1288.59C2034.74 1288.97 2034.46 1289.5 2034.39 1290.07C2034.31 1290.64 2034.45 1291.22 2034.78 1291.7C2035.1 1292.18 2035.59 1292.52 2036.15 1292.67V1293.47C2034.87 1293.76 2033.74 1294.51 2032.98 1295.58C2032.23 1296.65 2031.89 1297.96 2032.03 1299.26C2032.18 1300.57 2032.8 1301.77 2033.78 1302.64C2034.76 1303.52 2036.02 1304 2037.33 1304C2039.81 1304 2042.05 1302.32 2042.65 1300C2042.67 1299.92 2042.67 1299.85 2042.66 1299.77C2042.65 1299.69 2042.62 1299.62 2042.58 1299.55C2042.54 1299.48 2042.49 1299.42 2042.43 1299.38C2042.37 1299.33 2042.3 1299.3 2042.22 1299.28C2042.15 1299.26 2042.07 1299.25 2041.99 1299.26C2041.91 1299.28 2041.84 1299.3 2041.77 1299.34C2041.7 1299.38 2041.65 1299.43 2041.6 1299.49C2041.55 1299.56 2041.52 1299.63 2041.5 1299.7C2041.04 1301.48 2039.25 1302.81 2037.33 1302.81C2036.33 1302.81 2035.37 1302.46 2034.62 1301.8C2033.86 1301.15 2033.37 1300.25 2033.23 1299.27C2033.08 1298.28 2033.3 1297.27 2033.83 1296.43C2034.37 1295.6 2035.19 1294.98 2036.15 1294.69V1296.89C2036.15 1297.05 2036.21 1297.2 2036.32 1297.31C2036.43 1297.42 2036.58 1297.48 2036.74 1297.48H2042.89L2045.1 1301.89C2045.16 1302.02 2045.27 1302.12 2045.4 1302.18C2045.53 1302.23 2045.68 1302.24 2045.82 1302.19L2047.59 1301.6C2047.74 1301.55 2047.87 1301.44 2047.94 1301.3C2048.01 1301.16 2048.02 1301 2047.97 1300.85ZM2035.55 1290.37C2035.55 1290.13 2035.62 1289.91 2035.75 1289.71C2035.88 1289.52 2036.07 1289.36 2036.28 1289.27C2036.5 1289.18 2036.74 1289.16 2036.97 1289.21C2037.2 1289.25 2037.41 1289.37 2037.58 1289.53C2037.74 1289.7 2037.86 1289.91 2037.9 1290.14C2037.95 1290.37 2037.92 1290.61 2037.83 1290.82C2037.74 1291.04 2037.59 1291.22 2037.4 1291.35C2037.2 1291.49 2036.97 1291.55 2036.74 1291.55C2036.42 1291.55 2036.12 1291.43 2035.9 1291.21C2035.68 1290.99 2035.55 1290.68 2035.55 1290.37Z" fill="white"/>
<rect width="24" height="4" transform="matrix(-3.0598e-07 1 1 3.0598e-07 1776 864)" fill="#212121"/>
<rect width="24" height="4" transform="matrix(-3.0598e-07 1 1 3.0598e-07 1782 864)" fill="#212121"/>
<rect width="24" height="4" transform="matrix(-3.0598e-07 1 1 3.0598e-07 1788 864)" fill="#212121"/>
<rect width="24" height="4" transform="matrix(-3.0598e-07 1 1 3.0598e-07 1794 864)" fill="#212121"/>
<rect width="24" height="4" transform="matrix(-3.0598e-07 1 1 3.0598e-07 1800 864)" fill="#212121"/>
<rect width="24" height="4" transform="matrix(-3.0598e-07 1 1 3.0598e-07 1806 864)" fill="#212121"/>
<rect width="24" height="4" transform="matrix(-3.0598e-07 1 1 3.0598e-07 1812 864)" fill="#212121"/>
<rect width="24" height="4" transform="matrix(-3.0598e-07 1 1 3.0598e-07 1818 864)" fill="#212121"/>
<rect x="1824" y="888" width="24" height="24" transform="rotate(-90 1824 888)" fill="#212121"/>
<rect width="24" height="4" transform="matrix(-3.0598e-07 1 1 3.0598e-07 1704 864)" fill="#212121"/>
<rect width="24" height="4" transform="matrix(-3.0598e-07 1 1 3.0598e-07 1710 864)" fill="#212121"/>
<rect width="24" height="4" transform="matrix(-3.0598e-07 1 1 3.0598e-07 1716 864)" fill="#212121"/>
<rect width="24" height="4" transform="matrix(-3.0598e-07 1 1 3.0598e-07 1722 864)" fill="#212121"/>
<rect width="24" height="4" transform="matrix(-3.0598e-07 1 1 3.0598e-07 1728 864)" fill="#212121"/>
<rect width="24" height="4" transform="matrix(-3.0598e-07 1 1 3.0598e-07 1734 864)" fill="#212121"/>
<rect width="24" height="4" transform="matrix(-3.0598e-07 1 1 3.0598e-07 1740 864)" fill="#212121"/>
<rect width="24" height="4" transform="matrix(-3.0598e-07 1 1 3.0598e-07 1746 864)" fill="#212121"/>
<rect x="1752" y="888" width="24" height="24" transform="rotate(-90 1752 888)" fill="#212121"/>
<rect width="24" height="4" transform="matrix(-3.0598e-07 1 1 3.0598e-07 1632 864)" fill="#212121"/>
<rect width="24" height="4" transform="matrix(-3.0598e-07 1 1 3.0598e-07 1638 864)" fill="#212121"/>
<rect width="24" height="4" transform="matrix(-3.0598e-07 1 1 3.0598e-07 1644 864)" fill="#212121"/>
<rect width="24" height="4" transform="matrix(-3.0598e-07 1 1 3.0598e-07 1650 864)" fill="#212121"/>
<rect width="24" height="4" transform="matrix(-3.0598e-07 1 1 3.0598e-07 1656 864)" fill="#212121"/>
<rect width="24" height="4" transform="matrix(-3.0598e-07 1 1 3.0598e-07 1662 864)" fill="#212121"/>
<rect width="24" height="4" transform="matrix(-3.0598e-07 1 1 3.0598e-07 1668 864)" fill="#212121"/>
<rect width="24" height="4" transform="matrix(-3.0598e-07 1 1 3.0598e-07 1674 864)" fill="#212121"/>
<rect x="1680" y="888" width="24" height="24" transform="rotate(-90 1680 888)" fill="#212121"/>
<rect x="1632" y="888" width="24" height="24" transform="rotate(-180 1632 888)" fill="#212121"/>
<rect width="24" height="4" transform="matrix(-3.0598e-07 1 1 3.0598e-07 1416 864)" fill="#212121"/>
<rect width="24" height="4" transform="matrix(-3.0598e-07 1 1 3.0598e-07 1422 864)" fill="#212121"/>
<rect width="24" height="4" transform="matrix(-3.0598e-07 1 1 3.0598e-07 1428 864)" fill="#212121"/>
<rect width="24" height="4" transform="matrix(-3.0598e-07 1 1 3.0598e-07 1434 864)" fill="#212121"/>
<rect width="24" height="4" transform="matrix(-3.0598e-07 1 1 3.0598e-07 1440 864)" fill="#212121"/>
<rect width="24" height="4" transform="matrix(-3.0598e-07 1 1 3.0598e-07 1446 864)" fill="#212121"/>
<rect width="24" height="4" transform="matrix(-3.0598e-07 1 1 3.0598e-07 1452 864)" fill="#212121"/>
<rect width="24" height="4" transform="matrix(-3.0598e-07 1 1 3.0598e-07 1458 864)" fill="#212121"/>
<rect x="1464" y="888" width="24" height="24" transform="rotate(-90 1464 888)" fill="#212121"/>
<rect width="24" height="4" transform="matrix(-3.0598e-07 1 1 3.0598e-07 1344 864)" fill="#212121"/>
<rect width="24" height="4" transform="matrix(-3.0598e-07 1 1 3.0598e-07 1350 864)" fill="#212121"/>
<rect width="24" height="4" transform="matrix(-3.0598e-07 1 1 3.0598e-07 1356 864)" fill="#212121"/>
<rect width="24" height="4" transform="matrix(-3.0598e-07 1 1 3.0598e-07 1362 864)" fill="#212121"/>
<rect width="24" height="4" transform="matrix(-3.0598e-07 1 1 3.0598e-07 1368 864)" fill="#212121"/>
<rect width="24" height="4" transform="matrix(-3.0598e-07 1 1 3.0598e-07 1374 864)" fill="#212121"/>
<rect width="24" height="4" transform="matrix(-3.0598e-07 1 1 3.0598e-07 1380 864)" fill="#212121"/>
<rect width="24" height="4" transform="matrix(-3.0598e-07 1 1 3.0598e-07 1386 864)" fill="#212121"/>
<rect x="1392" y="888" width="24" height="24" transform="rotate(-90 1392 888)" fill="#212121"/>
<rect width="24" height="4" transform="matrix(-3.0598e-07 1 1 3.0598e-07 1272 864)" fill="#212121"/>
<rect width="24" height="4" transform="matrix(-3.0598e-07 1 1 3.0598e-07 1278 864)" fill="#212121"/>
<rect width="24" height="4" transform="matrix(-3.0598e-07 1 1 3.0598e-07 1284 864)" fill="#212121"/>
<rect width="24" height="4" transform="matrix(-3.0598e-07 1 1 3.0598e-07 1290 864)" fill="#212121"/>
<rect width="24" height="4" transform="matrix(-3.0598e-07 1 1 3.0598e-07 1296 864)" fill="#212121"/>
<rect width="24" height="4" transform="matrix(-3.0598e-07 1 1 3.0598e-07 1302 864)" fill="#212121"/>
<rect width="24" height="4" transform="matrix(-3.0598e-07 1 1 3.0598e-07 1308 864)" fill="#212121"/>
<rect width="24" height="4" transform="matrix(-3.0598e-07 1 1 3.0598e-07 1314 864)" fill="#212121"/>
<rect x="1320" y="888" width="24" height="24" transform="rotate(-90 1320 888)" fill="#212121"/>
<rect x="1272" y="888" width="24" height="24" transform="rotate(-180 1272 888)" fill="#212121"/>
<rect width="24" height="4" transform="matrix(-3.0598e-07 1 1 3.0598e-07 2784 864)" fill="#212121"/>
<rect width="24" height="4" transform="matrix(-3.0598e-07 1 1 3.0598e-07 2790 864)" fill="#212121"/>
<rect width="24" height="4" transform="matrix(-3.0598e-07 1 1 3.0598e-07 2796 864)" fill="#212121"/>
<rect width="24" height="4" transform="matrix(-3.0598e-07 1 1 3.0598e-07 2802 864)" fill="#212121"/>
<rect width="24" height="4" transform="matrix(-3.0598e-07 1 1 3.0598e-07 2808 864)" fill="#212121"/>
<rect width="24" height="4" transform="matrix(-3.0598e-07 1 1 3.0598e-07 2814 864)" fill="#212121"/>
<rect width="24" height="4" transform="matrix(-3.0598e-07 1 1 3.0598e-07 2820 864)" fill="#212121"/>
<rect width="24" height="4" transform="matrix(-3.0598e-07 1 1 3.0598e-07 2826 864)" fill="#212121"/>
<rect x="2832" y="888" width="24" height="24" transform="rotate(-90 2832 888)" fill="#212121"/>
<rect width="24" height="4" transform="matrix(-3.0598e-07 1 1 3.0598e-07 2712 864)" fill="#212121"/>
<rect width="24" height="4" transform="matrix(-3.0598e-07 1 1 3.0598e-07 2718 864)" fill="#212121"/>
<rect width="24" height="4" transform="matrix(-3.0598e-07 1 1 3.0598e-07 2724 864)" fill="#212121"/>
<rect width="24" height="4" transform="matrix(-3.0598e-07 1 1 3.0598e-07 2730 864)" fill="#212121"/>
<rect width="24" height="4" transform="matrix(-3.0598e-07 1 1 3.0598e-07 2736 864)" fill="#212121"/>
<rect width="24" height="4" transform="matrix(-3.0598e-07 1 1 3.0598e-07 2742 864)" fill="#212121"/>
<rect width="24" height="4" transform="matrix(-3.0598e-07 1 1 3.0598e-07 2748 864)" fill="#212121"/>
<rect width="24" height="4" transform="matrix(-3.0598e-07 1 1 3.0598e-07 2754 864)" fill="#212121"/>
<rect x="2760" y="888" width="24" height="24" transform="rotate(-90 2760 888)" fill="#212121"/>
<rect width="24" height="4" transform="matrix(-3.0598e-07 1 1 3.0598e-07 2640 864)" fill="#212121"/>
<rect width="24" height="4" transform="matrix(-3.0598e-07 1 1 3.0598e-07 2646 864)" fill="#212121"/>
<rect width="24" height="4" transform="matrix(-3.0598e-07 1 1 3.0598e-07 2652 864)" fill="#212121"/>
<rect width="24" height="4" transform="matrix(-3.0598e-07 1 1 3.0598e-07 2658 864)" fill="#212121"/>
<rect width="24" height="4" transform="matrix(-3.0598e-07 1 1 3.0598e-07 2664 864)" fill="#212121"/>
<rect width="24" height="4" transform="matrix(-3.0598e-07 1 1 3.0598e-07 2670 864)" fill="#212121"/>
<rect width="24" height="4" transform="matrix(-3.0598e-07 1 1 3.0598e-07 2676 864)" fill="#212121"/>
<rect width="24" height="4" transform="matrix(-3.0598e-07 1 1 3.0598e-07 2682 864)" fill="#212121"/>
<rect x="2688" y="888" width="24" height="24" transform="rotate(-90 2688 888)" fill="#212121"/>
<rect x="2640" y="888" width="24" height="24" transform="rotate(-180 2640 888)" fill="#212121"/>
<rect width="24" height="4" transform="matrix(-3.0598e-07 1 1 3.0598e-07 2496 864)" fill="#212121"/>
<rect width="24" height="4" transform="matrix(-3.0598e-07 1 1 3.0598e-07 2502 864)" fill="#212121"/>
<rect width="24" height="4" transform="matrix(-3.0598e-07 1 1 3.0598e-07 2508 864)" fill="#212121"/>
<rect width="24" height="4" transform="matrix(-3.0598e-07 1 1 3.0598e-07 2514 864)" fill="#212121"/>
<rect width="24" height="4" transform="matrix(-3.0598e-07 1 1 3.0598e-07 2520 864)" fill="#212121"/>
<rect width="24" height="4" transform="matrix(-3.0598e-07 1 1 3.0598e-07 2526 864)" fill="#212121"/>
<rect width="24" height="4" transform="matrix(-3.0598e-07 1 1 3.0598e-07 2532 864)" fill="#212121"/>
<rect width="24" height="4" transform="matrix(-3.0598e-07 1 1 3.0598e-07 2538 864)" fill="#212121"/>
<rect x="2544" y="888" width="24" height="24" transform="rotate(-90 2544 888)" fill="#212121"/>
<rect width="24" height="4" transform="matrix(-3.0598e-07 1 1 3.0598e-07 2424 864)" fill="#212121"/>
<rect width="24" height="4" transform="matrix(-3.0598e-07 1 1 3.0598e-07 2430 864)" fill="#212121"/>
<rect width="24" height="4" transform="matrix(-3.0598e-07 1 1 3.0598e-07 2436 864)" fill="#212121"/>
<rect width="24" height="4" transform="matrix(-3.0598e-07 1 1 3.0598e-07 2442 864)" fill="#212121"/>
<rect width="24" height="4" transform="matrix(-3.0598e-07 1 1 3.0598e-07 2448 864)" fill="#212121"/>
<rect width="24" height="4" transform="matrix(-3.0598e-07 1 1 3.0598e-07 2454 864)" fill="#212121"/>
<rect width="24" height="4" transform="matrix(-3.0598e-07 1 1 3.0598e-07 2460 864)" fill="#212121"/>
<rect width="24" height="4" transform="matrix(-3.0598e-07 1 1 3.0598e-07 2466 864)" fill="#212121"/>
<rect x="2472" y="888" width="24" height="24" transform="rotate(-90 2472 888)" fill="#212121"/>
<rect width="24" height="4" transform="matrix(-3.0598e-07 1 1 3.0598e-07 2352 864)" fill="#212121"/>
<rect width="24" height="4" transform="matrix(-3.0598e-07 1 1 3.0598e-07 2358 864)" fill="#212121"/>
<rect width="24" height="4" transform="matrix(-3.0598e-07 1 1 3.0598e-07 2364 864)" fill="#212121"/>
<rect width="24" height="4" transform="matrix(-3.0598e-07 1 1 3.0598e-07 2370 864)" fill="#212121"/>
<rect width="24" height="4" transform="matrix(-3.0598e-07 1 1 3.0598e-07 2376 864)" fill="#212121"/>
<rect width="24" height="4" transform="matrix(-3.0598e-07 1 1 3.0598e-07 2382 864)" fill="#212121"/>
<rect width="24" height="4" transform="matrix(-3.0598e-07 1 1 3.0598e-07 2388 864)" fill="#212121"/>
<rect width="24" height="4" transform="matrix(-3.0598e-07 1 1 3.0598e-07 2394 864)" fill="#212121"/>
<rect x="2400" y="888" width="24" height="24" transform="rotate(-90 2400 888)" fill="#212121"/>
<rect x="2352" y="888" width="24" height="24" transform="rotate(-180 2352 888)" fill="#212121"/>
<rect width="24" height="4" transform="matrix(-3.0598e-07 1 1 3.0598e-07 1776 888)" fill="#212121"/>
<rect width="24" height="4" transform="matrix(-3.0598e-07 1 1 3.0598e-07 1782 888)" fill="#212121"/>
<rect width="24" height="4" transform="matrix(-3.0598e-07 1 1 3.0598e-07 1788 888)" fill="#212121"/>
<rect width="24" height="4" transform="matrix(-3.0598e-07 1 1 3.0598e-07 1794 888)" fill="#212121"/>
<rect width="24" height="4" transform="matrix(-3.0598e-07 1 1 3.0598e-07 1800 888)" fill="#212121"/>
<rect width="24" height="4" transform="matrix(-3.0598e-07 1 1 3.0598e-07 1806 888)" fill="#212121"/>
<rect width="24" height="4" transform="matrix(-3.0598e-07 1 1 3.0598e-07 1812 888)" fill="#212121"/>
<rect width="24" height="4" transform="matrix(-3.0598e-07 1 1 3.0598e-07 1818 888)" fill="#212121"/>
<rect x="1824" y="912" width="24" height="24" transform="rotate(-90 1824 912)" fill="#212121"/>
<rect width="24" height="4" transform="matrix(-3.0598e-07 1 1 3.0598e-07 1704 888)" fill="#212121"/>
<rect width="24" height="4" transform="matrix(-3.0598e-07 1 1 3.0598e-07 1710 888)" fill="#212121"/>
<rect width="24" height="4" transform="matrix(-3.0598e-07 1 1 3.0598e-07 1716 888)" fill="#212121"/>
<rect width="24" height="4" transform="matrix(-3.0598e-07 1 1 3.0598e-07 1722 888)" fill="#212121"/>
<rect width="24" height="4" transform="matrix(-3.0598e-07 1 1 3.0598e-07 1728 888)" fill="#212121"/>
<rect width="24" height="4" transform="matrix(-3.0598e-07 1 1 3.0598e-07 1734 888)" fill="#212121"/>
<rect width="24" height="4" transform="matrix(-3.0598e-07 1 1 3.0598e-07 1740 888)" fill="#212121"/>
<rect width="24" height="4" transform="matrix(-3.0598e-07 1 1 3.0598e-07 1746 888)" fill="#212121"/>
<rect x="1752" y="912" width="24" height="24" transform="rotate(-90 1752 912)" fill="#212121"/>
<rect width="24" height="4" transform="matrix(-3.0598e-07 1 1 3.0598e-07 1632 888)" fill="#212121"/>
<rect width="24" height="4" transform="matrix(-3.0598e-07 1 1 3.0598e-07 1638 888)" fill="#212121"/>
<rect width="24" height="4" transform="matrix(-3.0598e-07 1 1 3.0598e-07 1644 888)" fill="#212121"/>
<rect width="24" height="4" transform="matrix(-3.0598e-07 1 1 3.0598e-07 1650 888)" fill="#212121"/>
<rect width="24" height="4" transform="matrix(-3.0598e-07 1 1 3.0598e-07 1656 888)" fill="#212121"/>
<rect width="24" height="4" transform="matrix(-3.0598e-07 1 1 3.0598e-07 1662 888)" fill="#212121"/>
<rect width="24" height="4" transform="matrix(-3.0598e-07 1 1 3.0598e-07 1668 888)" fill="#212121"/>
<rect width="24" height="4" transform="matrix(-3.0598e-07 1 1 3.0598e-07 1674 888)" fill="#212121"/>
<rect x="1680" y="912" width="24" height="24" transform="rotate(-90 1680 912)" fill="#212121"/>
<rect x="1632" y="912" width="24" height="24" transform="rotate(-180 1632 912)" fill="#212121"/>
<rect width="24" height="4" transform="matrix(-3.0598e-07 1 1 3.0598e-07 1416 888)" fill="#212121"/>
<rect width="24" height="4" transform="matrix(-3.0598e-07 1 1 3.0598e-07 1422 888)" fill="#212121"/>
<rect width="24" height="4" transform="matrix(-3.0598e-07 1 1 3.0598e-07 1428 888)" fill="#212121"/>
<rect width="24" height="4" transform="matrix(-3.0598e-07 1 1 3.0598e-07 1434 888)" fill="#212121"/>
<rect width="24" height="4" transform="matrix(-3.0598e-07 1 1 3.0598e-07 1440 888)" fill="#212121"/>
<rect width="24" height="4" transform="matrix(-3.0598e-07 1 1 3.0598e-07 1446 888)" fill="#212121"/>
<rect width="24" height="4" transform="matrix(-3.0598e-07 1 1 3.0598e-07 1452 888)" fill="#212121"/>
<rect width="24" height="4" transform="matrix(-3.0598e-07 1 1 3.0598e-07 1458 888)" fill="#212121"/>
<rect x="1464" y="912" width="24" height="24" transform="rotate(-90 1464 912)" fill="#212121"/>
<rect width="24" height="4" transform="matrix(-3.0598e-07 1 1 3.0598e-07 1344 888)" fill="#212121"/>
<rect width="24" height="4" transform="matrix(-3.0598e-07 1 1 3.0598e-07 1350 888)" fill="#212121"/>
<rect width="24" height="4" transform="matrix(-3.0598e-07 1 1 3.0598e-07 1356 888)" fill="#212121"/>
<rect width="24" height="4" transform="matrix(-3.0598e-07 1 1 3.0598e-07 1362 888)" fill="#212121"/>
<rect width="24" height="4" transform="matrix(-3.0598e-07 1 1 3.0598e-07 1368 888)" fill="#212121"/>
<rect width="24" height="4" transform="matrix(-3.0598e-07 1 1 3.0598e-07 1374 888)" fill="#212121"/>
<rect width="24" height="4" transform="matrix(-3.0598e-07 1 1 3.0598e-07 1380 888)" fill="#212121"/>
<rect width="24" height="4" transform="matrix(-3.0598e-07 1 1 3.0598e-07 1386 888)" fill="#212121"/>
<rect x="1392" y="912" width="24" height="24" transform="rotate(-90 1392 912)" fill="#212121"/>
<rect width="24" height="4" transform="matrix(-3.0598e-07 1 1 3.0598e-07 1272 888)" fill="#212121"/>
<rect width="24" height="4" transform="matrix(-3.0598e-07 1 1 3.0598e-07 1278 888)" fill="#212121"/>
<rect width="24" height="4" transform="matrix(-3.0598e-07 1 1 3.0598e-07 1284 888)" fill="#212121"/>
<rect width="24" height="4" transform="matrix(-3.0598e-07 1 1 3.0598e-07 1290 888)" fill="#212121"/>
<rect width="24" height="4" transform="matrix(-3.0598e-07 1 1 3.0598e-07 1296 888)" fill="#212121"/>
<rect width="24" height="4" transform="matrix(-3.0598e-07 1 1 3.0598e-07 1302 888)" fill="#212121"/>
<rect width="24" height="4" transform="matrix(-3.0598e-07 1 1 3.0598e-07 1308 888)" fill="#212121"/>
<rect width="24" height="4" transform="matrix(-3.0598e-07 1 1 3.0598e-07 1314 888)" fill="#212121"/>
<rect x="1320" y="912" width="24" height="24" transform="rotate(-90 1320 912)" fill="#212121"/>
<rect x="1272" y="912" width="24" height="24" transform="rotate(-180 1272 912)" fill="#212121"/>
<rect width="24" height="4" transform="matrix(-3.0598e-07 1 1 3.0598e-07 2784 888)" fill="#212121"/>
<rect width="24" height="4" transform="matrix(-3.0598e-07 1 1 3.0598e-07 2790 888)" fill="#212121"/>
<rect width="24" height="4" transform="matrix(-3.0598e-07 1 1 3.0598e-07 2796 888)" fill="#212121"/>
<rect width="24" height="4" transform="matrix(-3.0598e-07 1 1 3.0598e-07 2802 888)" fill="#212121"/>
<rect width="24" height="4" transform="matrix(-3.0598e-07 1 1 3.0598e-07 2808 888)" fill="#212121"/>
<rect width="24" height="4" transform="matrix(-3.0598e-07 1 1 3.0598e-07 2814 888)" fill="#212121"/>
<rect width="24" height="4" transform="matrix(-3.0598e-07 1 1 3.0598e-07 2820 888)" fill="#212121"/>
<rect width="24" height="4" transform="matrix(-3.0598e-07 1 1 3.0598e-07 2826 888)" fill="#212121"/>
<rect x="2832" y="912" width="24" height="24" transform="rotate(-90 2832 912)" fill="#212121"/>
<rect width="24" height="4" transform="matrix(-3.0598e-07 1 1 3.0598e-07 2712 888)" fill="#212121"/>
<rect width="24" height="4" transform="matrix(-3.0598e-07 1 1 3.0598e-07 2718 888)" fill="#212121"/>
<rect width="24" height="4" transform="matrix(-3.0598e-07 1 1 3.0598e-07 2724 888)" fill="#212121"/>
<rect width="24" height="4" transform="matrix(-3.0598e-07 1 1 3.0598e-07 2730 888)" fill="#212121"/>
<rect width="24" height="4" transform="matrix(-3.0598e-07 1 1 3.0598e-07 2736 888)" fill="#212121"/>
<rect width="24" height="4" transform="matrix(-3.0598e-07 1 1 3.0598e-07 2742 888)" fill="#212121"/>
<rect width="24" height="4" transform="matrix(-3.0598e-07 1 1 3.0598e-07 2748 888)" fill="#212121"/>
<rect width="24" height="4" transform="matrix(-3.0598e-07 1 1 3.0598e-07 2754 888)" fill="#212121"/>
<rect x="2760" y="912" width="24" height="24" transform="rotate(-90 2760 912)" fill="#212121"/>
<rect width="24" height="4" transform="matrix(-3.0598e-07 1 1 3.0598e-07 2640 888)" fill="#212121"/>
<rect width="24" height="4" transform="matrix(-3.0598e-07 1 1 3.0598e-07 2646 888)" fill="#212121"/>
<rect width="24" height="4" transform="matrix(-3.0598e-07 1 1 3.0598e-07 2652 888)" fill="#212121"/>
<rect width="24" height="4" transform="matrix(-3.0598e-07 1 1 3.0598e-07 2658 888)" fill="#212121"/>
<rect width="24" height="4" transform="matrix(-3.0598e-07 1 1 3.0598e-07 2664 888)" fill="#212121"/>
<rect width="24" height="4" transform="matrix(-3.0598e-07 1 1 3.0598e-07 2670 888)" fill="#212121"/>
<rect width="24" height="4" transform="matrix(-3.0598e-07 1 1 3.0598e-07 2676 888)" fill="#212121"/>
<rect width="24" height="4" transform="matrix(-3.0598e-07 1 1 3.0598e-07 2682 888)" fill="#212121"/>
<rect x="2688" y="912" width="24" height="24" transform="rotate(-90 2688 912)" fill="#212121"/>
<rect x="2640" y="912" width="24" height="24" transform="rotate(-180 2640 912)" fill="#212121"/>
<rect width="24" height="4" transform="matrix(-3.0598e-07 1 1 3.0598e-07 2496 888)" fill="#212121"/>
<rect width="24" height="4" transform="matrix(-3.0598e-07 1 1 3.0598e-07 2502 888)" fill="#212121"/>
<rect width="24" height="4" transform="matrix(-3.0598e-07 1 1 3.0598e-07 2508 888)" fill="#212121"/>
<rect width="24" height="4" transform="matrix(-3.0598e-07 1 1 3.0598e-07 2514 888)" fill="#212121"/>
<rect width="24" height="4" transform="matrix(-3.0598e-07 1 1 3.0598e-07 2520 888)" fill="#212121"/>
<rect width="24" height="4" transform="matrix(-3.0598e-07 1 1 3.0598e-07 2526 888)" fill="#212121"/>
<rect width="24" height="4" transform="matrix(-3.0598e-07 1 1 3.0598e-07 2532 888)" fill="#212121"/>
<rect width="24" height="4" transform="matrix(-3.0598e-07 1 1 3.0598e-07 2538 888)" fill="#212121"/>
<rect x="2544" y="912" width="24" height="24" transform="rotate(-90 2544 912)" fill="#212121"/>
<rect width="24" height="4" transform="matrix(-3.0598e-07 1 1 3.0598e-07 2424 888)" fill="#212121"/>
<rect width="24" height="4" transform="matrix(-3.0598e-07 1 1 3.0598e-07 2430 888)" fill="#212121"/>
<rect width="24" height="4" transform="matrix(-3.0598e-07 1 1 3.0598e-07 2436 888)" fill="#212121"/>
<rect width="24" height="4" transform="matrix(-3.0598e-07 1 1 3.0598e-07 2442 888)" fill="#212121"/>
<rect width="24" height="4" transform="matrix(-3.0598e-07 1 1 3.0598e-07 2448 888)" fill="#212121"/>
<rect width="24" height="4" transform="matrix(-3.0598e-07 1 1 3.0598e-07 2454 888)" fill="#212121"/>
<rect width="24" height="4" transform="matrix(-3.0598e-07 1 1 3.0598e-07 2460 888)" fill="#212121"/>
<rect width="24" height="4" transform="matrix(-3.0598e-07 1 1 3.0598e-07 2466 888)" fill="#212121"/>
<rect x="2472" y="912" width="24" height="24" transform="rotate(-90 2472 912)" fill="#212121"/>
<rect width="24" height="4" transform="matrix(-3.0598e-07 1 1 3.0598e-07 2352 888)" fill="#212121"/>
<rect width="24" height="4" transform="matrix(-3.0598e-07 1 1 3.0598e-07 2358 888)" fill="#212121"/>
<rect width="24" height="4" transform="matrix(-3.0598e-07 1 1 3.0598e-07 2364 888)" fill="#212121"/>
<rect width="24" height="4" transform="matrix(-3.0598e-07 1 1 3.0598e-07 2370 888)" fill="#212121"/>
<rect width="24" height="4" transform="matrix(-3.0598e-07 1 1 3.0598e-07 2376 888)" fill="#212121"/>
<rect width="24" height="4" transform="matrix(-3.0598e-07 1 1 3.0598e-07 2382 888)" fill="#212121"/>
<rect width="24" height="4" transform="matrix(-3.0598e-07 1 1 3.0598e-07 2388 888)" fill="#212121"/>
<rect width="24" height="4" transform="matrix(-3.0598e-07 1 1 3.0598e-07 2394 888)" fill="#212121"/>
<rect x="2400" y="912" width="24" height="24" transform="rotate(-90 2400 912)" fill="#212121"/>
<rect x="2352" y="912" width="24" height="24" transform="rotate(-180 2352 912)" fill="#212121"/>
<rect width="24" height="4" transform="matrix(-3.0598e-07 1 1 3.0598e-07 2592 1272)" fill="#212121"/>
<rect width="24" height="4" transform="matrix(-3.0598e-07 1 1 3.0598e-07 2598 1272)" fill="#212121"/>
<rect width="24" height="4" transform="matrix(-3.0598e-07 1 1 3.0598e-07 2604 1272)" fill="#212121"/>
<rect width="24" height="4" transform="matrix(-3.0598e-07 1 1 3.0598e-07 2610 1272)" fill="#212121"/>
<rect width="24" height="4" transform="matrix(-3.0598e-07 1 1 3.0598e-07 2616 1272)" fill="#212121"/>
<rect width="24" height="4" transform="matrix(-3.0598e-07 1 1 3.0598e-07 2622 1272)" fill="#212121"/>
<rect width="24" height="4" transform="matrix(-3.0598e-07 1 1 3.0598e-07 2628 1272)" fill="#212121"/>
<rect width="24" height="4" transform="matrix(-3.0598e-07 1 1 3.0598e-07 2634 1272)" fill="#212121"/>
<rect x="2640" y="1296" width="24" height="24" transform="rotate(-90 2640 1296)" fill="#212121"/>
<rect width="24" height="4" transform="matrix(-3.0598e-07 1 1 3.0598e-07 2520 1272)" fill="#212121"/>
<rect width="24" height="4" transform="matrix(-3.0598e-07 1 1 3.0598e-07 2526 1272)" fill="#212121"/>
<rect width="24" height="4" transform="matrix(-3.0598e-07 1 1 3.0598e-07 2532 1272)" fill="#212121"/>
<rect width="24" height="4" transform="matrix(-3.0598e-07 1 1 3.0598e-07 2538 1272)" fill="#212121"/>
<rect width="24" height="4" transform="matrix(-3.0598e-07 1 1 3.0598e-07 2544 1272)" fill="#212121"/>
<rect width="24" height="4" transform="matrix(-3.0598e-07 1 1 3.0598e-07 2550 1272)" fill="#212121"/>
<rect width="24" height="4" transform="matrix(-3.0598e-07 1 1 3.0598e-07 2556 1272)" fill="#212121"/>
<rect width="24" height="4" transform="matrix(-3.0598e-07 1 1 3.0598e-07 2562 1272)" fill="#212121"/>
<rect x="2568" y="1296" width="24" height="24" transform="rotate(-90 2568 1296)" fill="#212121"/>
<rect width="24" height="4" transform="matrix(-3.0598e-07 1 1 3.0598e-07 2448 1272)" fill="#212121"/>
<rect width="24" height="4" transform="matrix(-3.0598e-07 1 1 3.0598e-07 2454 1272)" fill="#212121"/>
<rect width="24" height="4" transform="matrix(-3.0598e-07 1 1 3.0598e-07 2460 1272)" fill="#212121"/>
<rect width="24" height="4" transform="matrix(-3.0598e-07 1 1 3.0598e-07 2466 1272)" fill="#212121"/>
<rect width="24" height="4" transform="matrix(-3.0598e-07 1 1 3.0598e-07 2472 1272)" fill="#212121"/>
<rect width="24" height="4" transform="matrix(-3.0598e-07 1 1 3.0598e-07 2478 1272)" fill="#212121"/>
<rect width="24" height="4" transform="matrix(-3.0598e-07 1 1 3.0598e-07 2484 1272)" fill="#212121"/>
<rect width="24" height="4" transform="matrix(-3.0598e-07 1 1 3.0598e-07 2490 1272)" fill="#212121"/>
<rect x="2496" y="1296" width="24" height="24" transform="rotate(-90 2496 1296)" fill="#212121"/>
<rect x="2448" y="1296" width="24" height="24" transform="rotate(-180 2448 1296)" fill="#212121"/>
<rect width="24" height="4" transform="matrix(-3.0598e-07 1 1 3.0598e-07 1584 1272)" fill="#212121"/>
<rect width="24" height="4" transform="matrix(-3.0598e-07 1 1 3.0598e-07 1590 1272)" fill="#212121"/>
<rect width="24" height="4" transform="matrix(-3.0598e-07 1 1 3.0598e-07 1596 1272)" fill="#212121"/>
<rect width="24" height="4" transform="matrix(-3.0598e-07 1 1 3.0598e-07 1602 1272)" fill="#212121"/>
<rect width="24" height="4" transform="matrix(-3.0598e-07 1 1 3.0598e-07 1608 1272)" fill="#212121"/>
<rect width="24" height="4" transform="matrix(-3.0598e-07 1 1 3.0598e-07 1614 1272)" fill="#212121"/>
<rect width="24" height="4" transform="matrix(-3.0598e-07 1 1 3.0598e-07 1620 1272)" fill="#212121"/>
<rect width="24" height="4" transform="matrix(-3.0598e-07 1 1 3.0598e-07 1626 1272)" fill="#212121"/>
<rect x="1632" y="1296" width="24" height="24" transform="rotate(-90 1632 1296)" fill="#212121"/>
<rect width="24" height="4" transform="matrix(-3.0598e-07 1 1 3.0598e-07 1512 1272)" fill="#212121"/>
<rect width="24" height="4" transform="matrix(-3.0598e-07 1 1 3.0598e-07 1518 1272)" fill="#212121"/>
<rect width="24" height="4" transform="matrix(-3.0598e-07 1 1 3.0598e-07 1524 1272)" fill="#212121"/>
<rect width="24" height="4" transform="matrix(-3.0598e-07 1 1 3.0598e-07 1530 1272)" fill="#212121"/>
<rect width="24" height="4" transform="matrix(-3.0598e-07 1 1 3.0598e-07 1536 1272)" fill="#212121"/>
<rect width="24" height="4" transform="matrix(-3.0598e-07 1 1 3.0598e-07 1542 1272)" fill="#212121"/>
<rect width="24" height="4" transform="matrix(-3.0598e-07 1 1 3.0598e-07 1548 1272)" fill="#212121"/>
<rect width="24" height="4" transform="matrix(-3.0598e-07 1 1 3.0598e-07 1554 1272)" fill="#212121"/>
<rect x="1560" y="1296" width="24" height="24" transform="rotate(-90 1560 1296)" fill="#212121"/>
<rect width="24" height="4" transform="matrix(-3.0598e-07 1 1 3.0598e-07 1440 1272)" fill="#212121"/>
<rect width="24" height="4" transform="matrix(-3.0598e-07 1 1 3.0598e-07 1446 1272)" fill="#212121"/>
<rect width="24" height="4" transform="matrix(-3.0598e-07 1 1 3.0598e-07 1452 1272)" fill="#212121"/>
<rect width="24" height="4" transform="matrix(-3.0598e-07 1 1 3.0598e-07 1458 1272)" fill="#212121"/>
<rect width="24" height="4" transform="matrix(-3.0598e-07 1 1 3.0598e-07 1464 1272)" fill="#212121"/>
<rect width="24" height="4" transform="matrix(-3.0598e-07 1 1 3.0598e-07 1470 1272)" fill="#212121"/>
<rect width="24" height="4" transform="matrix(-3.0598e-07 1 1 3.0598e-07 1476 1272)" fill="#212121"/>
<rect width="24" height="4" transform="matrix(-3.0598e-07 1 1 3.0598e-07 1482 1272)" fill="#212121"/>
<rect x="1488" y="1296" width="24" height="24" transform="rotate(-90 1488 1296)" fill="#212121"/>
<rect x="1440" y="1296" width="24" height="24" transform="rotate(-180 1440 1296)" fill="#212121"/>
<rect width="24" height="4" transform="matrix(-3.0598e-07 1 1 3.0598e-07 1776 912)" fill="#212121"/>
<rect width="24" height="4" transform="matrix(-3.0598e-07 1 1 3.0598e-07 1782 912)" fill="#212121"/>
<rect width="24" height="4" transform="matrix(-3.0598e-07 1 1 3.0598e-07 1788 912)" fill="#212121"/>
<rect width="24" height="4" transform="matrix(-3.0598e-07 1 1 3.0598e-07 1794 912)" fill="#212121"/>
<rect width="24" height="4" transform="matrix(-3.0598e-07 1 1 3.0598e-07 1800 912)" fill="#212121"/>
<rect width="24" height="4" transform="matrix(-3.0598e-07 1 1 3.0598e-07 1806 912)" fill="#212121"/>
<rect width="24" height="4" transform="matrix(-3.0598e-07 1 1 3.0598e-07 1812 912)" fill="#212121"/>
<rect width="24" height="4" transform="matrix(-3.0598e-07 1 1 3.0598e-07 1818 912)" fill="#212121"/>
<rect x="1824" y="936" width="24" height="24" transform="rotate(-90 1824 936)" fill="#212121"/>
<rect width="24" height="4" transform="matrix(-3.0598e-07 1 1 3.0598e-07 1704 912)" fill="#212121"/>
<rect width="24" height="4" transform="matrix(-3.0598e-07 1 1 3.0598e-07 1710 912)" fill="#212121"/>
<rect width="24" height="4" transform="matrix(-3.0598e-07 1 1 3.0598e-07 1716 912)" fill="#212121"/>
<rect width="24" height="4" transform="matrix(-3.0598e-07 1 1 3.0598e-07 1722 912)" fill="#212121"/>
<rect width="24" height="4" transform="matrix(-3.0598e-07 1 1 3.0598e-07 1728 912)" fill="#212121"/>
<rect width="24" height="4" transform="matrix(-3.0598e-07 1 1 3.0598e-07 1734 912)" fill="#212121"/>
<rect width="24" height="4" transform="matrix(-3.0598e-07 1 1 3.0598e-07 1740 912)" fill="#212121"/>
<rect width="24" height="4" transform="matrix(-3.0598e-07 1 1 3.0598e-07 1746 912)" fill="#212121"/>
<rect x="1752" y="936" width="24" height="24" transform="rotate(-90 1752 936)" fill="#212121"/>
<rect width="24" height="4" transform="matrix(-3.0598e-07 1 1 3.0598e-07 1632 912)" fill="#212121"/>
<rect width="24" height="4" transform="matrix(-3.0598e-07 1 1 3.0598e-07 1638 912)" fill="#212121"/>
<rect width="24" height="4" transform="matrix(-3.0598e-07 1 1 3.0598e-07 1644 912)" fill="#212121"/>
<rect width="24" height="4" transform="matrix(-3.0598e-07 1 1 3.0598e-07 1650 912)" fill="#212121"/>
<rect width="24" height="4" transform="matrix(-3.0598e-07 1 1 3.0598e-07 1656 912)" fill="#212121"/>
<rect width="24" height="4" transform="matrix(-3.0598e-07 1 1 3.0598e-07 1662 912)" fill="#212121"/>
<rect width="24" height="4" transform="matrix(-3.0598e-07 1 1 3.0598e-07 1668 912)" fill="#212121"/>
<rect width="24" height="4" transform="matrix(-3.0598e-07 1 1 3.0598e-07 1674 912)" fill="#212121"/>
<rect x="1680" y="936" width="24" height="24" transform="rotate(-90 1680 936)" fill="#212121"/>
<rect x="1632" y="936" width="24" height="24" transform="rotate(-180 1632 936)" fill="#212121"/>
<rect width="24" height="4" transform="matrix(-3.0598e-07 1 1 3.0598e-07 1416 912)" fill="#212121"/>
<rect width="24" height="4" transform="matrix(-3.0598e-07 1 1 3.0598e-07 1422 912)" fill="#212121"/>
<rect width="24" height="4" transform="matrix(-3.0598e-07 1 1 3.0598e-07 1428 912)" fill="#212121"/>
<rect width="24" height="4" transform="matrix(-3.0598e-07 1 1 3.0598e-07 1434 912)" fill="#212121"/>
<rect width="24" height="4" transform="matrix(-3.0598e-07 1 1 3.0598e-07 1440 912)" fill="#212121"/>
<rect width="24" height="4" transform="matrix(-3.0598e-07 1 1 3.0598e-07 1446 912)" fill="#212121"/>
<rect width="24" height="4" transform="matrix(-3.0598e-07 1 1 3.0598e-07 1452 912)" fill="#212121"/>
<rect width="24" height="4" transform="matrix(-3.0598e-07 1 1 3.0598e-07 1458 912)" fill="#212121"/>
<rect x="1464" y="936" width="24" height="24" transform="rotate(-90 1464 936)" fill="#212121"/>
<rect width="24" height="4" transform="matrix(-3.0598e-07 1 1 3.0598e-07 1344 912)" fill="#212121"/>
<rect width="24" height="4" transform="matrix(-3.0598e-07 1 1 3.0598e-07 1350 912)" fill="#212121"/>
<rect width="24" height="4" transform="matrix(-3.0598e-07 1 1 3.0598e-07 1356 912)" fill="#212121"/>
<rect width="24" height="4" transform="matrix(-3.0598e-07 1 1 3.0598e-07 1362 912)" fill="#212121"/>
<rect width="24" height="4" transform="matrix(-3.0598e-07 1 1 3.0598e-07 1368 912)" fill="#212121"/>
<rect width="24" height="4" transform="matrix(-3.0598e-07 1 1 3.0598e-07 1374 912)" fill="#212121"/>
<rect width="24" height="4" transform="matrix(-3.0598e-07 1 1 3.0598e-07 1380 912)" fill="#212121"/>
<rect width="24" height="4" transform="matrix(-3.0598e-07 1 1 3.0598e-07 1386 912)" fill="#212121"/>
<rect x="1392" y="936" width="24" height="24" transform="rotate(-90 1392 936)" fill="#212121"/>
<rect width="24" height="4" transform="matrix(-3.0598e-07 1 1 3.0598e-07 1272 912)" fill="#212121"/>
<rect width="24" height="4" transform="matrix(-3.0598e-07 1 1 3.0598e-07 1278 912)" fill="#212121"/>
<rect width="24" height="4" transform="matrix(-3.0598e-07 1 1 3.0598e-07 1284 912)" fill="#212121"/>
<rect width="24" height="4" transform="matrix(-3.0598e-07 1 1 3.0598e-07 1290 912)" fill="#212121"/>
<rect width="24" height="4" transform="matrix(-3.0598e-07 1 1 3.0598e-07 1296 912)" fill="#212121"/>
<rect width="24" height="4" transform="matrix(-3.0598e-07 1 1 3.0598e-07 1302 912)" fill="#212121"/>
<rect width="24" height="4" transform="matrix(-3.0598e-07 1 1 3.0598e-07 1308 912)" fill="#212121"/>
<rect width="24" height="4" transform="matrix(-3.0598e-07 1 1 3.0598e-07 1314 912)" fill="#212121"/>
<rect x="1320" y="936" width="24" height="24" transform="rotate(-90 1320 936)" fill="#212121"/>
<rect x="1272" y="936" width="24" height="24" transform="rotate(-180 1272 936)" fill="#212121"/>
<rect width="24" height="4" transform="matrix(-3.0598e-07 1 1 3.0598e-07 2784 912)" fill="#212121"/>
<rect width="24" height="4" transform="matrix(-3.0598e-07 1 1 3.0598e-07 2790 912)" fill="#212121"/>
<rect width="24" height="4" transform="matrix(-3.0598e-07 1 1 3.0598e-07 2796 912)" fill="#212121"/>
<rect width="24" height="4" transform="matrix(-3.0598e-07 1 1 3.0598e-07 2802 912)" fill="#212121"/>
<rect width="24" height="4" transform="matrix(-3.0598e-07 1 1 3.0598e-07 2808 912)" fill="#212121"/>
<rect width="24" height="4" transform="matrix(-3.0598e-07 1 1 3.0598e-07 2814 912)" fill="#212121"/>
<rect width="24" height="4" transform="matrix(-3.0598e-07 1 1 3.0598e-07 2820 912)" fill="#212121"/>
<rect width="24" height="4" transform="matrix(-3.0598e-07 1 1 3.0598e-07 2826 912)" fill="#212121"/>
<rect x="2832" y="936" width="24" height="24" transform="rotate(-90 2832 936)" fill="#212121"/>
<rect width="24" height="4" transform="matrix(-3.0598e-07 1 1 3.0598e-07 2712 912)" fill="#212121"/>
<rect width="24" height="4" transform="matrix(-3.0598e-07 1 1 3.0598e-07 2718 912)" fill="#212121"/>
<rect width="24" height="4" transform="matrix(-3.0598e-07 1 1 3.0598e-07 2724 912)" fill="#212121"/>
<rect width="24" height="4" transform="matrix(-3.0598e-07 1 1 3.0598e-07 2730 912)" fill="#212121"/>
<rect width="24" height="4" transform="matrix(-3.0598e-07 1 1 3.0598e-07 2736 912)" fill="#212121"/>
<rect width="24" height="4" transform="matrix(-3.0598e-07 1 1 3.0598e-07 2742 912)" fill="#212121"/>
<rect width="24" height="4" transform="matrix(-3.0598e-07 1 1 3.0598e-07 2748 912)" fill="#212121"/>
<rect width="24" height="4" transform="matrix(-3.0598e-07 1 1 3.0598e-07 2754 912)" fill="#212121"/>
<rect x="2760" y="936" width="24" height="24" transform="rotate(-90 2760 936)" fill="#212121"/>
<rect width="24" height="4" transform="matrix(-3.0598e-07 1 1 3.0598e-07 2640 912)" fill="#212121"/>
<rect width="24" height="4" transform="matrix(-3.0598e-07 1 1 3.0598e-07 2646 912)" fill="#212121"/>
<rect width="24" height="4" transform="matrix(-3.0598e-07 1 1 3.0598e-07 2652 912)" fill="#212121"/>
<rect width="24" height="4" transform="matrix(-3.0598e-07 1 1 3.0598e-07 2658 912)" fill="#212121"/>
<rect width="24" height="4" transform="matrix(-3.0598e-07 1 1 3.0598e-07 2664 912)" fill="#212121"/>
<rect width="24" height="4" transform="matrix(-3.0598e-07 1 1 3.0598e-07 2670 912)" fill="#212121"/>
<rect width="24" height="4" transform="matrix(-3.0598e-07 1 1 3.0598e-07 2676 912)" fill="#212121"/>
<rect width="24" height="4" transform="matrix(-3.0598e-07 1 1 3.0598e-07 2682 912)" fill="#212121"/>
<rect x="2688" y="936" width="24" height="24" transform="rotate(-90 2688 936)" fill="#212121"/>
<rect x="2640" y="936" width="24" height="24" transform="rotate(-180 2640 936)" fill="#212121"/>
<rect width="24" height="4" transform="matrix(-3.0598e-07 1 1 3.0598e-07 2496 912)" fill="#212121"/>
<rect width="24" height="4" transform="matrix(-3.0598e-07 1 1 3.0598e-07 2502 912)" fill="#212121"/>
<rect width="24" height="4" transform="matrix(-3.0598e-07 1 1 3.0598e-07 2508 912)" fill="#212121"/>
<rect width="24" height="4" transform="matrix(-3.0598e-07 1 1 3.0598e-07 2514 912)" fill="#212121"/>
<rect width="24" height="4" transform="matrix(-3.0598e-07 1 1 3.0598e-07 2520 912)" fill="#212121"/>
<rect width="24" height="4" transform="matrix(-3.0598e-07 1 1 3.0598e-07 2526 912)" fill="#212121"/>
<rect width="24" height="4" transform="matrix(-3.0598e-07 1 1 3.0598e-07 2532 912)" fill="#212121"/>
<rect width="24" height="4" transform="matrix(-3.0598e-07 1 1 3.0598e-07 2538 912)" fill="#212121"/>
<rect x="2544" y="936" width="24" height="24" transform="rotate(-90 2544 936)" fill="#212121"/>
<rect width="24" height="4" transform="matrix(-3.0598e-07 1 1 3.0598e-07 2424 912)" fill="#212121"/>
<rect width="24" height="4" transform="matrix(-3.0598e-07 1 1 3.0598e-07 2430 912)" fill="#212121"/>
<rect width="24" height="4" transform="matrix(-3.0598e-07 1 1 3.0598e-07 2436 912)" fill="#212121"/>
<rect width="24" height="4" transform="matrix(-3.0598e-07 1 1 3.0598e-07 2442 912)" fill="#212121"/>
<rect width="24" height="4" transform="matrix(-3.0598e-07 1 1 3.0598e-07 2448 912)" fill="#212121"/>
<rect width="24" height="4" transform="matrix(-3.0598e-07 1 1 3.0598e-07 2454 912)" fill="#212121"/>
<rect width="24" height="4" transform="matrix(-3.0598e-07 1 1 3.0598e-07 2460 912)" fill="#212121"/>
<rect width="24" height="4" transform="matrix(-3.0598e-07 1 1 3.0598e-07 2466 912)" fill="#212121"/>
<rect x="2472" y="936" width="24" height="24" transform="rotate(-90 2472 936)" fill="#212121"/>
<rect width="24" height="4" transform="matrix(-3.0598e-07 1 1 3.0598e-07 2352 912)" fill="#212121"/>
<rect width="24" height="4" transform="matrix(-3.0598e-07 1 1 3.0598e-07 2358 912)" fill="#212121"/>
<rect width="24" height="4" transform="matrix(-3.0598e-07 1 1 3.0598e-07 2364 912)" fill="#212121"/>
<rect width="24" height="4" transform="matrix(-3.0598e-07 1 1 3.0598e-07 2370 912)" fill="#212121"/>
<rect width="24" height="4" transform="matrix(-3.0598e-07 1 1 3.0598e-07 2376 912)" fill="#212121"/>
<rect width="24" height="4" transform="matrix(-3.0598e-07 1 1 3.0598e-07 2382 912)" fill="#212121"/>
<rect width="24" height="4" transform="matrix(-3.0598e-07 1 1 3.0598e-07 2388 912)" fill="#212121"/>
<rect width="24" height="4" transform="matrix(-3.0598e-07 1 1 3.0598e-07 2394 912)" fill="#212121"/>
<rect x="2400" y="936" width="24" height="24" transform="rotate(-90 2400 936)" fill="#212121"/>
<rect x="2352" y="936" width="24" height="24" transform="rotate(-180 2352 936)" fill="#212121"/>
<rect width="24" height="4" transform="matrix(-3.0598e-07 1 1 3.0598e-07 2592 1296)" fill="#212121"/>
<rect width="24" height="4" transform="matrix(-3.0598e-07 1 1 3.0598e-07 2598 1296)" fill="#212121"/>
<rect width="24" height="4" transform="matrix(-3.0598e-07 1 1 3.0598e-07 2604 1296)" fill="#212121"/>
<rect width="24" height="4" transform="matrix(-3.0598e-07 1 1 3.0598e-07 2610 1296)" fill="#212121"/>
<rect width="24" height="4" transform="matrix(-3.0598e-07 1 1 3.0598e-07 2616 1296)" fill="#212121"/>
<rect width="24" height="4" transform="matrix(-3.0598e-07 1 1 3.0598e-07 2622 1296)" fill="#212121"/>
<rect width="24" height="4" transform="matrix(-3.0598e-07 1 1 3.0598e-07 2628 1296)" fill="#212121"/>
<rect width="24" height="4" transform="matrix(-3.0598e-07 1 1 3.0598e-07 2634 1296)" fill="#212121"/>
<rect x="2640" y="1320" width="24" height="24" transform="rotate(-90 2640 1320)" fill="#212121"/>
<rect width="24" height="4" transform="matrix(-3.0598e-07 1 1 3.0598e-07 2520 1296)" fill="#212121"/>
<rect width="24" height="4" transform="matrix(-3.0598e-07 1 1 3.0598e-07 2526 1296)" fill="#212121"/>
<rect width="24" height="4" transform="matrix(-3.0598e-07 1 1 3.0598e-07 2532 1296)" fill="#212121"/>
<rect width="24" height="4" transform="matrix(-3.0598e-07 1 1 3.0598e-07 2538 1296)" fill="#212121"/>
<rect width="24" height="4" transform="matrix(-3.0598e-07 1 1 3.0598e-07 2544 1296)" fill="#212121"/>
<rect width="24" height="4" transform="matrix(-3.0598e-07 1 1 3.0598e-07 2550 1296)" fill="#212121"/>
<rect width="24" height="4" transform="matrix(-3.0598e-07 1 1 3.0598e-07 2556 1296)" fill="#212121"/>
<rect width="24" height="4" transform="matrix(-3.0598e-07 1 1 3.0598e-07 2562 1296)" fill="#212121"/>
<rect x="2568" y="1320" width="24" height="24" transform="rotate(-90 2568 1320)" fill="#212121"/>
<rect width="24" height="4" transform="matrix(-3.0598e-07 1 1 3.0598e-07 2448 1296)" fill="#212121"/>
<rect width="24" height="4" transform="matrix(-3.0598e-07 1 1 3.0598e-07 2454 1296)" fill="#212121"/>
<rect width="24" height="4" transform="matrix(-3.0598e-07 1 1 3.0598e-07 2460 1296)" fill="#212121"/>
<rect width="24" height="4" transform="matrix(-3.0598e-07 1 1 3.0598e-07 2466 1296)" fill="#212121"/>
<rect width="24" height="4" transform="matrix(-3.0598e-07 1 1 3.0598e-07 2472 1296)" fill="#212121"/>
<rect width="24" height="4" transform="matrix(-3.0598e-07 1 1 3.0598e-07 2478 1296)" fill="#212121"/>
<rect width="24" height="4" transform="matrix(-3.0598e-07 1 1 3.0598e-07 2484 1296)" fill="#212121"/>
<rect width="24" height="4" transform="matrix(-3.0598e-07 1 1 3.0598e-07 2490 1296)" fill="#212121"/>
<rect x="2496" y="1320" width="24" height="24" transform="rotate(-90 2496 1320)" fill="#212121"/>
<rect x="2448" y="1320" width="24" height="24" transform="rotate(-180 2448 1320)" fill="#212121"/>
<rect width="24" height="4" transform="matrix(-3.0598e-07 1 1 3.0598e-07 1584 1296)" fill="#212121"/>
<rect width="24" height="4" transform="matrix(-3.0598e-07 1 1 3.0598e-07 1590 1296)" fill="#212121"/>
<rect width="24" height="4" transform="matrix(-3.0598e-07 1 1 3.0598e-07 1596 1296)" fill="#212121"/>
<rect width="24" height="4" transform="matrix(-3.0598e-07 1 1 3.0598e-07 1602 1296)" fill="#212121"/>
<rect width="24" height="4" transform="matrix(-3.0598e-07 1 1 3.0598e-07 1608 1296)" fill="#212121"/>
<rect width="24" height="4" transform="matrix(-3.0598e-07 1 1 3.0598e-07 1614 1296)" fill="#212121"/>
<rect width="24" height="4" transform="matrix(-3.0598e-07 1 1 3.0598e-07 1620 1296)" fill="#212121"/>
<rect width="24" height="4" transform="matrix(-3.0598e-07 1 1 3.0598e-07 1626 1296)" fill="#212121"/>
<rect x="1632" y="1320" width="24" height="24" transform="rotate(-90 1632 1320)" fill="#212121"/>
<rect width="24" height="4" transform="matrix(-3.0598e-07 1 1 3.0598e-07 1512 1296)" fill="#212121"/>
<rect width="24" height="4" transform="matrix(-3.0598e-07 1 1 3.0598e-07 1518 1296)" fill="#212121"/>
<rect width="24" height="4" transform="matrix(-3.0598e-07 1 1 3.0598e-07 1524 1296)" fill="#212121"/>
<rect width="24" height="4" transform="matrix(-3.0598e-07 1 1 3.0598e-07 1530 1296)" fill="#212121"/>
<rect width="24" height="4" transform="matrix(-3.0598e-07 1 1 3.0598e-07 1536 1296)" fill="#212121"/>
<rect width="24" height="4" transform="matrix(-3.0598e-07 1 1 3.0598e-07 1542 1296)" fill="#212121"/>
<rect width="24" height="4" transform="matrix(-3.0598e-07 1 1 3.0598e-07 1548 1296)" fill="#212121"/>
<rect width="24" height="4" transform="matrix(-3.0598e-07 1 1 3.0598e-07 1554 1296)" fill="#212121"/>
<rect x="1560" y="1320" width="24" height="24" transform="rotate(-90 1560 1320)" fill="#212121"/>
<rect width="24" height="4" transform="matrix(-3.0598e-07 1 1 3.0598e-07 1440 1296)" fill="#212121"/>
<rect width="24" height="4" transform="matrix(-3.0598e-07 1 1 3.0598e-07 1446 1296)" fill="#212121"/>
<rect width="24" height="4" transform="matrix(-3.0598e-07 1 1 3.0598e-07 1452 1296)" fill="#212121"/>
<rect width="24" height="4" transform="matrix(-3.0598e-07 1 1 3.0598e-07 1458 1296)" fill="#212121"/>
<rect width="24" height="4" transform="matrix(-3.0598e-07 1 1 3.0598e-07 1464 1296)" fill="#212121"/>
<rect width="24" height="4" transform="matrix(-3.0598e-07 1 1 3.0598e-07 1470 1296)" fill="#212121"/>
<rect width="24" height="4" transform="matrix(-3.0598e-07 1 1 3.0598e-07 1476 1296)" fill="#212121"/>
<rect width="24" height="4" transform="matrix(-3.0598e-07 1 1 3.0598e-07 1482 1296)" fill="#212121"/>
<rect x="1488" y="1320" width="24" height="24" transform="rotate(-90 1488 1320)" fill="#212121"/>
<rect x="1440" y="1320" width="24" height="24" transform="rotate(-180 1440 1320)" fill="#212121"/>
<defs>
<filter id="filter0_d_1119_116248" x="812" y="1220" width="2444" height="116" filterUnits="userSpaceOnUse" color-interpolation-filters="sRGB">
<feFlood flood-opacity="0" result="BackgroundImageFix"/>
<feColorMatrix in="SourceAlpha" type="matrix" values="0 0 0 0 0 0 0 0 0 0 0 0 0 0 0 0 0 0 127 0" result="hardAlpha"/>
<feOffset dx="8" dy="8"/>
<feGaussianBlur stdDeviation="2"/>
<feComposite in2="hardAlpha" operator="out"/>
<feColorMatrix type="matrix" values="0 0 0 0 0 0 0 0 0 0 0 0 0 0 0 0 0 0 0.4 0"/>
<feBlend mode="normal" in2="BackgroundImageFix" result="effect1_dropShadow_1119_116248"/>
<feBlend mode="normal" in="SourceGraphic" in2="effect1_dropShadow_1119_116248" result="shape"/>
</filter>
<filter id="filter1_d_1119_116248" x="812" y="860" width="2444" height="236" filterUnits="userSpaceOnUse" color-interpolation-filters="sRGB">
<feFlood flood-opacity="0" result="BackgroundImageFix"/>
<feColorMatrix in="SourceAlpha" type="matrix" values="0 0 0 0 0 0 0 0 0 0 0 0 0 0 0 0 0 0 127 0" result="hardAlpha"/>
<feOffset dx="8" dy="8"/>
<feGaussianBlur stdDeviation="2"/>
<feComposite in2="hardAlpha" operator="out"/>
<feColorMatrix type="matrix" values="0 0 0 0 0 0 0 0 0 0 0 0 0 0 0 0 0 0 0.4 0"/>
<feBlend mode="normal" in2="BackgroundImageFix" result="effect1_dropShadow_1119_116248"/>
<feBlend mode="normal" in="SourceGraphic" in2="effect1_dropShadow_1119_116248" result="shape"/>
</filter>
</defs>
</svg>
