<svg width="5760" height="1440" viewBox="0 0 5760 1440" fill="none" xmlns="http://www.w3.org/2000/svg">
<mask id="path-1-inside-1_1119_43713" fill="white">
<path d="M1848 624H4008V864H1848V624Z"/>
</mask>
<path d="M1848 624H4008V864H1848V624Z" fill="#EEEEEE"/>
<path d="M1848 628H4008V620H1848V628ZM4008 860H1848V868H4008V860Z" fill="#474747" mask="url(#path-1-inside-1_1119_43713)"/>
<g filter="url(#filter0_d_1119_43713)">
<path d="M1848 672H4008V816H1848V672Z" fill="#D9D9D9"/>
<path d="M4010 670V818H1846V670H4010Z" stroke="#474747" stroke-width="4"/>
</g>
<rect width="24" height="4" transform="matrix(-1.31134e-07 1 1 1.31134e-07 2472 744)" fill="#242424"/>
<rect width="24" height="4" transform="matrix(-1.31134e-07 1 1 1.31134e-07 2478 744)" fill="#242424"/>
<rect width="24" height="4" transform="matrix(-1.31134e-07 1 1 1.31134e-07 2484 744)" fill="#242424"/>
<rect width="24" height="4" transform="matrix(-1.31134e-07 1 1 1.31134e-07 2490 744)" fill="#242424"/>
<rect width="24" height="4" transform="matrix(-1.31134e-07 1 1 1.31134e-07 2496 744)" fill="#242424"/>
<rect width="24" height="4" transform="matrix(-1.31134e-07 1 1 1.31134e-07 2502 744)" fill="#242424"/>
<rect width="24" height="4" transform="matrix(-1.31134e-07 1 1 1.31134e-07 2508 744)" fill="#242424"/>
<rect width="24" height="4" transform="matrix(-1.31134e-07 1 1 1.31134e-07 2514 744)" fill="#242424"/>
<rect x="2520" y="768" width="24" height="24" transform="rotate(-90 2520 768)" fill="#242424"/>
<rect width="24" height="4" transform="matrix(-1.31134e-07 1 1 1.31134e-07 2400 744)" fill="#242424"/>
<rect width="24" height="4" transform="matrix(-1.31134e-07 1 1 1.31134e-07 2406 744)" fill="#242424"/>
<rect width="24" height="4" transform="matrix(-1.31134e-07 1 1 1.31134e-07 2412 744)" fill="#242424"/>
<rect width="24" height="4" transform="matrix(-1.31134e-07 1 1 1.31134e-07 2418 744)" fill="#242424"/>
<rect width="24" height="4" transform="matrix(-1.31134e-07 1 1 1.31134e-07 2424 744)" fill="#242424"/>
<rect width="24" height="4" transform="matrix(-1.31134e-07 1 1 1.31134e-07 2430 744)" fill="#242424"/>
<rect width="24" height="4" transform="matrix(-1.31134e-07 1 1 1.31134e-07 2436 744)" fill="#242424"/>
<rect width="24" height="4" transform="matrix(-1.31134e-07 1 1 1.31134e-07 2442 744)" fill="#242424"/>
<rect x="2448" y="768" width="24" height="24" transform="rotate(-90 2448 768)" fill="#242424"/>
<rect x="2400" y="768" width="24" height="24" transform="rotate(-180 2400 768)" fill="#242424"/>
<rect width="24" height="4" transform="matrix(-1.31134e-07 1 1 1.31134e-07 3408 744)" fill="#242424"/>
<rect width="24" height="4" transform="matrix(-1.31134e-07 1 1 1.31134e-07 3414 744)" fill="#242424"/>
<rect width="24" height="4" transform="matrix(-1.31134e-07 1 1 1.31134e-07 3420 744)" fill="#242424"/>
<rect width="24" height="4" transform="matrix(-1.31134e-07 1 1 1.31134e-07 3426 744)" fill="#242424"/>
<rect width="24" height="4" transform="matrix(-1.31134e-07 1 1 1.31134e-07 3432 744)" fill="#242424"/>
<rect width="24" height="4" transform="matrix(-1.31134e-07 1 1 1.31134e-07 3438 744)" fill="#242424"/>
<rect width="24" height="4" transform="matrix(-1.31134e-07 1 1 1.31134e-07 3444 744)" fill="#242424"/>
<rect width="24" height="4" transform="matrix(-1.31134e-07 1 1 1.31134e-07 3450 744)" fill="#242424"/>
<rect x="3456" y="768" width="24" height="24" transform="rotate(-90 3456 768)" fill="#242424"/>
<rect width="24" height="4" transform="matrix(-1.31134e-07 1 1 1.31134e-07 3336 744)" fill="#242424"/>
<rect width="24" height="4" transform="matrix(-1.31134e-07 1 1 1.31134e-07 3342 744)" fill="#242424"/>
<rect width="24" height="4" transform="matrix(-1.31134e-07 1 1 1.31134e-07 3348 744)" fill="#242424"/>
<rect width="24" height="4" transform="matrix(-1.31134e-07 1 1 1.31134e-07 3354 744)" fill="#242424"/>
<rect width="24" height="4" transform="matrix(-1.31134e-07 1 1 1.31134e-07 3360 744)" fill="#242424"/>
<rect width="24" height="4" transform="matrix(-1.31134e-07 1 1 1.31134e-07 3366 744)" fill="#242424"/>
<rect width="24" height="4" transform="matrix(-1.31134e-07 1 1 1.31134e-07 3372 744)" fill="#242424"/>
<rect width="24" height="4" transform="matrix(-1.31134e-07 1 1 1.31134e-07 3378 744)" fill="#242424"/>
<rect x="3384" y="768" width="24" height="24" transform="rotate(-90 3384 768)" fill="#242424"/>
<rect x="3336" y="768" width="24" height="24" transform="rotate(-180 3336 768)" fill="#242424"/>
<rect width="24" height="4" transform="matrix(-1.31134e-07 1 1 1.31134e-07 2472 720)" fill="#242424"/>
<rect width="24" height="4" transform="matrix(-1.31134e-07 1 1 1.31134e-07 2478 720)" fill="#242424"/>
<rect width="24" height="4" transform="matrix(-1.31134e-07 1 1 1.31134e-07 2484 720)" fill="#242424"/>
<rect width="24" height="4" transform="matrix(-1.31134e-07 1 1 1.31134e-07 2490 720)" fill="#242424"/>
<rect width="24" height="4" transform="matrix(-1.31134e-07 1 1 1.31134e-07 2496 720)" fill="#242424"/>
<rect width="24" height="4" transform="matrix(-1.31134e-07 1 1 1.31134e-07 2502 720)" fill="#242424"/>
<rect width="24" height="4" transform="matrix(-1.31134e-07 1 1 1.31134e-07 2508 720)" fill="#242424"/>
<rect width="24" height="4" transform="matrix(-1.31134e-07 1 1 1.31134e-07 2514 720)" fill="#242424"/>
<rect x="2520" y="744" width="24" height="24" transform="rotate(-90 2520 744)" fill="#242424"/>
<rect width="24" height="4" transform="matrix(-1.31134e-07 1 1 1.31134e-07 2400 720)" fill="#242424"/>
<rect width="24" height="4" transform="matrix(-1.31134e-07 1 1 1.31134e-07 2406 720)" fill="#242424"/>
<rect width="24" height="4" transform="matrix(-1.31134e-07 1 1 1.31134e-07 2412 720)" fill="#242424"/>
<rect width="24" height="4" transform="matrix(-1.31134e-07 1 1 1.31134e-07 2418 720)" fill="#242424"/>
<rect width="24" height="4" transform="matrix(-1.31134e-07 1 1 1.31134e-07 2424 720)" fill="#242424"/>
<rect width="24" height="4" transform="matrix(-1.31134e-07 1 1 1.31134e-07 2430 720)" fill="#242424"/>
<rect width="24" height="4" transform="matrix(-1.31134e-07 1 1 1.31134e-07 2436 720)" fill="#242424"/>
<rect width="24" height="4" transform="matrix(-1.31134e-07 1 1 1.31134e-07 2442 720)" fill="#242424"/>
<rect x="2448" y="744" width="24" height="24" transform="rotate(-90 2448 744)" fill="#242424"/>
<rect x="2400" y="744" width="24" height="24" transform="rotate(-180 2400 744)" fill="#242424"/>
<rect width="24" height="4" transform="matrix(-1.31134e-07 1 1 1.31134e-07 3408 720)" fill="#242424"/>
<rect width="24" height="4" transform="matrix(-1.31134e-07 1 1 1.31134e-07 3414 720)" fill="#242424"/>
<rect width="24" height="4" transform="matrix(-1.31134e-07 1 1 1.31134e-07 3420 720)" fill="#242424"/>
<rect width="24" height="4" transform="matrix(-1.31134e-07 1 1 1.31134e-07 3426 720)" fill="#242424"/>
<rect width="24" height="4" transform="matrix(-1.31134e-07 1 1 1.31134e-07 3432 720)" fill="#242424"/>
<rect width="24" height="4" transform="matrix(-1.31134e-07 1 1 1.31134e-07 3438 720)" fill="#242424"/>
<rect width="24" height="4" transform="matrix(-1.31134e-07 1 1 1.31134e-07 3444 720)" fill="#242424"/>
<rect width="24" height="4" transform="matrix(-1.31134e-07 1 1 1.31134e-07 3450 720)" fill="#242424"/>
<rect x="3456" y="744" width="24" height="24" transform="rotate(-90 3456 744)" fill="#242424"/>
<rect width="24" height="4" transform="matrix(-1.31134e-07 1 1 1.31134e-07 3336 720)" fill="#242424"/>
<rect width="24" height="4" transform="matrix(-1.31134e-07 1 1 1.31134e-07 3342 720)" fill="#242424"/>
<rect width="24" height="4" transform="matrix(-1.31134e-07 1 1 1.31134e-07 3348 720)" fill="#242424"/>
<rect width="24" height="4" transform="matrix(-1.31134e-07 1 1 1.31134e-07 3354 720)" fill="#242424"/>
<rect width="24" height="4" transform="matrix(-1.31134e-07 1 1 1.31134e-07 3360 720)" fill="#242424"/>
<rect width="24" height="4" transform="matrix(-1.31134e-07 1 1 1.31134e-07 3366 720)" fill="#242424"/>
<rect width="24" height="4" transform="matrix(-1.31134e-07 1 1 1.31134e-07 3372 720)" fill="#242424"/>
<rect width="24" height="4" transform="matrix(-1.31134e-07 1 1 1.31134e-07 3378 720)" fill="#242424"/>
<rect x="3384" y="744" width="24" height="24" transform="rotate(-90 3384 744)" fill="#242424"/>
<rect x="3336" y="744" width="24" height="24" transform="rotate(-180 3336 744)" fill="#242424"/>
<rect width="48" height="48" transform="translate(2904 720)" fill="#242424"/>
<path d="M2935.97 748.849C2935.95 748.776 2935.91 748.707 2935.86 748.648C2935.8 748.59 2935.74 748.542 2935.67 748.507C2935.6 748.472 2935.53 748.451 2935.45 748.446C2935.37 748.44 2935.29 748.45 2935.22 748.475L2933.93 748.905L2931.79 744.623C2931.74 744.525 2931.66 744.442 2931.57 744.384C2931.48 744.326 2931.37 744.296 2931.26 744.296L2925.33 744.296L2925.33 742.518L2929.48 742.518C2929.64 742.518 2929.79 742.455 2929.9 742.344C2930.01 742.233 2930.07 742.082 2930.07 741.925C2930.07 741.768 2930.01 741.617 2929.9 741.506C2929.79 741.395 2929.64 741.333 2929.48 741.333L2925.33 741.333L2925.33 740.666C2925.89 740.522 2926.38 740.179 2926.7 739.701C2927.02 739.223 2927.16 738.644 2927.09 738.072C2927.02 737.499 2926.74 736.973 2926.31 736.592C2925.87 736.21 2925.32 736 2924.74 736C2924.16 736 2923.6 736.21 2923.17 736.592C2922.74 736.973 2922.46 737.499 2922.39 738.072C2922.31 738.644 2922.45 739.223 2922.78 739.701C2923.1 740.179 2923.59 740.522 2924.15 740.666L2924.15 741.467C2922.87 741.759 2921.74 742.511 2920.98 743.58C2920.23 744.649 2919.89 745.96 2920.03 747.263C2920.18 748.565 2920.8 749.768 2921.78 750.642C2922.76 751.516 2924.02 751.999 2925.33 752C2927.81 752 2930.05 750.318 2930.65 748C2930.67 747.924 2930.67 747.846 2930.66 747.769C2930.65 747.692 2930.62 747.617 2930.58 747.55C2930.54 747.483 2930.49 747.425 2930.43 747.378C2930.37 747.331 2930.3 747.297 2930.22 747.277C2930.15 747.258 2930.07 747.254 2929.99 747.264C2929.91 747.275 2929.84 747.301 2929.77 747.341C2929.7 747.38 2929.65 747.433 2929.6 747.495C2929.55 747.557 2929.52 747.628 2929.5 747.703C2929.04 749.481 2927.25 750.815 2925.33 750.815C2924.33 750.814 2923.37 750.456 2922.62 749.804C2921.86 749.152 2921.37 748.251 2921.23 747.265C2921.08 746.279 2921.3 745.275 2921.83 744.435C2922.37 743.595 2923.19 742.976 2924.15 742.691L2924.15 744.888C2924.15 745.046 2924.21 745.196 2924.32 745.307C2924.43 745.419 2924.58 745.481 2924.74 745.481L2930.89 745.481L2933.1 749.895C2933.16 750.022 2933.27 750.122 2933.4 750.177C2933.53 750.231 2933.68 750.236 2933.82 750.191L2935.59 749.598C2935.74 749.549 2935.87 749.442 2935.94 749.301C2936.01 749.161 2936.02 748.998 2935.97 748.849ZM2923.55 738.369C2923.55 738.135 2923.62 737.906 2923.75 737.711C2923.88 737.516 2924.07 737.364 2924.28 737.274C2924.5 737.185 2924.74 737.161 2924.97 737.207C2925.2 737.253 2925.41 737.365 2925.58 737.531C2925.74 737.697 2925.86 737.908 2925.9 738.138C2925.95 738.368 2925.92 738.606 2925.83 738.823C2925.74 739.04 2925.59 739.225 2925.4 739.355C2925.2 739.485 2924.97 739.555 2924.74 739.555C2924.42 739.555 2924.12 739.43 2923.9 739.207C2923.68 738.985 2923.55 738.684 2923.55 738.369Z" fill="white"/>
<g clip-path="url(#clip0_1119_43713)">
<path d="M1837.15 675.085V627.109H4007.36V866.804H1837.15V675.085ZM1837.15 675.085V627.109H4007.36V866.804H1837.15V675.085Z" stroke="#ED2024" stroke-linecap="round" stroke-linejoin="round"/>
<path d="M1837.15 675.085V627.109H4007.36V675.085" stroke="#ED2024" stroke-linecap="round" stroke-linejoin="round"/>
<path d="M3967.99 722.969V766.955" stroke="#ED2024" stroke-linecap="round" stroke-linejoin="round"/>
<path d="M4007.36 818.828H1837.15V866.804H4007.36V818.828Z" stroke="#ED2024" stroke-linecap="round" stroke-linejoin="round"/>
<path d="M3189.22 711H3000.2V722.971H3189.22V711Z" stroke="#ED2024" stroke-linecap="round" stroke-linejoin="round"/>
<path d="M3488.92 711H3299.89V722.971H3488.92V711Z" stroke="#ED2024" stroke-linecap="round" stroke-linejoin="round"/>
<path d="M2565.69 764.914H2376.66V776.885H2565.69V764.914Z" stroke="#ED2024" stroke-linecap="round" stroke-linejoin="round"/>
<path d="M3503.68 722.969H3311.87V764.913H3503.68V722.969Z" stroke="#ED2024" stroke-linecap="round" stroke-linejoin="round"/>
<path d="M3203.99 722.969H3012.17V764.913H3203.99V722.969Z" stroke="#ED2024" stroke-linecap="round" stroke-linejoin="round"/>
<path d="M3189.22 764.914H3000.2V776.885H3189.22V764.914Z" stroke="#ED2024" stroke-linecap="round" stroke-linejoin="round"/>
<path d="M1888.4 722.969V766.955" stroke="#ED2024" stroke-linecap="round" stroke-linejoin="round"/>
<path d="M2952.29 720H2904.29V767.976H2952.29V720Z" stroke="#ED2024" stroke-linecap="round" stroke-linejoin="round"/>
<path d="M2556.5 722.969H2364.68V764.913H2556.5V722.969Z" stroke="#ED2024" stroke-linecap="round" stroke-linejoin="round"/>
<path d="M2565.69 711H2376.66V722.971H2565.69V711Z" stroke="#ED2024" stroke-linecap="round" stroke-linejoin="round"/>
<path d="M3488.92 764.914H3299.89V776.885H3488.92V764.914Z" stroke="#ED2024" stroke-linecap="round" stroke-linejoin="round"/>
<path d="M1968.99 700.977H1903.07V788.855H1968.99V700.977Z" stroke="#ED2024" stroke-linecap="round" stroke-linejoin="round"/>
<path d="M1903.07 722.969H1969.08" stroke="#ED2024" stroke-linecap="round" stroke-linejoin="round"/>
<path d="M1969.08 766.953H1903.07" stroke="#ED2024" stroke-linecap="round" stroke-linejoin="round"/>
<path d="M1936.03 722.969V766.955" stroke="#ED2024" stroke-linecap="round" stroke-linejoin="round"/>
<path d="M1903.16 700.977H1873.82V788.855H1903.16V700.977Z" stroke="#ED2024" stroke-linecap="round" stroke-linejoin="round"/>
<path d="M1903.07 766.953H1873.82" stroke="#ED2024" stroke-linecap="round" stroke-linejoin="round"/>
<path d="M1903.07 722.969H1873.82" stroke="#ED2024" stroke-linecap="round" stroke-linejoin="round"/>
<path d="M3953.32 700.977H3887.41V788.855H3953.32V700.977Z" stroke="#ED2024" stroke-linecap="round" stroke-linejoin="round"/>
<path d="M3953.42 722.969H3887.41" stroke="#ED2024" stroke-linecap="round" stroke-linejoin="round"/>
<path d="M3887.41 766.953H3953.42" stroke="#ED2024" stroke-linecap="round" stroke-linejoin="round"/>
<path d="M3920.36 722.969V766.955" stroke="#ED2024" stroke-linecap="round" stroke-linejoin="round"/>
<path d="M3982.76 700.977H3953.42V788.855H3982.76V700.977Z" stroke="#ED2024" stroke-linecap="round" stroke-linejoin="round"/>
<path d="M3953.42 766.953H3982.66" stroke="#ED2024" stroke-linecap="round" stroke-linejoin="round"/>
<path d="M3953.42 722.969H3982.66" stroke="#ED2024" stroke-linecap="round" stroke-linejoin="round"/>
<path d="M2292.92 675.086H1837.15V818.828H4007.36V675.086H2292.92Z" stroke="#ED2024" stroke-linecap="round" stroke-linejoin="round"/>
</g>
<rect width="24" height="4" transform="matrix(-1.31134e-07 1 1 1.31134e-07 3096 744)" fill="#242424"/>
<rect width="24" height="4" transform="matrix(-1.31134e-07 1 1 1.31134e-07 3102 744)" fill="#242424"/>
<rect width="24" height="4" transform="matrix(-1.31134e-07 1 1 1.31134e-07 3108 744)" fill="#242424"/>
<rect width="24" height="4" transform="matrix(-1.31134e-07 1 1 1.31134e-07 3114 744)" fill="#242424"/>
<rect width="24" height="4" transform="matrix(-1.31134e-07 1 1 1.31134e-07 3120 744)" fill="#242424"/>
<rect width="24" height="4" transform="matrix(-1.31134e-07 1 1 1.31134e-07 3126 744)" fill="#242424"/>
<rect width="24" height="4" transform="matrix(-1.31134e-07 1 1 1.31134e-07 3132 744)" fill="#242424"/>
<rect width="24" height="4" transform="matrix(-1.31134e-07 1 1 1.31134e-07 3138 744)" fill="#242424"/>
<rect x="3144" y="768" width="24" height="24" transform="rotate(-90 3144 768)" fill="#242424"/>
<rect width="24" height="4" transform="matrix(-1.31134e-07 1 1 1.31134e-07 3024 744)" fill="#242424"/>
<rect width="24" height="4" transform="matrix(-1.31134e-07 1 1 1.31134e-07 3030 744)" fill="#242424"/>
<rect width="24" height="4" transform="matrix(-1.31134e-07 1 1 1.31134e-07 3036 744)" fill="#242424"/>
<rect width="24" height="4" transform="matrix(-1.31134e-07 1 1 1.31134e-07 3042 744)" fill="#242424"/>
<rect width="24" height="4" transform="matrix(-1.31134e-07 1 1 1.31134e-07 3048 744)" fill="#242424"/>
<rect width="24" height="4" transform="matrix(-1.31134e-07 1 1 1.31134e-07 3054 744)" fill="#242424"/>
<rect width="24" height="4" transform="matrix(-1.31134e-07 1 1 1.31134e-07 3060 744)" fill="#242424"/>
<rect width="24" height="4" transform="matrix(-1.31134e-07 1 1 1.31134e-07 3066 744)" fill="#242424"/>
<rect x="3072" y="768" width="24" height="24" transform="rotate(-90 3072 768)" fill="#242424"/>
<rect x="3024" y="768" width="24" height="24" transform="rotate(-180 3024 768)" fill="#242424"/>
<rect width="24" height="4" transform="matrix(-1.31134e-07 1 1 1.31134e-07 3096 720)" fill="#242424"/>
<rect width="24" height="4" transform="matrix(-1.31134e-07 1 1 1.31134e-07 3102 720)" fill="#242424"/>
<rect width="24" height="4" transform="matrix(-1.31134e-07 1 1 1.31134e-07 3108 720)" fill="#242424"/>
<rect width="24" height="4" transform="matrix(-1.31134e-07 1 1 1.31134e-07 3114 720)" fill="#242424"/>
<rect width="24" height="4" transform="matrix(-1.31134e-07 1 1 1.31134e-07 3120 720)" fill="#242424"/>
<rect width="24" height="4" transform="matrix(-1.31134e-07 1 1 1.31134e-07 3126 720)" fill="#242424"/>
<rect width="24" height="4" transform="matrix(-1.31134e-07 1 1 1.31134e-07 3132 720)" fill="#242424"/>
<rect width="24" height="4" transform="matrix(-1.31134e-07 1 1 1.31134e-07 3138 720)" fill="#242424"/>
<rect x="3144" y="744" width="24" height="24" transform="rotate(-90 3144 744)" fill="#242424"/>
<rect width="24" height="4" transform="matrix(-1.31134e-07 1 1 1.31134e-07 3024 720)" fill="#242424"/>
<rect width="24" height="4" transform="matrix(-1.31134e-07 1 1 1.31134e-07 3030 720)" fill="#242424"/>
<rect width="24" height="4" transform="matrix(-1.31134e-07 1 1 1.31134e-07 3036 720)" fill="#242424"/>
<rect width="24" height="4" transform="matrix(-1.31134e-07 1 1 1.31134e-07 3042 720)" fill="#242424"/>
<rect width="24" height="4" transform="matrix(-1.31134e-07 1 1 1.31134e-07 3048 720)" fill="#242424"/>
<rect width="24" height="4" transform="matrix(-1.31134e-07 1 1 1.31134e-07 3054 720)" fill="#242424"/>
<rect width="24" height="4" transform="matrix(-1.31134e-07 1 1 1.31134e-07 3060 720)" fill="#242424"/>
<rect width="24" height="4" transform="matrix(-1.31134e-07 1 1 1.31134e-07 3066 720)" fill="#242424"/>
<rect x="3072" y="744" width="24" height="24" transform="rotate(-90 3072 744)" fill="#242424"/>
<rect x="3024" y="744" width="24" height="24" transform="rotate(-180 3024 744)" fill="#242424"/>
<defs>
<filter id="filter0_d_1119_43713" x="1844" y="668" width="2180" height="164" filterUnits="userSpaceOnUse" color-interpolation-filters="sRGB">
<feFlood flood-opacity="0" result="BackgroundImageFix"/>
<feColorMatrix in="SourceAlpha" type="matrix" values="0 0 0 0 0 0 0 0 0 0 0 0 0 0 0 0 0 0 127 0" result="hardAlpha"/>
<feOffset dx="8" dy="8"/>
<feGaussianBlur stdDeviation="2"/>
<feComposite in2="hardAlpha" operator="out"/>
<feColorMatrix type="matrix" values="0 0 0 0 0 0 0 0 0 0 0 0 0 0 0 0 0 0 0.4 0"/>
<feBlend mode="normal" in2="BackgroundImageFix" result="effect1_dropShadow_1119_43713"/>
<feBlend mode="normal" in="SourceGraphic" in2="effect1_dropShadow_1119_43713" result="shape"/>
</filter>
<clipPath id="clip0_1119_43713">
<rect width="2352" height="992" fill="white" transform="translate(1814 224)"/>
</clipPath>
</defs>
</svg>
