<svg width="2880" height="1440" viewBox="0 0 2880 1440" fill="none" xmlns="http://www.w3.org/2000/svg">
<rect x="2184" y="816" width="1584" height="144" transform="rotate(-180 2184 816)" fill="#EEEEEE"/>
<rect x="2184" y="984" width="1584" height="72.9999" transform="rotate(-180 2184 984)" fill="#EEEEEE"/>
<g filter="url(#filter0_d_1119_34144)">
<rect x="2184" y="912" width="1584" height="95.9999" transform="rotate(-180 2184 912)" fill="#D9D9D9"/>
<rect x="2186" y="914" width="1588" height="99.9999" transform="rotate(-180 2186 914)" stroke="#474747" stroke-width="4"/>
</g>
<g filter="url(#filter1_d_1119_34144)">
<rect x="2184" y="672" width="1584" height="71.9999" transform="rotate(-180 2184 672)" fill="#D9D9D9"/>
<rect x="2186" y="674" width="1588" height="75.9999" transform="rotate(-180 2186 674)" stroke="#474747" stroke-width="4"/>
</g>
<rect width="24" height="4" transform="matrix(-3.0598e-07 1 1 3.0598e-07 1248 600)" fill="#212121"/>
<rect width="24" height="4" transform="matrix(-3.0598e-07 1 1 3.0598e-07 1254 600)" fill="#212121"/>
<rect width="24" height="4" transform="matrix(-3.0598e-07 1 1 3.0598e-07 1260 600)" fill="#212121"/>
<rect width="24" height="4" transform="matrix(-3.0598e-07 1 1 3.0598e-07 1266 600)" fill="#212121"/>
<rect width="24" height="4" transform="matrix(-3.0598e-07 1 1 3.0598e-07 1272 600)" fill="#212121"/>
<rect width="24" height="4" transform="matrix(-3.0598e-07 1 1 3.0598e-07 1278 600)" fill="#212121"/>
<rect width="24" height="4" transform="matrix(-3.0598e-07 1 1 3.0598e-07 1284 600)" fill="#212121"/>
<rect width="24" height="4" transform="matrix(-3.0598e-07 1 1 3.0598e-07 1290 600)" fill="#212121"/>
<rect x="1296" y="624" width="24" height="24" transform="rotate(-90 1296 624)" fill="#212121"/>
<rect width="24" height="4" transform="matrix(-3.0598e-07 1 1 3.0598e-07 1176 600)" fill="#212121"/>
<rect width="24" height="4" transform="matrix(-3.0598e-07 1 1 3.0598e-07 1182 600)" fill="#212121"/>
<rect width="24" height="4" transform="matrix(-3.0598e-07 1 1 3.0598e-07 1188 600)" fill="#212121"/>
<rect width="24" height="4" transform="matrix(-3.0598e-07 1 1 3.0598e-07 1194 600)" fill="#212121"/>
<rect width="24" height="4" transform="matrix(-3.0598e-07 1 1 3.0598e-07 1200 600)" fill="#212121"/>
<rect width="24" height="4" transform="matrix(-3.0598e-07 1 1 3.0598e-07 1206 600)" fill="#212121"/>
<rect width="24" height="4" transform="matrix(-3.0598e-07 1 1 3.0598e-07 1212 600)" fill="#212121"/>
<rect width="24" height="4" transform="matrix(-3.0598e-07 1 1 3.0598e-07 1218 600)" fill="#212121"/>
<rect x="1224" y="624" width="24" height="24" transform="rotate(-90 1224 624)" fill="#212121"/>
<rect x="1176" y="624" width="24" height="24" transform="rotate(-180 1176 624)" fill="#212121"/>
<rect x="1248" y="888" width="24" height="4" transform="rotate(-90 1248 888)" fill="#212121"/>
<rect x="1254" y="888" width="24" height="4" transform="rotate(-90 1254 888)" fill="#212121"/>
<rect x="1260" y="888" width="24" height="4" transform="rotate(-90 1260 888)" fill="#212121"/>
<rect x="1266" y="888" width="24" height="4" transform="rotate(-90 1266 888)" fill="#212121"/>
<rect x="1272" y="888" width="24" height="4" transform="rotate(-90 1272 888)" fill="#212121"/>
<rect x="1278" y="888" width="24" height="4" transform="rotate(-90 1278 888)" fill="#212121"/>
<rect x="1284" y="888" width="24" height="4" transform="rotate(-90 1284 888)" fill="#212121"/>
<rect x="1290" y="888" width="24" height="4" transform="rotate(-90 1290 888)" fill="#212121"/>
<rect width="24" height="24" transform="matrix(3.0598e-07 1 1 -3.0598e-07 1296 864)" fill="#212121"/>
<rect x="1176" y="888" width="24" height="4" transform="rotate(-90 1176 888)" fill="#212121"/>
<rect x="1182" y="888" width="24" height="4" transform="rotate(-90 1182 888)" fill="#212121"/>
<rect x="1188" y="888" width="24" height="4" transform="rotate(-90 1188 888)" fill="#212121"/>
<rect x="1194" y="888" width="24" height="4" transform="rotate(-90 1194 888)" fill="#212121"/>
<rect x="1200" y="888" width="24" height="4" transform="rotate(-90 1200 888)" fill="#212121"/>
<rect x="1206" y="888" width="24" height="4" transform="rotate(-90 1206 888)" fill="#212121"/>
<rect x="1212" y="888" width="24" height="4" transform="rotate(-90 1212 888)" fill="#212121"/>
<rect x="1218" y="888" width="24" height="4" transform="rotate(-90 1218 888)" fill="#212121"/>
<rect width="24" height="24" transform="matrix(3.0598e-07 1 1 -3.0598e-07 1224 864)" fill="#212121"/>
<rect width="24" height="24" transform="matrix(-1 2.62268e-07 2.62268e-07 1 1176 864)" fill="#212121"/>
<rect width="24" height="4" transform="matrix(-3.0598e-07 1 1 3.0598e-07 1008 600)" fill="#212121"/>
<rect width="24" height="4" transform="matrix(-3.0598e-07 1 1 3.0598e-07 1014 600)" fill="#212121"/>
<rect width="24" height="4" transform="matrix(-3.0598e-07 1 1 3.0598e-07 1020 600)" fill="#212121"/>
<rect width="24" height="4" transform="matrix(-3.0598e-07 1 1 3.0598e-07 1026 600)" fill="#212121"/>
<rect width="24" height="4" transform="matrix(-3.0598e-07 1 1 3.0598e-07 1032 600)" fill="#212121"/>
<rect width="24" height="4" transform="matrix(-3.0598e-07 1 1 3.0598e-07 1038 600)" fill="#212121"/>
<rect width="24" height="4" transform="matrix(-3.0598e-07 1 1 3.0598e-07 1044 600)" fill="#212121"/>
<rect width="24" height="4" transform="matrix(-3.0598e-07 1 1 3.0598e-07 1050 600)" fill="#212121"/>
<rect x="1056" y="624" width="24" height="24" transform="rotate(-90 1056 624)" fill="#212121"/>
<rect width="24" height="4" transform="matrix(-3.0598e-07 1 1 3.0598e-07 936 600)" fill="#212121"/>
<rect width="24" height="4" transform="matrix(-3.0598e-07 1 1 3.0598e-07 942 600)" fill="#212121"/>
<rect width="24" height="4" transform="matrix(-3.0598e-07 1 1 3.0598e-07 948 600)" fill="#212121"/>
<rect width="24" height="4" transform="matrix(-3.0598e-07 1 1 3.0598e-07 954 600)" fill="#212121"/>
<rect width="24" height="4" transform="matrix(-3.0598e-07 1 1 3.0598e-07 960 600)" fill="#212121"/>
<rect width="24" height="4" transform="matrix(-3.0598e-07 1 1 3.0598e-07 966 600)" fill="#212121"/>
<rect width="24" height="4" transform="matrix(-3.0598e-07 1 1 3.0598e-07 972 600)" fill="#212121"/>
<rect width="24" height="4" transform="matrix(-3.0598e-07 1 1 3.0598e-07 978 600)" fill="#212121"/>
<rect x="984" y="624" width="24" height="24" transform="rotate(-90 984 624)" fill="#212121"/>
<rect x="936" y="624" width="24" height="24" transform="rotate(-180 936 624)" fill="#212121"/>
<rect x="1008" y="888" width="24" height="4" transform="rotate(-90 1008 888)" fill="#212121"/>
<rect x="1014" y="888" width="24" height="4" transform="rotate(-90 1014 888)" fill="#212121"/>
<rect x="1020" y="888" width="24" height="4" transform="rotate(-90 1020 888)" fill="#212121"/>
<rect x="1026" y="888" width="24" height="4" transform="rotate(-90 1026 888)" fill="#212121"/>
<rect x="1032" y="888" width="24" height="4" transform="rotate(-90 1032 888)" fill="#212121"/>
<rect x="1038" y="888" width="24" height="4" transform="rotate(-90 1038 888)" fill="#212121"/>
<rect x="1044" y="888" width="24" height="4" transform="rotate(-90 1044 888)" fill="#212121"/>
<rect x="1050" y="888" width="24" height="4" transform="rotate(-90 1050 888)" fill="#212121"/>
<rect width="24" height="24" transform="matrix(3.0598e-07 1 1 -3.0598e-07 1056 864)" fill="#212121"/>
<rect x="936" y="888" width="24" height="4" transform="rotate(-90 936 888)" fill="#212121"/>
<rect x="942" y="888" width="24" height="4" transform="rotate(-90 942 888)" fill="#212121"/>
<rect x="948" y="888" width="24" height="4" transform="rotate(-90 948 888)" fill="#212121"/>
<rect x="954" y="888" width="24" height="4" transform="rotate(-90 954 888)" fill="#212121"/>
<rect x="960" y="888" width="24" height="4" transform="rotate(-90 960 888)" fill="#212121"/>
<rect x="966" y="888" width="24" height="4" transform="rotate(-90 966 888)" fill="#212121"/>
<rect x="972" y="888" width="24" height="4" transform="rotate(-90 972 888)" fill="#212121"/>
<rect x="978" y="888" width="24" height="4" transform="rotate(-90 978 888)" fill="#212121"/>
<rect width="24" height="24" transform="matrix(3.0598e-07 1 1 -3.0598e-07 984 864)" fill="#212121"/>
<rect width="24" height="24" transform="matrix(-1 2.62268e-07 2.62268e-07 1 936 864)" fill="#212121"/>
<rect width="24" height="4" transform="matrix(-3.0598e-07 1 1 3.0598e-07 1248 624)" fill="#212121"/>
<rect width="24" height="4" transform="matrix(-3.0598e-07 1 1 3.0598e-07 1254 624)" fill="#212121"/>
<rect width="24" height="4" transform="matrix(-3.0598e-07 1 1 3.0598e-07 1260 624)" fill="#212121"/>
<rect width="24" height="4" transform="matrix(-3.0598e-07 1 1 3.0598e-07 1266 624)" fill="#212121"/>
<rect width="24" height="4" transform="matrix(-3.0598e-07 1 1 3.0598e-07 1272 624)" fill="#212121"/>
<rect width="24" height="4" transform="matrix(-3.0598e-07 1 1 3.0598e-07 1278 624)" fill="#212121"/>
<rect width="24" height="4" transform="matrix(-3.0598e-07 1 1 3.0598e-07 1284 624)" fill="#212121"/>
<rect width="24" height="4" transform="matrix(-3.0598e-07 1 1 3.0598e-07 1290 624)" fill="#212121"/>
<rect x="1296" y="648" width="24" height="24" transform="rotate(-90 1296 648)" fill="#212121"/>
<rect width="24" height="4" transform="matrix(-3.0598e-07 1 1 3.0598e-07 1176 624)" fill="#212121"/>
<rect width="24" height="4" transform="matrix(-3.0598e-07 1 1 3.0598e-07 1182 624)" fill="#212121"/>
<rect width="24" height="4" transform="matrix(-3.0598e-07 1 1 3.0598e-07 1188 624)" fill="#212121"/>
<rect width="24" height="4" transform="matrix(-3.0598e-07 1 1 3.0598e-07 1194 624)" fill="#212121"/>
<rect width="24" height="4" transform="matrix(-3.0598e-07 1 1 3.0598e-07 1200 624)" fill="#212121"/>
<rect width="24" height="4" transform="matrix(-3.0598e-07 1 1 3.0598e-07 1206 624)" fill="#212121"/>
<rect width="24" height="4" transform="matrix(-3.0598e-07 1 1 3.0598e-07 1212 624)" fill="#212121"/>
<rect width="24" height="4" transform="matrix(-3.0598e-07 1 1 3.0598e-07 1218 624)" fill="#212121"/>
<rect x="1224" y="648" width="24" height="24" transform="rotate(-90 1224 648)" fill="#212121"/>
<rect x="1176" y="648" width="24" height="24" transform="rotate(-180 1176 648)" fill="#212121"/>
<rect x="1248" y="864" width="24" height="4" transform="rotate(-90 1248 864)" fill="#212121"/>
<rect x="1254" y="864" width="24" height="4" transform="rotate(-90 1254 864)" fill="#212121"/>
<rect x="1260" y="864" width="24" height="4" transform="rotate(-90 1260 864)" fill="#212121"/>
<rect x="1266" y="864" width="24" height="4" transform="rotate(-90 1266 864)" fill="#212121"/>
<rect x="1272" y="864" width="24" height="4" transform="rotate(-90 1272 864)" fill="#212121"/>
<rect x="1278" y="864" width="24" height="4" transform="rotate(-90 1278 864)" fill="#212121"/>
<rect x="1284" y="864" width="24" height="4" transform="rotate(-90 1284 864)" fill="#212121"/>
<rect x="1290" y="864" width="24" height="4" transform="rotate(-90 1290 864)" fill="#212121"/>
<rect width="24" height="24" transform="matrix(3.0598e-07 1 1 -3.0598e-07 1296 840)" fill="#212121"/>
<rect x="1176" y="864" width="24" height="4" transform="rotate(-90 1176 864)" fill="#212121"/>
<rect x="1182" y="864" width="24" height="4" transform="rotate(-90 1182 864)" fill="#212121"/>
<rect x="1188" y="864" width="24" height="4" transform="rotate(-90 1188 864)" fill="#212121"/>
<rect x="1194" y="864" width="24" height="4" transform="rotate(-90 1194 864)" fill="#212121"/>
<rect x="1200" y="864" width="24" height="4" transform="rotate(-90 1200 864)" fill="#212121"/>
<rect x="1206" y="864" width="24" height="4" transform="rotate(-90 1206 864)" fill="#212121"/>
<rect x="1212" y="864" width="24" height="4" transform="rotate(-90 1212 864)" fill="#212121"/>
<rect x="1218" y="864" width="24" height="4" transform="rotate(-90 1218 864)" fill="#212121"/>
<rect width="24" height="24" transform="matrix(3.0598e-07 1 1 -3.0598e-07 1224 840)" fill="#212121"/>
<rect width="24" height="24" transform="matrix(-1 2.62268e-07 2.62268e-07 1 1176 840)" fill="#212121"/>
<rect width="24" height="4" transform="matrix(-3.0598e-07 1 1 3.0598e-07 1824 600)" fill="#212121"/>
<rect width="24" height="4" transform="matrix(-3.0598e-07 1 1 3.0598e-07 1830 600)" fill="#212121"/>
<rect width="24" height="4" transform="matrix(-3.0598e-07 1 1 3.0598e-07 1836 600)" fill="#212121"/>
<rect width="24" height="4" transform="matrix(-3.0598e-07 1 1 3.0598e-07 1842 600)" fill="#212121"/>
<rect width="24" height="4" transform="matrix(-3.0598e-07 1 1 3.0598e-07 1848 600)" fill="#212121"/>
<rect width="24" height="4" transform="matrix(-3.0598e-07 1 1 3.0598e-07 1854 600)" fill="#212121"/>
<rect width="24" height="4" transform="matrix(-3.0598e-07 1 1 3.0598e-07 1860 600)" fill="#212121"/>
<rect width="24" height="4" transform="matrix(-3.0598e-07 1 1 3.0598e-07 1866 600)" fill="#212121"/>
<rect x="1872" y="624" width="24" height="24" transform="rotate(-90 1872 624)" fill="#212121"/>
<rect width="24" height="4" transform="matrix(-3.0598e-07 1 1 3.0598e-07 1752 600)" fill="#212121"/>
<rect width="24" height="4" transform="matrix(-3.0598e-07 1 1 3.0598e-07 1758 600)" fill="#212121"/>
<rect width="24" height="4" transform="matrix(-3.0598e-07 1 1 3.0598e-07 1764 600)" fill="#212121"/>
<rect width="24" height="4" transform="matrix(-3.0598e-07 1 1 3.0598e-07 1770 600)" fill="#212121"/>
<rect width="24" height="4" transform="matrix(-3.0598e-07 1 1 3.0598e-07 1776 600)" fill="#212121"/>
<rect width="24" height="4" transform="matrix(-3.0598e-07 1 1 3.0598e-07 1782 600)" fill="#212121"/>
<rect width="24" height="4" transform="matrix(-3.0598e-07 1 1 3.0598e-07 1788 600)" fill="#212121"/>
<rect width="24" height="4" transform="matrix(-3.0598e-07 1 1 3.0598e-07 1794 600)" fill="#212121"/>
<rect x="1800" y="624" width="24" height="24" transform="rotate(-90 1800 624)" fill="#212121"/>
<rect x="1752" y="624" width="24" height="24" transform="rotate(-180 1752 624)" fill="#212121"/>
<rect x="1824" y="888" width="24" height="4" transform="rotate(-90 1824 888)" fill="#212121"/>
<rect x="1830" y="888" width="24" height="4" transform="rotate(-90 1830 888)" fill="#212121"/>
<rect x="1836" y="888" width="24" height="4" transform="rotate(-90 1836 888)" fill="#212121"/>
<rect x="1842" y="888" width="24" height="4" transform="rotate(-90 1842 888)" fill="#212121"/>
<rect x="1848" y="888" width="24" height="4" transform="rotate(-90 1848 888)" fill="#212121"/>
<rect x="1854" y="888" width="24" height="4" transform="rotate(-90 1854 888)" fill="#212121"/>
<rect x="1860" y="888" width="24" height="4" transform="rotate(-90 1860 888)" fill="#212121"/>
<rect x="1866" y="888" width="24" height="4" transform="rotate(-90 1866 888)" fill="#212121"/>
<rect width="24" height="24" transform="matrix(3.0598e-07 1 1 -3.0598e-07 1872 864)" fill="#212121"/>
<rect x="1752" y="888" width="24" height="4" transform="rotate(-90 1752 888)" fill="#212121"/>
<rect x="1758" y="888" width="24" height="4" transform="rotate(-90 1758 888)" fill="#212121"/>
<rect x="1764" y="888" width="24" height="4" transform="rotate(-90 1764 888)" fill="#212121"/>
<rect x="1770" y="888" width="24" height="4" transform="rotate(-90 1770 888)" fill="#212121"/>
<rect x="1776" y="888" width="24" height="4" transform="rotate(-90 1776 888)" fill="#212121"/>
<rect x="1782" y="888" width="24" height="4" transform="rotate(-90 1782 888)" fill="#212121"/>
<rect x="1788" y="888" width="24" height="4" transform="rotate(-90 1788 888)" fill="#212121"/>
<rect x="1794" y="888" width="24" height="4" transform="rotate(-90 1794 888)" fill="#212121"/>
<rect width="24" height="24" transform="matrix(3.0598e-07 1 1 -3.0598e-07 1800 864)" fill="#212121"/>
<rect width="24" height="24" transform="matrix(-1 2.62268e-07 2.62268e-07 1 1752 864)" fill="#212121"/>
<rect width="24" height="4" transform="matrix(-3.0598e-07 1 1 3.0598e-07 2064 600)" fill="#212121"/>
<rect width="24" height="4" transform="matrix(-3.0598e-07 1 1 3.0598e-07 2070 600)" fill="#212121"/>
<rect width="24" height="4" transform="matrix(-3.0598e-07 1 1 3.0598e-07 2076 600)" fill="#212121"/>
<rect width="24" height="4" transform="matrix(-3.0598e-07 1 1 3.0598e-07 2082 600)" fill="#212121"/>
<rect width="24" height="4" transform="matrix(-3.0598e-07 1 1 3.0598e-07 2088 600)" fill="#212121"/>
<rect width="24" height="4" transform="matrix(-3.0598e-07 1 1 3.0598e-07 2094 600)" fill="#212121"/>
<rect width="24" height="4" transform="matrix(-3.0598e-07 1 1 3.0598e-07 2100 600)" fill="#212121"/>
<rect width="24" height="4" transform="matrix(-3.0598e-07 1 1 3.0598e-07 2106 600)" fill="#212121"/>
<rect x="2112" y="624" width="24" height="24" transform="rotate(-90 2112 624)" fill="#212121"/>
<rect width="24" height="4" transform="matrix(-3.0598e-07 1 1 3.0598e-07 1992 600)" fill="#212121"/>
<rect width="24" height="4" transform="matrix(-3.0598e-07 1 1 3.0598e-07 1998 600)" fill="#212121"/>
<rect width="24" height="4" transform="matrix(-3.0598e-07 1 1 3.0598e-07 2004 600)" fill="#212121"/>
<rect width="24" height="4" transform="matrix(-3.0598e-07 1 1 3.0598e-07 2010 600)" fill="#212121"/>
<rect width="24" height="4" transform="matrix(-3.0598e-07 1 1 3.0598e-07 2016 600)" fill="#212121"/>
<rect width="24" height="4" transform="matrix(-3.0598e-07 1 1 3.0598e-07 2022 600)" fill="#212121"/>
<rect width="24" height="4" transform="matrix(-3.0598e-07 1 1 3.0598e-07 2028 600)" fill="#212121"/>
<rect width="24" height="4" transform="matrix(-3.0598e-07 1 1 3.0598e-07 2034 600)" fill="#212121"/>
<rect x="2040" y="624" width="24" height="24" transform="rotate(-90 2040 624)" fill="#212121"/>
<rect x="1992" y="624" width="24" height="24" transform="rotate(-180 1992 624)" fill="#212121"/>
<rect x="2064" y="888" width="24" height="4" transform="rotate(-90 2064 888)" fill="#212121"/>
<rect x="2070" y="888" width="24" height="4" transform="rotate(-90 2070 888)" fill="#212121"/>
<rect x="2076" y="888" width="24" height="4" transform="rotate(-90 2076 888)" fill="#212121"/>
<rect x="2082" y="888" width="24" height="4" transform="rotate(-90 2082 888)" fill="#212121"/>
<rect x="2088" y="888" width="24" height="4" transform="rotate(-90 2088 888)" fill="#212121"/>
<rect x="2094" y="888" width="24" height="4" transform="rotate(-90 2094 888)" fill="#212121"/>
<rect x="2100" y="888" width="24" height="4" transform="rotate(-90 2100 888)" fill="#212121"/>
<rect x="2106" y="888" width="24" height="4" transform="rotate(-90 2106 888)" fill="#212121"/>
<rect width="24" height="24" transform="matrix(3.0598e-07 1 1 -3.0598e-07 2112 864)" fill="#212121"/>
<rect x="1992" y="888" width="24" height="4" transform="rotate(-90 1992 888)" fill="#212121"/>
<rect x="1998" y="888" width="24" height="4" transform="rotate(-90 1998 888)" fill="#212121"/>
<rect x="2004" y="888" width="24" height="4" transform="rotate(-90 2004 888)" fill="#212121"/>
<rect x="2010" y="888" width="24" height="4" transform="rotate(-90 2010 888)" fill="#212121"/>
<rect x="2016" y="888" width="24" height="4" transform="rotate(-90 2016 888)" fill="#212121"/>
<rect x="2022" y="888" width="24" height="4" transform="rotate(-90 2022 888)" fill="#212121"/>
<rect x="2028" y="888" width="24" height="4" transform="rotate(-90 2028 888)" fill="#212121"/>
<rect x="2034" y="888" width="24" height="4" transform="rotate(-90 2034 888)" fill="#212121"/>
<rect width="24" height="24" transform="matrix(3.0598e-07 1 1 -3.0598e-07 2040 864)" fill="#212121"/>
<rect width="24" height="24" transform="matrix(-1 2.62268e-07 2.62268e-07 1 1992 864)" fill="#212121"/>
<rect width="24" height="4" transform="matrix(-3.0598e-07 1 1 3.0598e-07 1824 624)" fill="#212121"/>
<rect width="24" height="4" transform="matrix(-3.0598e-07 1 1 3.0598e-07 1830 624)" fill="#212121"/>
<rect width="24" height="4" transform="matrix(-3.0598e-07 1 1 3.0598e-07 1836 624)" fill="#212121"/>
<rect width="24" height="4" transform="matrix(-3.0598e-07 1 1 3.0598e-07 1842 624)" fill="#212121"/>
<rect width="24" height="4" transform="matrix(-3.0598e-07 1 1 3.0598e-07 1848 624)" fill="#212121"/>
<rect width="24" height="4" transform="matrix(-3.0598e-07 1 1 3.0598e-07 1854 624)" fill="#212121"/>
<rect width="24" height="4" transform="matrix(-3.0598e-07 1 1 3.0598e-07 1860 624)" fill="#212121"/>
<rect width="24" height="4" transform="matrix(-3.0598e-07 1 1 3.0598e-07 1866 624)" fill="#212121"/>
<rect x="1872" y="648" width="24" height="24" transform="rotate(-90 1872 648)" fill="#212121"/>
<rect width="24" height="4" transform="matrix(-3.0598e-07 1 1 3.0598e-07 1752 624)" fill="#212121"/>
<rect width="24" height="4" transform="matrix(-3.0598e-07 1 1 3.0598e-07 1758 624)" fill="#212121"/>
<rect width="24" height="4" transform="matrix(-3.0598e-07 1 1 3.0598e-07 1764 624)" fill="#212121"/>
<rect width="24" height="4" transform="matrix(-3.0598e-07 1 1 3.0598e-07 1770 624)" fill="#212121"/>
<rect width="24" height="4" transform="matrix(-3.0598e-07 1 1 3.0598e-07 1776 624)" fill="#212121"/>
<rect width="24" height="4" transform="matrix(-3.0598e-07 1 1 3.0598e-07 1782 624)" fill="#212121"/>
<rect width="24" height="4" transform="matrix(-3.0598e-07 1 1 3.0598e-07 1788 624)" fill="#212121"/>
<rect width="24" height="4" transform="matrix(-3.0598e-07 1 1 3.0598e-07 1794 624)" fill="#212121"/>
<rect x="1800" y="648" width="24" height="24" transform="rotate(-90 1800 648)" fill="#212121"/>
<rect x="1752" y="648" width="24" height="24" transform="rotate(-180 1752 648)" fill="#212121"/>
<rect x="1824" y="864" width="24" height="4" transform="rotate(-90 1824 864)" fill="#212121"/>
<rect x="1830" y="864" width="24" height="4" transform="rotate(-90 1830 864)" fill="#212121"/>
<rect x="1836" y="864" width="24" height="4" transform="rotate(-90 1836 864)" fill="#212121"/>
<rect x="1842" y="864" width="24" height="4" transform="rotate(-90 1842 864)" fill="#212121"/>
<rect x="1848" y="864" width="24" height="4" transform="rotate(-90 1848 864)" fill="#212121"/>
<rect x="1854" y="864" width="24" height="4" transform="rotate(-90 1854 864)" fill="#212121"/>
<rect x="1860" y="864" width="24" height="4" transform="rotate(-90 1860 864)" fill="#212121"/>
<rect x="1866" y="864" width="24" height="4" transform="rotate(-90 1866 864)" fill="#212121"/>
<rect width="24" height="24" transform="matrix(3.0598e-07 1 1 -3.0598e-07 1872 840)" fill="#212121"/>
<rect x="1752" y="864" width="24" height="4" transform="rotate(-90 1752 864)" fill="#212121"/>
<rect x="1758" y="864" width="24" height="4" transform="rotate(-90 1758 864)" fill="#212121"/>
<rect x="1764" y="864" width="24" height="4" transform="rotate(-90 1764 864)" fill="#212121"/>
<rect x="1770" y="864" width="24" height="4" transform="rotate(-90 1770 864)" fill="#212121"/>
<rect x="1776" y="864" width="24" height="4" transform="rotate(-90 1776 864)" fill="#212121"/>
<rect x="1782" y="864" width="24" height="4" transform="rotate(-90 1782 864)" fill="#212121"/>
<rect x="1788" y="864" width="24" height="4" transform="rotate(-90 1788 864)" fill="#212121"/>
<rect x="1794" y="864" width="24" height="4" transform="rotate(-90 1794 864)" fill="#212121"/>
<rect width="24" height="24" transform="matrix(3.0598e-07 1 1 -3.0598e-07 1800 840)" fill="#212121"/>
<rect width="24" height="24" transform="matrix(-1 2.62268e-07 2.62268e-07 1 1752 840)" fill="#212121"/>
<defs>
<filter id="filter0_d_1119_34144" x="596" y="812" width="1604" height="116" filterUnits="userSpaceOnUse" color-interpolation-filters="sRGB">
<feFlood flood-opacity="0" result="BackgroundImageFix"/>
<feColorMatrix in="SourceAlpha" type="matrix" values="0 0 0 0 0 0 0 0 0 0 0 0 0 0 0 0 0 0 127 0" result="hardAlpha"/>
<feOffset dx="8" dy="8"/>
<feGaussianBlur stdDeviation="2"/>
<feComposite in2="hardAlpha" operator="out"/>
<feColorMatrix type="matrix" values="0 0 0 0 0 0 0 0 0 0 0 0 0 0 0 0 0 0 0.4 0"/>
<feBlend mode="normal" in2="BackgroundImageFix" result="effect1_dropShadow_1119_34144"/>
<feBlend mode="normal" in="SourceGraphic" in2="effect1_dropShadow_1119_34144" result="shape"/>
</filter>
<filter id="filter1_d_1119_34144" x="596" y="596" width="1604" height="92" filterUnits="userSpaceOnUse" color-interpolation-filters="sRGB">
<feFlood flood-opacity="0" result="BackgroundImageFix"/>
<feColorMatrix in="SourceAlpha" type="matrix" values="0 0 0 0 0 0 0 0 0 0 0 0 0 0 0 0 0 0 127 0" result="hardAlpha"/>
<feOffset dx="8" dy="8"/>
<feGaussianBlur stdDeviation="2"/>
<feComposite in2="hardAlpha" operator="out"/>
<feColorMatrix type="matrix" values="0 0 0 0 0 0 0 0 0 0 0 0 0 0 0 0 0 0 0.4 0"/>
<feBlend mode="normal" in2="BackgroundImageFix" result="effect1_dropShadow_1119_34144"/>
<feBlend mode="normal" in="SourceGraphic" in2="effect1_dropShadow_1119_34144" result="shape"/>
</filter>
</defs>
</svg>
