<svg width="2880" height="1440" viewBox="0 0 2880 1440" fill="none" xmlns="http://www.w3.org/2000/svg">
<mask id="path-1-inside-1_1119_38900" fill="white">
<path d="M576 552H2280V792H576V552Z"/>
</mask>
<path d="M576 552H2280V792H576V552Z" fill="#EEEEEE"/>
<path d="M576 556H2280V548H576V556ZM2280 788H576V796H2280V788Z" fill="#474747" mask="url(#path-1-inside-1_1119_38900)"/>
<g filter="url(#filter0_d_1119_38900)">
<path d="M576 600H2280V744H576V600Z" fill="#D9D9D9"/>
<path d="M2282 598V746H574V598H2282Z" stroke="#474747" stroke-width="4"/>
</g>
<rect width="24" height="4" transform="matrix(-1.31134e-07 1 1 1.31134e-07 1080 672)" fill="#242424"/>
<rect width="24" height="4" transform="matrix(-1.31134e-07 1 1 1.31134e-07 1086 672)" fill="#242424"/>
<rect width="24" height="4" transform="matrix(-1.31134e-07 1 1 1.31134e-07 1092 672)" fill="#242424"/>
<rect width="24" height="4" transform="matrix(-1.31134e-07 1 1 1.31134e-07 1098 672)" fill="#242424"/>
<rect width="24" height="4" transform="matrix(-1.31134e-07 1 1 1.31134e-07 1104 672)" fill="#242424"/>
<rect width="24" height="4" transform="matrix(-1.31134e-07 1 1 1.31134e-07 1110 672)" fill="#242424"/>
<rect width="24" height="4" transform="matrix(-1.31134e-07 1 1 1.31134e-07 1116 672)" fill="#242424"/>
<rect width="24" height="4" transform="matrix(-1.31134e-07 1 1 1.31134e-07 1122 672)" fill="#242424"/>
<rect x="1128" y="696" width="24" height="24" transform="rotate(-90 1128 696)" fill="#242424"/>
<rect width="24" height="4" transform="matrix(-1.31134e-07 1 1 1.31134e-07 1008 672)" fill="#242424"/>
<rect width="24" height="4" transform="matrix(-1.31134e-07 1 1 1.31134e-07 1014 672)" fill="#242424"/>
<rect width="24" height="4" transform="matrix(-1.31134e-07 1 1 1.31134e-07 1020 672)" fill="#242424"/>
<rect width="24" height="4" transform="matrix(-1.31134e-07 1 1 1.31134e-07 1026 672)" fill="#242424"/>
<rect width="24" height="4" transform="matrix(-1.31134e-07 1 1 1.31134e-07 1032 672)" fill="#242424"/>
<rect width="24" height="4" transform="matrix(-1.31134e-07 1 1 1.31134e-07 1038 672)" fill="#242424"/>
<rect width="24" height="4" transform="matrix(-1.31134e-07 1 1 1.31134e-07 1044 672)" fill="#242424"/>
<rect width="24" height="4" transform="matrix(-1.31134e-07 1 1 1.31134e-07 1050 672)" fill="#242424"/>
<rect x="1056" y="696" width="24" height="24" transform="rotate(-90 1056 696)" fill="#242424"/>
<rect x="1008" y="696" width="24" height="24" transform="rotate(-180 1008 696)" fill="#242424"/>
<rect width="24" height="4" transform="matrix(-1.31134e-07 1 1 1.31134e-07 1296 672)" fill="#242424"/>
<rect width="24" height="4" transform="matrix(-1.31134e-07 1 1 1.31134e-07 1302 672)" fill="#242424"/>
<rect width="24" height="4" transform="matrix(-1.31134e-07 1 1 1.31134e-07 1308 672)" fill="#242424"/>
<rect width="24" height="4" transform="matrix(-1.31134e-07 1 1 1.31134e-07 1314 672)" fill="#242424"/>
<rect width="24" height="4" transform="matrix(-1.31134e-07 1 1 1.31134e-07 1320 672)" fill="#242424"/>
<rect width="24" height="4" transform="matrix(-1.31134e-07 1 1 1.31134e-07 1326 672)" fill="#242424"/>
<rect width="24" height="4" transform="matrix(-1.31134e-07 1 1 1.31134e-07 1332 672)" fill="#242424"/>
<rect width="24" height="4" transform="matrix(-1.31134e-07 1 1 1.31134e-07 1338 672)" fill="#242424"/>
<rect x="1344" y="696" width="24" height="24" transform="rotate(-90 1344 696)" fill="#242424"/>
<rect width="24" height="4" transform="matrix(-1.31134e-07 1 1 1.31134e-07 1224 672)" fill="#242424"/>
<rect width="24" height="4" transform="matrix(-1.31134e-07 1 1 1.31134e-07 1230 672)" fill="#242424"/>
<rect width="24" height="4" transform="matrix(-1.31134e-07 1 1 1.31134e-07 1236 672)" fill="#242424"/>
<rect width="24" height="4" transform="matrix(-1.31134e-07 1 1 1.31134e-07 1242 672)" fill="#242424"/>
<rect width="24" height="4" transform="matrix(-1.31134e-07 1 1 1.31134e-07 1248 672)" fill="#242424"/>
<rect width="24" height="4" transform="matrix(-1.31134e-07 1 1 1.31134e-07 1254 672)" fill="#242424"/>
<rect width="24" height="4" transform="matrix(-1.31134e-07 1 1 1.31134e-07 1260 672)" fill="#242424"/>
<rect width="24" height="4" transform="matrix(-1.31134e-07 1 1 1.31134e-07 1266 672)" fill="#242424"/>
<rect x="1272" y="696" width="24" height="24" transform="rotate(-90 1272 696)" fill="#242424"/>
<rect x="1224" y="696" width="24" height="24" transform="rotate(-180 1224 696)" fill="#242424"/>
<rect width="24" height="4" transform="matrix(-1.31134e-07 1 1 1.31134e-07 1800 672)" fill="#242424"/>
<rect width="24" height="4" transform="matrix(-1.31134e-07 1 1 1.31134e-07 1806 672)" fill="#242424"/>
<rect width="24" height="4" transform="matrix(-1.31134e-07 1 1 1.31134e-07 1812 672)" fill="#242424"/>
<rect width="24" height="4" transform="matrix(-1.31134e-07 1 1 1.31134e-07 1818 672)" fill="#242424"/>
<rect width="24" height="4" transform="matrix(-1.31134e-07 1 1 1.31134e-07 1824 672)" fill="#242424"/>
<rect width="24" height="4" transform="matrix(-1.31134e-07 1 1 1.31134e-07 1830 672)" fill="#242424"/>
<rect width="24" height="4" transform="matrix(-1.31134e-07 1 1 1.31134e-07 1836 672)" fill="#242424"/>
<rect width="24" height="4" transform="matrix(-1.31134e-07 1 1 1.31134e-07 1842 672)" fill="#242424"/>
<rect x="1848" y="696" width="24" height="24" transform="rotate(-90 1848 696)" fill="#242424"/>
<rect width="24" height="4" transform="matrix(-1.31134e-07 1 1 1.31134e-07 1728 672)" fill="#242424"/>
<rect width="24" height="4" transform="matrix(-1.31134e-07 1 1 1.31134e-07 1734 672)" fill="#242424"/>
<rect width="24" height="4" transform="matrix(-1.31134e-07 1 1 1.31134e-07 1740 672)" fill="#242424"/>
<rect width="24" height="4" transform="matrix(-1.31134e-07 1 1 1.31134e-07 1746 672)" fill="#242424"/>
<rect width="24" height="4" transform="matrix(-1.31134e-07 1 1 1.31134e-07 1752 672)" fill="#242424"/>
<rect width="24" height="4" transform="matrix(-1.31134e-07 1 1 1.31134e-07 1758 672)" fill="#242424"/>
<rect width="24" height="4" transform="matrix(-1.31134e-07 1 1 1.31134e-07 1764 672)" fill="#242424"/>
<rect width="24" height="4" transform="matrix(-1.31134e-07 1 1 1.31134e-07 1770 672)" fill="#242424"/>
<rect x="1776" y="696" width="24" height="24" transform="rotate(-90 1776 696)" fill="#242424"/>
<rect x="1728" y="696" width="24" height="24" transform="rotate(-180 1728 696)" fill="#242424"/>
<rect width="24" height="4" transform="matrix(-1.31134e-07 1 1 1.31134e-07 1080 648)" fill="#242424"/>
<rect width="24" height="4" transform="matrix(-1.31134e-07 1 1 1.31134e-07 1086 648)" fill="#242424"/>
<rect width="24" height="4" transform="matrix(-1.31134e-07 1 1 1.31134e-07 1092 648)" fill="#242424"/>
<rect width="24" height="4" transform="matrix(-1.31134e-07 1 1 1.31134e-07 1098 648)" fill="#242424"/>
<rect width="24" height="4" transform="matrix(-1.31134e-07 1 1 1.31134e-07 1104 648)" fill="#242424"/>
<rect width="24" height="4" transform="matrix(-1.31134e-07 1 1 1.31134e-07 1110 648)" fill="#242424"/>
<rect width="24" height="4" transform="matrix(-1.31134e-07 1 1 1.31134e-07 1116 648)" fill="#242424"/>
<rect width="24" height="4" transform="matrix(-1.31134e-07 1 1 1.31134e-07 1122 648)" fill="#242424"/>
<rect x="1128" y="672" width="24" height="24" transform="rotate(-90 1128 672)" fill="#242424"/>
<rect width="24" height="4" transform="matrix(-1.31134e-07 1 1 1.31134e-07 1008 648)" fill="#242424"/>
<rect width="24" height="4" transform="matrix(-1.31134e-07 1 1 1.31134e-07 1014 648)" fill="#242424"/>
<rect width="24" height="4" transform="matrix(-1.31134e-07 1 1 1.31134e-07 1020 648)" fill="#242424"/>
<rect width="24" height="4" transform="matrix(-1.31134e-07 1 1 1.31134e-07 1026 648)" fill="#242424"/>
<rect width="24" height="4" transform="matrix(-1.31134e-07 1 1 1.31134e-07 1032 648)" fill="#242424"/>
<rect width="24" height="4" transform="matrix(-1.31134e-07 1 1 1.31134e-07 1038 648)" fill="#242424"/>
<rect width="24" height="4" transform="matrix(-1.31134e-07 1 1 1.31134e-07 1044 648)" fill="#242424"/>
<rect width="24" height="4" transform="matrix(-1.31134e-07 1 1 1.31134e-07 1050 648)" fill="#242424"/>
<rect x="1056" y="672" width="24" height="24" transform="rotate(-90 1056 672)" fill="#242424"/>
<rect x="1008" y="672" width="24" height="24" transform="rotate(-180 1008 672)" fill="#242424"/>
<rect width="24" height="4" transform="matrix(-1.31134e-07 1 1 1.31134e-07 1296 648)" fill="#242424"/>
<rect width="24" height="4" transform="matrix(-1.31134e-07 1 1 1.31134e-07 1302 648)" fill="#242424"/>
<rect width="24" height="4" transform="matrix(-1.31134e-07 1 1 1.31134e-07 1308 648)" fill="#242424"/>
<rect width="24" height="4" transform="matrix(-1.31134e-07 1 1 1.31134e-07 1314 648)" fill="#242424"/>
<rect width="24" height="4" transform="matrix(-1.31134e-07 1 1 1.31134e-07 1320 648)" fill="#242424"/>
<rect width="24" height="4" transform="matrix(-1.31134e-07 1 1 1.31134e-07 1326 648)" fill="#242424"/>
<rect width="24" height="4" transform="matrix(-1.31134e-07 1 1 1.31134e-07 1332 648)" fill="#242424"/>
<rect width="24" height="4" transform="matrix(-1.31134e-07 1 1 1.31134e-07 1338 648)" fill="#242424"/>
<rect x="1344" y="672" width="24" height="24" transform="rotate(-90 1344 672)" fill="#242424"/>
<rect width="24" height="4" transform="matrix(-1.31134e-07 1 1 1.31134e-07 1224 648)" fill="#242424"/>
<rect width="24" height="4" transform="matrix(-1.31134e-07 1 1 1.31134e-07 1230 648)" fill="#242424"/>
<rect width="24" height="4" transform="matrix(-1.31134e-07 1 1 1.31134e-07 1236 648)" fill="#242424"/>
<rect width="24" height="4" transform="matrix(-1.31134e-07 1 1 1.31134e-07 1242 648)" fill="#242424"/>
<rect width="24" height="4" transform="matrix(-1.31134e-07 1 1 1.31134e-07 1248 648)" fill="#242424"/>
<rect width="24" height="4" transform="matrix(-1.31134e-07 1 1 1.31134e-07 1254 648)" fill="#242424"/>
<rect width="24" height="4" transform="matrix(-1.31134e-07 1 1 1.31134e-07 1260 648)" fill="#242424"/>
<rect width="24" height="4" transform="matrix(-1.31134e-07 1 1 1.31134e-07 1266 648)" fill="#242424"/>
<rect x="1272" y="672" width="24" height="24" transform="rotate(-90 1272 672)" fill="#242424"/>
<rect x="1224" y="672" width="24" height="24" transform="rotate(-180 1224 672)" fill="#242424"/>
<rect width="24" height="4" transform="matrix(-1.31134e-07 1 1 1.31134e-07 1800 648)" fill="#242424"/>
<rect width="24" height="4" transform="matrix(-1.31134e-07 1 1 1.31134e-07 1806 648)" fill="#242424"/>
<rect width="24" height="4" transform="matrix(-1.31134e-07 1 1 1.31134e-07 1812 648)" fill="#242424"/>
<rect width="24" height="4" transform="matrix(-1.31134e-07 1 1 1.31134e-07 1818 648)" fill="#242424"/>
<rect width="24" height="4" transform="matrix(-1.31134e-07 1 1 1.31134e-07 1824 648)" fill="#242424"/>
<rect width="24" height="4" transform="matrix(-1.31134e-07 1 1 1.31134e-07 1830 648)" fill="#242424"/>
<rect width="24" height="4" transform="matrix(-1.31134e-07 1 1 1.31134e-07 1836 648)" fill="#242424"/>
<rect width="24" height="4" transform="matrix(-1.31134e-07 1 1 1.31134e-07 1842 648)" fill="#242424"/>
<rect x="1848" y="672" width="24" height="24" transform="rotate(-90 1848 672)" fill="#242424"/>
<rect width="24" height="4" transform="matrix(-1.31134e-07 1 1 1.31134e-07 1728 648)" fill="#242424"/>
<rect width="24" height="4" transform="matrix(-1.31134e-07 1 1 1.31134e-07 1734 648)" fill="#242424"/>
<rect width="24" height="4" transform="matrix(-1.31134e-07 1 1 1.31134e-07 1740 648)" fill="#242424"/>
<rect width="24" height="4" transform="matrix(-1.31134e-07 1 1 1.31134e-07 1746 648)" fill="#242424"/>
<rect width="24" height="4" transform="matrix(-1.31134e-07 1 1 1.31134e-07 1752 648)" fill="#242424"/>
<rect width="24" height="4" transform="matrix(-1.31134e-07 1 1 1.31134e-07 1758 648)" fill="#242424"/>
<rect width="24" height="4" transform="matrix(-1.31134e-07 1 1 1.31134e-07 1764 648)" fill="#242424"/>
<rect width="24" height="4" transform="matrix(-1.31134e-07 1 1 1.31134e-07 1770 648)" fill="#242424"/>
<rect x="1776" y="672" width="24" height="24" transform="rotate(-90 1776 672)" fill="#242424"/>
<rect x="1728" y="672" width="24" height="24" transform="rotate(-180 1728 672)" fill="#242424"/>
<rect width="48" height="48" transform="translate(1416 648)" fill="#242424"/>
<path d="M1447.97 676.849C1447.95 676.776 1447.91 676.707 1447.86 676.648C1447.8 676.59 1447.74 676.542 1447.67 676.507C1447.6 676.472 1447.53 676.451 1447.45 676.446C1447.37 676.44 1447.29 676.45 1447.22 676.475L1445.93 676.905L1443.79 672.623C1443.74 672.525 1443.66 672.442 1443.57 672.384C1443.48 672.326 1443.37 672.296 1443.26 672.296L1437.33 672.296L1437.33 670.518L1441.48 670.518C1441.64 670.518 1441.79 670.455 1441.9 670.344C1442.01 670.233 1442.07 670.082 1442.07 669.925C1442.07 669.768 1442.01 669.617 1441.9 669.506C1441.79 669.395 1441.64 669.333 1441.48 669.333L1437.33 669.333L1437.33 668.666C1437.89 668.522 1438.38 668.179 1438.7 667.701C1439.02 667.223 1439.16 666.644 1439.09 666.072C1439.02 665.499 1438.74 664.973 1438.31 664.592C1437.87 664.21 1437.32 664 1436.74 664C1436.16 664 1435.6 664.21 1435.17 664.592C1434.74 664.973 1434.46 665.499 1434.39 666.072C1434.31 666.644 1434.45 667.223 1434.78 667.701C1435.1 668.179 1435.59 668.522 1436.15 668.666L1436.15 669.467C1434.87 669.759 1433.74 670.511 1432.98 671.58C1432.23 672.649 1431.89 673.96 1432.03 675.263C1432.18 676.565 1432.8 677.768 1433.78 678.642C1434.76 679.516 1436.02 679.999 1437.33 680C1439.81 680 1442.05 678.318 1442.65 676C1442.67 675.924 1442.67 675.846 1442.66 675.769C1442.65 675.692 1442.62 675.617 1442.58 675.55C1442.54 675.483 1442.49 675.425 1442.43 675.378C1442.37 675.331 1442.3 675.297 1442.22 675.277C1442.15 675.258 1442.07 675.254 1441.99 675.264C1441.91 675.275 1441.84 675.301 1441.77 675.341C1441.7 675.38 1441.65 675.433 1441.6 675.495C1441.55 675.557 1441.52 675.628 1441.5 675.703C1441.04 677.481 1439.25 678.815 1437.33 678.815C1436.33 678.814 1435.37 678.456 1434.62 677.804C1433.86 677.152 1433.37 676.251 1433.23 675.265C1433.08 674.279 1433.3 673.275 1433.83 672.435C1434.37 671.595 1435.19 670.976 1436.15 670.691L1436.15 672.888C1436.15 673.046 1436.21 673.196 1436.32 673.307C1436.43 673.419 1436.58 673.481 1436.74 673.481L1442.89 673.481L1445.1 677.895C1445.16 678.022 1445.27 678.122 1445.4 678.177C1445.53 678.231 1445.68 678.236 1445.82 678.191L1447.59 677.598C1447.74 677.549 1447.87 677.442 1447.94 677.301C1448.01 677.161 1448.02 676.998 1447.97 676.849ZM1435.55 666.369C1435.55 666.135 1435.62 665.906 1435.75 665.711C1435.88 665.516 1436.07 665.364 1436.28 665.274C1436.5 665.185 1436.74 665.161 1436.97 665.207C1437.2 665.253 1437.41 665.365 1437.58 665.531C1437.74 665.697 1437.86 665.908 1437.9 666.138C1437.95 666.368 1437.92 666.606 1437.83 666.823C1437.74 667.04 1437.59 667.225 1437.4 667.355C1437.2 667.485 1436.97 667.555 1436.74 667.555C1436.42 667.555 1436.12 667.43 1435.9 667.207C1435.68 666.985 1435.55 666.684 1435.55 666.369Z" fill="white"/>
<defs>
<filter id="filter0_d_1119_38900" x="572" y="596" width="1724" height="164" filterUnits="userSpaceOnUse" color-interpolation-filters="sRGB">
<feFlood flood-opacity="0" result="BackgroundImageFix"/>
<feColorMatrix in="SourceAlpha" type="matrix" values="0 0 0 0 0 0 0 0 0 0 0 0 0 0 0 0 0 0 127 0" result="hardAlpha"/>
<feOffset dx="8" dy="8"/>
<feGaussianBlur stdDeviation="2"/>
<feComposite in2="hardAlpha" operator="out"/>
<feColorMatrix type="matrix" values="0 0 0 0 0 0 0 0 0 0 0 0 0 0 0 0 0 0 0.4 0"/>
<feBlend mode="normal" in2="BackgroundImageFix" result="effect1_dropShadow_1119_38900"/>
<feBlend mode="normal" in="SourceGraphic" in2="effect1_dropShadow_1119_38900" result="shape"/>
</filter>
</defs>
</svg>
