<svg width="2880" height="1440" viewBox="0 0 2880 1440" fill="none" xmlns="http://www.w3.org/2000/svg">
<rect x="432" y="792" width="2016" height="336" fill="#EEEEEE"/>
<g filter="url(#filter0_d_1119_4265)">
<mask id="path-2-outside-1_1119_4265" maskUnits="userSpaceOnUse" x="428" y="620" width="2024" height="272" fill="black">
<rect fill="white" x="428" y="620" width="2024" height="272"/>
<path fill-rule="evenodd" clip-rule="evenodd" d="M1464 624H1416V672H744V792H432V888H2448V792H2136V672H1464V624Z"/>
</mask>
<path fill-rule="evenodd" clip-rule="evenodd" d="M1464 624H1416V672H744V792H432V888H2448V792H2136V672H1464V624Z" fill="#D9D9D9"/>
<path d="M1416 624V620H1412V624H1416ZM1464 624H1468V620H1464V624ZM1416 672V676H1420V672H1416ZM744 672V668H740V672H744ZM744 792V796H748V792H744ZM432 792V788H428V792H432ZM432 888H428V892H432V888ZM2448 888V892H2452V888H2448ZM2448 792H2452V788H2448V792ZM2136 792H2132V796H2136V792ZM2136 672H2140V668H2136V672ZM1464 672H1460V676H1464V672ZM1416 628H1464V620H1416V628ZM1420 672V624H1412V672H1420ZM1416 668H744V676H1416V668ZM740 672V792H748V672H740ZM744 788H432V796H744V788ZM428 792V888H436V792H428ZM432 892H2448V884H432V892ZM2452 888V792H2444V888H2452ZM2448 788H2136V796H2448V788ZM2140 792V672H2132V792H2140ZM2136 668H1464V676H2136V668ZM1460 624V672H1468V624H1460Z" fill="#474747" mask="url(#path-2-outside-1_1119_4265)"/>
</g>
<g filter="url(#filter1_d_1119_4265)">
<mask id="path-4-outside-2_1119_4265" maskUnits="userSpaceOnUse" x="428" y="1028" width="2024" height="272" fill="black">
<rect fill="white" x="428" y="1028" width="2024" height="272"/>
<path fill-rule="evenodd" clip-rule="evenodd" d="M1464 1296H1416V1248H744V1128H432V1032H2448V1128H2136V1248H1464V1296Z"/>
</mask>
<path fill-rule="evenodd" clip-rule="evenodd" d="M1464 1296H1416V1248H744V1128H432V1032H2448V1128H2136V1248H1464V1296Z" fill="#D9D9D9"/>
<path d="M1416 1296V1300H1412V1296H1416ZM1464 1296H1468V1300H1464V1296ZM1416 1248V1244H1420V1248H1416ZM744 1248V1252H740V1248H744ZM744 1128V1124H748V1128H744ZM432 1128V1132H428V1128H432ZM432 1032H428V1028H432V1032ZM2448 1032V1028H2452V1032H2448ZM2448 1128H2452V1132H2448V1128ZM2136 1128H2132V1124H2136V1128ZM2136 1248H2140V1252H2136V1248ZM1464 1248H1460V1244H1464V1248ZM1416 1292H1464V1300H1416V1292ZM1420 1248V1296H1412V1248H1420ZM1416 1252H744V1244H1416V1252ZM740 1248V1128H748V1248H740ZM744 1132H432V1124H744V1132ZM428 1128V1032H436V1128H428ZM432 1028H2448V1036H432V1028ZM2452 1032V1128H2444V1032H2452ZM2448 1132H2136V1124H2448V1132ZM2140 1128V1248H2132V1128H2140ZM2136 1252H1464V1244H2136V1252ZM1460 1296V1248H1468V1296H1460Z" fill="#474747" mask="url(#path-4-outside-2_1119_4265)"/>
</g>
<rect width="48" height="48" transform="translate(1416 624)" fill="#212121"/>
<path d="M1447.97 652.849C1447.95 652.776 1447.91 652.707 1447.86 652.648C1447.8 652.59 1447.74 652.542 1447.67 652.507C1447.6 652.472 1447.53 652.451 1447.45 652.446C1447.37 652.44 1447.29 652.45 1447.22 652.475L1445.93 652.905L1443.79 648.623C1443.74 648.525 1443.66 648.442 1443.57 648.384C1443.48 648.326 1443.37 648.296 1443.26 648.296H1437.33V646.518H1441.48C1441.64 646.518 1441.79 646.455 1441.9 646.344C1442.01 646.233 1442.07 646.082 1442.07 645.925C1442.07 645.768 1442.01 645.617 1441.9 645.506C1441.79 645.395 1441.64 645.333 1441.48 645.333H1437.33V644.666C1437.89 644.522 1438.38 644.179 1438.7 643.701C1439.02 643.223 1439.16 642.644 1439.09 642.072C1439.02 641.499 1438.74 640.973 1438.31 640.592C1437.87 640.21 1437.32 640 1436.74 640C1436.16 640 1435.6 640.21 1435.17 640.592C1434.74 640.973 1434.46 641.499 1434.39 642.072C1434.31 642.644 1434.45 643.223 1434.78 643.701C1435.1 644.179 1435.59 644.522 1436.15 644.666V645.467C1434.87 645.759 1433.74 646.511 1432.98 647.58C1432.23 648.649 1431.89 649.96 1432.03 651.263C1432.18 652.565 1432.8 653.768 1433.78 654.642C1434.76 655.516 1436.02 655.999 1437.33 656C1439.81 656 1442.05 654.318 1442.65 652C1442.67 651.924 1442.67 651.846 1442.66 651.769C1442.65 651.692 1442.62 651.617 1442.58 651.55C1442.54 651.483 1442.49 651.425 1442.43 651.378C1442.37 651.331 1442.3 651.297 1442.22 651.277C1442.15 651.258 1442.07 651.254 1441.99 651.264C1441.91 651.275 1441.84 651.301 1441.77 651.341C1441.7 651.38 1441.65 651.433 1441.6 651.495C1441.55 651.557 1441.52 651.628 1441.5 651.703C1441.04 653.481 1439.25 654.815 1437.33 654.815C1436.33 654.814 1435.37 654.456 1434.62 653.804C1433.86 653.152 1433.37 652.251 1433.23 651.265C1433.08 650.279 1433.3 649.275 1433.83 648.435C1434.37 647.595 1435.19 646.976 1436.15 646.691V648.888C1436.15 649.046 1436.21 649.196 1436.32 649.307C1436.43 649.419 1436.58 649.481 1436.74 649.481H1442.89L1445.1 653.895C1445.16 654.022 1445.27 654.122 1445.4 654.177C1445.53 654.231 1445.68 654.236 1445.82 654.191L1447.59 653.598C1447.74 653.549 1447.87 653.442 1447.94 653.301C1448.01 653.161 1448.02 652.998 1447.97 652.849ZM1435.55 642.369C1435.55 642.135 1435.62 641.906 1435.75 641.711C1435.88 641.516 1436.07 641.364 1436.28 641.274C1436.5 641.185 1436.74 641.161 1436.97 641.207C1437.2 641.253 1437.41 641.365 1437.58 641.531C1437.74 641.697 1437.86 641.908 1437.9 642.138C1437.95 642.368 1437.92 642.606 1437.83 642.823C1437.74 643.04 1437.59 643.225 1437.4 643.355C1437.2 643.485 1436.97 643.555 1436.74 643.555C1436.42 643.555 1436.12 643.43 1435.9 643.207C1435.68 642.985 1435.55 642.684 1435.55 642.369Z" fill="white"/>
<rect width="48" height="48" transform="translate(1416 1248)" fill="#212121"/>
<path d="M1447.97 1276.85C1447.95 1276.78 1447.91 1276.71 1447.86 1276.65C1447.8 1276.59 1447.74 1276.54 1447.67 1276.51C1447.6 1276.47 1447.53 1276.45 1447.45 1276.45C1447.37 1276.44 1447.29 1276.45 1447.22 1276.47L1445.93 1276.9L1443.79 1272.62C1443.74 1272.52 1443.66 1272.44 1443.57 1272.38C1443.48 1272.33 1443.37 1272.3 1443.26 1272.3H1437.33V1270.52H1441.48C1441.64 1270.52 1441.79 1270.46 1441.9 1270.34C1442.01 1270.23 1442.07 1270.08 1442.07 1269.93C1442.07 1269.77 1442.01 1269.62 1441.9 1269.51C1441.79 1269.39 1441.64 1269.33 1441.48 1269.33H1437.33V1268.67C1437.89 1268.52 1438.38 1268.18 1438.7 1267.7C1439.02 1267.22 1439.16 1266.64 1439.09 1266.07C1439.02 1265.5 1438.74 1264.97 1438.31 1264.59C1437.87 1264.21 1437.32 1264 1436.74 1264C1436.16 1264 1435.6 1264.21 1435.17 1264.59C1434.74 1264.97 1434.46 1265.5 1434.39 1266.07C1434.31 1266.64 1434.45 1267.22 1434.78 1267.7C1435.1 1268.18 1435.59 1268.52 1436.15 1268.67V1269.47C1434.87 1269.76 1433.74 1270.51 1432.98 1271.58C1432.23 1272.65 1431.89 1273.96 1432.03 1275.26C1432.18 1276.57 1432.8 1277.77 1433.78 1278.64C1434.76 1279.52 1436.02 1280 1437.33 1280C1439.81 1280 1442.05 1278.32 1442.65 1276C1442.67 1275.92 1442.67 1275.85 1442.66 1275.77C1442.65 1275.69 1442.62 1275.62 1442.58 1275.55C1442.54 1275.48 1442.49 1275.42 1442.43 1275.38C1442.37 1275.33 1442.3 1275.3 1442.22 1275.28C1442.15 1275.26 1442.07 1275.25 1441.99 1275.26C1441.91 1275.28 1441.84 1275.3 1441.77 1275.34C1441.7 1275.38 1441.65 1275.43 1441.6 1275.49C1441.55 1275.56 1441.52 1275.63 1441.5 1275.7C1441.04 1277.48 1439.25 1278.81 1437.33 1278.81C1436.33 1278.81 1435.37 1278.46 1434.62 1277.8C1433.86 1277.15 1433.37 1276.25 1433.23 1275.27C1433.08 1274.28 1433.3 1273.27 1433.83 1272.43C1434.37 1271.6 1435.19 1270.98 1436.15 1270.69V1272.89C1436.15 1273.05 1436.21 1273.2 1436.32 1273.31C1436.43 1273.42 1436.58 1273.48 1436.74 1273.48H1442.89L1445.1 1277.89C1445.16 1278.02 1445.27 1278.12 1445.4 1278.18C1445.53 1278.23 1445.68 1278.24 1445.82 1278.19L1447.59 1277.6C1447.74 1277.55 1447.87 1277.44 1447.94 1277.3C1448.01 1277.16 1448.02 1277 1447.97 1276.85ZM1435.55 1266.37C1435.55 1266.13 1435.62 1265.91 1435.75 1265.71C1435.88 1265.52 1436.07 1265.36 1436.28 1265.27C1436.5 1265.18 1436.74 1265.16 1436.97 1265.21C1437.2 1265.25 1437.41 1265.37 1437.58 1265.53C1437.74 1265.7 1437.86 1265.91 1437.9 1266.14C1437.95 1266.37 1437.92 1266.61 1437.83 1266.82C1437.74 1267.04 1437.59 1267.22 1437.4 1267.35C1437.2 1267.49 1436.97 1267.55 1436.74 1267.55C1436.42 1267.55 1436.12 1267.43 1435.9 1267.21C1435.68 1266.99 1435.55 1266.68 1435.55 1266.37Z" fill="white"/>
<rect width="24" height="4" transform="matrix(-1.31134e-07 1 1 1.31134e-07 1128 696)" fill="#212121"/>
<rect width="24" height="4" transform="matrix(-1.31134e-07 1 1 1.31134e-07 1134 696)" fill="#212121"/>
<rect width="24" height="4" transform="matrix(-1.31134e-07 1 1 1.31134e-07 1140 696)" fill="#212121"/>
<rect width="24" height="4" transform="matrix(-1.31134e-07 1 1 1.31134e-07 1146 696)" fill="#212121"/>
<rect width="24" height="4" transform="matrix(-1.31134e-07 1 1 1.31134e-07 1152 696)" fill="#212121"/>
<rect width="24" height="4" transform="matrix(-1.31134e-07 1 1 1.31134e-07 1158 696)" fill="#212121"/>
<rect width="24" height="4" transform="matrix(-1.31134e-07 1 1 1.31134e-07 1164 696)" fill="#212121"/>
<rect width="24" height="4" transform="matrix(-1.31134e-07 1 1 1.31134e-07 1170 696)" fill="#212121"/>
<rect x="1176" y="720" width="24" height="24" transform="rotate(-90 1176 720)" fill="#212121"/>
<rect width="24" height="4" transform="matrix(-1.31134e-07 1 1 1.31134e-07 1056 696)" fill="#212121"/>
<rect width="24" height="4" transform="matrix(-1.31134e-07 1 1 1.31134e-07 1062 696)" fill="#212121"/>
<rect width="24" height="4" transform="matrix(-1.31134e-07 1 1 1.31134e-07 1068 696)" fill="#212121"/>
<rect width="24" height="4" transform="matrix(-1.31134e-07 1 1 1.31134e-07 1074 696)" fill="#212121"/>
<rect width="24" height="4" transform="matrix(-1.31134e-07 1 1 1.31134e-07 1080 696)" fill="#212121"/>
<rect width="24" height="4" transform="matrix(-1.31134e-07 1 1 1.31134e-07 1086 696)" fill="#212121"/>
<rect width="24" height="4" transform="matrix(-1.31134e-07 1 1 1.31134e-07 1092 696)" fill="#212121"/>
<rect width="24" height="4" transform="matrix(-1.31134e-07 1 1 1.31134e-07 1098 696)" fill="#212121"/>
<rect x="1104" y="720" width="24" height="24" transform="rotate(-90 1104 720)" fill="#212121"/>
<rect x="1056" y="720" width="24" height="24" transform="rotate(-180 1056 720)" fill="#212121"/>
<rect width="24" height="4" transform="matrix(-1.31134e-07 1 1 1.31134e-07 1128 672)" fill="#212121"/>
<rect width="24" height="4" transform="matrix(-1.31134e-07 1 1 1.31134e-07 1134 672)" fill="#212121"/>
<rect width="24" height="4" transform="matrix(-1.31134e-07 1 1 1.31134e-07 1140 672)" fill="#212121"/>
<rect width="24" height="4" transform="matrix(-1.31134e-07 1 1 1.31134e-07 1146 672)" fill="#212121"/>
<rect width="24" height="4" transform="matrix(-1.31134e-07 1 1 1.31134e-07 1152 672)" fill="#212121"/>
<rect width="24" height="4" transform="matrix(-1.31134e-07 1 1 1.31134e-07 1158 672)" fill="#212121"/>
<rect width="24" height="4" transform="matrix(-1.31134e-07 1 1 1.31134e-07 1164 672)" fill="#212121"/>
<rect width="24" height="4" transform="matrix(-1.31134e-07 1 1 1.31134e-07 1170 672)" fill="#212121"/>
<rect x="1176" y="696" width="24" height="24" transform="rotate(-90 1176 696)" fill="#212121"/>
<rect width="24" height="4" transform="matrix(-1.31134e-07 1 1 1.31134e-07 1056 672)" fill="#212121"/>
<rect width="24" height="4" transform="matrix(-1.31134e-07 1 1 1.31134e-07 1062 672)" fill="#212121"/>
<rect width="24" height="4" transform="matrix(-1.31134e-07 1 1 1.31134e-07 1068 672)" fill="#212121"/>
<rect width="24" height="4" transform="matrix(-1.31134e-07 1 1 1.31134e-07 1074 672)" fill="#212121"/>
<rect width="24" height="4" transform="matrix(-1.31134e-07 1 1 1.31134e-07 1080 672)" fill="#212121"/>
<rect width="24" height="4" transform="matrix(-1.31134e-07 1 1 1.31134e-07 1086 672)" fill="#212121"/>
<rect width="24" height="4" transform="matrix(-1.31134e-07 1 1 1.31134e-07 1092 672)" fill="#212121"/>
<rect width="24" height="4" transform="matrix(-1.31134e-07 1 1 1.31134e-07 1098 672)" fill="#212121"/>
<rect x="1104" y="696" width="24" height="24" transform="rotate(-90 1104 696)" fill="#212121"/>
<rect x="1056" y="696" width="24" height="24" transform="rotate(-180 1056 696)" fill="#212121"/>
<rect width="24" height="4" transform="matrix(-1.31134e-07 1 1 1.31134e-07 1776 672)" fill="#212121"/>
<rect width="24" height="4" transform="matrix(-1.31134e-07 1 1 1.31134e-07 1782 672)" fill="#212121"/>
<rect width="24" height="4" transform="matrix(-1.31134e-07 1 1 1.31134e-07 1788 672)" fill="#212121"/>
<rect width="24" height="4" transform="matrix(-1.31134e-07 1 1 1.31134e-07 1794 672)" fill="#212121"/>
<rect width="24" height="4" transform="matrix(-1.31134e-07 1 1 1.31134e-07 1800 672)" fill="#212121"/>
<rect width="24" height="4" transform="matrix(-1.31134e-07 1 1 1.31134e-07 1806 672)" fill="#212121"/>
<rect width="24" height="4" transform="matrix(-1.31134e-07 1 1 1.31134e-07 1812 672)" fill="#212121"/>
<rect width="24" height="4" transform="matrix(-1.31134e-07 1 1 1.31134e-07 1818 672)" fill="#212121"/>
<rect x="1824" y="696" width="24" height="24" transform="rotate(-90 1824 696)" fill="#212121"/>
<rect width="24" height="4" transform="matrix(-1.31134e-07 1 1 1.31134e-07 1704 672)" fill="#212121"/>
<rect width="24" height="4" transform="matrix(-1.31134e-07 1 1 1.31134e-07 1710 672)" fill="#212121"/>
<rect width="24" height="4" transform="matrix(-1.31134e-07 1 1 1.31134e-07 1716 672)" fill="#212121"/>
<rect width="24" height="4" transform="matrix(-1.31134e-07 1 1 1.31134e-07 1722 672)" fill="#212121"/>
<rect width="24" height="4" transform="matrix(-1.31134e-07 1 1 1.31134e-07 1728 672)" fill="#212121"/>
<rect width="24" height="4" transform="matrix(-1.31134e-07 1 1 1.31134e-07 1734 672)" fill="#212121"/>
<rect width="24" height="4" transform="matrix(-1.31134e-07 1 1 1.31134e-07 1740 672)" fill="#212121"/>
<rect width="24" height="4" transform="matrix(-1.31134e-07 1 1 1.31134e-07 1746 672)" fill="#212121"/>
<rect x="1752" y="696" width="24" height="24" transform="rotate(-90 1752 696)" fill="#212121"/>
<rect x="1704" y="696" width="24" height="24" transform="rotate(-180 1704 696)" fill="#212121"/>
<rect width="24" height="4" transform="matrix(-1.31134e-07 1 1 1.31134e-07 1128 1200)" fill="#212121"/>
<rect width="24" height="4" transform="matrix(-1.31134e-07 1 1 1.31134e-07 1134 1200)" fill="#212121"/>
<rect width="24" height="4" transform="matrix(-1.31134e-07 1 1 1.31134e-07 1140 1200)" fill="#212121"/>
<rect width="24" height="4" transform="matrix(-1.31134e-07 1 1 1.31134e-07 1146 1200)" fill="#212121"/>
<rect width="24" height="4" transform="matrix(-1.31134e-07 1 1 1.31134e-07 1152 1200)" fill="#212121"/>
<rect width="24" height="4" transform="matrix(-1.31134e-07 1 1 1.31134e-07 1158 1200)" fill="#212121"/>
<rect width="24" height="4" transform="matrix(-1.31134e-07 1 1 1.31134e-07 1164 1200)" fill="#212121"/>
<rect width="24" height="4" transform="matrix(-1.31134e-07 1 1 1.31134e-07 1170 1200)" fill="#212121"/>
<rect x="1176" y="1224" width="24" height="24" transform="rotate(-90 1176 1224)" fill="#212121"/>
<rect width="24" height="4" transform="matrix(-1.31134e-07 1 1 1.31134e-07 1056 1200)" fill="#212121"/>
<rect width="24" height="4" transform="matrix(-1.31134e-07 1 1 1.31134e-07 1062 1200)" fill="#212121"/>
<rect width="24" height="4" transform="matrix(-1.31134e-07 1 1 1.31134e-07 1068 1200)" fill="#212121"/>
<rect width="24" height="4" transform="matrix(-1.31134e-07 1 1 1.31134e-07 1074 1200)" fill="#212121"/>
<rect width="24" height="4" transform="matrix(-1.31134e-07 1 1 1.31134e-07 1080 1200)" fill="#212121"/>
<rect width="24" height="4" transform="matrix(-1.31134e-07 1 1 1.31134e-07 1086 1200)" fill="#212121"/>
<rect width="24" height="4" transform="matrix(-1.31134e-07 1 1 1.31134e-07 1092 1200)" fill="#212121"/>
<rect width="24" height="4" transform="matrix(-1.31134e-07 1 1 1.31134e-07 1098 1200)" fill="#212121"/>
<rect x="1104" y="1224" width="24" height="24" transform="rotate(-90 1104 1224)" fill="#212121"/>
<rect x="1056" y="1224" width="24" height="24" transform="rotate(-180 1056 1224)" fill="#212121"/>
<rect width="24" height="4" transform="matrix(-1.31134e-07 1 1 1.31134e-07 1128 1224)" fill="#212121"/>
<rect width="24" height="4" transform="matrix(-1.31134e-07 1 1 1.31134e-07 1134 1224)" fill="#212121"/>
<rect width="24" height="4" transform="matrix(-1.31134e-07 1 1 1.31134e-07 1140 1224)" fill="#212121"/>
<rect width="24" height="4" transform="matrix(-1.31134e-07 1 1 1.31134e-07 1146 1224)" fill="#212121"/>
<rect width="24" height="4" transform="matrix(-1.31134e-07 1 1 1.31134e-07 1152 1224)" fill="#212121"/>
<rect width="24" height="4" transform="matrix(-1.31134e-07 1 1 1.31134e-07 1158 1224)" fill="#212121"/>
<rect width="24" height="4" transform="matrix(-1.31134e-07 1 1 1.31134e-07 1164 1224)" fill="#212121"/>
<rect width="24" height="4" transform="matrix(-1.31134e-07 1 1 1.31134e-07 1170 1224)" fill="#212121"/>
<rect x="1176" y="1248" width="24" height="24" transform="rotate(-90 1176 1248)" fill="#212121"/>
<rect width="24" height="4" transform="matrix(-1.31134e-07 1 1 1.31134e-07 1056 1224)" fill="#212121"/>
<rect width="24" height="4" transform="matrix(-1.31134e-07 1 1 1.31134e-07 1062 1224)" fill="#212121"/>
<rect width="24" height="4" transform="matrix(-1.31134e-07 1 1 1.31134e-07 1068 1224)" fill="#212121"/>
<rect width="24" height="4" transform="matrix(-1.31134e-07 1 1 1.31134e-07 1074 1224)" fill="#212121"/>
<rect width="24" height="4" transform="matrix(-1.31134e-07 1 1 1.31134e-07 1080 1224)" fill="#212121"/>
<rect width="24" height="4" transform="matrix(-1.31134e-07 1 1 1.31134e-07 1086 1224)" fill="#212121"/>
<rect width="24" height="4" transform="matrix(-1.31134e-07 1 1 1.31134e-07 1092 1224)" fill="#212121"/>
<rect width="24" height="4" transform="matrix(-1.31134e-07 1 1 1.31134e-07 1098 1224)" fill="#212121"/>
<rect x="1104" y="1248" width="24" height="24" transform="rotate(-90 1104 1248)" fill="#212121"/>
<rect x="1056" y="1248" width="24" height="24" transform="rotate(-180 1056 1248)" fill="#212121"/>
<rect width="24" height="4" transform="matrix(-1.31134e-07 1 1 1.31134e-07 1776 1224)" fill="#212121"/>
<rect width="24" height="4" transform="matrix(-1.31134e-07 1 1 1.31134e-07 1782 1224)" fill="#212121"/>
<rect width="24" height="4" transform="matrix(-1.31134e-07 1 1 1.31134e-07 1788 1224)" fill="#212121"/>
<rect width="24" height="4" transform="matrix(-1.31134e-07 1 1 1.31134e-07 1794 1224)" fill="#212121"/>
<rect width="24" height="4" transform="matrix(-1.31134e-07 1 1 1.31134e-07 1800 1224)" fill="#212121"/>
<rect width="24" height="4" transform="matrix(-1.31134e-07 1 1 1.31134e-07 1806 1224)" fill="#212121"/>
<rect width="24" height="4" transform="matrix(-1.31134e-07 1 1 1.31134e-07 1812 1224)" fill="#212121"/>
<rect width="24" height="4" transform="matrix(-1.31134e-07 1 1 1.31134e-07 1818 1224)" fill="#212121"/>
<rect x="1824" y="1248" width="24" height="24" transform="rotate(-90 1824 1248)" fill="#212121"/>
<rect width="24" height="4" transform="matrix(-1.31134e-07 1 1 1.31134e-07 1704 1224)" fill="#212121"/>
<rect width="24" height="4" transform="matrix(-1.31134e-07 1 1 1.31134e-07 1710 1224)" fill="#212121"/>
<rect width="24" height="4" transform="matrix(-1.31134e-07 1 1 1.31134e-07 1716 1224)" fill="#212121"/>
<rect width="24" height="4" transform="matrix(-1.31134e-07 1 1 1.31134e-07 1722 1224)" fill="#212121"/>
<rect width="24" height="4" transform="matrix(-1.31134e-07 1 1 1.31134e-07 1728 1224)" fill="#212121"/>
<rect width="24" height="4" transform="matrix(-1.31134e-07 1 1 1.31134e-07 1734 1224)" fill="#212121"/>
<rect width="24" height="4" transform="matrix(-1.31134e-07 1 1 1.31134e-07 1740 1224)" fill="#212121"/>
<rect width="24" height="4" transform="matrix(-1.31134e-07 1 1 1.31134e-07 1746 1224)" fill="#212121"/>
<rect x="1752" y="1248" width="24" height="24" transform="rotate(-90 1752 1248)" fill="#212121"/>
<rect x="1704" y="1248" width="24" height="24" transform="rotate(-180 1704 1248)" fill="#212121"/>
<rect width="24" height="4" transform="matrix(-1.31134e-07 1 1 1.31134e-07 1776 696)" fill="#212121"/>
<rect width="24" height="4" transform="matrix(-1.31134e-07 1 1 1.31134e-07 1782 696)" fill="#212121"/>
<rect width="24" height="4" transform="matrix(-1.31134e-07 1 1 1.31134e-07 1788 696)" fill="#212121"/>
<rect width="24" height="4" transform="matrix(-1.31134e-07 1 1 1.31134e-07 1794 696)" fill="#212121"/>
<rect width="24" height="4" transform="matrix(-1.31134e-07 1 1 1.31134e-07 1800 696)" fill="#212121"/>
<rect width="24" height="4" transform="matrix(-1.31134e-07 1 1 1.31134e-07 1806 696)" fill="#212121"/>
<rect width="24" height="4" transform="matrix(-1.31134e-07 1 1 1.31134e-07 1812 696)" fill="#212121"/>
<rect width="24" height="4" transform="matrix(-1.31134e-07 1 1 1.31134e-07 1818 696)" fill="#212121"/>
<rect x="1824" y="720" width="24" height="24" transform="rotate(-90 1824 720)" fill="#212121"/>
<rect width="24" height="4" transform="matrix(-1.31134e-07 1 1 1.31134e-07 1704 696)" fill="#212121"/>
<rect width="24" height="4" transform="matrix(-1.31134e-07 1 1 1.31134e-07 1710 696)" fill="#212121"/>
<rect width="24" height="4" transform="matrix(-1.31134e-07 1 1 1.31134e-07 1716 696)" fill="#212121"/>
<rect width="24" height="4" transform="matrix(-1.31134e-07 1 1 1.31134e-07 1722 696)" fill="#212121"/>
<rect width="24" height="4" transform="matrix(-1.31134e-07 1 1 1.31134e-07 1728 696)" fill="#212121"/>
<rect width="24" height="4" transform="matrix(-1.31134e-07 1 1 1.31134e-07 1734 696)" fill="#212121"/>
<rect width="24" height="4" transform="matrix(-1.31134e-07 1 1 1.31134e-07 1740 696)" fill="#212121"/>
<rect width="24" height="4" transform="matrix(-1.31134e-07 1 1 1.31134e-07 1746 696)" fill="#212121"/>
<rect x="1752" y="720" width="24" height="24" transform="rotate(-90 1752 720)" fill="#212121"/>
<rect x="1704" y="720" width="24" height="24" transform="rotate(-180 1704 720)" fill="#212121"/>
<rect width="24" height="4" transform="matrix(-1.31134e-07 1 1 1.31134e-07 1776 1200)" fill="#212121"/>
<rect width="24" height="4" transform="matrix(-1.31134e-07 1 1 1.31134e-07 1782 1200)" fill="#212121"/>
<rect width="24" height="4" transform="matrix(-1.31134e-07 1 1 1.31134e-07 1788 1200)" fill="#212121"/>
<rect width="24" height="4" transform="matrix(-1.31134e-07 1 1 1.31134e-07 1794 1200)" fill="#212121"/>
<rect width="24" height="4" transform="matrix(-1.31134e-07 1 1 1.31134e-07 1800 1200)" fill="#212121"/>
<rect width="24" height="4" transform="matrix(-1.31134e-07 1 1 1.31134e-07 1806 1200)" fill="#212121"/>
<rect width="24" height="4" transform="matrix(-1.31134e-07 1 1 1.31134e-07 1812 1200)" fill="#212121"/>
<rect width="24" height="4" transform="matrix(-1.31134e-07 1 1 1.31134e-07 1818 1200)" fill="#212121"/>
<rect x="1824" y="1224" width="24" height="24" transform="rotate(-90 1824 1224)" fill="#212121"/>
<rect width="24" height="4" transform="matrix(-1.31134e-07 1 1 1.31134e-07 1704 1200)" fill="#212121"/>
<rect width="24" height="4" transform="matrix(-1.31134e-07 1 1 1.31134e-07 1710 1200)" fill="#212121"/>
<rect width="24" height="4" transform="matrix(-1.31134e-07 1 1 1.31134e-07 1716 1200)" fill="#212121"/>
<rect width="24" height="4" transform="matrix(-1.31134e-07 1 1 1.31134e-07 1722 1200)" fill="#212121"/>
<rect width="24" height="4" transform="matrix(-1.31134e-07 1 1 1.31134e-07 1728 1200)" fill="#212121"/>
<rect width="24" height="4" transform="matrix(-1.31134e-07 1 1 1.31134e-07 1734 1200)" fill="#212121"/>
<rect width="24" height="4" transform="matrix(-1.31134e-07 1 1 1.31134e-07 1740 1200)" fill="#212121"/>
<rect width="24" height="4" transform="matrix(-1.31134e-07 1 1 1.31134e-07 1746 1200)" fill="#212121"/>
<rect x="1752" y="1224" width="24" height="24" transform="rotate(-90 1752 1224)" fill="#212121"/>
<rect x="1704" y="1224" width="24" height="24" transform="rotate(-180 1704 1224)" fill="#212121"/>
<rect x="720.5" y="768.5" width="23" height="23" stroke="#212121"/>
<path d="M730.5 777.5C730.105 777.5 729.718 777.383 729.389 777.163C729.06 776.943 728.804 776.631 728.653 776.265C728.501 775.9 728.462 775.498 728.539 775.11C728.616 774.722 728.807 774.365 729.086 774.086C729.366 773.806 729.722 773.616 730.11 773.538C730.498 773.461 730.9 773.501 731.266 773.652C731.631 773.804 731.944 774.06 732.163 774.389C732.383 774.718 732.5 775.104 732.5 775.5C732.5 776.03 732.29 776.539 731.915 776.914C731.54 777.289 731.031 777.5 730.5 777.5ZM730.5 774.5C730.303 774.5 730.109 774.559 729.945 774.669C729.78 774.778 729.652 774.935 729.577 775.117C729.501 775.3 729.481 775.501 729.52 775.695C729.558 775.889 729.653 776.067 729.793 776.207C729.933 776.347 730.111 776.442 730.305 776.481C730.499 776.519 730.7 776.5 730.883 776.424C731.066 776.348 731.222 776.22 731.332 776.056C731.442 775.891 731.5 775.698 731.5 775.5C731.5 775.235 731.395 774.98 731.208 774.793C731.02 774.605 730.766 774.5 730.5 774.5ZM726.294 780.793C726.332 780.81 726.762 780.998 727.523 780.998C728.389 780.998 729.682 780.755 731.316 779.748C731.565 780.453 731.888 781.131 732.279 781.769C731.576 781.985 730.914 782.319 730.322 782.757C729.13 783.666 728.5 784.959 728.5 786.5C728.5 786.633 728.553 786.76 728.647 786.854C728.741 786.947 728.868 787 729 787C729.133 787 729.26 786.947 729.354 786.854C729.448 786.76 729.5 786.633 729.5 786.5C729.5 783.894 731.669 782.956 732.884 782.634C732.919 782.678 732.954 782.723 732.99 782.766C734.217 784.253 735.755 785.027 737.467 785.027C737.662 785.028 737.856 785.019 738.05 785C738.183 784.987 738.305 784.921 738.389 784.818C738.474 784.715 738.514 784.583 738.5 784.45C738.487 784.317 738.422 784.195 738.319 784.111C738.215 784.027 738.083 783.987 737.95 784C736.33 784.161 734.921 783.532 733.763 782.125C732.982 781.179 732.45 780.024 732.185 779.188C734.617 777.772 736.171 778.977 736.188 778.99C736.239 779.033 736.298 779.066 736.362 779.086C736.426 779.107 736.493 779.114 736.56 779.108C736.626 779.101 736.691 779.082 736.75 779.05C736.809 779.018 736.861 778.975 736.903 778.922C736.945 778.87 736.976 778.81 736.994 778.746C737.012 778.681 737.017 778.614 737.009 778.547C737 778.481 736.979 778.417 736.945 778.359C736.911 778.301 736.866 778.25 736.813 778.21C736.719 778.135 734.487 776.398 731.219 778.621C728.377 780.553 726.723 779.89 726.707 779.883C726.647 779.854 726.582 779.838 726.516 779.835C726.45 779.832 726.384 779.842 726.322 779.865C726.26 779.888 726.203 779.923 726.154 779.968C726.105 780.013 726.066 780.067 726.039 780.127C726.011 780.188 725.996 780.253 725.994 780.319C725.992 780.385 726.003 780.451 726.027 780.513C726.05 780.575 726.086 780.632 726.132 780.68C726.177 780.727 726.232 780.766 726.293 780.793H726.294Z" fill="#212121"/>
<rect x="719.5" y="768.5" width="23" height="23" transform="rotate(90 719.5 768.5)" stroke="#212121"/>
<line x1="720.5" y1="768" x2="720.5" y2="792" stroke="#212121"/>
<line x1="714.5" y1="768" x2="714.5" y2="792" stroke="#212121"/>
<line x1="708.5" y1="768" x2="708.5" y2="792" stroke="#212121"/>
<line x1="702.5" y1="768" x2="702.5" y2="792" stroke="#212121"/>
<line x1="696.5" y1="768" x2="696.5" y2="792" stroke="#212121"/>
<rect x="-0.5" y="0.5" width="23" height="23" transform="matrix(-1 0 0 1 2159 768)" stroke="#212121"/>
<path d="M2149.5 777.5C2149.9 777.5 2150.28 777.383 2150.61 777.163C2150.94 776.943 2151.2 776.631 2151.35 776.265C2151.5 775.9 2151.54 775.498 2151.46 775.11C2151.38 774.722 2151.19 774.365 2150.91 774.086C2150.63 773.806 2150.28 773.616 2149.89 773.538C2149.5 773.461 2149.1 773.501 2148.73 773.652C2148.37 773.804 2148.06 774.06 2147.84 774.389C2147.62 774.718 2147.5 775.104 2147.5 775.5C2147.5 776.03 2147.71 776.539 2148.09 776.914C2148.46 777.289 2148.97 777.5 2149.5 777.5ZM2149.5 774.5C2149.7 774.5 2149.89 774.559 2150.06 774.669C2150.22 774.778 2150.35 774.935 2150.42 775.117C2150.5 775.3 2150.52 775.501 2150.48 775.695C2150.44 775.889 2150.35 776.067 2150.21 776.207C2150.07 776.347 2149.89 776.442 2149.69 776.481C2149.5 776.519 2149.3 776.5 2149.12 776.424C2148.93 776.348 2148.78 776.22 2148.67 776.056C2148.56 775.891 2148.5 775.698 2148.5 775.5C2148.5 775.235 2148.6 774.98 2148.79 774.793C2148.98 774.605 2149.23 774.5 2149.5 774.5ZM2153.71 780.793C2153.67 780.81 2153.24 780.998 2152.48 780.998C2151.61 780.998 2150.32 780.755 2148.68 779.748C2148.44 780.453 2148.11 781.131 2147.72 781.769C2148.42 781.985 2149.09 782.319 2149.68 782.757C2150.87 783.666 2151.5 784.959 2151.5 786.5C2151.5 786.633 2151.45 786.76 2151.35 786.854C2151.26 786.947 2151.13 787 2151 787C2150.87 787 2150.74 786.947 2150.65 786.854C2150.55 786.76 2150.5 786.633 2150.5 786.5C2150.5 783.894 2148.33 782.956 2147.12 782.634C2147.08 782.678 2147.05 782.723 2147.01 782.766C2145.78 784.253 2144.24 785.027 2142.53 785.027C2142.34 785.028 2142.14 785.019 2141.95 785C2141.82 784.987 2141.7 784.921 2141.61 784.818C2141.53 784.715 2141.49 784.583 2141.5 784.45C2141.51 784.317 2141.58 784.195 2141.68 784.111C2141.78 784.027 2141.92 783.987 2142.05 784C2143.67 784.161 2145.08 783.532 2146.24 782.125C2147.02 781.179 2147.55 780.024 2147.82 779.188C2145.38 777.772 2143.83 778.977 2143.81 778.99C2143.76 779.033 2143.7 779.066 2143.64 779.086C2143.57 779.107 2143.51 779.114 2143.44 779.108C2143.37 779.101 2143.31 779.082 2143.25 779.05C2143.19 779.018 2143.14 778.975 2143.1 778.922C2143.06 778.87 2143.02 778.81 2143.01 778.746C2142.99 778.681 2142.98 778.614 2142.99 778.547C2143 778.481 2143.02 778.417 2143.05 778.359C2143.09 778.301 2143.13 778.25 2143.19 778.21C2143.28 778.135 2145.51 776.398 2148.78 778.621C2151.62 780.553 2153.28 779.89 2153.29 779.883C2153.35 779.854 2153.42 779.838 2153.48 779.835C2153.55 779.832 2153.62 779.842 2153.68 779.865C2153.74 779.888 2153.8 779.923 2153.85 779.968C2153.89 780.013 2153.93 780.067 2153.96 780.127C2153.99 780.188 2154 780.253 2154.01 780.319C2154.01 780.385 2154 780.451 2153.97 780.513C2153.95 780.575 2153.91 780.632 2153.87 780.68C2153.82 780.727 2153.77 780.766 2153.71 780.793H2153.71Z" fill="#212121"/>
<rect x="0.5" y="0.5" width="23" height="23" transform="matrix(4.37114e-08 1 1 -4.37114e-08 2160 768)" stroke="#212121"/>
<line y1="-0.5" x2="24" y2="-0.5" transform="matrix(4.37114e-08 1 1 -4.37114e-08 2160 768)" stroke="#212121"/>
<line y1="-0.5" x2="24" y2="-0.5" transform="matrix(4.37114e-08 1 1 -4.37114e-08 2166 768)" stroke="#212121"/>
<line y1="-0.5" x2="24" y2="-0.5" transform="matrix(4.37114e-08 1 1 -4.37114e-08 2172 768)" stroke="#212121"/>
<line y1="-0.5" x2="24" y2="-0.5" transform="matrix(4.37114e-08 1 1 -4.37114e-08 2178 768)" stroke="#212121"/>
<line y1="-0.5" x2="24" y2="-0.5" transform="matrix(4.37114e-08 1 1 -4.37114e-08 2184 768)" stroke="#212121"/>
<rect x="-0.5" y="0.5" width="23" height="23" transform="matrix(-1 0 0 1 2159 1152)" stroke="#212121"/>
<path d="M2149.5 1161.5C2149.9 1161.5 2150.28 1161.38 2150.61 1161.16C2150.94 1160.94 2151.2 1160.63 2151.35 1160.27C2151.5 1159.9 2151.54 1159.5 2151.46 1159.11C2151.38 1158.72 2151.19 1158.37 2150.91 1158.09C2150.63 1157.81 2150.28 1157.62 2149.89 1157.54C2149.5 1157.46 2149.1 1157.5 2148.73 1157.65C2148.37 1157.8 2148.06 1158.06 2147.84 1158.39C2147.62 1158.72 2147.5 1159.1 2147.5 1159.5C2147.5 1160.03 2147.71 1160.54 2148.09 1160.91C2148.46 1161.29 2148.97 1161.5 2149.5 1161.5ZM2149.5 1158.5C2149.7 1158.5 2149.89 1158.56 2150.06 1158.67C2150.22 1158.78 2150.35 1158.93 2150.42 1159.12C2150.5 1159.3 2150.52 1159.5 2150.48 1159.7C2150.44 1159.89 2150.35 1160.07 2150.21 1160.21C2150.07 1160.35 2149.89 1160.44 2149.69 1160.48C2149.5 1160.52 2149.3 1160.5 2149.12 1160.42C2148.93 1160.35 2148.78 1160.22 2148.67 1160.06C2148.56 1159.89 2148.5 1159.7 2148.5 1159.5C2148.5 1159.23 2148.6 1158.98 2148.79 1158.79C2148.98 1158.61 2149.23 1158.5 2149.5 1158.5ZM2153.71 1164.79C2153.67 1164.81 2153.24 1165 2152.48 1165C2151.61 1165 2150.32 1164.76 2148.68 1163.75C2148.44 1164.45 2148.11 1165.13 2147.72 1165.77C2148.42 1165.99 2149.09 1166.32 2149.68 1166.76C2150.87 1167.67 2151.5 1168.96 2151.5 1170.5C2151.5 1170.63 2151.45 1170.76 2151.35 1170.85C2151.26 1170.95 2151.13 1171 2151 1171C2150.87 1171 2150.74 1170.95 2150.65 1170.85C2150.55 1170.76 2150.5 1170.63 2150.5 1170.5C2150.5 1167.89 2148.33 1166.96 2147.12 1166.63C2147.08 1166.68 2147.05 1166.72 2147.01 1166.77C2145.78 1168.25 2144.24 1169.03 2142.53 1169.03C2142.34 1169.03 2142.14 1169.02 2141.95 1169C2141.82 1168.99 2141.7 1168.92 2141.61 1168.82C2141.53 1168.72 2141.49 1168.58 2141.5 1168.45C2141.51 1168.32 2141.58 1168.2 2141.68 1168.11C2141.78 1168.03 2141.92 1167.99 2142.05 1168C2143.67 1168.16 2145.08 1167.53 2146.24 1166.13C2147.02 1165.18 2147.55 1164.02 2147.82 1163.19C2145.38 1161.77 2143.83 1162.98 2143.81 1162.99C2143.76 1163.03 2143.7 1163.07 2143.64 1163.09C2143.57 1163.11 2143.51 1163.11 2143.44 1163.11C2143.37 1163.1 2143.31 1163.08 2143.25 1163.05C2143.19 1163.02 2143.14 1162.97 2143.1 1162.92C2143.06 1162.87 2143.02 1162.81 2143.01 1162.75C2142.99 1162.68 2142.98 1162.61 2142.99 1162.55C2143 1162.48 2143.02 1162.42 2143.05 1162.36C2143.09 1162.3 2143.13 1162.25 2143.19 1162.21C2143.28 1162.14 2145.51 1160.4 2148.78 1162.62C2151.62 1164.55 2153.28 1163.89 2153.29 1163.88C2153.35 1163.85 2153.42 1163.84 2153.48 1163.84C2153.55 1163.83 2153.62 1163.84 2153.68 1163.87C2153.74 1163.89 2153.8 1163.92 2153.85 1163.97C2153.89 1164.01 2153.93 1164.07 2153.96 1164.13C2153.99 1164.19 2154 1164.25 2154.01 1164.32C2154.01 1164.39 2154 1164.45 2153.97 1164.51C2153.95 1164.57 2153.91 1164.63 2153.87 1164.68C2153.82 1164.73 2153.77 1164.77 2153.71 1164.79H2153.71Z" fill="#212121"/>
<rect x="0.5" y="0.5" width="23" height="23" transform="matrix(4.37114e-08 1 1 -4.37114e-08 2160 1152)" stroke="#212121"/>
<line y1="-0.5" x2="24" y2="-0.5" transform="matrix(4.37114e-08 1 1 -4.37114e-08 2160 1152)" stroke="#212121"/>
<line y1="-0.5" x2="24" y2="-0.5" transform="matrix(4.37114e-08 1 1 -4.37114e-08 2166 1152)" stroke="#212121"/>
<line y1="-0.5" x2="24" y2="-0.5" transform="matrix(4.37114e-08 1 1 -4.37114e-08 2172 1152)" stroke="#212121"/>
<line y1="-0.5" x2="24" y2="-0.5" transform="matrix(4.37114e-08 1 1 -4.37114e-08 2178 1152)" stroke="#212121"/>
<line y1="-0.5" x2="24" y2="-0.5" transform="matrix(4.37114e-08 1 1 -4.37114e-08 2184 1152)" stroke="#212121"/>
<rect x="720.5" y="1224.5" width="23" height="23" stroke="#212121"/>
<path d="M730.5 1233.5C730.105 1233.5 729.718 1233.38 729.389 1233.16C729.06 1232.94 728.804 1232.63 728.653 1232.27C728.501 1231.9 728.462 1231.5 728.539 1231.11C728.616 1230.72 728.807 1230.37 729.086 1230.09C729.366 1229.81 729.722 1229.62 730.11 1229.54C730.498 1229.46 730.9 1229.5 731.266 1229.65C731.631 1229.8 731.944 1230.06 732.163 1230.39C732.383 1230.72 732.5 1231.1 732.5 1231.5C732.5 1232.03 732.29 1232.54 731.915 1232.91C731.54 1233.29 731.031 1233.5 730.5 1233.5ZM730.5 1230.5C730.303 1230.5 730.109 1230.56 729.945 1230.67C729.78 1230.78 729.652 1230.93 729.577 1231.12C729.501 1231.3 729.481 1231.5 729.52 1231.7C729.558 1231.89 729.653 1232.07 729.793 1232.21C729.933 1232.35 730.111 1232.44 730.305 1232.48C730.499 1232.52 730.7 1232.5 730.883 1232.42C731.066 1232.35 731.222 1232.22 731.332 1232.06C731.442 1231.89 731.5 1231.7 731.5 1231.5C731.5 1231.23 731.395 1230.98 731.208 1230.79C731.02 1230.61 730.766 1230.5 730.5 1230.5ZM726.294 1236.79C726.332 1236.81 726.762 1237 727.523 1237C728.389 1237 729.682 1236.76 731.316 1235.75C731.565 1236.45 731.888 1237.13 732.279 1237.77C731.576 1237.99 730.914 1238.32 730.322 1238.76C729.13 1239.67 728.5 1240.96 728.5 1242.5C728.5 1242.63 728.553 1242.76 728.647 1242.85C728.741 1242.95 728.868 1243 729 1243C729.133 1243 729.26 1242.95 729.354 1242.85C729.448 1242.76 729.5 1242.63 729.5 1242.5C729.5 1239.89 731.669 1238.96 732.884 1238.63C732.919 1238.68 732.954 1238.72 732.99 1238.77C734.217 1240.25 735.755 1241.03 737.467 1241.03C737.662 1241.03 737.856 1241.02 738.05 1241C738.183 1240.99 738.305 1240.92 738.389 1240.82C738.474 1240.72 738.514 1240.58 738.5 1240.45C738.487 1240.32 738.422 1240.2 738.319 1240.11C738.215 1240.03 738.083 1239.99 737.95 1240C736.33 1240.16 734.921 1239.53 733.763 1238.13C732.982 1237.18 732.45 1236.02 732.185 1235.19C734.617 1233.77 736.171 1234.98 736.188 1234.99C736.239 1235.03 736.298 1235.07 736.362 1235.09C736.426 1235.11 736.493 1235.11 736.56 1235.11C736.626 1235.1 736.691 1235.08 736.75 1235.05C736.809 1235.02 736.861 1234.97 736.903 1234.92C736.945 1234.87 736.976 1234.81 736.994 1234.75C737.012 1234.68 737.017 1234.61 737.009 1234.55C737 1234.48 736.979 1234.42 736.945 1234.36C736.911 1234.3 736.866 1234.25 736.813 1234.21C736.719 1234.14 734.487 1232.4 731.219 1234.62C728.377 1236.55 726.723 1235.89 726.707 1235.88C726.647 1235.85 726.582 1235.84 726.516 1235.84C726.45 1235.83 726.384 1235.84 726.322 1235.87C726.26 1235.89 726.203 1235.92 726.154 1235.97C726.105 1236.01 726.066 1236.07 726.039 1236.13C726.011 1236.19 725.996 1236.25 725.994 1236.32C725.992 1236.39 726.003 1236.45 726.027 1236.51C726.05 1236.57 726.086 1236.63 726.132 1236.68C726.177 1236.73 726.232 1236.77 726.293 1236.79H726.294Z" fill="#212121"/>
<rect x="719.5" y="1224.5" width="23" height="23" transform="rotate(90 719.5 1224.5)" stroke="#212121"/>
<line x1="720.5" y1="1224" x2="720.5" y2="1248" stroke="#212121"/>
<line x1="714.5" y1="1224" x2="714.5" y2="1248" stroke="#212121"/>
<line x1="708.5" y1="1224" x2="708.5" y2="1248" stroke="#212121"/>
<line x1="702.5" y1="1224" x2="702.5" y2="1248" stroke="#212121"/>
<line x1="696.5" y1="1224" x2="696.5" y2="1248" stroke="#212121"/>
<defs>
<filter id="filter0_d_1119_4265" x="428" y="620" width="2036" height="284" filterUnits="userSpaceOnUse" color-interpolation-filters="sRGB">
<feFlood flood-opacity="0" result="BackgroundImageFix"/>
<feColorMatrix in="SourceAlpha" type="matrix" values="0 0 0 0 0 0 0 0 0 0 0 0 0 0 0 0 0 0 127 0" result="hardAlpha"/>
<feOffset dx="8" dy="8"/>
<feGaussianBlur stdDeviation="2"/>
<feComposite in2="hardAlpha" operator="out"/>
<feColorMatrix type="matrix" values="0 0 0 0 0 0 0 0 0 0 0 0 0 0 0 0 0 0 0.4 0"/>
<feBlend mode="normal" in2="BackgroundImageFix" result="effect1_dropShadow_1119_4265"/>
<feBlend mode="normal" in="SourceGraphic" in2="effect1_dropShadow_1119_4265" result="shape"/>
</filter>
<filter id="filter1_d_1119_4265" x="428" y="1028" width="2036" height="284" filterUnits="userSpaceOnUse" color-interpolation-filters="sRGB">
<feFlood flood-opacity="0" result="BackgroundImageFix"/>
<feColorMatrix in="SourceAlpha" type="matrix" values="0 0 0 0 0 0 0 0 0 0 0 0 0 0 0 0 0 0 127 0" result="hardAlpha"/>
<feOffset dx="8" dy="8"/>
<feGaussianBlur stdDeviation="2"/>
<feComposite in2="hardAlpha" operator="out"/>
<feColorMatrix type="matrix" values="0 0 0 0 0 0 0 0 0 0 0 0 0 0 0 0 0 0 0.4 0"/>
<feBlend mode="normal" in2="BackgroundImageFix" result="effect1_dropShadow_1119_4265"/>
<feBlend mode="normal" in="SourceGraphic" in2="effect1_dropShadow_1119_4265" result="shape"/>
</filter>
</defs>
</svg>
