<svg width="3840" height="1440" viewBox="0 0 3840 1440" fill="none" xmlns="http://www.w3.org/2000/svg">
<rect x="264" y="504" width="2328" height="432" fill="#EEEEEE"/>
<g filter="url(#filter0_d_1119_33241)">
<mask id="path-2-outside-1_1119_33241" maskUnits="userSpaceOnUse" x="260" y="500" width="2336" height="152" fill="black">
<rect fill="white" x="260" y="500" width="2336" height="152"/>
<path d="M264 504H2592V648H264V504Z"/>
</mask>
<path d="M264 504H2592V648H264V504Z" fill="#D9D9D9"/>
<path d="M264 504V500H260V504H264ZM2592 504H2596V500H2592V504ZM2592 648V652H2596V648H2592ZM264 648H260V652H264V648ZM264 508H2592V500H264V508ZM2588 504V648H2596V504H2588ZM2592 644H264V652H2592V644ZM268 648V504H260V648H268Z" fill="#474747" mask="url(#path-2-outside-1_1119_33241)"/>
</g>
<g filter="url(#filter1_d_1119_33241)">
<mask id="path-4-outside-2_1119_33241" maskUnits="userSpaceOnUse" x="260" y="788" width="2338" height="152" fill="black">
<rect fill="white" x="260" y="788" width="2338" height="152"/>
<path d="M264 936H2594V792H264V936Z"/>
</mask>
<path d="M264 936H2594V792H264V936Z" fill="#D9D9D9"/>
<path d="M264 936V940H260V936H264ZM2594 936H2598V940H2594V936ZM2594 792V788H2598V792H2594ZM264 792H260V788H264V792ZM264 932H2594V940H264V932ZM2590 936V792H2598V936H2590ZM2594 796H264V788H2594V796ZM268 792V936H260V792H268Z" fill="#474747" mask="url(#path-4-outside-2_1119_33241)"/>
</g>
<rect width="48" height="48" transform="matrix(-1 8.74228e-08 8.74228e-08 1 1416 504)" fill="#212121"/>
<path d="M1384.03 532.849C1384.05 532.776 1384.09 532.707 1384.14 532.648C1384.2 532.59 1384.26 532.542 1384.33 532.507C1384.4 532.472 1384.47 532.451 1384.55 532.446C1384.63 532.44 1384.71 532.45 1384.78 532.475L1386.07 532.905L1388.21 528.623C1388.26 528.525 1388.34 528.442 1388.43 528.384C1388.52 528.326 1388.63 528.296 1388.74 528.296L1394.67 528.296L1394.67 526.518L1390.52 526.518C1390.36 526.518 1390.21 526.455 1390.1 526.344C1389.99 526.233 1389.93 526.082 1389.93 525.925C1389.93 525.768 1389.99 525.617 1390.1 525.506C1390.21 525.395 1390.36 525.333 1390.52 525.333L1394.67 525.333L1394.67 524.666C1394.11 524.522 1393.62 524.179 1393.3 523.701C1392.98 523.223 1392.84 522.644 1392.91 522.072C1392.98 521.499 1393.26 520.973 1393.69 520.592C1394.13 520.21 1394.68 520 1395.26 520C1395.84 520 1396.4 520.21 1396.83 520.592C1397.26 520.973 1397.54 521.499 1397.61 522.072C1397.69 522.644 1397.55 523.223 1397.22 523.701C1396.9 524.179 1396.41 524.522 1395.85 524.666L1395.85 525.467C1397.13 525.759 1398.26 526.511 1399.02 527.58C1399.77 528.649 1400.11 529.96 1399.97 531.263C1399.82 532.565 1399.2 533.768 1398.22 534.642C1397.24 535.516 1395.98 535.999 1394.67 536C1392.19 536 1389.95 534.318 1389.35 532C1389.33 531.924 1389.33 531.846 1389.34 531.769C1389.35 531.692 1389.38 531.617 1389.42 531.55C1389.46 531.483 1389.51 531.425 1389.57 531.378C1389.63 531.331 1389.7 531.297 1389.78 531.277C1389.85 531.258 1389.93 531.254 1390.01 531.264C1390.09 531.275 1390.16 531.301 1390.23 531.341C1390.3 531.38 1390.35 531.433 1390.4 531.495C1390.45 531.557 1390.48 531.628 1390.5 531.703C1390.96 533.481 1392.75 534.815 1394.67 534.815C1395.67 534.814 1396.63 534.456 1397.38 533.804C1398.14 533.152 1398.63 532.251 1398.77 531.265C1398.92 530.279 1398.7 529.275 1398.17 528.435C1397.63 527.595 1396.81 526.976 1395.85 526.691L1395.85 528.888C1395.85 529.046 1395.79 529.196 1395.68 529.307C1395.57 529.419 1395.42 529.481 1395.26 529.481L1389.11 529.481L1386.9 533.895C1386.84 534.022 1386.73 534.122 1386.6 534.177C1386.47 534.231 1386.32 534.236 1386.18 534.191L1384.41 533.598C1384.26 533.549 1384.13 533.442 1384.06 533.301C1383.99 533.161 1383.98 532.998 1384.03 532.849ZM1396.45 522.369C1396.45 522.135 1396.38 521.906 1396.25 521.711C1396.12 521.516 1395.93 521.364 1395.72 521.274C1395.5 521.185 1395.26 521.161 1395.03 521.207C1394.8 521.253 1394.59 521.365 1394.42 521.531C1394.26 521.697 1394.14 521.908 1394.1 522.138C1394.05 522.368 1394.08 522.606 1394.17 522.823C1394.26 523.04 1394.41 523.225 1394.6 523.355C1394.8 523.485 1395.03 523.555 1395.26 523.555C1395.58 523.555 1395.88 523.43 1396.1 523.207C1396.32 522.985 1396.45 522.684 1396.45 522.369Z" fill="white"/>
<rect width="48" height="48" transform="matrix(-1 8.74228e-08 8.74228e-08 1 1416 888)" fill="#212121"/>
<path d="M1384.03 916.849C1384.05 916.776 1384.09 916.707 1384.14 916.648C1384.2 916.59 1384.26 916.542 1384.33 916.507C1384.4 916.472 1384.47 916.451 1384.55 916.446C1384.63 916.44 1384.71 916.45 1384.78 916.475L1386.07 916.905L1388.21 912.623C1388.26 912.525 1388.34 912.442 1388.43 912.384C1388.52 912.326 1388.63 912.296 1388.74 912.296L1394.67 912.296L1394.67 910.518L1390.52 910.518C1390.36 910.518 1390.21 910.455 1390.1 910.344C1389.99 910.233 1389.93 910.082 1389.93 909.925C1389.93 909.768 1389.99 909.617 1390.1 909.506C1390.21 909.395 1390.36 909.333 1390.52 909.333L1394.67 909.333L1394.67 908.666C1394.11 908.522 1393.62 908.179 1393.3 907.701C1392.98 907.223 1392.84 906.644 1392.91 906.072C1392.98 905.499 1393.26 904.973 1393.69 904.592C1394.13 904.21 1394.68 904 1395.26 904C1395.84 904 1396.4 904.21 1396.83 904.592C1397.26 904.973 1397.54 905.499 1397.61 906.072C1397.69 906.644 1397.55 907.223 1397.22 907.701C1396.9 908.179 1396.41 908.522 1395.85 908.666L1395.85 909.467C1397.13 909.759 1398.26 910.511 1399.02 911.58C1399.77 912.649 1400.11 913.96 1399.97 915.263C1399.82 916.565 1399.2 917.768 1398.22 918.642C1397.24 919.516 1395.98 919.999 1394.67 920C1392.19 920 1389.95 918.318 1389.35 916C1389.33 915.924 1389.33 915.846 1389.34 915.769C1389.35 915.692 1389.38 915.617 1389.42 915.55C1389.46 915.483 1389.51 915.425 1389.57 915.378C1389.63 915.331 1389.7 915.297 1389.78 915.277C1389.85 915.258 1389.93 915.254 1390.01 915.264C1390.09 915.275 1390.16 915.301 1390.23 915.341C1390.3 915.38 1390.35 915.433 1390.4 915.495C1390.45 915.557 1390.48 915.628 1390.5 915.703C1390.96 917.481 1392.75 918.815 1394.67 918.815C1395.67 918.814 1396.63 918.456 1397.38 917.804C1398.14 917.152 1398.63 916.251 1398.77 915.265C1398.92 914.279 1398.7 913.275 1398.17 912.435C1397.63 911.595 1396.81 910.976 1395.85 910.691L1395.85 912.888C1395.85 913.046 1395.79 913.196 1395.68 913.307C1395.57 913.419 1395.42 913.481 1395.26 913.481L1389.11 913.481L1386.9 917.895C1386.84 918.022 1386.73 918.122 1386.6 918.177C1386.47 918.231 1386.32 918.236 1386.18 918.191L1384.41 917.598C1384.26 917.549 1384.13 917.442 1384.06 917.301C1383.99 917.161 1383.98 916.998 1384.03 916.849ZM1396.45 906.369C1396.45 906.135 1396.38 905.906 1396.25 905.711C1396.12 905.516 1395.93 905.364 1395.72 905.274C1395.5 905.185 1395.26 905.161 1395.03 905.207C1394.8 905.253 1394.59 905.365 1394.42 905.531C1394.26 905.697 1394.14 905.908 1394.1 906.138C1394.05 906.368 1394.08 906.606 1394.17 906.823C1394.26 907.04 1394.41 907.225 1394.6 907.355C1394.8 907.485 1395.03 907.555 1395.26 907.555C1395.58 907.555 1395.88 907.43 1396.1 907.207C1396.32 906.985 1396.45 906.684 1396.45 906.369Z" fill="white"/>
<rect width="24" height="4" transform="matrix(2.18557e-07 -1 -1 -2.18557e-07 2088 528)" fill="#212121"/>
<rect width="24" height="4" transform="matrix(2.18557e-07 -1 -1 -2.18557e-07 2082 528)" fill="#212121"/>
<rect width="24" height="4" transform="matrix(2.18557e-07 -1 -1 -2.18557e-07 2076 528)" fill="#212121"/>
<rect width="24" height="4" transform="matrix(2.18557e-07 -1 -1 -2.18557e-07 2070 528)" fill="#212121"/>
<rect width="24" height="4" transform="matrix(2.18557e-07 -1 -1 -2.18557e-07 2064 528)" fill="#212121"/>
<rect width="24" height="4" transform="matrix(2.18557e-07 -1 -1 -2.18557e-07 2058 528)" fill="#212121"/>
<rect width="24" height="4" transform="matrix(2.18557e-07 -1 -1 -2.18557e-07 2052 528)" fill="#212121"/>
<rect width="24" height="4" transform="matrix(2.18557e-07 -1 -1 -2.18557e-07 2046 528)" fill="#212121"/>
<rect x="2040" y="504" width="24" height="24" transform="rotate(90 2040 504)" fill="#212121"/>
<rect width="24" height="4" transform="matrix(2.18557e-07 -1 -1 -2.18557e-07 2160 528)" fill="#212121"/>
<rect width="24" height="4" transform="matrix(2.18557e-07 -1 -1 -2.18557e-07 2154 528)" fill="#212121"/>
<rect width="24" height="4" transform="matrix(2.18557e-07 -1 -1 -2.18557e-07 2148 528)" fill="#212121"/>
<rect width="24" height="4" transform="matrix(2.18557e-07 -1 -1 -2.18557e-07 2142 528)" fill="#212121"/>
<rect width="24" height="4" transform="matrix(2.18557e-07 -1 -1 -2.18557e-07 2136 528)" fill="#212121"/>
<rect width="24" height="4" transform="matrix(2.18557e-07 -1 -1 -2.18557e-07 2130 528)" fill="#212121"/>
<rect width="24" height="4" transform="matrix(2.18557e-07 -1 -1 -2.18557e-07 2124 528)" fill="#212121"/>
<rect width="24" height="4" transform="matrix(2.18557e-07 -1 -1 -2.18557e-07 2118 528)" fill="#212121"/>
<rect x="2112" y="504" width="24" height="24" transform="rotate(90 2112 504)" fill="#212121"/>
<rect width="24" height="4" transform="matrix(2.18557e-07 -1 -1 -2.18557e-07 2232 528)" fill="#212121"/>
<rect width="24" height="4" transform="matrix(2.18557e-07 -1 -1 -2.18557e-07 2226 528)" fill="#212121"/>
<rect width="24" height="4" transform="matrix(2.18557e-07 -1 -1 -2.18557e-07 2220 528)" fill="#212121"/>
<rect width="24" height="4" transform="matrix(2.18557e-07 -1 -1 -2.18557e-07 2214 528)" fill="#212121"/>
<rect width="24" height="4" transform="matrix(2.18557e-07 -1 -1 -2.18557e-07 2208 528)" fill="#212121"/>
<rect width="24" height="4" transform="matrix(2.18557e-07 -1 -1 -2.18557e-07 2202 528)" fill="#212121"/>
<rect width="24" height="4" transform="matrix(2.18557e-07 -1 -1 -2.18557e-07 2196 528)" fill="#212121"/>
<rect width="24" height="4" transform="matrix(2.18557e-07 -1 -1 -2.18557e-07 2190 528)" fill="#212121"/>
<rect x="2184" y="504" width="24" height="24" transform="rotate(90 2184 504)" fill="#212121"/>
<rect x="2232" y="504" width="24" height="24" fill="#212121"/>
<rect width="24" height="4" transform="matrix(2.18557e-07 -1 -1 -2.18557e-07 2088 936)" fill="#212121"/>
<rect width="24" height="4" transform="matrix(2.18557e-07 -1 -1 -2.18557e-07 2082 936)" fill="#212121"/>
<rect width="24" height="4" transform="matrix(2.18557e-07 -1 -1 -2.18557e-07 2076 936)" fill="#212121"/>
<rect width="24" height="4" transform="matrix(2.18557e-07 -1 -1 -2.18557e-07 2070 936)" fill="#212121"/>
<rect width="24" height="4" transform="matrix(2.18557e-07 -1 -1 -2.18557e-07 2064 936)" fill="#212121"/>
<rect width="24" height="4" transform="matrix(2.18557e-07 -1 -1 -2.18557e-07 2058 936)" fill="#212121"/>
<rect width="24" height="4" transform="matrix(2.18557e-07 -1 -1 -2.18557e-07 2052 936)" fill="#212121"/>
<rect width="24" height="4" transform="matrix(2.18557e-07 -1 -1 -2.18557e-07 2046 936)" fill="#212121"/>
<rect x="2040" y="912" width="24" height="24" transform="rotate(90 2040 912)" fill="#212121"/>
<rect width="24" height="4" transform="matrix(2.18557e-07 -1 -1 -2.18557e-07 2160 936)" fill="#212121"/>
<rect width="24" height="4" transform="matrix(2.18557e-07 -1 -1 -2.18557e-07 2154 936)" fill="#212121"/>
<rect width="24" height="4" transform="matrix(2.18557e-07 -1 -1 -2.18557e-07 2148 936)" fill="#212121"/>
<rect width="24" height="4" transform="matrix(2.18557e-07 -1 -1 -2.18557e-07 2142 936)" fill="#212121"/>
<rect width="24" height="4" transform="matrix(2.18557e-07 -1 -1 -2.18557e-07 2136 936)" fill="#212121"/>
<rect width="24" height="4" transform="matrix(2.18557e-07 -1 -1 -2.18557e-07 2130 936)" fill="#212121"/>
<rect width="24" height="4" transform="matrix(2.18557e-07 -1 -1 -2.18557e-07 2124 936)" fill="#212121"/>
<rect width="24" height="4" transform="matrix(2.18557e-07 -1 -1 -2.18557e-07 2118 936)" fill="#212121"/>
<rect x="2112" y="912" width="24" height="24" transform="rotate(90 2112 912)" fill="#212121"/>
<rect width="24" height="4" transform="matrix(2.18557e-07 -1 -1 -2.18557e-07 2232 936)" fill="#212121"/>
<rect width="24" height="4" transform="matrix(2.18557e-07 -1 -1 -2.18557e-07 2226 936)" fill="#212121"/>
<rect width="24" height="4" transform="matrix(2.18557e-07 -1 -1 -2.18557e-07 2220 936)" fill="#212121"/>
<rect width="24" height="4" transform="matrix(2.18557e-07 -1 -1 -2.18557e-07 2214 936)" fill="#212121"/>
<rect width="24" height="4" transform="matrix(2.18557e-07 -1 -1 -2.18557e-07 2208 936)" fill="#212121"/>
<rect width="24" height="4" transform="matrix(2.18557e-07 -1 -1 -2.18557e-07 2202 936)" fill="#212121"/>
<rect width="24" height="4" transform="matrix(2.18557e-07 -1 -1 -2.18557e-07 2196 936)" fill="#212121"/>
<rect width="24" height="4" transform="matrix(2.18557e-07 -1 -1 -2.18557e-07 2190 936)" fill="#212121"/>
<rect x="2184" y="912" width="24" height="24" transform="rotate(90 2184 912)" fill="#212121"/>
<rect x="2232" y="912" width="24" height="24" fill="#212121"/>
<rect width="24" height="4" transform="matrix(2.18557e-07 -1 -1 -2.18557e-07 2088 912)" fill="#212121"/>
<rect width="24" height="4" transform="matrix(2.18557e-07 -1 -1 -2.18557e-07 2082 912)" fill="#212121"/>
<rect width="24" height="4" transform="matrix(2.18557e-07 -1 -1 -2.18557e-07 2076 912)" fill="#212121"/>
<rect width="24" height="4" transform="matrix(2.18557e-07 -1 -1 -2.18557e-07 2070 912)" fill="#212121"/>
<rect width="24" height="4" transform="matrix(2.18557e-07 -1 -1 -2.18557e-07 2064 912)" fill="#212121"/>
<rect width="24" height="4" transform="matrix(2.18557e-07 -1 -1 -2.18557e-07 2058 912)" fill="#212121"/>
<rect width="24" height="4" transform="matrix(2.18557e-07 -1 -1 -2.18557e-07 2052 912)" fill="#212121"/>
<rect width="24" height="4" transform="matrix(2.18557e-07 -1 -1 -2.18557e-07 2046 912)" fill="#212121"/>
<rect x="2040" y="888" width="24" height="24" transform="rotate(90 2040 888)" fill="#212121"/>
<rect width="24" height="4" transform="matrix(2.18557e-07 -1 -1 -2.18557e-07 2160 912)" fill="#212121"/>
<rect width="24" height="4" transform="matrix(2.18557e-07 -1 -1 -2.18557e-07 2154 912)" fill="#212121"/>
<rect width="24" height="4" transform="matrix(2.18557e-07 -1 -1 -2.18557e-07 2148 912)" fill="#212121"/>
<rect width="24" height="4" transform="matrix(2.18557e-07 -1 -1 -2.18557e-07 2142 912)" fill="#212121"/>
<rect width="24" height="4" transform="matrix(2.18557e-07 -1 -1 -2.18557e-07 2136 912)" fill="#212121"/>
<rect width="24" height="4" transform="matrix(2.18557e-07 -1 -1 -2.18557e-07 2130 912)" fill="#212121"/>
<rect width="24" height="4" transform="matrix(2.18557e-07 -1 -1 -2.18557e-07 2124 912)" fill="#212121"/>
<rect width="24" height="4" transform="matrix(2.18557e-07 -1 -1 -2.18557e-07 2118 912)" fill="#212121"/>
<rect x="2112" y="888" width="24" height="24" transform="rotate(90 2112 888)" fill="#212121"/>
<rect width="24" height="4" transform="matrix(2.18557e-07 -1 -1 -2.18557e-07 2232 912)" fill="#212121"/>
<rect width="24" height="4" transform="matrix(2.18557e-07 -1 -1 -2.18557e-07 2226 912)" fill="#212121"/>
<rect width="24" height="4" transform="matrix(2.18557e-07 -1 -1 -2.18557e-07 2220 912)" fill="#212121"/>
<rect width="24" height="4" transform="matrix(2.18557e-07 -1 -1 -2.18557e-07 2214 912)" fill="#212121"/>
<rect width="24" height="4" transform="matrix(2.18557e-07 -1 -1 -2.18557e-07 2208 912)" fill="#212121"/>
<rect width="24" height="4" transform="matrix(2.18557e-07 -1 -1 -2.18557e-07 2202 912)" fill="#212121"/>
<rect width="24" height="4" transform="matrix(2.18557e-07 -1 -1 -2.18557e-07 2196 912)" fill="#212121"/>
<rect width="24" height="4" transform="matrix(2.18557e-07 -1 -1 -2.18557e-07 2190 912)" fill="#212121"/>
<rect x="2184" y="888" width="24" height="24" transform="rotate(90 2184 888)" fill="#212121"/>
<rect x="2232" y="888" width="24" height="24" fill="#212121"/>
<rect width="24" height="4" transform="matrix(2.18557e-07 -1 -1 -2.18557e-07 2088 552)" fill="#212121"/>
<rect width="24" height="4" transform="matrix(2.18557e-07 -1 -1 -2.18557e-07 2082 552)" fill="#212121"/>
<rect width="24" height="4" transform="matrix(2.18557e-07 -1 -1 -2.18557e-07 2076 552)" fill="#212121"/>
<rect width="24" height="4" transform="matrix(2.18557e-07 -1 -1 -2.18557e-07 2070 552)" fill="#212121"/>
<rect width="24" height="4" transform="matrix(2.18557e-07 -1 -1 -2.18557e-07 2064 552)" fill="#212121"/>
<rect width="24" height="4" transform="matrix(2.18557e-07 -1 -1 -2.18557e-07 2058 552)" fill="#212121"/>
<rect width="24" height="4" transform="matrix(2.18557e-07 -1 -1 -2.18557e-07 2052 552)" fill="#212121"/>
<rect width="24" height="4" transform="matrix(2.18557e-07 -1 -1 -2.18557e-07 2046 552)" fill="#212121"/>
<rect x="2040" y="528" width="24" height="24" transform="rotate(90 2040 528)" fill="#212121"/>
<rect width="24" height="4" transform="matrix(2.18557e-07 -1 -1 -2.18557e-07 2160 552)" fill="#212121"/>
<rect width="24" height="4" transform="matrix(2.18557e-07 -1 -1 -2.18557e-07 2154 552)" fill="#212121"/>
<rect width="24" height="4" transform="matrix(2.18557e-07 -1 -1 -2.18557e-07 2148 552)" fill="#212121"/>
<rect width="24" height="4" transform="matrix(2.18557e-07 -1 -1 -2.18557e-07 2142 552)" fill="#212121"/>
<rect width="24" height="4" transform="matrix(2.18557e-07 -1 -1 -2.18557e-07 2136 552)" fill="#212121"/>
<rect width="24" height="4" transform="matrix(2.18557e-07 -1 -1 -2.18557e-07 2130 552)" fill="#212121"/>
<rect width="24" height="4" transform="matrix(2.18557e-07 -1 -1 -2.18557e-07 2124 552)" fill="#212121"/>
<rect width="24" height="4" transform="matrix(2.18557e-07 -1 -1 -2.18557e-07 2118 552)" fill="#212121"/>
<rect x="2112" y="528" width="24" height="24" transform="rotate(90 2112 528)" fill="#212121"/>
<rect width="24" height="4" transform="matrix(2.18557e-07 -1 -1 -2.18557e-07 2232 552)" fill="#212121"/>
<rect width="24" height="4" transform="matrix(2.18557e-07 -1 -1 -2.18557e-07 2226 552)" fill="#212121"/>
<rect width="24" height="4" transform="matrix(2.18557e-07 -1 -1 -2.18557e-07 2220 552)" fill="#212121"/>
<rect width="24" height="4" transform="matrix(2.18557e-07 -1 -1 -2.18557e-07 2214 552)" fill="#212121"/>
<rect width="24" height="4" transform="matrix(2.18557e-07 -1 -1 -2.18557e-07 2208 552)" fill="#212121"/>
<rect width="24" height="4" transform="matrix(2.18557e-07 -1 -1 -2.18557e-07 2202 552)" fill="#212121"/>
<rect width="24" height="4" transform="matrix(2.18557e-07 -1 -1 -2.18557e-07 2196 552)" fill="#212121"/>
<rect width="24" height="4" transform="matrix(2.18557e-07 -1 -1 -2.18557e-07 2190 552)" fill="#212121"/>
<rect x="2184" y="528" width="24" height="24" transform="rotate(90 2184 528)" fill="#212121"/>
<rect x="2232" y="528" width="24" height="24" fill="#212121"/>
<rect width="24" height="4" transform="matrix(2.18557e-07 -1 -1 -2.18557e-07 1032 528)" fill="#212121"/>
<rect width="24" height="4" transform="matrix(2.18557e-07 -1 -1 -2.18557e-07 1026 528)" fill="#212121"/>
<rect width="24" height="4" transform="matrix(2.18557e-07 -1 -1 -2.18557e-07 1020 528)" fill="#212121"/>
<rect width="24" height="4" transform="matrix(2.18557e-07 -1 -1 -2.18557e-07 1014 528)" fill="#212121"/>
<rect width="24" height="4" transform="matrix(2.18557e-07 -1 -1 -2.18557e-07 1008 528)" fill="#212121"/>
<rect width="24" height="4" transform="matrix(2.18557e-07 -1 -1 -2.18557e-07 1002 528)" fill="#212121"/>
<rect width="24" height="4" transform="matrix(2.18557e-07 -1 -1 -2.18557e-07 996 528)" fill="#212121"/>
<rect width="24" height="4" transform="matrix(2.18557e-07 -1 -1 -2.18557e-07 990 528)" fill="#212121"/>
<rect x="984" y="504" width="24" height="24" transform="rotate(90 984 504)" fill="#212121"/>
<rect width="24" height="4" transform="matrix(2.18557e-07 -1 -1 -2.18557e-07 1104 528)" fill="#212121"/>
<rect width="24" height="4" transform="matrix(2.18557e-07 -1 -1 -2.18557e-07 1098 528)" fill="#212121"/>
<rect width="24" height="4" transform="matrix(2.18557e-07 -1 -1 -2.18557e-07 1092 528)" fill="#212121"/>
<rect width="24" height="4" transform="matrix(2.18557e-07 -1 -1 -2.18557e-07 1086 528)" fill="#212121"/>
<rect width="24" height="4" transform="matrix(2.18557e-07 -1 -1 -2.18557e-07 1080 528)" fill="#212121"/>
<rect width="24" height="4" transform="matrix(2.18557e-07 -1 -1 -2.18557e-07 1074 528)" fill="#212121"/>
<rect width="24" height="4" transform="matrix(2.18557e-07 -1 -1 -2.18557e-07 1068 528)" fill="#212121"/>
<rect width="24" height="4" transform="matrix(2.18557e-07 -1 -1 -2.18557e-07 1062 528)" fill="#212121"/>
<rect x="1056" y="504" width="24" height="24" transform="rotate(90 1056 504)" fill="#212121"/>
<rect width="24" height="4" transform="matrix(2.18557e-07 -1 -1 -2.18557e-07 1176 528)" fill="#212121"/>
<rect width="24" height="4" transform="matrix(2.18557e-07 -1 -1 -2.18557e-07 1170 528)" fill="#212121"/>
<rect width="24" height="4" transform="matrix(2.18557e-07 -1 -1 -2.18557e-07 1164 528)" fill="#212121"/>
<rect width="24" height="4" transform="matrix(2.18557e-07 -1 -1 -2.18557e-07 1158 528)" fill="#212121"/>
<rect width="24" height="4" transform="matrix(2.18557e-07 -1 -1 -2.18557e-07 1152 528)" fill="#212121"/>
<rect width="24" height="4" transform="matrix(2.18557e-07 -1 -1 -2.18557e-07 1146 528)" fill="#212121"/>
<rect width="24" height="4" transform="matrix(2.18557e-07 -1 -1 -2.18557e-07 1140 528)" fill="#212121"/>
<rect width="24" height="4" transform="matrix(2.18557e-07 -1 -1 -2.18557e-07 1134 528)" fill="#212121"/>
<rect x="1128" y="504" width="24" height="24" transform="rotate(90 1128 504)" fill="#212121"/>
<rect x="1176" y="504" width="24" height="24" fill="#212121"/>
<rect width="24" height="4" transform="matrix(2.18557e-07 -1 -1 -2.18557e-07 1032 936)" fill="#212121"/>
<rect width="24" height="4" transform="matrix(2.18557e-07 -1 -1 -2.18557e-07 1026 936)" fill="#212121"/>
<rect width="24" height="4" transform="matrix(2.18557e-07 -1 -1 -2.18557e-07 1020 936)" fill="#212121"/>
<rect width="24" height="4" transform="matrix(2.18557e-07 -1 -1 -2.18557e-07 1014 936)" fill="#212121"/>
<rect width="24" height="4" transform="matrix(2.18557e-07 -1 -1 -2.18557e-07 1008 936)" fill="#212121"/>
<rect width="24" height="4" transform="matrix(2.18557e-07 -1 -1 -2.18557e-07 1002 936)" fill="#212121"/>
<rect width="24" height="4" transform="matrix(2.18557e-07 -1 -1 -2.18557e-07 996 936)" fill="#212121"/>
<rect width="24" height="4" transform="matrix(2.18557e-07 -1 -1 -2.18557e-07 990 936)" fill="#212121"/>
<rect x="984" y="912" width="24" height="24" transform="rotate(90 984 912)" fill="#212121"/>
<rect width="24" height="4" transform="matrix(2.18557e-07 -1 -1 -2.18557e-07 1104 936)" fill="#212121"/>
<rect width="24" height="4" transform="matrix(2.18557e-07 -1 -1 -2.18557e-07 1098 936)" fill="#212121"/>
<rect width="24" height="4" transform="matrix(2.18557e-07 -1 -1 -2.18557e-07 1092 936)" fill="#212121"/>
<rect width="24" height="4" transform="matrix(2.18557e-07 -1 -1 -2.18557e-07 1086 936)" fill="#212121"/>
<rect width="24" height="4" transform="matrix(2.18557e-07 -1 -1 -2.18557e-07 1080 936)" fill="#212121"/>
<rect width="24" height="4" transform="matrix(2.18557e-07 -1 -1 -2.18557e-07 1074 936)" fill="#212121"/>
<rect width="24" height="4" transform="matrix(2.18557e-07 -1 -1 -2.18557e-07 1068 936)" fill="#212121"/>
<rect width="24" height="4" transform="matrix(2.18557e-07 -1 -1 -2.18557e-07 1062 936)" fill="#212121"/>
<rect x="1056" y="912" width="24" height="24" transform="rotate(90 1056 912)" fill="#212121"/>
<rect width="24" height="4" transform="matrix(2.18557e-07 -1 -1 -2.18557e-07 1176 936)" fill="#212121"/>
<rect width="24" height="4" transform="matrix(2.18557e-07 -1 -1 -2.18557e-07 1170 936)" fill="#212121"/>
<rect width="24" height="4" transform="matrix(2.18557e-07 -1 -1 -2.18557e-07 1164 936)" fill="#212121"/>
<rect width="24" height="4" transform="matrix(2.18557e-07 -1 -1 -2.18557e-07 1158 936)" fill="#212121"/>
<rect width="24" height="4" transform="matrix(2.18557e-07 -1 -1 -2.18557e-07 1152 936)" fill="#212121"/>
<rect width="24" height="4" transform="matrix(2.18557e-07 -1 -1 -2.18557e-07 1146 936)" fill="#212121"/>
<rect width="24" height="4" transform="matrix(2.18557e-07 -1 -1 -2.18557e-07 1140 936)" fill="#212121"/>
<rect width="24" height="4" transform="matrix(2.18557e-07 -1 -1 -2.18557e-07 1134 936)" fill="#212121"/>
<rect x="1128" y="912" width="24" height="24" transform="rotate(90 1128 912)" fill="#212121"/>
<rect x="1176" y="912" width="24" height="24" fill="#212121"/>
<rect width="24" height="4" transform="matrix(2.18557e-07 -1 -1 -2.18557e-07 1656 528)" fill="#212121"/>
<rect width="24" height="4" transform="matrix(2.18557e-07 -1 -1 -2.18557e-07 1650 528)" fill="#212121"/>
<rect width="24" height="4" transform="matrix(2.18557e-07 -1 -1 -2.18557e-07 1644 528)" fill="#212121"/>
<rect width="24" height="4" transform="matrix(2.18557e-07 -1 -1 -2.18557e-07 1638 528)" fill="#212121"/>
<rect width="24" height="4" transform="matrix(2.18557e-07 -1 -1 -2.18557e-07 1632 528)" fill="#212121"/>
<rect width="24" height="4" transform="matrix(2.18557e-07 -1 -1 -2.18557e-07 1626 528)" fill="#212121"/>
<rect width="24" height="4" transform="matrix(2.18557e-07 -1 -1 -2.18557e-07 1620 528)" fill="#212121"/>
<rect width="24" height="4" transform="matrix(2.18557e-07 -1 -1 -2.18557e-07 1614 528)" fill="#212121"/>
<rect x="1608" y="504" width="24" height="24" transform="rotate(90 1608 504)" fill="#212121"/>
<rect width="24" height="4" transform="matrix(2.18557e-07 -1 -1 -2.18557e-07 1728 528)" fill="#212121"/>
<rect width="24" height="4" transform="matrix(2.18557e-07 -1 -1 -2.18557e-07 1722 528)" fill="#212121"/>
<rect width="24" height="4" transform="matrix(2.18557e-07 -1 -1 -2.18557e-07 1716 528)" fill="#212121"/>
<rect width="24" height="4" transform="matrix(2.18557e-07 -1 -1 -2.18557e-07 1710 528)" fill="#212121"/>
<rect width="24" height="4" transform="matrix(2.18557e-07 -1 -1 -2.18557e-07 1704 528)" fill="#212121"/>
<rect width="24" height="4" transform="matrix(2.18557e-07 -1 -1 -2.18557e-07 1698 528)" fill="#212121"/>
<rect width="24" height="4" transform="matrix(2.18557e-07 -1 -1 -2.18557e-07 1692 528)" fill="#212121"/>
<rect width="24" height="4" transform="matrix(2.18557e-07 -1 -1 -2.18557e-07 1686 528)" fill="#212121"/>
<rect x="1680" y="504" width="24" height="24" transform="rotate(90 1680 504)" fill="#212121"/>
<rect width="24" height="4" transform="matrix(2.18557e-07 -1 -1 -2.18557e-07 1800 528)" fill="#212121"/>
<rect width="24" height="4" transform="matrix(2.18557e-07 -1 -1 -2.18557e-07 1794 528)" fill="#212121"/>
<rect width="24" height="4" transform="matrix(2.18557e-07 -1 -1 -2.18557e-07 1788 528)" fill="#212121"/>
<rect width="24" height="4" transform="matrix(2.18557e-07 -1 -1 -2.18557e-07 1782 528)" fill="#212121"/>
<rect width="24" height="4" transform="matrix(2.18557e-07 -1 -1 -2.18557e-07 1776 528)" fill="#212121"/>
<rect width="24" height="4" transform="matrix(2.18557e-07 -1 -1 -2.18557e-07 1770 528)" fill="#212121"/>
<rect width="24" height="4" transform="matrix(2.18557e-07 -1 -1 -2.18557e-07 1764 528)" fill="#212121"/>
<rect width="24" height="4" transform="matrix(2.18557e-07 -1 -1 -2.18557e-07 1758 528)" fill="#212121"/>
<rect x="1752" y="504" width="24" height="24" transform="rotate(90 1752 504)" fill="#212121"/>
<rect x="1800" y="504" width="24" height="24" fill="#212121"/>
<rect width="24" height="4" transform="matrix(2.18557e-07 -1 -1 -2.18557e-07 1656 936)" fill="#212121"/>
<rect width="24" height="4" transform="matrix(2.18557e-07 -1 -1 -2.18557e-07 1650 936)" fill="#212121"/>
<rect width="24" height="4" transform="matrix(2.18557e-07 -1 -1 -2.18557e-07 1644 936)" fill="#212121"/>
<rect width="24" height="4" transform="matrix(2.18557e-07 -1 -1 -2.18557e-07 1638 936)" fill="#212121"/>
<rect width="24" height="4" transform="matrix(2.18557e-07 -1 -1 -2.18557e-07 1632 936)" fill="#212121"/>
<rect width="24" height="4" transform="matrix(2.18557e-07 -1 -1 -2.18557e-07 1626 936)" fill="#212121"/>
<rect width="24" height="4" transform="matrix(2.18557e-07 -1 -1 -2.18557e-07 1620 936)" fill="#212121"/>
<rect width="24" height="4" transform="matrix(2.18557e-07 -1 -1 -2.18557e-07 1614 936)" fill="#212121"/>
<rect x="1608" y="912" width="24" height="24" transform="rotate(90 1608 912)" fill="#212121"/>
<rect width="24" height="4" transform="matrix(2.18557e-07 -1 -1 -2.18557e-07 1728 936)" fill="#212121"/>
<rect width="24" height="4" transform="matrix(2.18557e-07 -1 -1 -2.18557e-07 1722 936)" fill="#212121"/>
<rect width="24" height="4" transform="matrix(2.18557e-07 -1 -1 -2.18557e-07 1716 936)" fill="#212121"/>
<rect width="24" height="4" transform="matrix(2.18557e-07 -1 -1 -2.18557e-07 1710 936)" fill="#212121"/>
<rect width="24" height="4" transform="matrix(2.18557e-07 -1 -1 -2.18557e-07 1704 936)" fill="#212121"/>
<rect width="24" height="4" transform="matrix(2.18557e-07 -1 -1 -2.18557e-07 1698 936)" fill="#212121"/>
<rect width="24" height="4" transform="matrix(2.18557e-07 -1 -1 -2.18557e-07 1692 936)" fill="#212121"/>
<rect width="24" height="4" transform="matrix(2.18557e-07 -1 -1 -2.18557e-07 1686 936)" fill="#212121"/>
<rect x="1680" y="912" width="24" height="24" transform="rotate(90 1680 912)" fill="#212121"/>
<rect width="24" height="4" transform="matrix(2.18557e-07 -1 -1 -2.18557e-07 1800 936)" fill="#212121"/>
<rect width="24" height="4" transform="matrix(2.18557e-07 -1 -1 -2.18557e-07 1794 936)" fill="#212121"/>
<rect width="24" height="4" transform="matrix(2.18557e-07 -1 -1 -2.18557e-07 1788 936)" fill="#212121"/>
<rect width="24" height="4" transform="matrix(2.18557e-07 -1 -1 -2.18557e-07 1782 936)" fill="#212121"/>
<rect width="24" height="4" transform="matrix(2.18557e-07 -1 -1 -2.18557e-07 1776 936)" fill="#212121"/>
<rect width="24" height="4" transform="matrix(2.18557e-07 -1 -1 -2.18557e-07 1770 936)" fill="#212121"/>
<rect width="24" height="4" transform="matrix(2.18557e-07 -1 -1 -2.18557e-07 1764 936)" fill="#212121"/>
<rect width="24" height="4" transform="matrix(2.18557e-07 -1 -1 -2.18557e-07 1758 936)" fill="#212121"/>
<rect x="1752" y="912" width="24" height="24" transform="rotate(90 1752 912)" fill="#212121"/>
<rect x="1800" y="912" width="24" height="24" fill="#212121"/>
<rect width="24" height="4" transform="matrix(2.18557e-07 -1 -1 -2.18557e-07 600 528)" fill="#212121"/>
<rect width="24" height="4" transform="matrix(2.18557e-07 -1 -1 -2.18557e-07 594 528)" fill="#212121"/>
<rect width="24" height="4" transform="matrix(2.18557e-07 -1 -1 -2.18557e-07 588 528)" fill="#212121"/>
<rect width="24" height="4" transform="matrix(2.18557e-07 -1 -1 -2.18557e-07 582 528)" fill="#212121"/>
<rect width="24" height="4" transform="matrix(2.18557e-07 -1 -1 -2.18557e-07 576 528)" fill="#212121"/>
<rect width="24" height="4" transform="matrix(2.18557e-07 -1 -1 -2.18557e-07 570 528)" fill="#212121"/>
<rect width="24" height="4" transform="matrix(2.18557e-07 -1 -1 -2.18557e-07 564 528)" fill="#212121"/>
<rect width="24" height="4" transform="matrix(2.18557e-07 -1 -1 -2.18557e-07 558 528)" fill="#212121"/>
<rect x="552" y="504" width="24" height="24" transform="rotate(90 552 504)" fill="#212121"/>
<rect width="24" height="4" transform="matrix(2.18557e-07 -1 -1 -2.18557e-07 672 528)" fill="#212121"/>
<rect width="24" height="4" transform="matrix(2.18557e-07 -1 -1 -2.18557e-07 666 528)" fill="#212121"/>
<rect width="24" height="4" transform="matrix(2.18557e-07 -1 -1 -2.18557e-07 660 528)" fill="#212121"/>
<rect width="24" height="4" transform="matrix(2.18557e-07 -1 -1 -2.18557e-07 654 528)" fill="#212121"/>
<rect width="24" height="4" transform="matrix(2.18557e-07 -1 -1 -2.18557e-07 648 528)" fill="#212121"/>
<rect width="24" height="4" transform="matrix(2.18557e-07 -1 -1 -2.18557e-07 642 528)" fill="#212121"/>
<rect width="24" height="4" transform="matrix(2.18557e-07 -1 -1 -2.18557e-07 636 528)" fill="#212121"/>
<rect width="24" height="4" transform="matrix(2.18557e-07 -1 -1 -2.18557e-07 630 528)" fill="#212121"/>
<rect x="624" y="504" width="24" height="24" transform="rotate(90 624 504)" fill="#212121"/>
<rect width="24" height="4" transform="matrix(2.18557e-07 -1 -1 -2.18557e-07 744 528)" fill="#212121"/>
<rect width="24" height="4" transform="matrix(2.18557e-07 -1 -1 -2.18557e-07 738 528)" fill="#212121"/>
<rect width="24" height="4" transform="matrix(2.18557e-07 -1 -1 -2.18557e-07 732 528)" fill="#212121"/>
<rect width="24" height="4" transform="matrix(2.18557e-07 -1 -1 -2.18557e-07 726 528)" fill="#212121"/>
<rect width="24" height="4" transform="matrix(2.18557e-07 -1 -1 -2.18557e-07 720 528)" fill="#212121"/>
<rect width="24" height="4" transform="matrix(2.18557e-07 -1 -1 -2.18557e-07 714 528)" fill="#212121"/>
<rect width="24" height="4" transform="matrix(2.18557e-07 -1 -1 -2.18557e-07 708 528)" fill="#212121"/>
<rect width="24" height="4" transform="matrix(2.18557e-07 -1 -1 -2.18557e-07 702 528)" fill="#212121"/>
<rect x="696" y="504" width="24" height="24" transform="rotate(90 696 504)" fill="#212121"/>
<rect x="744" y="504" width="24" height="24" fill="#212121"/>
<rect width="24" height="4" transform="matrix(2.18557e-07 -1 -1 -2.18557e-07 600 936)" fill="#212121"/>
<rect width="24" height="4" transform="matrix(2.18557e-07 -1 -1 -2.18557e-07 594 936)" fill="#212121"/>
<rect width="24" height="4" transform="matrix(2.18557e-07 -1 -1 -2.18557e-07 588 936)" fill="#212121"/>
<rect width="24" height="4" transform="matrix(2.18557e-07 -1 -1 -2.18557e-07 582 936)" fill="#212121"/>
<rect width="24" height="4" transform="matrix(2.18557e-07 -1 -1 -2.18557e-07 576 936)" fill="#212121"/>
<rect width="24" height="4" transform="matrix(2.18557e-07 -1 -1 -2.18557e-07 570 936)" fill="#212121"/>
<rect width="24" height="4" transform="matrix(2.18557e-07 -1 -1 -2.18557e-07 564 936)" fill="#212121"/>
<rect width="24" height="4" transform="matrix(2.18557e-07 -1 -1 -2.18557e-07 558 936)" fill="#212121"/>
<rect x="552" y="912" width="24" height="24" transform="rotate(90 552 912)" fill="#212121"/>
<rect width="24" height="4" transform="matrix(2.18557e-07 -1 -1 -2.18557e-07 672 936)" fill="#212121"/>
<rect width="24" height="4" transform="matrix(2.18557e-07 -1 -1 -2.18557e-07 666 936)" fill="#212121"/>
<rect width="24" height="4" transform="matrix(2.18557e-07 -1 -1 -2.18557e-07 660 936)" fill="#212121"/>
<rect width="24" height="4" transform="matrix(2.18557e-07 -1 -1 -2.18557e-07 654 936)" fill="#212121"/>
<rect width="24" height="4" transform="matrix(2.18557e-07 -1 -1 -2.18557e-07 648 936)" fill="#212121"/>
<rect width="24" height="4" transform="matrix(2.18557e-07 -1 -1 -2.18557e-07 642 936)" fill="#212121"/>
<rect width="24" height="4" transform="matrix(2.18557e-07 -1 -1 -2.18557e-07 636 936)" fill="#212121"/>
<rect width="24" height="4" transform="matrix(2.18557e-07 -1 -1 -2.18557e-07 630 936)" fill="#212121"/>
<rect x="624" y="912" width="24" height="24" transform="rotate(90 624 912)" fill="#212121"/>
<rect width="24" height="4" transform="matrix(2.18557e-07 -1 -1 -2.18557e-07 744 936)" fill="#212121"/>
<rect width="24" height="4" transform="matrix(2.18557e-07 -1 -1 -2.18557e-07 738 936)" fill="#212121"/>
<rect width="24" height="4" transform="matrix(2.18557e-07 -1 -1 -2.18557e-07 732 936)" fill="#212121"/>
<rect width="24" height="4" transform="matrix(2.18557e-07 -1 -1 -2.18557e-07 726 936)" fill="#212121"/>
<rect width="24" height="4" transform="matrix(2.18557e-07 -1 -1 -2.18557e-07 720 936)" fill="#212121"/>
<rect width="24" height="4" transform="matrix(2.18557e-07 -1 -1 -2.18557e-07 714 936)" fill="#212121"/>
<rect width="24" height="4" transform="matrix(2.18557e-07 -1 -1 -2.18557e-07 708 936)" fill="#212121"/>
<rect width="24" height="4" transform="matrix(2.18557e-07 -1 -1 -2.18557e-07 702 936)" fill="#212121"/>
<rect x="696" y="912" width="24" height="24" transform="rotate(90 696 912)" fill="#212121"/>
<rect x="744" y="912" width="24" height="24" fill="#212121"/>
<rect width="24" height="4" transform="matrix(2.18557e-07 -1 -1 -2.18557e-07 600 912)" fill="#212121"/>
<rect width="24" height="4" transform="matrix(2.18557e-07 -1 -1 -2.18557e-07 594 912)" fill="#212121"/>
<rect width="24" height="4" transform="matrix(2.18557e-07 -1 -1 -2.18557e-07 588 912)" fill="#212121"/>
<rect width="24" height="4" transform="matrix(2.18557e-07 -1 -1 -2.18557e-07 582 912)" fill="#212121"/>
<rect width="24" height="4" transform="matrix(2.18557e-07 -1 -1 -2.18557e-07 576 912)" fill="#212121"/>
<rect width="24" height="4" transform="matrix(2.18557e-07 -1 -1 -2.18557e-07 570 912)" fill="#212121"/>
<rect width="24" height="4" transform="matrix(2.18557e-07 -1 -1 -2.18557e-07 564 912)" fill="#212121"/>
<rect width="24" height="4" transform="matrix(2.18557e-07 -1 -1 -2.18557e-07 558 912)" fill="#212121"/>
<rect x="552" y="888" width="24" height="24" transform="rotate(90 552 888)" fill="#212121"/>
<rect width="24" height="4" transform="matrix(2.18557e-07 -1 -1 -2.18557e-07 672 912)" fill="#212121"/>
<rect width="24" height="4" transform="matrix(2.18557e-07 -1 -1 -2.18557e-07 666 912)" fill="#212121"/>
<rect width="24" height="4" transform="matrix(2.18557e-07 -1 -1 -2.18557e-07 660 912)" fill="#212121"/>
<rect width="24" height="4" transform="matrix(2.18557e-07 -1 -1 -2.18557e-07 654 912)" fill="#212121"/>
<rect width="24" height="4" transform="matrix(2.18557e-07 -1 -1 -2.18557e-07 648 912)" fill="#212121"/>
<rect width="24" height="4" transform="matrix(2.18557e-07 -1 -1 -2.18557e-07 642 912)" fill="#212121"/>
<rect width="24" height="4" transform="matrix(2.18557e-07 -1 -1 -2.18557e-07 636 912)" fill="#212121"/>
<rect width="24" height="4" transform="matrix(2.18557e-07 -1 -1 -2.18557e-07 630 912)" fill="#212121"/>
<rect x="624" y="888" width="24" height="24" transform="rotate(90 624 888)" fill="#212121"/>
<rect width="24" height="4" transform="matrix(2.18557e-07 -1 -1 -2.18557e-07 744 912)" fill="#212121"/>
<rect width="24" height="4" transform="matrix(2.18557e-07 -1 -1 -2.18557e-07 738 912)" fill="#212121"/>
<rect width="24" height="4" transform="matrix(2.18557e-07 -1 -1 -2.18557e-07 732 912)" fill="#212121"/>
<rect width="24" height="4" transform="matrix(2.18557e-07 -1 -1 -2.18557e-07 726 912)" fill="#212121"/>
<rect width="24" height="4" transform="matrix(2.18557e-07 -1 -1 -2.18557e-07 720 912)" fill="#212121"/>
<rect width="24" height="4" transform="matrix(2.18557e-07 -1 -1 -2.18557e-07 714 912)" fill="#212121"/>
<rect width="24" height="4" transform="matrix(2.18557e-07 -1 -1 -2.18557e-07 708 912)" fill="#212121"/>
<rect width="24" height="4" transform="matrix(2.18557e-07 -1 -1 -2.18557e-07 702 912)" fill="#212121"/>
<rect x="696" y="888" width="24" height="24" transform="rotate(90 696 888)" fill="#212121"/>
<rect x="744" y="888" width="24" height="24" fill="#212121"/>
<rect width="24" height="4" transform="matrix(2.18557e-07 -1 -1 -2.18557e-07 600 552)" fill="#212121"/>
<rect width="24" height="4" transform="matrix(2.18557e-07 -1 -1 -2.18557e-07 594 552)" fill="#212121"/>
<rect width="24" height="4" transform="matrix(2.18557e-07 -1 -1 -2.18557e-07 588 552)" fill="#212121"/>
<rect width="24" height="4" transform="matrix(2.18557e-07 -1 -1 -2.18557e-07 582 552)" fill="#212121"/>
<rect width="24" height="4" transform="matrix(2.18557e-07 -1 -1 -2.18557e-07 576 552)" fill="#212121"/>
<rect width="24" height="4" transform="matrix(2.18557e-07 -1 -1 -2.18557e-07 570 552)" fill="#212121"/>
<rect width="24" height="4" transform="matrix(2.18557e-07 -1 -1 -2.18557e-07 564 552)" fill="#212121"/>
<rect width="24" height="4" transform="matrix(2.18557e-07 -1 -1 -2.18557e-07 558 552)" fill="#212121"/>
<rect x="552" y="528" width="24" height="24" transform="rotate(90 552 528)" fill="#212121"/>
<rect width="24" height="4" transform="matrix(2.18557e-07 -1 -1 -2.18557e-07 672 552)" fill="#212121"/>
<rect width="24" height="4" transform="matrix(2.18557e-07 -1 -1 -2.18557e-07 666 552)" fill="#212121"/>
<rect width="24" height="4" transform="matrix(2.18557e-07 -1 -1 -2.18557e-07 660 552)" fill="#212121"/>
<rect width="24" height="4" transform="matrix(2.18557e-07 -1 -1 -2.18557e-07 654 552)" fill="#212121"/>
<rect width="24" height="4" transform="matrix(2.18557e-07 -1 -1 -2.18557e-07 648 552)" fill="#212121"/>
<rect width="24" height="4" transform="matrix(2.18557e-07 -1 -1 -2.18557e-07 642 552)" fill="#212121"/>
<rect width="24" height="4" transform="matrix(2.18557e-07 -1 -1 -2.18557e-07 636 552)" fill="#212121"/>
<rect width="24" height="4" transform="matrix(2.18557e-07 -1 -1 -2.18557e-07 630 552)" fill="#212121"/>
<rect x="624" y="528" width="24" height="24" transform="rotate(90 624 528)" fill="#212121"/>
<rect width="24" height="4" transform="matrix(2.18557e-07 -1 -1 -2.18557e-07 744 552)" fill="#212121"/>
<rect width="24" height="4" transform="matrix(2.18557e-07 -1 -1 -2.18557e-07 738 552)" fill="#212121"/>
<rect width="24" height="4" transform="matrix(2.18557e-07 -1 -1 -2.18557e-07 732 552)" fill="#212121"/>
<rect width="24" height="4" transform="matrix(2.18557e-07 -1 -1 -2.18557e-07 726 552)" fill="#212121"/>
<rect width="24" height="4" transform="matrix(2.18557e-07 -1 -1 -2.18557e-07 720 552)" fill="#212121"/>
<rect width="24" height="4" transform="matrix(2.18557e-07 -1 -1 -2.18557e-07 714 552)" fill="#212121"/>
<rect width="24" height="4" transform="matrix(2.18557e-07 -1 -1 -2.18557e-07 708 552)" fill="#212121"/>
<rect width="24" height="4" transform="matrix(2.18557e-07 -1 -1 -2.18557e-07 702 552)" fill="#212121"/>
<rect x="696" y="528" width="24" height="24" transform="rotate(90 696 528)" fill="#212121"/>
<rect x="744" y="528" width="24" height="24" fill="#212121"/>
<defs>
<filter id="filter0_d_1119_33241" x="260" y="500" width="2348" height="164" filterUnits="userSpaceOnUse" color-interpolation-filters="sRGB">
<feFlood flood-opacity="0" result="BackgroundImageFix"/>
<feColorMatrix in="SourceAlpha" type="matrix" values="0 0 0 0 0 0 0 0 0 0 0 0 0 0 0 0 0 0 127 0" result="hardAlpha"/>
<feOffset dx="8" dy="8"/>
<feGaussianBlur stdDeviation="2"/>
<feComposite in2="hardAlpha" operator="out"/>
<feColorMatrix type="matrix" values="0 0 0 0 0 0 0 0 0 0 0 0 0 0 0 0 0 0 0.4 0"/>
<feBlend mode="normal" in2="BackgroundImageFix" result="effect1_dropShadow_1119_33241"/>
<feBlend mode="normal" in="SourceGraphic" in2="effect1_dropShadow_1119_33241" result="shape"/>
</filter>
<filter id="filter1_d_1119_33241" x="260" y="788" width="2350" height="164" filterUnits="userSpaceOnUse" color-interpolation-filters="sRGB">
<feFlood flood-opacity="0" result="BackgroundImageFix"/>
<feColorMatrix in="SourceAlpha" type="matrix" values="0 0 0 0 0 0 0 0 0 0 0 0 0 0 0 0 0 0 127 0" result="hardAlpha"/>
<feOffset dx="8" dy="8"/>
<feGaussianBlur stdDeviation="2"/>
<feComposite in2="hardAlpha" operator="out"/>
<feColorMatrix type="matrix" values="0 0 0 0 0 0 0 0 0 0 0 0 0 0 0 0 0 0 0.4 0"/>
<feBlend mode="normal" in2="BackgroundImageFix" result="effect1_dropShadow_1119_33241"/>
<feBlend mode="normal" in="SourceGraphic" in2="effect1_dropShadow_1119_33241" result="shape"/>
</filter>
</defs>
</svg>
