<svg width="3840" height="2160" viewBox="0 0 3840 2160" fill="none" xmlns="http://www.w3.org/2000/svg">
<mask id="path-1-inside-1_1119_117817" fill="white">
<path d="M696 1008H2904V1248H696V1008Z"/>
</mask>
<path d="M696 1008H2904V1248H696V1008Z" fill="#EEEEEE"/>
<path d="M696 1012H2904V1004H696V1012ZM2904 1244H696V1252H2904V1244Z" fill="#474747" mask="url(#path-1-inside-1_1119_117817)"/>
<g filter="url(#filter0_d_1119_117817)">
<path d="M696 1056H2904V1200H696V1056Z" fill="#D9D9D9"/>
<path d="M2906 1054V1202H694V1054H2906Z" stroke="#474747" stroke-width="4"/>
</g>
<rect width="24" height="4" transform="matrix(-1.31134e-07 1 1 1.31134e-07 2184 1128)" fill="#242424"/>
<rect width="24" height="4" transform="matrix(-1.31134e-07 1 1 1.31134e-07 2190 1128)" fill="#242424"/>
<rect width="24" height="4" transform="matrix(-1.31134e-07 1 1 1.31134e-07 2196 1128)" fill="#242424"/>
<rect width="24" height="4" transform="matrix(-1.31134e-07 1 1 1.31134e-07 2202 1128)" fill="#242424"/>
<rect width="24" height="4" transform="matrix(-1.31134e-07 1 1 1.31134e-07 2208 1128)" fill="#242424"/>
<rect width="24" height="4" transform="matrix(-1.31134e-07 1 1 1.31134e-07 2214 1128)" fill="#242424"/>
<rect width="24" height="4" transform="matrix(-1.31134e-07 1 1 1.31134e-07 2220 1128)" fill="#242424"/>
<rect width="24" height="4" transform="matrix(-1.31134e-07 1 1 1.31134e-07 2226 1128)" fill="#242424"/>
<rect x="2232" y="1152" width="24" height="24" transform="rotate(-90 2232 1152)" fill="#242424"/>
<rect width="24" height="4" transform="matrix(-1.31134e-07 1 1 1.31134e-07 2112 1128)" fill="#242424"/>
<rect width="24" height="4" transform="matrix(-1.31134e-07 1 1 1.31134e-07 2118 1128)" fill="#242424"/>
<rect width="24" height="4" transform="matrix(-1.31134e-07 1 1 1.31134e-07 2124 1128)" fill="#242424"/>
<rect width="24" height="4" transform="matrix(-1.31134e-07 1 1 1.31134e-07 2130 1128)" fill="#242424"/>
<rect width="24" height="4" transform="matrix(-1.31134e-07 1 1 1.31134e-07 2136 1128)" fill="#242424"/>
<rect width="24" height="4" transform="matrix(-1.31134e-07 1 1 1.31134e-07 2142 1128)" fill="#242424"/>
<rect width="24" height="4" transform="matrix(-1.31134e-07 1 1 1.31134e-07 2148 1128)" fill="#242424"/>
<rect width="24" height="4" transform="matrix(-1.31134e-07 1 1 1.31134e-07 2154 1128)" fill="#242424"/>
<rect x="2160" y="1152" width="24" height="24" transform="rotate(-90 2160 1152)" fill="#242424"/>
<rect x="2112" y="1152" width="24" height="24" transform="rotate(-180 2112 1152)" fill="#242424"/>
<rect width="24" height="4" transform="matrix(-1.31134e-07 1 1 1.31134e-07 2184 1104)" fill="#242424"/>
<rect width="24" height="4" transform="matrix(-1.31134e-07 1 1 1.31134e-07 2190 1104)" fill="#242424"/>
<rect width="24" height="4" transform="matrix(-1.31134e-07 1 1 1.31134e-07 2196 1104)" fill="#242424"/>
<rect width="24" height="4" transform="matrix(-1.31134e-07 1 1 1.31134e-07 2202 1104)" fill="#242424"/>
<rect width="24" height="4" transform="matrix(-1.31134e-07 1 1 1.31134e-07 2208 1104)" fill="#242424"/>
<rect width="24" height="4" transform="matrix(-1.31134e-07 1 1 1.31134e-07 2214 1104)" fill="#242424"/>
<rect width="24" height="4" transform="matrix(-1.31134e-07 1 1 1.31134e-07 2220 1104)" fill="#242424"/>
<rect width="24" height="4" transform="matrix(-1.31134e-07 1 1 1.31134e-07 2226 1104)" fill="#242424"/>
<rect x="2232" y="1128" width="24" height="24" transform="rotate(-90 2232 1128)" fill="#242424"/>
<rect width="24" height="4" transform="matrix(-1.31134e-07 1 1 1.31134e-07 2112 1104)" fill="#242424"/>
<rect width="24" height="4" transform="matrix(-1.31134e-07 1 1 1.31134e-07 2118 1104)" fill="#242424"/>
<rect width="24" height="4" transform="matrix(-1.31134e-07 1 1 1.31134e-07 2124 1104)" fill="#242424"/>
<rect width="24" height="4" transform="matrix(-1.31134e-07 1 1 1.31134e-07 2130 1104)" fill="#242424"/>
<rect width="24" height="4" transform="matrix(-1.31134e-07 1 1 1.31134e-07 2136 1104)" fill="#242424"/>
<rect width="24" height="4" transform="matrix(-1.31134e-07 1 1 1.31134e-07 2142 1104)" fill="#242424"/>
<rect width="24" height="4" transform="matrix(-1.31134e-07 1 1 1.31134e-07 2148 1104)" fill="#242424"/>
<rect width="24" height="4" transform="matrix(-1.31134e-07 1 1 1.31134e-07 2154 1104)" fill="#242424"/>
<rect x="2160" y="1128" width="24" height="24" transform="rotate(-90 2160 1128)" fill="#242424"/>
<rect x="2112" y="1128" width="24" height="24" transform="rotate(-180 2112 1128)" fill="#242424"/>
<rect width="48" height="48" transform="translate(1704 1104)" fill="#242424"/>
<path d="M1735.97 1132.85C1735.95 1132.78 1735.91 1132.71 1735.86 1132.65C1735.8 1132.59 1735.74 1132.54 1735.67 1132.51C1735.6 1132.47 1735.53 1132.45 1735.45 1132.45C1735.37 1132.44 1735.29 1132.45 1735.22 1132.47L1733.93 1132.9L1731.79 1128.62C1731.74 1128.52 1731.66 1128.44 1731.57 1128.38C1731.48 1128.33 1731.37 1128.3 1731.26 1128.3L1725.33 1128.3L1725.33 1126.52L1729.48 1126.52C1729.64 1126.52 1729.79 1126.46 1729.9 1126.34C1730.01 1126.23 1730.07 1126.08 1730.07 1125.93C1730.07 1125.77 1730.01 1125.62 1729.9 1125.51C1729.79 1125.39 1729.64 1125.33 1729.48 1125.33L1725.33 1125.33L1725.33 1124.67C1725.89 1124.52 1726.38 1124.18 1726.7 1123.7C1727.02 1123.22 1727.16 1122.64 1727.09 1122.07C1727.02 1121.5 1726.74 1120.97 1726.31 1120.59C1725.87 1120.21 1725.32 1120 1724.74 1120C1724.16 1120 1723.6 1120.21 1723.17 1120.59C1722.74 1120.97 1722.46 1121.5 1722.39 1122.07C1722.31 1122.64 1722.45 1123.22 1722.78 1123.7C1723.1 1124.18 1723.59 1124.52 1724.15 1124.67L1724.15 1125.47C1722.87 1125.76 1721.74 1126.51 1720.98 1127.58C1720.23 1128.65 1719.89 1129.96 1720.03 1131.26C1720.18 1132.57 1720.8 1133.77 1721.78 1134.64C1722.76 1135.52 1724.02 1136 1725.33 1136C1727.81 1136 1730.05 1134.32 1730.65 1132C1730.67 1131.92 1730.67 1131.85 1730.66 1131.77C1730.65 1131.69 1730.62 1131.62 1730.58 1131.55C1730.54 1131.48 1730.49 1131.42 1730.43 1131.38C1730.37 1131.33 1730.3 1131.3 1730.22 1131.28C1730.15 1131.26 1730.07 1131.25 1729.99 1131.26C1729.91 1131.28 1729.84 1131.3 1729.77 1131.34C1729.7 1131.38 1729.65 1131.43 1729.6 1131.49C1729.55 1131.56 1729.52 1131.63 1729.5 1131.7C1729.04 1133.48 1727.25 1134.81 1725.33 1134.81C1724.33 1134.81 1723.37 1134.46 1722.62 1133.8C1721.86 1133.15 1721.37 1132.25 1721.23 1131.27C1721.08 1130.28 1721.3 1129.27 1721.83 1128.43C1722.37 1127.6 1723.19 1126.98 1724.15 1126.69L1724.15 1128.89C1724.15 1129.05 1724.21 1129.2 1724.32 1129.31C1724.43 1129.42 1724.58 1129.48 1724.74 1129.48L1730.89 1129.48L1733.1 1133.89C1733.16 1134.02 1733.27 1134.12 1733.4 1134.18C1733.53 1134.23 1733.68 1134.24 1733.82 1134.19L1735.59 1133.6C1735.74 1133.55 1735.87 1133.44 1735.94 1133.3C1736.01 1133.16 1736.02 1133 1735.97 1132.85ZM1723.55 1122.37C1723.55 1122.13 1723.62 1121.91 1723.75 1121.71C1723.88 1121.52 1724.07 1121.36 1724.28 1121.27C1724.5 1121.18 1724.74 1121.16 1724.97 1121.21C1725.2 1121.25 1725.41 1121.37 1725.58 1121.53C1725.74 1121.7 1725.86 1121.91 1725.9 1122.14C1725.95 1122.37 1725.92 1122.61 1725.83 1122.82C1725.74 1123.04 1725.59 1123.22 1725.4 1123.35C1725.2 1123.49 1724.97 1123.55 1724.74 1123.55C1724.42 1123.55 1724.12 1123.43 1723.9 1123.21C1723.68 1122.99 1723.55 1122.68 1723.55 1122.37Z" fill="white"/>
<rect width="24" height="4" transform="matrix(-1.31134e-07 1 1 1.31134e-07 1416 1128)" fill="#242424"/>
<rect width="24" height="4" transform="matrix(-1.31134e-07 1 1 1.31134e-07 1422 1128)" fill="#242424"/>
<rect width="24" height="4" transform="matrix(-1.31134e-07 1 1 1.31134e-07 1428 1128)" fill="#242424"/>
<rect width="24" height="4" transform="matrix(-1.31134e-07 1 1 1.31134e-07 1434 1128)" fill="#242424"/>
<rect width="24" height="4" transform="matrix(-1.31134e-07 1 1 1.31134e-07 1440 1128)" fill="#242424"/>
<rect width="24" height="4" transform="matrix(-1.31134e-07 1 1 1.31134e-07 1446 1128)" fill="#242424"/>
<rect width="24" height="4" transform="matrix(-1.31134e-07 1 1 1.31134e-07 1452 1128)" fill="#242424"/>
<rect width="24" height="4" transform="matrix(-1.31134e-07 1 1 1.31134e-07 1458 1128)" fill="#242424"/>
<rect x="1464" y="1152" width="24" height="24" transform="rotate(-90 1464 1152)" fill="#242424"/>
<rect width="24" height="4" transform="matrix(-1.31134e-07 1 1 1.31134e-07 1344 1128)" fill="#242424"/>
<rect width="24" height="4" transform="matrix(-1.31134e-07 1 1 1.31134e-07 1350 1128)" fill="#242424"/>
<rect width="24" height="4" transform="matrix(-1.31134e-07 1 1 1.31134e-07 1356 1128)" fill="#242424"/>
<rect width="24" height="4" transform="matrix(-1.31134e-07 1 1 1.31134e-07 1362 1128)" fill="#242424"/>
<rect width="24" height="4" transform="matrix(-1.31134e-07 1 1 1.31134e-07 1368 1128)" fill="#242424"/>
<rect width="24" height="4" transform="matrix(-1.31134e-07 1 1 1.31134e-07 1374 1128)" fill="#242424"/>
<rect width="24" height="4" transform="matrix(-1.31134e-07 1 1 1.31134e-07 1380 1128)" fill="#242424"/>
<rect width="24" height="4" transform="matrix(-1.31134e-07 1 1 1.31134e-07 1386 1128)" fill="#242424"/>
<rect x="1392" y="1152" width="24" height="24" transform="rotate(-90 1392 1152)" fill="#242424"/>
<rect x="1344" y="1152" width="24" height="24" transform="rotate(-180 1344 1152)" fill="#242424"/>
<rect width="24" height="4" transform="matrix(-1.31134e-07 1 1 1.31134e-07 1416 1104)" fill="#242424"/>
<rect width="24" height="4" transform="matrix(-1.31134e-07 1 1 1.31134e-07 1422 1104)" fill="#242424"/>
<rect width="24" height="4" transform="matrix(-1.31134e-07 1 1 1.31134e-07 1428 1104)" fill="#242424"/>
<rect width="24" height="4" transform="matrix(-1.31134e-07 1 1 1.31134e-07 1434 1104)" fill="#242424"/>
<rect width="24" height="4" transform="matrix(-1.31134e-07 1 1 1.31134e-07 1440 1104)" fill="#242424"/>
<rect width="24" height="4" transform="matrix(-1.31134e-07 1 1 1.31134e-07 1446 1104)" fill="#242424"/>
<rect width="24" height="4" transform="matrix(-1.31134e-07 1 1 1.31134e-07 1452 1104)" fill="#242424"/>
<rect width="24" height="4" transform="matrix(-1.31134e-07 1 1 1.31134e-07 1458 1104)" fill="#242424"/>
<rect x="1464" y="1128" width="24" height="24" transform="rotate(-90 1464 1128)" fill="#242424"/>
<rect width="24" height="4" transform="matrix(-1.31134e-07 1 1 1.31134e-07 1344 1104)" fill="#242424"/>
<rect width="24" height="4" transform="matrix(-1.31134e-07 1 1 1.31134e-07 1350 1104)" fill="#242424"/>
<rect width="24" height="4" transform="matrix(-1.31134e-07 1 1 1.31134e-07 1356 1104)" fill="#242424"/>
<rect width="24" height="4" transform="matrix(-1.31134e-07 1 1 1.31134e-07 1362 1104)" fill="#242424"/>
<rect width="24" height="4" transform="matrix(-1.31134e-07 1 1 1.31134e-07 1368 1104)" fill="#242424"/>
<rect width="24" height="4" transform="matrix(-1.31134e-07 1 1 1.31134e-07 1374 1104)" fill="#242424"/>
<rect width="24" height="4" transform="matrix(-1.31134e-07 1 1 1.31134e-07 1380 1104)" fill="#242424"/>
<rect width="24" height="4" transform="matrix(-1.31134e-07 1 1 1.31134e-07 1386 1104)" fill="#242424"/>
<rect x="1392" y="1128" width="24" height="24" transform="rotate(-90 1392 1128)" fill="#242424"/>
<rect x="1344" y="1128" width="24" height="24" transform="rotate(-180 1344 1128)" fill="#242424"/>
<defs>
<filter id="filter0_d_1119_117817" x="692" y="1052" width="2228" height="164" filterUnits="userSpaceOnUse" color-interpolation-filters="sRGB">
<feFlood flood-opacity="0" result="BackgroundImageFix"/>
<feColorMatrix in="SourceAlpha" type="matrix" values="0 0 0 0 0 0 0 0 0 0 0 0 0 0 0 0 0 0 127 0" result="hardAlpha"/>
<feOffset dx="8" dy="8"/>
<feGaussianBlur stdDeviation="2"/>
<feComposite in2="hardAlpha" operator="out"/>
<feColorMatrix type="matrix" values="0 0 0 0 0 0 0 0 0 0 0 0 0 0 0 0 0 0 0.4 0"/>
<feBlend mode="normal" in2="BackgroundImageFix" result="effect1_dropShadow_1119_117817"/>
<feBlend mode="normal" in="SourceGraphic" in2="effect1_dropShadow_1119_117817" result="shape"/>
</filter>
</defs>
</svg>
