<svg width="2880" height="1440" viewBox="0 0 2880 1440" fill="none" xmlns="http://www.w3.org/2000/svg">
<rect x="312" y="462" width="2016" height="354" fill="#EEEEEE"/>
<g filter="url(#filter0_d_1119_34737)">
<mask id="path-2-outside-1_1119_34737" maskUnits="userSpaceOnUse" x="308" y="212" width="2024" height="368" fill="black">
<rect fill="white" x="308" y="212" width="2024" height="368"/>
<path fill-rule="evenodd" clip-rule="evenodd" d="M2088 216H384V455.684H312V575.684H2328V455.684H2088V216Z"/>
</mask>
<path fill-rule="evenodd" clip-rule="evenodd" d="M2088 216H384V455.684H312V575.684H2328V455.684H2088V216Z" fill="#D9D9D9"/>
<path d="M384 216V212H380V216H384ZM2088 216H2092V212H2088V216ZM384 455.684V459.684H388V455.684H384ZM312 455.684V451.684H308V455.684H312ZM312 575.684H308V579.684H312V575.684ZM2328 575.684V579.684H2332V575.684H2328ZM2328 455.684H2332V451.684H2328V455.684ZM2088 455.684H2084V459.684H2088V455.684ZM384 220H2088V212H384V220ZM388 455.684V216H380V455.684H388ZM312 459.684H384V451.684H312V459.684ZM316 575.684V455.684H308V575.684H316ZM2328 571.684H312V579.684H2328V571.684ZM2324 455.684V575.684H2332V455.684H2324ZM2088 459.684H2328V451.684H2088V459.684ZM2084 216V455.684H2092V216H2084Z" fill="#474747" mask="url(#path-2-outside-1_1119_34737)"/>
</g>
<rect width="24" height="4" transform="matrix(-1.31134e-07 1 1 1.31134e-07 1032 384)" fill="#212121"/>
<rect width="24" height="4" transform="matrix(-1.31134e-07 1 1 1.31134e-07 1038 384)" fill="#212121"/>
<rect width="24" height="4" transform="matrix(-1.31134e-07 1 1 1.31134e-07 1044 384)" fill="#212121"/>
<rect width="24" height="4" transform="matrix(-1.31134e-07 1 1 1.31134e-07 1050 384)" fill="#212121"/>
<rect width="24" height="4" transform="matrix(-1.31134e-07 1 1 1.31134e-07 1056 384)" fill="#212121"/>
<rect width="24" height="4" transform="matrix(-1.31134e-07 1 1 1.31134e-07 1062 384)" fill="#212121"/>
<rect width="24" height="4" transform="matrix(-1.31134e-07 1 1 1.31134e-07 1068 384)" fill="#212121"/>
<rect width="24" height="4" transform="matrix(-1.31134e-07 1 1 1.31134e-07 1074 384)" fill="#212121"/>
<rect x="1080" y="408" width="24" height="24" transform="rotate(-90 1080 408)" fill="#212121"/>
<rect width="24" height="4" transform="matrix(-1.31134e-07 1 1 1.31134e-07 960 384)" fill="#212121"/>
<rect width="24" height="4" transform="matrix(-1.31134e-07 1 1 1.31134e-07 966 384)" fill="#212121"/>
<rect width="24" height="4" transform="matrix(-1.31134e-07 1 1 1.31134e-07 972 384)" fill="#212121"/>
<rect width="24" height="4" transform="matrix(-1.31134e-07 1 1 1.31134e-07 978 384)" fill="#212121"/>
<rect width="24" height="4" transform="matrix(-1.31134e-07 1 1 1.31134e-07 984 384)" fill="#212121"/>
<rect width="24" height="4" transform="matrix(-1.31134e-07 1 1 1.31134e-07 990 384)" fill="#212121"/>
<rect width="24" height="4" transform="matrix(-1.31134e-07 1 1 1.31134e-07 996 384)" fill="#212121"/>
<rect width="24" height="4" transform="matrix(-1.31134e-07 1 1 1.31134e-07 1002 384)" fill="#212121"/>
<rect x="1008" y="408" width="24" height="24" transform="rotate(-90 1008 408)" fill="#212121"/>
<rect width="24" height="4" transform="matrix(-1.31134e-07 1 1 1.31134e-07 888 384)" fill="#212121"/>
<rect width="24" height="4" transform="matrix(-1.31134e-07 1 1 1.31134e-07 894 384)" fill="#212121"/>
<rect width="24" height="4" transform="matrix(-1.31134e-07 1 1 1.31134e-07 900 384)" fill="#212121"/>
<rect width="24" height="4" transform="matrix(-1.31134e-07 1 1 1.31134e-07 906 384)" fill="#212121"/>
<rect width="24" height="4" transform="matrix(-1.31134e-07 1 1 1.31134e-07 912 384)" fill="#212121"/>
<rect width="24" height="4" transform="matrix(-1.31134e-07 1 1 1.31134e-07 918 384)" fill="#212121"/>
<rect width="24" height="4" transform="matrix(-1.31134e-07 1 1 1.31134e-07 924 384)" fill="#212121"/>
<rect width="24" height="4" transform="matrix(-1.31134e-07 1 1 1.31134e-07 930 384)" fill="#212121"/>
<rect x="936" y="408" width="24" height="24" transform="rotate(-90 936 408)" fill="#212121"/>
<rect width="24" height="4" transform="matrix(-1.31134e-07 1 1 1.31134e-07 816 384)" fill="#212121"/>
<rect width="24" height="4" transform="matrix(-1.31134e-07 1 1 1.31134e-07 822 384)" fill="#212121"/>
<rect width="24" height="4" transform="matrix(-1.31134e-07 1 1 1.31134e-07 828 384)" fill="#212121"/>
<rect width="24" height="4" transform="matrix(-1.31134e-07 1 1 1.31134e-07 834 384)" fill="#212121"/>
<rect width="24" height="4" transform="matrix(-1.31134e-07 1 1 1.31134e-07 840 384)" fill="#212121"/>
<rect width="24" height="4" transform="matrix(-1.31134e-07 1 1 1.31134e-07 846 384)" fill="#212121"/>
<rect width="24" height="4" transform="matrix(-1.31134e-07 1 1 1.31134e-07 852 384)" fill="#212121"/>
<rect width="24" height="4" transform="matrix(-1.31134e-07 1 1 1.31134e-07 858 384)" fill="#212121"/>
<rect x="864" y="408" width="24" height="24" transform="rotate(-90 864 408)" fill="#212121"/>
<rect x="816" y="408" width="24" height="24" transform="rotate(-180 816 408)" fill="#212121"/>
<rect width="24" height="4" transform="matrix(-1.31134e-07 1 1 1.31134e-07 1776 384)" fill="#212121"/>
<rect width="24" height="4" transform="matrix(-1.31134e-07 1 1 1.31134e-07 1782 384)" fill="#212121"/>
<rect width="24" height="4" transform="matrix(-1.31134e-07 1 1 1.31134e-07 1788 384)" fill="#212121"/>
<rect width="24" height="4" transform="matrix(-1.31134e-07 1 1 1.31134e-07 1794 384)" fill="#212121"/>
<rect width="24" height="4" transform="matrix(-1.31134e-07 1 1 1.31134e-07 1800 384)" fill="#212121"/>
<rect width="24" height="4" transform="matrix(-1.31134e-07 1 1 1.31134e-07 1806 384)" fill="#212121"/>
<rect width="24" height="4" transform="matrix(-1.31134e-07 1 1 1.31134e-07 1812 384)" fill="#212121"/>
<rect width="24" height="4" transform="matrix(-1.31134e-07 1 1 1.31134e-07 1818 384)" fill="#212121"/>
<rect x="1824" y="408" width="24" height="24" transform="rotate(-90 1824 408)" fill="#212121"/>
<rect width="24" height="4" transform="matrix(-1.31134e-07 1 1 1.31134e-07 1704 384)" fill="#212121"/>
<rect width="24" height="4" transform="matrix(-1.31134e-07 1 1 1.31134e-07 1710 384)" fill="#212121"/>
<rect width="24" height="4" transform="matrix(-1.31134e-07 1 1 1.31134e-07 1716 384)" fill="#212121"/>
<rect width="24" height="4" transform="matrix(-1.31134e-07 1 1 1.31134e-07 1722 384)" fill="#212121"/>
<rect width="24" height="4" transform="matrix(-1.31134e-07 1 1 1.31134e-07 1728 384)" fill="#212121"/>
<rect width="24" height="4" transform="matrix(-1.31134e-07 1 1 1.31134e-07 1734 384)" fill="#212121"/>
<rect width="24" height="4" transform="matrix(-1.31134e-07 1 1 1.31134e-07 1740 384)" fill="#212121"/>
<rect width="24" height="4" transform="matrix(-1.31134e-07 1 1 1.31134e-07 1746 384)" fill="#212121"/>
<rect x="1752" y="408" width="24" height="24" transform="rotate(-90 1752 408)" fill="#212121"/>
<rect width="24" height="4" transform="matrix(-1.31134e-07 1 1 1.31134e-07 1632 384)" fill="#212121"/>
<rect width="24" height="4" transform="matrix(-1.31134e-07 1 1 1.31134e-07 1638 384)" fill="#212121"/>
<rect width="24" height="4" transform="matrix(-1.31134e-07 1 1 1.31134e-07 1644 384)" fill="#212121"/>
<rect width="24" height="4" transform="matrix(-1.31134e-07 1 1 1.31134e-07 1650 384)" fill="#212121"/>
<rect width="24" height="4" transform="matrix(-1.31134e-07 1 1 1.31134e-07 1656 384)" fill="#212121"/>
<rect width="24" height="4" transform="matrix(-1.31134e-07 1 1 1.31134e-07 1662 384)" fill="#212121"/>
<rect width="24" height="4" transform="matrix(-1.31134e-07 1 1 1.31134e-07 1668 384)" fill="#212121"/>
<rect width="24" height="4" transform="matrix(-1.31134e-07 1 1 1.31134e-07 1674 384)" fill="#212121"/>
<rect x="1680" y="408" width="24" height="24" transform="rotate(-90 1680 408)" fill="#212121"/>
<rect width="24" height="4" transform="matrix(-1.31134e-07 1 1 1.31134e-07 1560 384)" fill="#212121"/>
<rect width="24" height="4" transform="matrix(-1.31134e-07 1 1 1.31134e-07 1566 384)" fill="#212121"/>
<rect width="24" height="4" transform="matrix(-1.31134e-07 1 1 1.31134e-07 1572 384)" fill="#212121"/>
<rect width="24" height="4" transform="matrix(-1.31134e-07 1 1 1.31134e-07 1578 384)" fill="#212121"/>
<rect width="24" height="4" transform="matrix(-1.31134e-07 1 1 1.31134e-07 1584 384)" fill="#212121"/>
<rect width="24" height="4" transform="matrix(-1.31134e-07 1 1 1.31134e-07 1590 384)" fill="#212121"/>
<rect width="24" height="4" transform="matrix(-1.31134e-07 1 1 1.31134e-07 1596 384)" fill="#212121"/>
<rect width="24" height="4" transform="matrix(-1.31134e-07 1 1 1.31134e-07 1602 384)" fill="#212121"/>
<rect x="1608" y="408" width="24" height="24" transform="rotate(-90 1608 408)" fill="#212121"/>
<rect x="1560" y="408" width="24" height="24" transform="rotate(-180 1560 408)" fill="#212121"/>
<rect width="24" height="4" transform="matrix(-1.31134e-07 1 1 1.31134e-07 1032 360)" fill="#212121"/>
<rect width="24" height="4" transform="matrix(-1.31134e-07 1 1 1.31134e-07 1038 360)" fill="#212121"/>
<rect width="24" height="4" transform="matrix(-1.31134e-07 1 1 1.31134e-07 1044 360)" fill="#212121"/>
<rect width="24" height="4" transform="matrix(-1.31134e-07 1 1 1.31134e-07 1050 360)" fill="#212121"/>
<rect width="24" height="4" transform="matrix(-1.31134e-07 1 1 1.31134e-07 1056 360)" fill="#212121"/>
<rect width="24" height="4" transform="matrix(-1.31134e-07 1 1 1.31134e-07 1062 360)" fill="#212121"/>
<rect width="24" height="4" transform="matrix(-1.31134e-07 1 1 1.31134e-07 1068 360)" fill="#212121"/>
<rect width="24" height="4" transform="matrix(-1.31134e-07 1 1 1.31134e-07 1074 360)" fill="#212121"/>
<rect x="1080" y="384" width="24" height="24" transform="rotate(-90 1080 384)" fill="#212121"/>
<rect width="24" height="4" transform="matrix(-1.31134e-07 1 1 1.31134e-07 960 360)" fill="#212121"/>
<rect width="24" height="4" transform="matrix(-1.31134e-07 1 1 1.31134e-07 966 360)" fill="#212121"/>
<rect width="24" height="4" transform="matrix(-1.31134e-07 1 1 1.31134e-07 972 360)" fill="#212121"/>
<rect width="24" height="4" transform="matrix(-1.31134e-07 1 1 1.31134e-07 978 360)" fill="#212121"/>
<rect width="24" height="4" transform="matrix(-1.31134e-07 1 1 1.31134e-07 984 360)" fill="#212121"/>
<rect width="24" height="4" transform="matrix(-1.31134e-07 1 1 1.31134e-07 990 360)" fill="#212121"/>
<rect width="24" height="4" transform="matrix(-1.31134e-07 1 1 1.31134e-07 996 360)" fill="#212121"/>
<rect width="24" height="4" transform="matrix(-1.31134e-07 1 1 1.31134e-07 1002 360)" fill="#212121"/>
<rect x="1008" y="384" width="24" height="24" transform="rotate(-90 1008 384)" fill="#212121"/>
<rect width="24" height="4" transform="matrix(-1.31134e-07 1 1 1.31134e-07 888 360)" fill="#212121"/>
<rect width="24" height="4" transform="matrix(-1.31134e-07 1 1 1.31134e-07 894 360)" fill="#212121"/>
<rect width="24" height="4" transform="matrix(-1.31134e-07 1 1 1.31134e-07 900 360)" fill="#212121"/>
<rect width="24" height="4" transform="matrix(-1.31134e-07 1 1 1.31134e-07 906 360)" fill="#212121"/>
<rect width="24" height="4" transform="matrix(-1.31134e-07 1 1 1.31134e-07 912 360)" fill="#212121"/>
<rect width="24" height="4" transform="matrix(-1.31134e-07 1 1 1.31134e-07 918 360)" fill="#212121"/>
<rect width="24" height="4" transform="matrix(-1.31134e-07 1 1 1.31134e-07 924 360)" fill="#212121"/>
<rect width="24" height="4" transform="matrix(-1.31134e-07 1 1 1.31134e-07 930 360)" fill="#212121"/>
<rect x="936" y="384" width="24" height="24" transform="rotate(-90 936 384)" fill="#212121"/>
<rect width="24" height="4" transform="matrix(-1.31134e-07 1 1 1.31134e-07 816 360)" fill="#212121"/>
<rect width="24" height="4" transform="matrix(-1.31134e-07 1 1 1.31134e-07 822 360)" fill="#212121"/>
<rect width="24" height="4" transform="matrix(-1.31134e-07 1 1 1.31134e-07 828 360)" fill="#212121"/>
<rect width="24" height="4" transform="matrix(-1.31134e-07 1 1 1.31134e-07 834 360)" fill="#212121"/>
<rect width="24" height="4" transform="matrix(-1.31134e-07 1 1 1.31134e-07 840 360)" fill="#212121"/>
<rect width="24" height="4" transform="matrix(-1.31134e-07 1 1 1.31134e-07 846 360)" fill="#212121"/>
<rect width="24" height="4" transform="matrix(-1.31134e-07 1 1 1.31134e-07 852 360)" fill="#212121"/>
<rect width="24" height="4" transform="matrix(-1.31134e-07 1 1 1.31134e-07 858 360)" fill="#212121"/>
<rect x="864" y="384" width="24" height="24" transform="rotate(-90 864 384)" fill="#212121"/>
<rect x="816" y="384" width="24" height="24" transform="rotate(-180 816 384)" fill="#212121"/>
<rect width="24" height="4" transform="matrix(-1.31134e-07 1 1 1.31134e-07 1776 360)" fill="#212121"/>
<rect width="24" height="4" transform="matrix(-1.31134e-07 1 1 1.31134e-07 1782 360)" fill="#212121"/>
<rect width="24" height="4" transform="matrix(-1.31134e-07 1 1 1.31134e-07 1788 360)" fill="#212121"/>
<rect width="24" height="4" transform="matrix(-1.31134e-07 1 1 1.31134e-07 1794 360)" fill="#212121"/>
<rect width="24" height="4" transform="matrix(-1.31134e-07 1 1 1.31134e-07 1800 360)" fill="#212121"/>
<rect width="24" height="4" transform="matrix(-1.31134e-07 1 1 1.31134e-07 1806 360)" fill="#212121"/>
<rect width="24" height="4" transform="matrix(-1.31134e-07 1 1 1.31134e-07 1812 360)" fill="#212121"/>
<rect width="24" height="4" transform="matrix(-1.31134e-07 1 1 1.31134e-07 1818 360)" fill="#212121"/>
<rect x="1824" y="384" width="24" height="24" transform="rotate(-90 1824 384)" fill="#212121"/>
<rect width="24" height="4" transform="matrix(-1.31134e-07 1 1 1.31134e-07 1704 360)" fill="#212121"/>
<rect width="24" height="4" transform="matrix(-1.31134e-07 1 1 1.31134e-07 1710 360)" fill="#212121"/>
<rect width="24" height="4" transform="matrix(-1.31134e-07 1 1 1.31134e-07 1716 360)" fill="#212121"/>
<rect width="24" height="4" transform="matrix(-1.31134e-07 1 1 1.31134e-07 1722 360)" fill="#212121"/>
<rect width="24" height="4" transform="matrix(-1.31134e-07 1 1 1.31134e-07 1728 360)" fill="#212121"/>
<rect width="24" height="4" transform="matrix(-1.31134e-07 1 1 1.31134e-07 1734 360)" fill="#212121"/>
<rect width="24" height="4" transform="matrix(-1.31134e-07 1 1 1.31134e-07 1740 360)" fill="#212121"/>
<rect width="24" height="4" transform="matrix(-1.31134e-07 1 1 1.31134e-07 1746 360)" fill="#212121"/>
<rect x="1752" y="384" width="24" height="24" transform="rotate(-90 1752 384)" fill="#212121"/>
<rect width="24" height="4" transform="matrix(-1.31134e-07 1 1 1.31134e-07 1632 360)" fill="#212121"/>
<rect width="24" height="4" transform="matrix(-1.31134e-07 1 1 1.31134e-07 1638 360)" fill="#212121"/>
<rect width="24" height="4" transform="matrix(-1.31134e-07 1 1 1.31134e-07 1644 360)" fill="#212121"/>
<rect width="24" height="4" transform="matrix(-1.31134e-07 1 1 1.31134e-07 1650 360)" fill="#212121"/>
<rect width="24" height="4" transform="matrix(-1.31134e-07 1 1 1.31134e-07 1656 360)" fill="#212121"/>
<rect width="24" height="4" transform="matrix(-1.31134e-07 1 1 1.31134e-07 1662 360)" fill="#212121"/>
<rect width="24" height="4" transform="matrix(-1.31134e-07 1 1 1.31134e-07 1668 360)" fill="#212121"/>
<rect width="24" height="4" transform="matrix(-1.31134e-07 1 1 1.31134e-07 1674 360)" fill="#212121"/>
<rect x="1680" y="384" width="24" height="24" transform="rotate(-90 1680 384)" fill="#212121"/>
<rect width="24" height="4" transform="matrix(-1.31134e-07 1 1 1.31134e-07 1560 360)" fill="#212121"/>
<rect width="24" height="4" transform="matrix(-1.31134e-07 1 1 1.31134e-07 1566 360)" fill="#212121"/>
<rect width="24" height="4" transform="matrix(-1.31134e-07 1 1 1.31134e-07 1572 360)" fill="#212121"/>
<rect width="24" height="4" transform="matrix(-1.31134e-07 1 1 1.31134e-07 1578 360)" fill="#212121"/>
<rect width="24" height="4" transform="matrix(-1.31134e-07 1 1 1.31134e-07 1584 360)" fill="#212121"/>
<rect width="24" height="4" transform="matrix(-1.31134e-07 1 1 1.31134e-07 1590 360)" fill="#212121"/>
<rect width="24" height="4" transform="matrix(-1.31134e-07 1 1 1.31134e-07 1596 360)" fill="#212121"/>
<rect width="24" height="4" transform="matrix(-1.31134e-07 1 1 1.31134e-07 1602 360)" fill="#212121"/>
<rect x="1608" y="384" width="24" height="24" transform="rotate(-90 1608 384)" fill="#212121"/>
<rect x="1560" y="384" width="24" height="24" transform="rotate(-180 1560 384)" fill="#212121"/>
<rect width="24" height="4" transform="matrix(-1.31134e-07 1 1 1.31134e-07 1032 336)" fill="#212121"/>
<rect width="24" height="4" transform="matrix(-1.31134e-07 1 1 1.31134e-07 1038 336)" fill="#212121"/>
<rect width="24" height="4" transform="matrix(-1.31134e-07 1 1 1.31134e-07 1044 336)" fill="#212121"/>
<rect width="24" height="4" transform="matrix(-1.31134e-07 1 1 1.31134e-07 1050 336)" fill="#212121"/>
<rect width="24" height="4" transform="matrix(-1.31134e-07 1 1 1.31134e-07 1056 336)" fill="#212121"/>
<rect width="24" height="4" transform="matrix(-1.31134e-07 1 1 1.31134e-07 1062 336)" fill="#212121"/>
<rect width="24" height="4" transform="matrix(-1.31134e-07 1 1 1.31134e-07 1068 336)" fill="#212121"/>
<rect width="24" height="4" transform="matrix(-1.31134e-07 1 1 1.31134e-07 1074 336)" fill="#212121"/>
<rect x="1080" y="360" width="24" height="24" transform="rotate(-90 1080 360)" fill="#212121"/>
<rect width="24" height="4" transform="matrix(-1.31134e-07 1 1 1.31134e-07 960 336)" fill="#212121"/>
<rect width="24" height="4" transform="matrix(-1.31134e-07 1 1 1.31134e-07 966 336)" fill="#212121"/>
<rect width="24" height="4" transform="matrix(-1.31134e-07 1 1 1.31134e-07 972 336)" fill="#212121"/>
<rect width="24" height="4" transform="matrix(-1.31134e-07 1 1 1.31134e-07 978 336)" fill="#212121"/>
<rect width="24" height="4" transform="matrix(-1.31134e-07 1 1 1.31134e-07 984 336)" fill="#212121"/>
<rect width="24" height="4" transform="matrix(-1.31134e-07 1 1 1.31134e-07 990 336)" fill="#212121"/>
<rect width="24" height="4" transform="matrix(-1.31134e-07 1 1 1.31134e-07 996 336)" fill="#212121"/>
<rect width="24" height="4" transform="matrix(-1.31134e-07 1 1 1.31134e-07 1002 336)" fill="#212121"/>
<rect x="1008" y="360" width="24" height="24" transform="rotate(-90 1008 360)" fill="#212121"/>
<rect width="24" height="4" transform="matrix(-1.31134e-07 1 1 1.31134e-07 888 336)" fill="#212121"/>
<rect width="24" height="4" transform="matrix(-1.31134e-07 1 1 1.31134e-07 894 336)" fill="#212121"/>
<rect width="24" height="4" transform="matrix(-1.31134e-07 1 1 1.31134e-07 900 336)" fill="#212121"/>
<rect width="24" height="4" transform="matrix(-1.31134e-07 1 1 1.31134e-07 906 336)" fill="#212121"/>
<rect width="24" height="4" transform="matrix(-1.31134e-07 1 1 1.31134e-07 912 336)" fill="#212121"/>
<rect width="24" height="4" transform="matrix(-1.31134e-07 1 1 1.31134e-07 918 336)" fill="#212121"/>
<rect width="24" height="4" transform="matrix(-1.31134e-07 1 1 1.31134e-07 924 336)" fill="#212121"/>
<rect width="24" height="4" transform="matrix(-1.31134e-07 1 1 1.31134e-07 930 336)" fill="#212121"/>
<rect x="936" y="360" width="24" height="24" transform="rotate(-90 936 360)" fill="#212121"/>
<rect width="24" height="4" transform="matrix(-1.31134e-07 1 1 1.31134e-07 816 336)" fill="#212121"/>
<rect width="24" height="4" transform="matrix(-1.31134e-07 1 1 1.31134e-07 822 336)" fill="#212121"/>
<rect width="24" height="4" transform="matrix(-1.31134e-07 1 1 1.31134e-07 828 336)" fill="#212121"/>
<rect width="24" height="4" transform="matrix(-1.31134e-07 1 1 1.31134e-07 834 336)" fill="#212121"/>
<rect width="24" height="4" transform="matrix(-1.31134e-07 1 1 1.31134e-07 840 336)" fill="#212121"/>
<rect width="24" height="4" transform="matrix(-1.31134e-07 1 1 1.31134e-07 846 336)" fill="#212121"/>
<rect width="24" height="4" transform="matrix(-1.31134e-07 1 1 1.31134e-07 852 336)" fill="#212121"/>
<rect width="24" height="4" transform="matrix(-1.31134e-07 1 1 1.31134e-07 858 336)" fill="#212121"/>
<rect x="864" y="360" width="24" height="24" transform="rotate(-90 864 360)" fill="#212121"/>
<rect x="816" y="360" width="24" height="24" transform="rotate(-180 816 360)" fill="#212121"/>
<rect width="24" height="4" transform="matrix(-1.31134e-07 1 1 1.31134e-07 1776 336)" fill="#212121"/>
<rect width="24" height="4" transform="matrix(-1.31134e-07 1 1 1.31134e-07 1782 336)" fill="#212121"/>
<rect width="24" height="4" transform="matrix(-1.31134e-07 1 1 1.31134e-07 1788 336)" fill="#212121"/>
<rect width="24" height="4" transform="matrix(-1.31134e-07 1 1 1.31134e-07 1794 336)" fill="#212121"/>
<rect width="24" height="4" transform="matrix(-1.31134e-07 1 1 1.31134e-07 1800 336)" fill="#212121"/>
<rect width="24" height="4" transform="matrix(-1.31134e-07 1 1 1.31134e-07 1806 336)" fill="#212121"/>
<rect width="24" height="4" transform="matrix(-1.31134e-07 1 1 1.31134e-07 1812 336)" fill="#212121"/>
<rect width="24" height="4" transform="matrix(-1.31134e-07 1 1 1.31134e-07 1818 336)" fill="#212121"/>
<rect x="1824" y="360" width="24" height="24" transform="rotate(-90 1824 360)" fill="#212121"/>
<rect width="24" height="4" transform="matrix(-1.31134e-07 1 1 1.31134e-07 1704 336)" fill="#212121"/>
<rect width="24" height="4" transform="matrix(-1.31134e-07 1 1 1.31134e-07 1710 336)" fill="#212121"/>
<rect width="24" height="4" transform="matrix(-1.31134e-07 1 1 1.31134e-07 1716 336)" fill="#212121"/>
<rect width="24" height="4" transform="matrix(-1.31134e-07 1 1 1.31134e-07 1722 336)" fill="#212121"/>
<rect width="24" height="4" transform="matrix(-1.31134e-07 1 1 1.31134e-07 1728 336)" fill="#212121"/>
<rect width="24" height="4" transform="matrix(-1.31134e-07 1 1 1.31134e-07 1734 336)" fill="#212121"/>
<rect width="24" height="4" transform="matrix(-1.31134e-07 1 1 1.31134e-07 1740 336)" fill="#212121"/>
<rect width="24" height="4" transform="matrix(-1.31134e-07 1 1 1.31134e-07 1746 336)" fill="#212121"/>
<rect x="1752" y="360" width="24" height="24" transform="rotate(-90 1752 360)" fill="#212121"/>
<rect width="24" height="4" transform="matrix(-1.31134e-07 1 1 1.31134e-07 1632 336)" fill="#212121"/>
<rect width="24" height="4" transform="matrix(-1.31134e-07 1 1 1.31134e-07 1638 336)" fill="#212121"/>
<rect width="24" height="4" transform="matrix(-1.31134e-07 1 1 1.31134e-07 1644 336)" fill="#212121"/>
<rect width="24" height="4" transform="matrix(-1.31134e-07 1 1 1.31134e-07 1650 336)" fill="#212121"/>
<rect width="24" height="4" transform="matrix(-1.31134e-07 1 1 1.31134e-07 1656 336)" fill="#212121"/>
<rect width="24" height="4" transform="matrix(-1.31134e-07 1 1 1.31134e-07 1662 336)" fill="#212121"/>
<rect width="24" height="4" transform="matrix(-1.31134e-07 1 1 1.31134e-07 1668 336)" fill="#212121"/>
<rect width="24" height="4" transform="matrix(-1.31134e-07 1 1 1.31134e-07 1674 336)" fill="#212121"/>
<rect x="1680" y="360" width="24" height="24" transform="rotate(-90 1680 360)" fill="#212121"/>
<rect width="24" height="4" transform="matrix(-1.31134e-07 1 1 1.31134e-07 1560 336)" fill="#212121"/>
<rect width="24" height="4" transform="matrix(-1.31134e-07 1 1 1.31134e-07 1566 336)" fill="#212121"/>
<rect width="24" height="4" transform="matrix(-1.31134e-07 1 1 1.31134e-07 1572 336)" fill="#212121"/>
<rect width="24" height="4" transform="matrix(-1.31134e-07 1 1 1.31134e-07 1578 336)" fill="#212121"/>
<rect width="24" height="4" transform="matrix(-1.31134e-07 1 1 1.31134e-07 1584 336)" fill="#212121"/>
<rect width="24" height="4" transform="matrix(-1.31134e-07 1 1 1.31134e-07 1590 336)" fill="#212121"/>
<rect width="24" height="4" transform="matrix(-1.31134e-07 1 1 1.31134e-07 1596 336)" fill="#212121"/>
<rect width="24" height="4" transform="matrix(-1.31134e-07 1 1 1.31134e-07 1602 336)" fill="#212121"/>
<rect x="1608" y="360" width="24" height="24" transform="rotate(-90 1608 360)" fill="#212121"/>
<rect x="1560" y="360" width="24" height="24" transform="rotate(-180 1560 360)" fill="#212121"/>
<rect width="48" height="48" transform="translate(1296 216)" fill="#212121"/>
<path d="M1327.97 244.849C1327.95 244.776 1327.91 244.707 1327.86 244.648C1327.8 244.59 1327.74 244.542 1327.67 244.507C1327.6 244.472 1327.53 244.451 1327.45 244.446C1327.37 244.44 1327.29 244.45 1327.22 244.475L1325.93 244.905L1323.79 240.623C1323.74 240.525 1323.66 240.442 1323.57 240.384C1323.48 240.326 1323.37 240.296 1323.26 240.296H1317.33V238.518H1321.48C1321.64 238.518 1321.79 238.455 1321.9 238.344C1322.01 238.233 1322.07 238.082 1322.07 237.925C1322.07 237.768 1322.01 237.617 1321.9 237.506C1321.79 237.395 1321.64 237.333 1321.48 237.333H1317.33V236.666C1317.89 236.522 1318.38 236.179 1318.7 235.701C1319.02 235.223 1319.16 234.644 1319.09 234.072C1319.02 233.499 1318.74 232.973 1318.31 232.592C1317.87 232.21 1317.32 232 1316.74 232C1316.16 232 1315.6 232.21 1315.17 232.592C1314.74 232.973 1314.46 233.499 1314.39 234.072C1314.31 234.644 1314.45 235.223 1314.78 235.701C1315.1 236.179 1315.59 236.522 1316.15 236.666V237.467C1314.87 237.759 1313.74 238.511 1312.98 239.58C1312.23 240.649 1311.89 241.96 1312.03 243.263C1312.18 244.565 1312.8 245.768 1313.78 246.642C1314.76 247.516 1316.02 247.999 1317.33 248C1319.81 248 1322.05 246.318 1322.65 244C1322.67 243.924 1322.67 243.846 1322.66 243.769C1322.65 243.692 1322.62 243.617 1322.58 243.55C1322.54 243.483 1322.49 243.425 1322.43 243.378C1322.37 243.331 1322.3 243.297 1322.22 243.277C1322.15 243.258 1322.07 243.254 1321.99 243.264C1321.91 243.275 1321.84 243.301 1321.77 243.341C1321.7 243.38 1321.65 243.433 1321.6 243.495C1321.55 243.557 1321.52 243.628 1321.5 243.703C1321.04 245.481 1319.25 246.815 1317.33 246.815C1316.33 246.814 1315.37 246.456 1314.62 245.804C1313.86 245.152 1313.37 244.251 1313.23 243.265C1313.08 242.279 1313.3 241.275 1313.83 240.435C1314.37 239.595 1315.19 238.976 1316.15 238.691V240.888C1316.15 241.046 1316.21 241.196 1316.32 241.307C1316.43 241.419 1316.58 241.481 1316.74 241.481H1322.89L1325.1 245.895C1325.16 246.022 1325.27 246.122 1325.4 246.177C1325.53 246.231 1325.68 246.236 1325.82 246.191L1327.59 245.598C1327.74 245.549 1327.87 245.442 1327.94 245.301C1328.01 245.161 1328.02 244.998 1327.97 244.849ZM1315.55 234.369C1315.55 234.135 1315.62 233.906 1315.75 233.711C1315.88 233.516 1316.07 233.364 1316.28 233.274C1316.5 233.185 1316.74 233.161 1316.97 233.207C1317.2 233.253 1317.41 233.365 1317.58 233.531C1317.74 233.697 1317.86 233.908 1317.9 234.138C1317.95 234.368 1317.92 234.606 1317.83 234.823C1317.74 235.04 1317.59 235.225 1317.4 235.355C1317.2 235.485 1316.97 235.555 1316.74 235.555C1316.42 235.555 1316.12 235.43 1315.9 235.207C1315.68 234.985 1315.55 234.684 1315.55 234.369Z" fill="white"/>
<g filter="url(#filter1_d_1119_34737)">
<mask id="path-227-outside-2_1119_34737" maskUnits="userSpaceOnUse" x="308" y="716" width="2024" height="632" fill="black">
<rect fill="white" x="308" y="716" width="2024" height="632"/>
<path fill-rule="evenodd" clip-rule="evenodd" d="M2328 720H312V840H671.527V888H1199.79V1344H1439.79V888H1967.76V840H2328V720Z"/>
</mask>
<path fill-rule="evenodd" clip-rule="evenodd" d="M2328 720H312V840H671.527V888H1199.79V1344H1439.79V888H1967.76V840H2328V720Z" fill="#D9D9D9"/>
<path d="M312 720V716H308V720H312ZM2328 720H2332V716H2328V720ZM312 840H308V844H312V840ZM671.527 840H675.527V836H671.527V840ZM671.527 888H667.527V892H671.527V888ZM1199.79 888H1203.79V884H1199.79V888ZM1199.79 1344H1195.79V1348H1199.79V1344ZM1439.79 1344V1348H1443.79V1344H1439.79ZM1439.79 888V884H1435.79V888H1439.79ZM1967.76 888V892H1971.76V888H1967.76ZM1967.76 840V836H1963.76V840H1967.76ZM2328 840V844H2332V840H2328ZM312 724H2328V716H312V724ZM316 840V720H308V840H316ZM671.527 836H312V844H671.527V836ZM675.527 888V840H667.527V888H675.527ZM1199.79 884H671.527V892H1199.79V884ZM1203.79 1344V888H1195.79V1344H1203.79ZM1439.79 1340H1199.79V1348H1439.79V1340ZM1435.79 888V1344H1443.79V888H1435.79ZM1967.76 884H1439.79V892H1967.76V884ZM1963.76 840V888H1971.76V840H1963.76ZM2328 836H1967.76V844H2328V836ZM2324 720V840H2332V720H2324Z" fill="#474747" mask="url(#path-227-outside-2_1119_34737)"/>
</g>
<path d="M479.5 216.5V455.5H384.5V216.5H479.5Z" fill="#CCCCCC" stroke="black"/>
<rect width="24" height="4" transform="matrix(-1.31134e-07 1 1 1.31134e-07 1032 840)" fill="#212121"/>
<rect width="24" height="4" transform="matrix(-1.31134e-07 1 1 1.31134e-07 1038 840)" fill="#212121"/>
<rect width="24" height="4" transform="matrix(-1.31134e-07 1 1 1.31134e-07 1044 840)" fill="#212121"/>
<rect width="24" height="4" transform="matrix(-1.31134e-07 1 1 1.31134e-07 1050 840)" fill="#212121"/>
<rect width="24" height="4" transform="matrix(-1.31134e-07 1 1 1.31134e-07 1056 840)" fill="#212121"/>
<rect width="24" height="4" transform="matrix(-1.31134e-07 1 1 1.31134e-07 1062 840)" fill="#212121"/>
<rect width="24" height="4" transform="matrix(-1.31134e-07 1 1 1.31134e-07 1068 840)" fill="#212121"/>
<rect width="24" height="4" transform="matrix(-1.31134e-07 1 1 1.31134e-07 1074 840)" fill="#212121"/>
<rect x="1080" y="864" width="24" height="24" transform="rotate(-90 1080 864)" fill="#212121"/>
<rect width="24" height="4" transform="matrix(-1.31134e-07 1 1 1.31134e-07 960 840)" fill="#212121"/>
<rect width="24" height="4" transform="matrix(-1.31134e-07 1 1 1.31134e-07 966 840)" fill="#212121"/>
<rect width="24" height="4" transform="matrix(-1.31134e-07 1 1 1.31134e-07 972 840)" fill="#212121"/>
<rect width="24" height="4" transform="matrix(-1.31134e-07 1 1 1.31134e-07 978 840)" fill="#212121"/>
<rect width="24" height="4" transform="matrix(-1.31134e-07 1 1 1.31134e-07 984 840)" fill="#212121"/>
<rect width="24" height="4" transform="matrix(-1.31134e-07 1 1 1.31134e-07 990 840)" fill="#212121"/>
<rect width="24" height="4" transform="matrix(-1.31134e-07 1 1 1.31134e-07 996 840)" fill="#212121"/>
<rect width="24" height="4" transform="matrix(-1.31134e-07 1 1 1.31134e-07 1002 840)" fill="#212121"/>
<rect x="1008" y="864" width="24" height="24" transform="rotate(-90 1008 864)" fill="#212121"/>
<rect width="24" height="4" transform="matrix(-1.31134e-07 1 1 1.31134e-07 888 840)" fill="#212121"/>
<rect width="24" height="4" transform="matrix(-1.31134e-07 1 1 1.31134e-07 894 840)" fill="#212121"/>
<rect width="24" height="4" transform="matrix(-1.31134e-07 1 1 1.31134e-07 900 840)" fill="#212121"/>
<rect width="24" height="4" transform="matrix(-1.31134e-07 1 1 1.31134e-07 906 840)" fill="#212121"/>
<rect width="24" height="4" transform="matrix(-1.31134e-07 1 1 1.31134e-07 912 840)" fill="#212121"/>
<rect width="24" height="4" transform="matrix(-1.31134e-07 1 1 1.31134e-07 918 840)" fill="#212121"/>
<rect width="24" height="4" transform="matrix(-1.31134e-07 1 1 1.31134e-07 924 840)" fill="#212121"/>
<rect width="24" height="4" transform="matrix(-1.31134e-07 1 1 1.31134e-07 930 840)" fill="#212121"/>
<rect x="936" y="864" width="24" height="24" transform="rotate(-90 936 864)" fill="#212121"/>
<rect width="24" height="4" transform="matrix(-1.31134e-07 1 1 1.31134e-07 816 840)" fill="#212121"/>
<rect width="24" height="4" transform="matrix(-1.31134e-07 1 1 1.31134e-07 822 840)" fill="#212121"/>
<rect width="24" height="4" transform="matrix(-1.31134e-07 1 1 1.31134e-07 828 840)" fill="#212121"/>
<rect width="24" height="4" transform="matrix(-1.31134e-07 1 1 1.31134e-07 834 840)" fill="#212121"/>
<rect width="24" height="4" transform="matrix(-1.31134e-07 1 1 1.31134e-07 840 840)" fill="#212121"/>
<rect width="24" height="4" transform="matrix(-1.31134e-07 1 1 1.31134e-07 846 840)" fill="#212121"/>
<rect width="24" height="4" transform="matrix(-1.31134e-07 1 1 1.31134e-07 852 840)" fill="#212121"/>
<rect width="24" height="4" transform="matrix(-1.31134e-07 1 1 1.31134e-07 858 840)" fill="#212121"/>
<rect x="864" y="864" width="24" height="24" transform="rotate(-90 864 864)" fill="#212121"/>
<rect x="816" y="864" width="24" height="24" transform="rotate(-180 816 864)" fill="#212121"/>
<rect width="24" height="4" transform="matrix(-1 -1.74846e-07 -1.74846e-07 1 1248 1224)" fill="#212121"/>
<rect width="24" height="4" transform="matrix(-1 -1.74846e-07 -1.74846e-07 1 1248 1230)" fill="#212121"/>
<rect width="24" height="4" transform="matrix(-1 -1.74846e-07 -1.74846e-07 1 1248 1236)" fill="#212121"/>
<rect width="24" height="4" transform="matrix(-1 -1.74846e-07 -1.74846e-07 1 1248 1242)" fill="#212121"/>
<rect width="24" height="4" transform="matrix(-1 -1.74846e-07 -1.74846e-07 1 1248 1248)" fill="#212121"/>
<rect width="24" height="4" transform="matrix(-1 -1.74846e-07 -1.74846e-07 1 1248 1254)" fill="#212121"/>
<rect width="24" height="4" transform="matrix(-1 -1.74846e-07 -1.74846e-07 1 1248 1260)" fill="#212121"/>
<rect width="24" height="4" transform="matrix(-1 -1.74846e-07 -1.74846e-07 1 1248 1266)" fill="#212121"/>
<rect x="1224" y="1272" width="24" height="24" fill="#212121"/>
<rect width="24" height="4" transform="matrix(-1 -1.74846e-07 -1.74846e-07 1 1248 1152)" fill="#212121"/>
<rect width="24" height="4" transform="matrix(-1 -1.74846e-07 -1.74846e-07 1 1248 1158)" fill="#212121"/>
<rect width="24" height="4" transform="matrix(-1 -1.74846e-07 -1.74846e-07 1 1248 1164)" fill="#212121"/>
<rect width="24" height="4" transform="matrix(-1 -1.74846e-07 -1.74846e-07 1 1248 1170)" fill="#212121"/>
<rect width="24" height="4" transform="matrix(-1 -1.74846e-07 -1.74846e-07 1 1248 1176)" fill="#212121"/>
<rect width="24" height="4" transform="matrix(-1 -1.74846e-07 -1.74846e-07 1 1248 1182)" fill="#212121"/>
<rect width="24" height="4" transform="matrix(-1 -1.74846e-07 -1.74846e-07 1 1248 1188)" fill="#212121"/>
<rect width="24" height="4" transform="matrix(-1 -1.74846e-07 -1.74846e-07 1 1248 1194)" fill="#212121"/>
<rect x="1224" y="1200" width="24" height="24" fill="#212121"/>
<rect width="24" height="4" transform="matrix(-1 -1.74846e-07 -1.74846e-07 1 1248 1080)" fill="#212121"/>
<rect width="24" height="4" transform="matrix(-1 -1.74846e-07 -1.74846e-07 1 1248 1086)" fill="#212121"/>
<rect width="24" height="4" transform="matrix(-1 -1.74846e-07 -1.74846e-07 1 1248 1092)" fill="#212121"/>
<rect width="24" height="4" transform="matrix(-1 -1.74846e-07 -1.74846e-07 1 1248 1098)" fill="#212121"/>
<rect width="24" height="4" transform="matrix(-1 -1.74846e-07 -1.74846e-07 1 1248 1104)" fill="#212121"/>
<rect width="24" height="4" transform="matrix(-1 -1.74846e-07 -1.74846e-07 1 1248 1110)" fill="#212121"/>
<rect width="24" height="4" transform="matrix(-1 -1.74846e-07 -1.74846e-07 1 1248 1116)" fill="#212121"/>
<rect width="24" height="4" transform="matrix(-1 -1.74846e-07 -1.74846e-07 1 1248 1122)" fill="#212121"/>
<rect x="1224" y="1128" width="24" height="24" fill="#212121"/>
<rect width="24" height="4" transform="matrix(-1 -1.74846e-07 -1.74846e-07 1 1248 1008)" fill="#212121"/>
<rect width="24" height="4" transform="matrix(-1 -1.74846e-07 -1.74846e-07 1 1248 1014)" fill="#212121"/>
<rect width="24" height="4" transform="matrix(-1 -1.74846e-07 -1.74846e-07 1 1248 1020)" fill="#212121"/>
<rect width="24" height="4" transform="matrix(-1 -1.74846e-07 -1.74846e-07 1 1248 1026)" fill="#212121"/>
<rect width="24" height="4" transform="matrix(-1 -1.74846e-07 -1.74846e-07 1 1248 1032)" fill="#212121"/>
<rect width="24" height="4" transform="matrix(-1 -1.74846e-07 -1.74846e-07 1 1248 1038)" fill="#212121"/>
<rect width="24" height="4" transform="matrix(-1 -1.74846e-07 -1.74846e-07 1 1248 1044)" fill="#212121"/>
<rect width="24" height="4" transform="matrix(-1 -1.74846e-07 -1.74846e-07 1 1248 1050)" fill="#212121"/>
<rect x="1224" y="1056" width="24" height="24" fill="#212121"/>
<rect x="1224" y="1008" width="24" height="24" transform="rotate(-90 1224 1008)" fill="#212121"/>
<rect width="24" height="4" transform="matrix(-1 -1.74846e-07 -1.74846e-07 1 1440 1224)" fill="#212121"/>
<rect width="24" height="4" transform="matrix(-1 -1.74846e-07 -1.74846e-07 1 1440 1230)" fill="#212121"/>
<rect width="24" height="4" transform="matrix(-1 -1.74846e-07 -1.74846e-07 1 1440 1236)" fill="#212121"/>
<rect width="24" height="4" transform="matrix(-1 -1.74846e-07 -1.74846e-07 1 1440 1242)" fill="#212121"/>
<rect width="24" height="4" transform="matrix(-1 -1.74846e-07 -1.74846e-07 1 1440 1248)" fill="#212121"/>
<rect width="24" height="4" transform="matrix(-1 -1.74846e-07 -1.74846e-07 1 1440 1254)" fill="#212121"/>
<rect width="24" height="4" transform="matrix(-1 -1.74846e-07 -1.74846e-07 1 1440 1260)" fill="#212121"/>
<rect width="24" height="4" transform="matrix(-1 -1.74846e-07 -1.74846e-07 1 1440 1266)" fill="#212121"/>
<rect x="1416" y="1272" width="24" height="24" fill="#212121"/>
<rect width="24" height="4" transform="matrix(-1 -1.74846e-07 -1.74846e-07 1 1440 1152)" fill="#212121"/>
<rect width="24" height="4" transform="matrix(-1 -1.74846e-07 -1.74846e-07 1 1440 1158)" fill="#212121"/>
<rect width="24" height="4" transform="matrix(-1 -1.74846e-07 -1.74846e-07 1 1440 1164)" fill="#212121"/>
<rect width="24" height="4" transform="matrix(-1 -1.74846e-07 -1.74846e-07 1 1440 1170)" fill="#212121"/>
<rect width="24" height="4" transform="matrix(-1 -1.74846e-07 -1.74846e-07 1 1440 1176)" fill="#212121"/>
<rect width="24" height="4" transform="matrix(-1 -1.74846e-07 -1.74846e-07 1 1440 1182)" fill="#212121"/>
<rect width="24" height="4" transform="matrix(-1 -1.74846e-07 -1.74846e-07 1 1440 1188)" fill="#212121"/>
<rect width="24" height="4" transform="matrix(-1 -1.74846e-07 -1.74846e-07 1 1440 1194)" fill="#212121"/>
<rect x="1416" y="1200" width="24" height="24" fill="#212121"/>
<rect width="24" height="4" transform="matrix(-1 -1.74846e-07 -1.74846e-07 1 1440 1080)" fill="#212121"/>
<rect width="24" height="4" transform="matrix(-1 -1.74846e-07 -1.74846e-07 1 1440 1086)" fill="#212121"/>
<rect width="24" height="4" transform="matrix(-1 -1.74846e-07 -1.74846e-07 1 1440 1092)" fill="#212121"/>
<rect width="24" height="4" transform="matrix(-1 -1.74846e-07 -1.74846e-07 1 1440 1098)" fill="#212121"/>
<rect width="24" height="4" transform="matrix(-1 -1.74846e-07 -1.74846e-07 1 1440 1104)" fill="#212121"/>
<rect width="24" height="4" transform="matrix(-1 -1.74846e-07 -1.74846e-07 1 1440 1110)" fill="#212121"/>
<rect width="24" height="4" transform="matrix(-1 -1.74846e-07 -1.74846e-07 1 1440 1116)" fill="#212121"/>
<rect width="24" height="4" transform="matrix(-1 -1.74846e-07 -1.74846e-07 1 1440 1122)" fill="#212121"/>
<rect x="1416" y="1128" width="24" height="24" fill="#212121"/>
<rect width="24" height="4" transform="matrix(-1 -1.74846e-07 -1.74846e-07 1 1440 1008)" fill="#212121"/>
<rect width="24" height="4" transform="matrix(-1 -1.74846e-07 -1.74846e-07 1 1440 1014)" fill="#212121"/>
<rect width="24" height="4" transform="matrix(-1 -1.74846e-07 -1.74846e-07 1 1440 1020)" fill="#212121"/>
<rect width="24" height="4" transform="matrix(-1 -1.74846e-07 -1.74846e-07 1 1440 1026)" fill="#212121"/>
<rect width="24" height="4" transform="matrix(-1 -1.74846e-07 -1.74846e-07 1 1440 1032)" fill="#212121"/>
<rect width="24" height="4" transform="matrix(-1 -1.74846e-07 -1.74846e-07 1 1440 1038)" fill="#212121"/>
<rect width="24" height="4" transform="matrix(-1 -1.74846e-07 -1.74846e-07 1 1440 1044)" fill="#212121"/>
<rect width="24" height="4" transform="matrix(-1 -1.74846e-07 -1.74846e-07 1 1440 1050)" fill="#212121"/>
<rect x="1416" y="1056" width="24" height="24" fill="#212121"/>
<rect x="1416" y="1008" width="24" height="24" transform="rotate(-90 1416 1008)" fill="#212121"/>
<rect width="24" height="4" transform="matrix(-1.31134e-07 1 1 1.31134e-07 1032 864)" fill="#212121"/>
<rect width="24" height="4" transform="matrix(-1.31134e-07 1 1 1.31134e-07 1038 864)" fill="#212121"/>
<rect width="24" height="4" transform="matrix(-1.31134e-07 1 1 1.31134e-07 1044 864)" fill="#212121"/>
<rect width="24" height="4" transform="matrix(-1.31134e-07 1 1 1.31134e-07 1050 864)" fill="#212121"/>
<rect width="24" height="4" transform="matrix(-1.31134e-07 1 1 1.31134e-07 1056 864)" fill="#212121"/>
<rect width="24" height="4" transform="matrix(-1.31134e-07 1 1 1.31134e-07 1062 864)" fill="#212121"/>
<rect width="24" height="4" transform="matrix(-1.31134e-07 1 1 1.31134e-07 1068 864)" fill="#212121"/>
<rect width="24" height="4" transform="matrix(-1.31134e-07 1 1 1.31134e-07 1074 864)" fill="#212121"/>
<rect x="1080" y="888" width="24" height="24" transform="rotate(-90 1080 888)" fill="#212121"/>
<rect width="24" height="4" transform="matrix(-1.31134e-07 1 1 1.31134e-07 960 864)" fill="#212121"/>
<rect width="24" height="4" transform="matrix(-1.31134e-07 1 1 1.31134e-07 966 864)" fill="#212121"/>
<rect width="24" height="4" transform="matrix(-1.31134e-07 1 1 1.31134e-07 972 864)" fill="#212121"/>
<rect width="24" height="4" transform="matrix(-1.31134e-07 1 1 1.31134e-07 978 864)" fill="#212121"/>
<rect width="24" height="4" transform="matrix(-1.31134e-07 1 1 1.31134e-07 984 864)" fill="#212121"/>
<rect width="24" height="4" transform="matrix(-1.31134e-07 1 1 1.31134e-07 990 864)" fill="#212121"/>
<rect width="24" height="4" transform="matrix(-1.31134e-07 1 1 1.31134e-07 996 864)" fill="#212121"/>
<rect width="24" height="4" transform="matrix(-1.31134e-07 1 1 1.31134e-07 1002 864)" fill="#212121"/>
<rect x="1008" y="888" width="24" height="24" transform="rotate(-90 1008 888)" fill="#212121"/>
<rect width="24" height="4" transform="matrix(-1.31134e-07 1 1 1.31134e-07 888 864)" fill="#212121"/>
<rect width="24" height="4" transform="matrix(-1.31134e-07 1 1 1.31134e-07 894 864)" fill="#212121"/>
<rect width="24" height="4" transform="matrix(-1.31134e-07 1 1 1.31134e-07 900 864)" fill="#212121"/>
<rect width="24" height="4" transform="matrix(-1.31134e-07 1 1 1.31134e-07 906 864)" fill="#212121"/>
<rect width="24" height="4" transform="matrix(-1.31134e-07 1 1 1.31134e-07 912 864)" fill="#212121"/>
<rect width="24" height="4" transform="matrix(-1.31134e-07 1 1 1.31134e-07 918 864)" fill="#212121"/>
<rect width="24" height="4" transform="matrix(-1.31134e-07 1 1 1.31134e-07 924 864)" fill="#212121"/>
<rect width="24" height="4" transform="matrix(-1.31134e-07 1 1 1.31134e-07 930 864)" fill="#212121"/>
<rect x="936" y="888" width="24" height="24" transform="rotate(-90 936 888)" fill="#212121"/>
<rect width="24" height="4" transform="matrix(-1.31134e-07 1 1 1.31134e-07 816 864)" fill="#212121"/>
<rect width="24" height="4" transform="matrix(-1.31134e-07 1 1 1.31134e-07 822 864)" fill="#212121"/>
<rect width="24" height="4" transform="matrix(-1.31134e-07 1 1 1.31134e-07 828 864)" fill="#212121"/>
<rect width="24" height="4" transform="matrix(-1.31134e-07 1 1 1.31134e-07 834 864)" fill="#212121"/>
<rect width="24" height="4" transform="matrix(-1.31134e-07 1 1 1.31134e-07 840 864)" fill="#212121"/>
<rect width="24" height="4" transform="matrix(-1.31134e-07 1 1 1.31134e-07 846 864)" fill="#212121"/>
<rect width="24" height="4" transform="matrix(-1.31134e-07 1 1 1.31134e-07 852 864)" fill="#212121"/>
<rect width="24" height="4" transform="matrix(-1.31134e-07 1 1 1.31134e-07 858 864)" fill="#212121"/>
<rect x="864" y="888" width="24" height="24" transform="rotate(-90 864 888)" fill="#212121"/>
<rect x="816" y="888" width="24" height="24" transform="rotate(-180 816 888)" fill="#212121"/>
<rect width="24" height="4" transform="matrix(-1 -1.74846e-07 -1.74846e-07 1 1224 1224)" fill="#212121"/>
<rect width="24" height="4" transform="matrix(-1 -1.74846e-07 -1.74846e-07 1 1224 1230)" fill="#212121"/>
<rect width="24" height="4" transform="matrix(-1 -1.74846e-07 -1.74846e-07 1 1224 1236)" fill="#212121"/>
<rect width="24" height="4" transform="matrix(-1 -1.74846e-07 -1.74846e-07 1 1224 1242)" fill="#212121"/>
<rect width="24" height="4" transform="matrix(-1 -1.74846e-07 -1.74846e-07 1 1224 1248)" fill="#212121"/>
<rect width="24" height="4" transform="matrix(-1 -1.74846e-07 -1.74846e-07 1 1224 1254)" fill="#212121"/>
<rect width="24" height="4" transform="matrix(-1 -1.74846e-07 -1.74846e-07 1 1224 1260)" fill="#212121"/>
<rect width="24" height="4" transform="matrix(-1 -1.74846e-07 -1.74846e-07 1 1224 1266)" fill="#212121"/>
<rect x="1200" y="1272" width="24" height="24" fill="#212121"/>
<rect width="24" height="4" transform="matrix(-1 -1.74846e-07 -1.74846e-07 1 1224 1152)" fill="#212121"/>
<rect width="24" height="4" transform="matrix(-1 -1.74846e-07 -1.74846e-07 1 1224 1158)" fill="#212121"/>
<rect width="24" height="4" transform="matrix(-1 -1.74846e-07 -1.74846e-07 1 1224 1164)" fill="#212121"/>
<rect width="24" height="4" transform="matrix(-1 -1.74846e-07 -1.74846e-07 1 1224 1170)" fill="#212121"/>
<rect width="24" height="4" transform="matrix(-1 -1.74846e-07 -1.74846e-07 1 1224 1176)" fill="#212121"/>
<rect width="24" height="4" transform="matrix(-1 -1.74846e-07 -1.74846e-07 1 1224 1182)" fill="#212121"/>
<rect width="24" height="4" transform="matrix(-1 -1.74846e-07 -1.74846e-07 1 1224 1188)" fill="#212121"/>
<rect width="24" height="4" transform="matrix(-1 -1.74846e-07 -1.74846e-07 1 1224 1194)" fill="#212121"/>
<rect x="1200" y="1200" width="24" height="24" fill="#212121"/>
<rect width="24" height="4" transform="matrix(-1 -1.74846e-07 -1.74846e-07 1 1224 1080)" fill="#212121"/>
<rect width="24" height="4" transform="matrix(-1 -1.74846e-07 -1.74846e-07 1 1224 1086)" fill="#212121"/>
<rect width="24" height="4" transform="matrix(-1 -1.74846e-07 -1.74846e-07 1 1224 1092)" fill="#212121"/>
<rect width="24" height="4" transform="matrix(-1 -1.74846e-07 -1.74846e-07 1 1224 1098)" fill="#212121"/>
<rect width="24" height="4" transform="matrix(-1 -1.74846e-07 -1.74846e-07 1 1224 1104)" fill="#212121"/>
<rect width="24" height="4" transform="matrix(-1 -1.74846e-07 -1.74846e-07 1 1224 1110)" fill="#212121"/>
<rect width="24" height="4" transform="matrix(-1 -1.74846e-07 -1.74846e-07 1 1224 1116)" fill="#212121"/>
<rect width="24" height="4" transform="matrix(-1 -1.74846e-07 -1.74846e-07 1 1224 1122)" fill="#212121"/>
<rect x="1200" y="1128" width="24" height="24" fill="#212121"/>
<rect width="24" height="4" transform="matrix(-1 -1.74846e-07 -1.74846e-07 1 1224 1008)" fill="#212121"/>
<rect width="24" height="4" transform="matrix(-1 -1.74846e-07 -1.74846e-07 1 1224 1014)" fill="#212121"/>
<rect width="24" height="4" transform="matrix(-1 -1.74846e-07 -1.74846e-07 1 1224 1020)" fill="#212121"/>
<rect width="24" height="4" transform="matrix(-1 -1.74846e-07 -1.74846e-07 1 1224 1026)" fill="#212121"/>
<rect width="24" height="4" transform="matrix(-1 -1.74846e-07 -1.74846e-07 1 1224 1032)" fill="#212121"/>
<rect width="24" height="4" transform="matrix(-1 -1.74846e-07 -1.74846e-07 1 1224 1038)" fill="#212121"/>
<rect width="24" height="4" transform="matrix(-1 -1.74846e-07 -1.74846e-07 1 1224 1044)" fill="#212121"/>
<rect width="24" height="4" transform="matrix(-1 -1.74846e-07 -1.74846e-07 1 1224 1050)" fill="#212121"/>
<rect x="1200" y="1056" width="24" height="24" fill="#212121"/>
<rect x="1200" y="1008" width="24" height="24" transform="rotate(-90 1200 1008)" fill="#212121"/>
<rect width="24" height="4" transform="matrix(-1 -1.74846e-07 -1.74846e-07 1 1416 1224)" fill="#212121"/>
<rect width="24" height="4" transform="matrix(-1 -1.74846e-07 -1.74846e-07 1 1416 1230)" fill="#212121"/>
<rect width="24" height="4" transform="matrix(-1 -1.74846e-07 -1.74846e-07 1 1416 1236)" fill="#212121"/>
<rect width="24" height="4" transform="matrix(-1 -1.74846e-07 -1.74846e-07 1 1416 1242)" fill="#212121"/>
<rect width="24" height="4" transform="matrix(-1 -1.74846e-07 -1.74846e-07 1 1416 1248)" fill="#212121"/>
<rect width="24" height="4" transform="matrix(-1 -1.74846e-07 -1.74846e-07 1 1416 1254)" fill="#212121"/>
<rect width="24" height="4" transform="matrix(-1 -1.74846e-07 -1.74846e-07 1 1416 1260)" fill="#212121"/>
<rect width="24" height="4" transform="matrix(-1 -1.74846e-07 -1.74846e-07 1 1416 1266)" fill="#212121"/>
<rect x="1392" y="1272" width="24" height="24" fill="#212121"/>
<rect width="24" height="4" transform="matrix(-1 -1.74846e-07 -1.74846e-07 1 1416 1152)" fill="#212121"/>
<rect width="24" height="4" transform="matrix(-1 -1.74846e-07 -1.74846e-07 1 1416 1158)" fill="#212121"/>
<rect width="24" height="4" transform="matrix(-1 -1.74846e-07 -1.74846e-07 1 1416 1164)" fill="#212121"/>
<rect width="24" height="4" transform="matrix(-1 -1.74846e-07 -1.74846e-07 1 1416 1170)" fill="#212121"/>
<rect width="24" height="4" transform="matrix(-1 -1.74846e-07 -1.74846e-07 1 1416 1176)" fill="#212121"/>
<rect width="24" height="4" transform="matrix(-1 -1.74846e-07 -1.74846e-07 1 1416 1182)" fill="#212121"/>
<rect width="24" height="4" transform="matrix(-1 -1.74846e-07 -1.74846e-07 1 1416 1188)" fill="#212121"/>
<rect width="24" height="4" transform="matrix(-1 -1.74846e-07 -1.74846e-07 1 1416 1194)" fill="#212121"/>
<rect x="1392" y="1200" width="24" height="24" fill="#212121"/>
<rect width="24" height="4" transform="matrix(-1 -1.74846e-07 -1.74846e-07 1 1416 1080)" fill="#212121"/>
<rect width="24" height="4" transform="matrix(-1 -1.74846e-07 -1.74846e-07 1 1416 1086)" fill="#212121"/>
<rect width="24" height="4" transform="matrix(-1 -1.74846e-07 -1.74846e-07 1 1416 1092)" fill="#212121"/>
<rect width="24" height="4" transform="matrix(-1 -1.74846e-07 -1.74846e-07 1 1416 1098)" fill="#212121"/>
<rect width="24" height="4" transform="matrix(-1 -1.74846e-07 -1.74846e-07 1 1416 1104)" fill="#212121"/>
<rect width="24" height="4" transform="matrix(-1 -1.74846e-07 -1.74846e-07 1 1416 1110)" fill="#212121"/>
<rect width="24" height="4" transform="matrix(-1 -1.74846e-07 -1.74846e-07 1 1416 1116)" fill="#212121"/>
<rect width="24" height="4" transform="matrix(-1 -1.74846e-07 -1.74846e-07 1 1416 1122)" fill="#212121"/>
<rect x="1392" y="1128" width="24" height="24" fill="#212121"/>
<rect width="24" height="4" transform="matrix(-1 -1.74846e-07 -1.74846e-07 1 1416 1008)" fill="#212121"/>
<rect width="24" height="4" transform="matrix(-1 -1.74846e-07 -1.74846e-07 1 1416 1014)" fill="#212121"/>
<rect width="24" height="4" transform="matrix(-1 -1.74846e-07 -1.74846e-07 1 1416 1020)" fill="#212121"/>
<rect width="24" height="4" transform="matrix(-1 -1.74846e-07 -1.74846e-07 1 1416 1026)" fill="#212121"/>
<rect width="24" height="4" transform="matrix(-1 -1.74846e-07 -1.74846e-07 1 1416 1032)" fill="#212121"/>
<rect width="24" height="4" transform="matrix(-1 -1.74846e-07 -1.74846e-07 1 1416 1038)" fill="#212121"/>
<rect width="24" height="4" transform="matrix(-1 -1.74846e-07 -1.74846e-07 1 1416 1044)" fill="#212121"/>
<rect width="24" height="4" transform="matrix(-1 -1.74846e-07 -1.74846e-07 1 1416 1050)" fill="#212121"/>
<rect x="1392" y="1056" width="24" height="24" fill="#212121"/>
<rect x="1392" y="1008" width="24" height="24" transform="rotate(-90 1392 1008)" fill="#212121"/>
<rect width="24" height="4" transform="matrix(-1.31134e-07 1 1 1.31134e-07 1776 840)" fill="#212121"/>
<rect width="24" height="4" transform="matrix(-1.31134e-07 1 1 1.31134e-07 1782 840)" fill="#212121"/>
<rect width="24" height="4" transform="matrix(-1.31134e-07 1 1 1.31134e-07 1788 840)" fill="#212121"/>
<rect width="24" height="4" transform="matrix(-1.31134e-07 1 1 1.31134e-07 1794 840)" fill="#212121"/>
<rect width="24" height="4" transform="matrix(-1.31134e-07 1 1 1.31134e-07 1800 840)" fill="#212121"/>
<rect width="24" height="4" transform="matrix(-1.31134e-07 1 1 1.31134e-07 1806 840)" fill="#212121"/>
<rect width="24" height="4" transform="matrix(-1.31134e-07 1 1 1.31134e-07 1812 840)" fill="#212121"/>
<rect width="24" height="4" transform="matrix(-1.31134e-07 1 1 1.31134e-07 1818 840)" fill="#212121"/>
<rect x="1824" y="864" width="24" height="24" transform="rotate(-90 1824 864)" fill="#212121"/>
<rect width="24" height="4" transform="matrix(-1.31134e-07 1 1 1.31134e-07 1704 840)" fill="#212121"/>
<rect width="24" height="4" transform="matrix(-1.31134e-07 1 1 1.31134e-07 1710 840)" fill="#212121"/>
<rect width="24" height="4" transform="matrix(-1.31134e-07 1 1 1.31134e-07 1716 840)" fill="#212121"/>
<rect width="24" height="4" transform="matrix(-1.31134e-07 1 1 1.31134e-07 1722 840)" fill="#212121"/>
<rect width="24" height="4" transform="matrix(-1.31134e-07 1 1 1.31134e-07 1728 840)" fill="#212121"/>
<rect width="24" height="4" transform="matrix(-1.31134e-07 1 1 1.31134e-07 1734 840)" fill="#212121"/>
<rect width="24" height="4" transform="matrix(-1.31134e-07 1 1 1.31134e-07 1740 840)" fill="#212121"/>
<rect width="24" height="4" transform="matrix(-1.31134e-07 1 1 1.31134e-07 1746 840)" fill="#212121"/>
<rect x="1752" y="864" width="24" height="24" transform="rotate(-90 1752 864)" fill="#212121"/>
<rect width="24" height="4" transform="matrix(-1.31134e-07 1 1 1.31134e-07 1632 840)" fill="#212121"/>
<rect width="24" height="4" transform="matrix(-1.31134e-07 1 1 1.31134e-07 1638 840)" fill="#212121"/>
<rect width="24" height="4" transform="matrix(-1.31134e-07 1 1 1.31134e-07 1644 840)" fill="#212121"/>
<rect width="24" height="4" transform="matrix(-1.31134e-07 1 1 1.31134e-07 1650 840)" fill="#212121"/>
<rect width="24" height="4" transform="matrix(-1.31134e-07 1 1 1.31134e-07 1656 840)" fill="#212121"/>
<rect width="24" height="4" transform="matrix(-1.31134e-07 1 1 1.31134e-07 1662 840)" fill="#212121"/>
<rect width="24" height="4" transform="matrix(-1.31134e-07 1 1 1.31134e-07 1668 840)" fill="#212121"/>
<rect width="24" height="4" transform="matrix(-1.31134e-07 1 1 1.31134e-07 1674 840)" fill="#212121"/>
<rect x="1680" y="864" width="24" height="24" transform="rotate(-90 1680 864)" fill="#212121"/>
<rect width="24" height="4" transform="matrix(-1.31134e-07 1 1 1.31134e-07 1560 840)" fill="#212121"/>
<rect width="24" height="4" transform="matrix(-1.31134e-07 1 1 1.31134e-07 1566 840)" fill="#212121"/>
<rect width="24" height="4" transform="matrix(-1.31134e-07 1 1 1.31134e-07 1572 840)" fill="#212121"/>
<rect width="24" height="4" transform="matrix(-1.31134e-07 1 1 1.31134e-07 1578 840)" fill="#212121"/>
<rect width="24" height="4" transform="matrix(-1.31134e-07 1 1 1.31134e-07 1584 840)" fill="#212121"/>
<rect width="24" height="4" transform="matrix(-1.31134e-07 1 1 1.31134e-07 1590 840)" fill="#212121"/>
<rect width="24" height="4" transform="matrix(-1.31134e-07 1 1 1.31134e-07 1596 840)" fill="#212121"/>
<rect width="24" height="4" transform="matrix(-1.31134e-07 1 1 1.31134e-07 1602 840)" fill="#212121"/>
<rect x="1608" y="864" width="24" height="24" transform="rotate(-90 1608 864)" fill="#212121"/>
<rect x="1560" y="864" width="24" height="24" transform="rotate(-180 1560 864)" fill="#212121"/>
<rect width="24" height="4" transform="matrix(-1.31134e-07 1 1 1.31134e-07 1776 864)" fill="#212121"/>
<rect width="24" height="4" transform="matrix(-1.31134e-07 1 1 1.31134e-07 1782 864)" fill="#212121"/>
<rect width="24" height="4" transform="matrix(-1.31134e-07 1 1 1.31134e-07 1788 864)" fill="#212121"/>
<rect width="24" height="4" transform="matrix(-1.31134e-07 1 1 1.31134e-07 1794 864)" fill="#212121"/>
<rect width="24" height="4" transform="matrix(-1.31134e-07 1 1 1.31134e-07 1800 864)" fill="#212121"/>
<rect width="24" height="4" transform="matrix(-1.31134e-07 1 1 1.31134e-07 1806 864)" fill="#212121"/>
<rect width="24" height="4" transform="matrix(-1.31134e-07 1 1 1.31134e-07 1812 864)" fill="#212121"/>
<rect width="24" height="4" transform="matrix(-1.31134e-07 1 1 1.31134e-07 1818 864)" fill="#212121"/>
<rect x="1824" y="888" width="24" height="24" transform="rotate(-90 1824 888)" fill="#212121"/>
<rect width="24" height="4" transform="matrix(-1.31134e-07 1 1 1.31134e-07 1704 864)" fill="#212121"/>
<rect width="24" height="4" transform="matrix(-1.31134e-07 1 1 1.31134e-07 1710 864)" fill="#212121"/>
<rect width="24" height="4" transform="matrix(-1.31134e-07 1 1 1.31134e-07 1716 864)" fill="#212121"/>
<rect width="24" height="4" transform="matrix(-1.31134e-07 1 1 1.31134e-07 1722 864)" fill="#212121"/>
<rect width="24" height="4" transform="matrix(-1.31134e-07 1 1 1.31134e-07 1728 864)" fill="#212121"/>
<rect width="24" height="4" transform="matrix(-1.31134e-07 1 1 1.31134e-07 1734 864)" fill="#212121"/>
<rect width="24" height="4" transform="matrix(-1.31134e-07 1 1 1.31134e-07 1740 864)" fill="#212121"/>
<rect width="24" height="4" transform="matrix(-1.31134e-07 1 1 1.31134e-07 1746 864)" fill="#212121"/>
<rect x="1752" y="888" width="24" height="24" transform="rotate(-90 1752 888)" fill="#212121"/>
<rect width="24" height="4" transform="matrix(-1.31134e-07 1 1 1.31134e-07 1632 864)" fill="#212121"/>
<rect width="24" height="4" transform="matrix(-1.31134e-07 1 1 1.31134e-07 1638 864)" fill="#212121"/>
<rect width="24" height="4" transform="matrix(-1.31134e-07 1 1 1.31134e-07 1644 864)" fill="#212121"/>
<rect width="24" height="4" transform="matrix(-1.31134e-07 1 1 1.31134e-07 1650 864)" fill="#212121"/>
<rect width="24" height="4" transform="matrix(-1.31134e-07 1 1 1.31134e-07 1656 864)" fill="#212121"/>
<rect width="24" height="4" transform="matrix(-1.31134e-07 1 1 1.31134e-07 1662 864)" fill="#212121"/>
<rect width="24" height="4" transform="matrix(-1.31134e-07 1 1 1.31134e-07 1668 864)" fill="#212121"/>
<rect width="24" height="4" transform="matrix(-1.31134e-07 1 1 1.31134e-07 1674 864)" fill="#212121"/>
<rect x="1680" y="888" width="24" height="24" transform="rotate(-90 1680 888)" fill="#212121"/>
<rect width="24" height="4" transform="matrix(-1.31134e-07 1 1 1.31134e-07 1560 864)" fill="#212121"/>
<rect width="24" height="4" transform="matrix(-1.31134e-07 1 1 1.31134e-07 1566 864)" fill="#212121"/>
<rect width="24" height="4" transform="matrix(-1.31134e-07 1 1 1.31134e-07 1572 864)" fill="#212121"/>
<rect width="24" height="4" transform="matrix(-1.31134e-07 1 1 1.31134e-07 1578 864)" fill="#212121"/>
<rect width="24" height="4" transform="matrix(-1.31134e-07 1 1 1.31134e-07 1584 864)" fill="#212121"/>
<rect width="24" height="4" transform="matrix(-1.31134e-07 1 1 1.31134e-07 1590 864)" fill="#212121"/>
<rect width="24" height="4" transform="matrix(-1.31134e-07 1 1 1.31134e-07 1596 864)" fill="#212121"/>
<rect width="24" height="4" transform="matrix(-1.31134e-07 1 1 1.31134e-07 1602 864)" fill="#212121"/>
<rect x="1608" y="888" width="24" height="24" transform="rotate(-90 1608 888)" fill="#212121"/>
<rect x="1560" y="888" width="24" height="24" transform="rotate(-180 1560 888)" fill="#212121"/>
<rect width="48" height="48" transform="translate(1200 888)" fill="#212121"/>
<path d="M1231.97 916.849C1231.95 916.776 1231.91 916.707 1231.86 916.648C1231.8 916.59 1231.74 916.542 1231.67 916.507C1231.6 916.472 1231.53 916.451 1231.45 916.446C1231.37 916.44 1231.29 916.45 1231.22 916.475L1229.93 916.905L1227.79 912.623C1227.74 912.525 1227.66 912.442 1227.57 912.384C1227.48 912.326 1227.37 912.296 1227.26 912.296H1221.33V910.518H1225.48C1225.64 910.518 1225.79 910.455 1225.9 910.344C1226.01 910.233 1226.07 910.082 1226.07 909.925C1226.07 909.768 1226.01 909.617 1225.9 909.506C1225.79 909.395 1225.64 909.333 1225.48 909.333H1221.33V908.666C1221.89 908.522 1222.38 908.179 1222.7 907.701C1223.02 907.223 1223.16 906.644 1223.09 906.072C1223.02 905.499 1222.74 904.973 1222.31 904.592C1221.87 904.21 1221.32 904 1220.74 904C1220.16 904 1219.6 904.21 1219.17 904.592C1218.74 904.973 1218.46 905.499 1218.39 906.072C1218.31 906.644 1218.45 907.223 1218.78 907.701C1219.1 908.179 1219.59 908.522 1220.15 908.666V909.467C1218.87 909.759 1217.74 910.511 1216.98 911.58C1216.23 912.649 1215.89 913.96 1216.03 915.263C1216.18 916.565 1216.8 917.768 1217.78 918.642C1218.76 919.516 1220.02 919.999 1221.33 920C1223.81 920 1226.05 918.318 1226.65 916C1226.67 915.924 1226.67 915.846 1226.66 915.769C1226.65 915.692 1226.62 915.617 1226.58 915.55C1226.54 915.483 1226.49 915.425 1226.43 915.378C1226.37 915.331 1226.3 915.297 1226.22 915.277C1226.15 915.258 1226.07 915.254 1225.99 915.264C1225.91 915.275 1225.84 915.301 1225.77 915.341C1225.7 915.38 1225.65 915.433 1225.6 915.495C1225.55 915.557 1225.52 915.628 1225.5 915.703C1225.04 917.481 1223.25 918.815 1221.33 918.815C1220.33 918.814 1219.37 918.456 1218.62 917.804C1217.86 917.152 1217.37 916.251 1217.23 915.265C1217.08 914.279 1217.3 913.275 1217.83 912.435C1218.37 911.595 1219.19 910.976 1220.15 910.691V912.888C1220.15 913.046 1220.21 913.196 1220.32 913.307C1220.43 913.419 1220.58 913.481 1220.74 913.481H1226.89L1229.1 917.895C1229.16 918.022 1229.27 918.122 1229.4 918.177C1229.53 918.231 1229.68 918.236 1229.82 918.191L1231.59 917.598C1231.74 917.549 1231.87 917.442 1231.94 917.301C1232.01 917.161 1232.02 916.998 1231.97 916.849ZM1219.55 906.369C1219.55 906.135 1219.62 905.906 1219.75 905.711C1219.88 905.516 1220.07 905.364 1220.28 905.274C1220.5 905.185 1220.74 905.161 1220.97 905.207C1221.2 905.253 1221.41 905.365 1221.58 905.531C1221.74 905.697 1221.86 905.908 1221.9 906.138C1221.95 906.368 1221.92 906.606 1221.83 906.823C1221.74 907.04 1221.59 907.225 1221.4 907.355C1221.2 907.485 1220.97 907.555 1220.74 907.555C1220.42 907.555 1220.12 907.43 1219.9 907.207C1219.68 906.985 1219.55 906.684 1219.55 906.369Z" fill="white"/>
<path d="M1439.5 911.5L1248.5 911.5L1248.5 888.5L1439.5 888.5L1439.5 911.5Z" fill="#CCCCCC" stroke="black"/>
<path d="M672.5 452.5L672.5 216.5L695.5 216.5L695.5 452.5L672.5 452.5Z" fill="#CCCCCC" stroke="black"/>
<path d="M1920.5 455.5L1920.5 216.5L1943.5 216.5L1943.5 455.5L1920.5 455.5Z" fill="#CCCCCC" stroke="black"/>
<line x1="672" y1="454" x2="1944" y2="454" stroke="#474747" stroke-width="4"/>
<defs>
<filter id="filter0_d_1119_34737" x="308" y="212" width="2036" height="379.684" filterUnits="userSpaceOnUse" color-interpolation-filters="sRGB">
<feFlood flood-opacity="0" result="BackgroundImageFix"/>
<feColorMatrix in="SourceAlpha" type="matrix" values="0 0 0 0 0 0 0 0 0 0 0 0 0 0 0 0 0 0 127 0" result="hardAlpha"/>
<feOffset dx="8" dy="8"/>
<feGaussianBlur stdDeviation="2"/>
<feComposite in2="hardAlpha" operator="out"/>
<feColorMatrix type="matrix" values="0 0 0 0 0 0 0 0 0 0 0 0 0 0 0 0 0 0 0.4 0"/>
<feBlend mode="normal" in2="BackgroundImageFix" result="effect1_dropShadow_1119_34737"/>
<feBlend mode="normal" in="SourceGraphic" in2="effect1_dropShadow_1119_34737" result="shape"/>
</filter>
<filter id="filter1_d_1119_34737" x="308" y="716" width="2036" height="644" filterUnits="userSpaceOnUse" color-interpolation-filters="sRGB">
<feFlood flood-opacity="0" result="BackgroundImageFix"/>
<feColorMatrix in="SourceAlpha" type="matrix" values="0 0 0 0 0 0 0 0 0 0 0 0 0 0 0 0 0 0 127 0" result="hardAlpha"/>
<feOffset dx="8" dy="8"/>
<feGaussianBlur stdDeviation="2"/>
<feComposite in2="hardAlpha" operator="out"/>
<feColorMatrix type="matrix" values="0 0 0 0 0 0 0 0 0 0 0 0 0 0 0 0 0 0 0.4 0"/>
<feBlend mode="normal" in2="BackgroundImageFix" result="effect1_dropShadow_1119_34737"/>
<feBlend mode="normal" in="SourceGraphic" in2="effect1_dropShadow_1119_34737" result="shape"/>
</filter>
</defs>
</svg>
