<svg width="2880" height="1440" viewBox="0 0 2880 1440" fill="none" xmlns="http://www.w3.org/2000/svg">
<rect x="144" y="624" width="2616" height="144" fill="#EEEEEE"/>
<g filter="url(#filter0_d_1119_58773)">
<mask id="path-2-outside-1_1119_58773" maskUnits="userSpaceOnUse" x="140" y="764" width="2624" height="272" fill="black">
<rect fill="white" x="140" y="764" width="2624" height="272"/>
<path fill-rule="evenodd" clip-rule="evenodd" d="M144 768H2760V936H1584V984H1560V1032H1512V984H1320V936H144V768Z"/>
</mask>
<path fill-rule="evenodd" clip-rule="evenodd" d="M144 768H2760V936H1584V984H1560V1032H1512V984H1320V936H144V768Z" fill="#D9D9D9"/>
<path d="M2760 768H2764V764H2760V768ZM144 768V764H140V768H144ZM2760 936V940H2764V936H2760ZM1584 936V932H1580V936H1584ZM1584 984V988H1588V984H1584ZM1560 984V980H1556V984H1560ZM1560 1032V1036H1564V1032H1560ZM1512 1032H1508V1036H1512V1032ZM1512 984H1516V980H1512V984ZM1320 984H1316V988H1320V984ZM1320 936H1324V932H1320V936ZM144 936H140V940H144V936ZM2760 764H144V772H2760V764ZM2764 936V768H2756V936H2764ZM1584 940H2760V932H1584V940ZM1580 936V984H1588V936H1580ZM1584 980H1560V988H1584V980ZM1564 1032V984H1556V1032H1564ZM1512 1036H1560V1028H1512V1036ZM1508 984V1032H1516V984H1508ZM1512 980H1320V988H1512V980ZM1324 984V936H1316V984H1324ZM144 940H1320V932H144V940ZM140 768V936H148V768H140Z" fill="#474747" mask="url(#path-2-outside-1_1119_58773)"/>
</g>
<g filter="url(#filter1_d_1119_58773)">
<mask id="path-4-outside-2_1119_58773" maskUnits="userSpaceOnUse" x="140" y="380" width="2624" height="248" fill="black">
<rect fill="white" x="140" y="380" width="2624" height="248"/>
<path fill-rule="evenodd" clip-rule="evenodd" d="M1656 384H1608V432H144V624H2760V432H1656V384Z"/>
</mask>
<path fill-rule="evenodd" clip-rule="evenodd" d="M1656 384H1608V432H144V624H2760V432H1656V384Z" fill="#D9D9D9"/>
<path d="M1608 384V380H1604V384H1608ZM1656 384H1660V380H1656V384ZM1608 432V436H1612V432H1608ZM144 432V428H140V432H144ZM144 624H140V628H144V624ZM2760 624V628H2764V624H2760ZM2760 432H2764V428H2760V432ZM1656 432H1652V436H1656V432ZM1608 388H1656V380H1608V388ZM1612 432V384H1604V432H1612ZM144 436H1608V428H144V436ZM148 624V432H140V624H148ZM2760 620H144V628H2760V620ZM2756 432V624H2764V432H2756ZM1656 436H2760V428H1656V436ZM1652 384V432H1660V384H1652Z" fill="#474747" mask="url(#path-4-outside-2_1119_58773)"/>
</g>
<rect x="1344" y="504" width="24" height="4" transform="rotate(-90 1344 504)" fill="#212121"/>
<rect x="1350" y="504" width="24" height="4" transform="rotate(-90 1350 504)" fill="#212121"/>
<rect x="1356" y="504" width="24" height="4" transform="rotate(-90 1356 504)" fill="#212121"/>
<rect x="1362" y="504" width="24" height="4" transform="rotate(-90 1362 504)" fill="#212121"/>
<rect x="1368" y="504" width="24" height="4" transform="rotate(-90 1368 504)" fill="#212121"/>
<rect x="1374" y="504" width="24" height="4" transform="rotate(-90 1374 504)" fill="#212121"/>
<rect x="1380" y="504" width="24" height="4" transform="rotate(-90 1380 504)" fill="#212121"/>
<rect x="1386" y="504" width="24" height="4" transform="rotate(-90 1386 504)" fill="#212121"/>
<rect width="24" height="24" transform="matrix(1.31134e-07 1 1 -1.31134e-07 1392 480)" fill="#212121"/>
<rect x="1272" y="504" width="24" height="4" transform="rotate(-90 1272 504)" fill="#212121"/>
<rect x="1278" y="504" width="24" height="4" transform="rotate(-90 1278 504)" fill="#212121"/>
<rect x="1284" y="504" width="24" height="4" transform="rotate(-90 1284 504)" fill="#212121"/>
<rect x="1290" y="504" width="24" height="4" transform="rotate(-90 1290 504)" fill="#212121"/>
<rect x="1296" y="504" width="24" height="4" transform="rotate(-90 1296 504)" fill="#212121"/>
<rect x="1302" y="504" width="24" height="4" transform="rotate(-90 1302 504)" fill="#212121"/>
<rect x="1308" y="504" width="24" height="4" transform="rotate(-90 1308 504)" fill="#212121"/>
<rect x="1314" y="504" width="24" height="4" transform="rotate(-90 1314 504)" fill="#212121"/>
<rect width="24" height="24" transform="matrix(1.31134e-07 1 1 -1.31134e-07 1320 480)" fill="#212121"/>
<rect x="1200" y="504" width="24" height="4" transform="rotate(-90 1200 504)" fill="#212121"/>
<rect x="1206" y="504" width="24" height="4" transform="rotate(-90 1206 504)" fill="#212121"/>
<rect x="1212" y="504" width="24" height="4" transform="rotate(-90 1212 504)" fill="#212121"/>
<rect x="1218" y="504" width="24" height="4" transform="rotate(-90 1218 504)" fill="#212121"/>
<rect x="1224" y="504" width="24" height="4" transform="rotate(-90 1224 504)" fill="#212121"/>
<rect x="1230" y="504" width="24" height="4" transform="rotate(-90 1230 504)" fill="#212121"/>
<rect x="1236" y="504" width="24" height="4" transform="rotate(-90 1236 504)" fill="#212121"/>
<rect x="1242" y="504" width="24" height="4" transform="rotate(-90 1242 504)" fill="#212121"/>
<rect width="24" height="24" transform="matrix(1.31134e-07 1 1 -1.31134e-07 1248 480)" fill="#212121"/>
<rect width="24" height="24" transform="matrix(-1 8.74228e-08 8.74228e-08 1 1200 480)" fill="#212121"/>
<rect x="1344" y="936" width="24" height="4" transform="rotate(-90 1344 936)" fill="#212121"/>
<rect x="1350" y="936" width="24" height="4" transform="rotate(-90 1350 936)" fill="#212121"/>
<rect x="1356" y="936" width="24" height="4" transform="rotate(-90 1356 936)" fill="#212121"/>
<rect x="1362" y="936" width="24" height="4" transform="rotate(-90 1362 936)" fill="#212121"/>
<rect x="1368" y="936" width="24" height="4" transform="rotate(-90 1368 936)" fill="#212121"/>
<rect x="1374" y="936" width="24" height="4" transform="rotate(-90 1374 936)" fill="#212121"/>
<rect x="1380" y="936" width="24" height="4" transform="rotate(-90 1380 936)" fill="#212121"/>
<rect x="1386" y="936" width="24" height="4" transform="rotate(-90 1386 936)" fill="#212121"/>
<rect width="24" height="24" transform="matrix(1.31134e-07 1 1 -1.31134e-07 1392 912)" fill="#212121"/>
<rect x="1272" y="936" width="24" height="4" transform="rotate(-90 1272 936)" fill="#212121"/>
<rect x="1278" y="936" width="24" height="4" transform="rotate(-90 1278 936)" fill="#212121"/>
<rect x="1284" y="936" width="24" height="4" transform="rotate(-90 1284 936)" fill="#212121"/>
<rect x="1290" y="936" width="24" height="4" transform="rotate(-90 1290 936)" fill="#212121"/>
<rect x="1296" y="936" width="24" height="4" transform="rotate(-90 1296 936)" fill="#212121"/>
<rect x="1302" y="936" width="24" height="4" transform="rotate(-90 1302 936)" fill="#212121"/>
<rect x="1308" y="936" width="24" height="4" transform="rotate(-90 1308 936)" fill="#212121"/>
<rect x="1314" y="936" width="24" height="4" transform="rotate(-90 1314 936)" fill="#212121"/>
<rect width="24" height="24" transform="matrix(1.31134e-07 1 1 -1.31134e-07 1320 912)" fill="#212121"/>
<rect x="1200" y="936" width="24" height="4" transform="rotate(-90 1200 936)" fill="#212121"/>
<rect x="1206" y="936" width="24" height="4" transform="rotate(-90 1206 936)" fill="#212121"/>
<rect x="1212" y="936" width="24" height="4" transform="rotate(-90 1212 936)" fill="#212121"/>
<rect x="1218" y="936" width="24" height="4" transform="rotate(-90 1218 936)" fill="#212121"/>
<rect x="1224" y="936" width="24" height="4" transform="rotate(-90 1224 936)" fill="#212121"/>
<rect x="1230" y="936" width="24" height="4" transform="rotate(-90 1230 936)" fill="#212121"/>
<rect x="1236" y="936" width="24" height="4" transform="rotate(-90 1236 936)" fill="#212121"/>
<rect x="1242" y="936" width="24" height="4" transform="rotate(-90 1242 936)" fill="#212121"/>
<rect width="24" height="24" transform="matrix(1.31134e-07 1 1 -1.31134e-07 1248 912)" fill="#212121"/>
<rect width="24" height="24" transform="matrix(-1 8.74228e-08 8.74228e-08 1 1200 912)" fill="#212121"/>
<rect x="1344" y="480" width="24" height="4" transform="rotate(-90 1344 480)" fill="#212121"/>
<rect x="1350" y="480" width="24" height="4" transform="rotate(-90 1350 480)" fill="#212121"/>
<rect x="1356" y="480" width="24" height="4" transform="rotate(-90 1356 480)" fill="#212121"/>
<rect x="1362" y="480" width="24" height="4" transform="rotate(-90 1362 480)" fill="#212121"/>
<rect x="1368" y="480" width="24" height="4" transform="rotate(-90 1368 480)" fill="#212121"/>
<rect x="1374" y="480" width="24" height="4" transform="rotate(-90 1374 480)" fill="#212121"/>
<rect x="1380" y="480" width="24" height="4" transform="rotate(-90 1380 480)" fill="#212121"/>
<rect x="1386" y="480" width="24" height="4" transform="rotate(-90 1386 480)" fill="#212121"/>
<rect width="24" height="24" transform="matrix(1.31134e-07 1 1 -1.31134e-07 1392 456)" fill="#212121"/>
<rect x="1272" y="480" width="24" height="4" transform="rotate(-90 1272 480)" fill="#212121"/>
<rect x="1278" y="480" width="24" height="4" transform="rotate(-90 1278 480)" fill="#212121"/>
<rect x="1284" y="480" width="24" height="4" transform="rotate(-90 1284 480)" fill="#212121"/>
<rect x="1290" y="480" width="24" height="4" transform="rotate(-90 1290 480)" fill="#212121"/>
<rect x="1296" y="480" width="24" height="4" transform="rotate(-90 1296 480)" fill="#212121"/>
<rect x="1302" y="480" width="24" height="4" transform="rotate(-90 1302 480)" fill="#212121"/>
<rect x="1308" y="480" width="24" height="4" transform="rotate(-90 1308 480)" fill="#212121"/>
<rect x="1314" y="480" width="24" height="4" transform="rotate(-90 1314 480)" fill="#212121"/>
<rect width="24" height="24" transform="matrix(1.31134e-07 1 1 -1.31134e-07 1320 456)" fill="#212121"/>
<rect x="1200" y="480" width="24" height="4" transform="rotate(-90 1200 480)" fill="#212121"/>
<rect x="1206" y="480" width="24" height="4" transform="rotate(-90 1206 480)" fill="#212121"/>
<rect x="1212" y="480" width="24" height="4" transform="rotate(-90 1212 480)" fill="#212121"/>
<rect x="1218" y="480" width="24" height="4" transform="rotate(-90 1218 480)" fill="#212121"/>
<rect x="1224" y="480" width="24" height="4" transform="rotate(-90 1224 480)" fill="#212121"/>
<rect x="1230" y="480" width="24" height="4" transform="rotate(-90 1230 480)" fill="#212121"/>
<rect x="1236" y="480" width="24" height="4" transform="rotate(-90 1236 480)" fill="#212121"/>
<rect x="1242" y="480" width="24" height="4" transform="rotate(-90 1242 480)" fill="#212121"/>
<rect width="24" height="24" transform="matrix(1.31134e-07 1 1 -1.31134e-07 1248 456)" fill="#212121"/>
<rect width="24" height="24" transform="matrix(-1 8.74228e-08 8.74228e-08 1 1200 456)" fill="#212121"/>
<rect x="1344" y="912" width="24" height="4" transform="rotate(-90 1344 912)" fill="#212121"/>
<rect x="1350" y="912" width="24" height="4" transform="rotate(-90 1350 912)" fill="#212121"/>
<rect x="1356" y="912" width="24" height="4" transform="rotate(-90 1356 912)" fill="#212121"/>
<rect x="1362" y="912" width="24" height="4" transform="rotate(-90 1362 912)" fill="#212121"/>
<rect x="1368" y="912" width="24" height="4" transform="rotate(-90 1368 912)" fill="#212121"/>
<rect x="1374" y="912" width="24" height="4" transform="rotate(-90 1374 912)" fill="#212121"/>
<rect x="1380" y="912" width="24" height="4" transform="rotate(-90 1380 912)" fill="#212121"/>
<rect x="1386" y="912" width="24" height="4" transform="rotate(-90 1386 912)" fill="#212121"/>
<rect width="24" height="24" transform="matrix(1.31134e-07 1 1 -1.31134e-07 1392 888)" fill="#212121"/>
<rect x="1272" y="912" width="24" height="4" transform="rotate(-90 1272 912)" fill="#212121"/>
<rect x="1278" y="912" width="24" height="4" transform="rotate(-90 1278 912)" fill="#212121"/>
<rect x="1284" y="912" width="24" height="4" transform="rotate(-90 1284 912)" fill="#212121"/>
<rect x="1290" y="912" width="24" height="4" transform="rotate(-90 1290 912)" fill="#212121"/>
<rect x="1296" y="912" width="24" height="4" transform="rotate(-90 1296 912)" fill="#212121"/>
<rect x="1302" y="912" width="24" height="4" transform="rotate(-90 1302 912)" fill="#212121"/>
<rect x="1308" y="912" width="24" height="4" transform="rotate(-90 1308 912)" fill="#212121"/>
<rect x="1314" y="912" width="24" height="4" transform="rotate(-90 1314 912)" fill="#212121"/>
<rect width="24" height="24" transform="matrix(1.31134e-07 1 1 -1.31134e-07 1320 888)" fill="#212121"/>
<rect x="1200" y="912" width="24" height="4" transform="rotate(-90 1200 912)" fill="#212121"/>
<rect x="1206" y="912" width="24" height="4" transform="rotate(-90 1206 912)" fill="#212121"/>
<rect x="1212" y="912" width="24" height="4" transform="rotate(-90 1212 912)" fill="#212121"/>
<rect x="1218" y="912" width="24" height="4" transform="rotate(-90 1218 912)" fill="#212121"/>
<rect x="1224" y="912" width="24" height="4" transform="rotate(-90 1224 912)" fill="#212121"/>
<rect x="1230" y="912" width="24" height="4" transform="rotate(-90 1230 912)" fill="#212121"/>
<rect x="1236" y="912" width="24" height="4" transform="rotate(-90 1236 912)" fill="#212121"/>
<rect x="1242" y="912" width="24" height="4" transform="rotate(-90 1242 912)" fill="#212121"/>
<rect width="24" height="24" transform="matrix(1.31134e-07 1 1 -1.31134e-07 1248 888)" fill="#212121"/>
<rect width="24" height="24" transform="matrix(-1 8.74228e-08 8.74228e-08 1 1200 888)" fill="#212121"/>
<rect x="984" y="480" width="24" height="4" transform="rotate(-90 984 480)" fill="#212121"/>
<rect x="990" y="480" width="24" height="4" transform="rotate(-90 990 480)" fill="#212121"/>
<rect x="996" y="480" width="24" height="4" transform="rotate(-90 996 480)" fill="#212121"/>
<rect x="1002" y="480" width="24" height="4" transform="rotate(-90 1002 480)" fill="#212121"/>
<rect x="1008" y="480" width="24" height="4" transform="rotate(-90 1008 480)" fill="#212121"/>
<rect x="1014" y="480" width="24" height="4" transform="rotate(-90 1014 480)" fill="#212121"/>
<rect x="1020" y="480" width="24" height="4" transform="rotate(-90 1020 480)" fill="#212121"/>
<rect x="1026" y="480" width="24" height="4" transform="rotate(-90 1026 480)" fill="#212121"/>
<rect width="24" height="24" transform="matrix(1.31134e-07 1 1 -1.31134e-07 1032 456)" fill="#212121"/>
<rect x="912" y="480" width="24" height="4" transform="rotate(-90 912 480)" fill="#212121"/>
<rect x="918" y="480" width="24" height="4" transform="rotate(-90 918 480)" fill="#212121"/>
<rect x="924" y="480" width="24" height="4" transform="rotate(-90 924 480)" fill="#212121"/>
<rect x="930" y="480" width="24" height="4" transform="rotate(-90 930 480)" fill="#212121"/>
<rect x="936" y="480" width="24" height="4" transform="rotate(-90 936 480)" fill="#212121"/>
<rect x="942" y="480" width="24" height="4" transform="rotate(-90 942 480)" fill="#212121"/>
<rect x="948" y="480" width="24" height="4" transform="rotate(-90 948 480)" fill="#212121"/>
<rect x="954" y="480" width="24" height="4" transform="rotate(-90 954 480)" fill="#212121"/>
<rect width="24" height="24" transform="matrix(1.31134e-07 1 1 -1.31134e-07 960 456)" fill="#212121"/>
<rect x="840" y="480" width="24" height="4" transform="rotate(-90 840 480)" fill="#212121"/>
<rect x="846" y="480" width="24" height="4" transform="rotate(-90 846 480)" fill="#212121"/>
<rect x="852" y="480" width="24" height="4" transform="rotate(-90 852 480)" fill="#212121"/>
<rect x="858" y="480" width="24" height="4" transform="rotate(-90 858 480)" fill="#212121"/>
<rect x="864" y="480" width="24" height="4" transform="rotate(-90 864 480)" fill="#212121"/>
<rect x="870" y="480" width="24" height="4" transform="rotate(-90 870 480)" fill="#212121"/>
<rect x="876" y="480" width="24" height="4" transform="rotate(-90 876 480)" fill="#212121"/>
<rect x="882" y="480" width="24" height="4" transform="rotate(-90 882 480)" fill="#212121"/>
<rect width="24" height="24" transform="matrix(1.31134e-07 1 1 -1.31134e-07 888 456)" fill="#212121"/>
<rect width="24" height="24" transform="matrix(-1 8.74228e-08 8.74228e-08 1 840 456)" fill="#212121"/>
<rect x="984" y="912" width="24" height="4" transform="rotate(-90 984 912)" fill="#212121"/>
<rect x="990" y="912" width="24" height="4" transform="rotate(-90 990 912)" fill="#212121"/>
<rect x="996" y="912" width="24" height="4" transform="rotate(-90 996 912)" fill="#212121"/>
<rect x="1002" y="912" width="24" height="4" transform="rotate(-90 1002 912)" fill="#212121"/>
<rect x="1008" y="912" width="24" height="4" transform="rotate(-90 1008 912)" fill="#212121"/>
<rect x="1014" y="912" width="24" height="4" transform="rotate(-90 1014 912)" fill="#212121"/>
<rect x="1020" y="912" width="24" height="4" transform="rotate(-90 1020 912)" fill="#212121"/>
<rect x="1026" y="912" width="24" height="4" transform="rotate(-90 1026 912)" fill="#212121"/>
<rect width="24" height="24" transform="matrix(1.31134e-07 1 1 -1.31134e-07 1032 888)" fill="#212121"/>
<rect x="912" y="912" width="24" height="4" transform="rotate(-90 912 912)" fill="#212121"/>
<rect x="918" y="912" width="24" height="4" transform="rotate(-90 918 912)" fill="#212121"/>
<rect x="924" y="912" width="24" height="4" transform="rotate(-90 924 912)" fill="#212121"/>
<rect x="930" y="912" width="24" height="4" transform="rotate(-90 930 912)" fill="#212121"/>
<rect x="936" y="912" width="24" height="4" transform="rotate(-90 936 912)" fill="#212121"/>
<rect x="942" y="912" width="24" height="4" transform="rotate(-90 942 912)" fill="#212121"/>
<rect x="948" y="912" width="24" height="4" transform="rotate(-90 948 912)" fill="#212121"/>
<rect x="954" y="912" width="24" height="4" transform="rotate(-90 954 912)" fill="#212121"/>
<rect width="24" height="24" transform="matrix(1.31134e-07 1 1 -1.31134e-07 960 888)" fill="#212121"/>
<rect x="840" y="912" width="24" height="4" transform="rotate(-90 840 912)" fill="#212121"/>
<rect x="846" y="912" width="24" height="4" transform="rotate(-90 846 912)" fill="#212121"/>
<rect x="852" y="912" width="24" height="4" transform="rotate(-90 852 912)" fill="#212121"/>
<rect x="858" y="912" width="24" height="4" transform="rotate(-90 858 912)" fill="#212121"/>
<rect x="864" y="912" width="24" height="4" transform="rotate(-90 864 912)" fill="#212121"/>
<rect x="870" y="912" width="24" height="4" transform="rotate(-90 870 912)" fill="#212121"/>
<rect x="876" y="912" width="24" height="4" transform="rotate(-90 876 912)" fill="#212121"/>
<rect x="882" y="912" width="24" height="4" transform="rotate(-90 882 912)" fill="#212121"/>
<rect width="24" height="24" transform="matrix(1.31134e-07 1 1 -1.31134e-07 888 888)" fill="#212121"/>
<rect width="24" height="24" transform="matrix(-1 8.74228e-08 8.74228e-08 1 840 888)" fill="#212121"/>
<rect x="984" y="504" width="24" height="4" transform="rotate(-90 984 504)" fill="#212121"/>
<rect x="990" y="504" width="24" height="4" transform="rotate(-90 990 504)" fill="#212121"/>
<rect x="996" y="504" width="24" height="4" transform="rotate(-90 996 504)" fill="#212121"/>
<rect x="1002" y="504" width="24" height="4" transform="rotate(-90 1002 504)" fill="#212121"/>
<rect x="1008" y="504" width="24" height="4" transform="rotate(-90 1008 504)" fill="#212121"/>
<rect x="1014" y="504" width="24" height="4" transform="rotate(-90 1014 504)" fill="#212121"/>
<rect x="1020" y="504" width="24" height="4" transform="rotate(-90 1020 504)" fill="#212121"/>
<rect x="1026" y="504" width="24" height="4" transform="rotate(-90 1026 504)" fill="#212121"/>
<rect width="24" height="24" transform="matrix(1.31134e-07 1 1 -1.31134e-07 1032 480)" fill="#212121"/>
<rect x="912" y="504" width="24" height="4" transform="rotate(-90 912 504)" fill="#212121"/>
<rect x="918" y="504" width="24" height="4" transform="rotate(-90 918 504)" fill="#212121"/>
<rect x="924" y="504" width="24" height="4" transform="rotate(-90 924 504)" fill="#212121"/>
<rect x="930" y="504" width="24" height="4" transform="rotate(-90 930 504)" fill="#212121"/>
<rect x="936" y="504" width="24" height="4" transform="rotate(-90 936 504)" fill="#212121"/>
<rect x="942" y="504" width="24" height="4" transform="rotate(-90 942 504)" fill="#212121"/>
<rect x="948" y="504" width="24" height="4" transform="rotate(-90 948 504)" fill="#212121"/>
<rect x="954" y="504" width="24" height="4" transform="rotate(-90 954 504)" fill="#212121"/>
<rect width="24" height="24" transform="matrix(1.31134e-07 1 1 -1.31134e-07 960 480)" fill="#212121"/>
<rect x="840" y="504" width="24" height="4" transform="rotate(-90 840 504)" fill="#212121"/>
<rect x="846" y="504" width="24" height="4" transform="rotate(-90 846 504)" fill="#212121"/>
<rect x="852" y="504" width="24" height="4" transform="rotate(-90 852 504)" fill="#212121"/>
<rect x="858" y="504" width="24" height="4" transform="rotate(-90 858 504)" fill="#212121"/>
<rect x="864" y="504" width="24" height="4" transform="rotate(-90 864 504)" fill="#212121"/>
<rect x="870" y="504" width="24" height="4" transform="rotate(-90 870 504)" fill="#212121"/>
<rect x="876" y="504" width="24" height="4" transform="rotate(-90 876 504)" fill="#212121"/>
<rect x="882" y="504" width="24" height="4" transform="rotate(-90 882 504)" fill="#212121"/>
<rect width="24" height="24" transform="matrix(1.31134e-07 1 1 -1.31134e-07 888 480)" fill="#212121"/>
<rect width="24" height="24" transform="matrix(-1 8.74228e-08 8.74228e-08 1 840 480)" fill="#212121"/>
<rect x="984" y="936" width="24" height="4" transform="rotate(-90 984 936)" fill="#212121"/>
<rect x="990" y="936" width="24" height="4" transform="rotate(-90 990 936)" fill="#212121"/>
<rect x="996" y="936" width="24" height="4" transform="rotate(-90 996 936)" fill="#212121"/>
<rect x="1002" y="936" width="24" height="4" transform="rotate(-90 1002 936)" fill="#212121"/>
<rect x="1008" y="936" width="24" height="4" transform="rotate(-90 1008 936)" fill="#212121"/>
<rect x="1014" y="936" width="24" height="4" transform="rotate(-90 1014 936)" fill="#212121"/>
<rect x="1020" y="936" width="24" height="4" transform="rotate(-90 1020 936)" fill="#212121"/>
<rect x="1026" y="936" width="24" height="4" transform="rotate(-90 1026 936)" fill="#212121"/>
<rect width="24" height="24" transform="matrix(1.31134e-07 1 1 -1.31134e-07 1032 912)" fill="#212121"/>
<rect x="912" y="936" width="24" height="4" transform="rotate(-90 912 936)" fill="#212121"/>
<rect x="918" y="936" width="24" height="4" transform="rotate(-90 918 936)" fill="#212121"/>
<rect x="924" y="936" width="24" height="4" transform="rotate(-90 924 936)" fill="#212121"/>
<rect x="930" y="936" width="24" height="4" transform="rotate(-90 930 936)" fill="#212121"/>
<rect x="936" y="936" width="24" height="4" transform="rotate(-90 936 936)" fill="#212121"/>
<rect x="942" y="936" width="24" height="4" transform="rotate(-90 942 936)" fill="#212121"/>
<rect x="948" y="936" width="24" height="4" transform="rotate(-90 948 936)" fill="#212121"/>
<rect x="954" y="936" width="24" height="4" transform="rotate(-90 954 936)" fill="#212121"/>
<rect width="24" height="24" transform="matrix(1.31134e-07 1 1 -1.31134e-07 960 912)" fill="#212121"/>
<rect x="840" y="936" width="24" height="4" transform="rotate(-90 840 936)" fill="#212121"/>
<rect x="846" y="936" width="24" height="4" transform="rotate(-90 846 936)" fill="#212121"/>
<rect x="852" y="936" width="24" height="4" transform="rotate(-90 852 936)" fill="#212121"/>
<rect x="858" y="936" width="24" height="4" transform="rotate(-90 858 936)" fill="#212121"/>
<rect x="864" y="936" width="24" height="4" transform="rotate(-90 864 936)" fill="#212121"/>
<rect x="870" y="936" width="24" height="4" transform="rotate(-90 870 936)" fill="#212121"/>
<rect x="876" y="936" width="24" height="4" transform="rotate(-90 876 936)" fill="#212121"/>
<rect x="882" y="936" width="24" height="4" transform="rotate(-90 882 936)" fill="#212121"/>
<rect width="24" height="24" transform="matrix(1.31134e-07 1 1 -1.31134e-07 888 912)" fill="#212121"/>
<rect width="24" height="24" transform="matrix(-1 8.74228e-08 8.74228e-08 1 840 912)" fill="#212121"/>
<rect x="1968" y="480" width="24" height="4" transform="rotate(-90 1968 480)" fill="#212121"/>
<rect x="1974" y="480" width="24" height="4" transform="rotate(-90 1974 480)" fill="#212121"/>
<rect x="1980" y="480" width="24" height="4" transform="rotate(-90 1980 480)" fill="#212121"/>
<rect x="1986" y="480" width="24" height="4" transform="rotate(-90 1986 480)" fill="#212121"/>
<rect x="1992" y="480" width="24" height="4" transform="rotate(-90 1992 480)" fill="#212121"/>
<rect x="1998" y="480" width="24" height="4" transform="rotate(-90 1998 480)" fill="#212121"/>
<rect x="2004" y="480" width="24" height="4" transform="rotate(-90 2004 480)" fill="#212121"/>
<rect x="2010" y="480" width="24" height="4" transform="rotate(-90 2010 480)" fill="#212121"/>
<rect width="24" height="24" transform="matrix(1.31134e-07 1 1 -1.31134e-07 2016 456)" fill="#212121"/>
<rect x="1896" y="480" width="24" height="4" transform="rotate(-90 1896 480)" fill="#212121"/>
<rect x="1902" y="480" width="24" height="4" transform="rotate(-90 1902 480)" fill="#212121"/>
<rect x="1908" y="480" width="24" height="4" transform="rotate(-90 1908 480)" fill="#212121"/>
<rect x="1914" y="480" width="24" height="4" transform="rotate(-90 1914 480)" fill="#212121"/>
<rect x="1920" y="480" width="24" height="4" transform="rotate(-90 1920 480)" fill="#212121"/>
<rect x="1926" y="480" width="24" height="4" transform="rotate(-90 1926 480)" fill="#212121"/>
<rect x="1932" y="480" width="24" height="4" transform="rotate(-90 1932 480)" fill="#212121"/>
<rect x="1938" y="480" width="24" height="4" transform="rotate(-90 1938 480)" fill="#212121"/>
<rect width="24" height="24" transform="matrix(1.31134e-07 1 1 -1.31134e-07 1944 456)" fill="#212121"/>
<rect x="1824" y="480" width="24" height="4" transform="rotate(-90 1824 480)" fill="#212121"/>
<rect x="1830" y="480" width="24" height="4" transform="rotate(-90 1830 480)" fill="#212121"/>
<rect x="1836" y="480" width="24" height="4" transform="rotate(-90 1836 480)" fill="#212121"/>
<rect x="1842" y="480" width="24" height="4" transform="rotate(-90 1842 480)" fill="#212121"/>
<rect x="1848" y="480" width="24" height="4" transform="rotate(-90 1848 480)" fill="#212121"/>
<rect x="1854" y="480" width="24" height="4" transform="rotate(-90 1854 480)" fill="#212121"/>
<rect x="1860" y="480" width="24" height="4" transform="rotate(-90 1860 480)" fill="#212121"/>
<rect x="1866" y="480" width="24" height="4" transform="rotate(-90 1866 480)" fill="#212121"/>
<rect width="24" height="24" transform="matrix(1.31134e-07 1 1 -1.31134e-07 1872 456)" fill="#212121"/>
<rect width="24" height="24" transform="matrix(-1 8.74228e-08 8.74228e-08 1 1824 456)" fill="#212121"/>
<rect x="1968" y="912" width="24" height="4" transform="rotate(-90 1968 912)" fill="#212121"/>
<rect x="1974" y="912" width="24" height="4" transform="rotate(-90 1974 912)" fill="#212121"/>
<rect x="1980" y="912" width="24" height="4" transform="rotate(-90 1980 912)" fill="#212121"/>
<rect x="1986" y="912" width="24" height="4" transform="rotate(-90 1986 912)" fill="#212121"/>
<rect x="1992" y="912" width="24" height="4" transform="rotate(-90 1992 912)" fill="#212121"/>
<rect x="1998" y="912" width="24" height="4" transform="rotate(-90 1998 912)" fill="#212121"/>
<rect x="2004" y="912" width="24" height="4" transform="rotate(-90 2004 912)" fill="#212121"/>
<rect x="2010" y="912" width="24" height="4" transform="rotate(-90 2010 912)" fill="#212121"/>
<rect width="24" height="24" transform="matrix(1.31134e-07 1 1 -1.31134e-07 2016 888)" fill="#212121"/>
<rect x="1896" y="912" width="24" height="4" transform="rotate(-90 1896 912)" fill="#212121"/>
<rect x="1902" y="912" width="24" height="4" transform="rotate(-90 1902 912)" fill="#212121"/>
<rect x="1908" y="912" width="24" height="4" transform="rotate(-90 1908 912)" fill="#212121"/>
<rect x="1914" y="912" width="24" height="4" transform="rotate(-90 1914 912)" fill="#212121"/>
<rect x="1920" y="912" width="24" height="4" transform="rotate(-90 1920 912)" fill="#212121"/>
<rect x="1926" y="912" width="24" height="4" transform="rotate(-90 1926 912)" fill="#212121"/>
<rect x="1932" y="912" width="24" height="4" transform="rotate(-90 1932 912)" fill="#212121"/>
<rect x="1938" y="912" width="24" height="4" transform="rotate(-90 1938 912)" fill="#212121"/>
<rect width="24" height="24" transform="matrix(1.31134e-07 1 1 -1.31134e-07 1944 888)" fill="#212121"/>
<rect x="1824" y="912" width="24" height="4" transform="rotate(-90 1824 912)" fill="#212121"/>
<rect x="1830" y="912" width="24" height="4" transform="rotate(-90 1830 912)" fill="#212121"/>
<rect x="1836" y="912" width="24" height="4" transform="rotate(-90 1836 912)" fill="#212121"/>
<rect x="1842" y="912" width="24" height="4" transform="rotate(-90 1842 912)" fill="#212121"/>
<rect x="1848" y="912" width="24" height="4" transform="rotate(-90 1848 912)" fill="#212121"/>
<rect x="1854" y="912" width="24" height="4" transform="rotate(-90 1854 912)" fill="#212121"/>
<rect x="1860" y="912" width="24" height="4" transform="rotate(-90 1860 912)" fill="#212121"/>
<rect x="1866" y="912" width="24" height="4" transform="rotate(-90 1866 912)" fill="#212121"/>
<rect width="24" height="24" transform="matrix(1.31134e-07 1 1 -1.31134e-07 1872 888)" fill="#212121"/>
<rect width="24" height="24" transform="matrix(-1 8.74228e-08 8.74228e-08 1 1824 888)" fill="#212121"/>
<rect x="1968" y="504" width="24" height="4" transform="rotate(-90 1968 504)" fill="#212121"/>
<rect x="1974" y="504" width="24" height="4" transform="rotate(-90 1974 504)" fill="#212121"/>
<rect x="1980" y="504" width="24" height="4" transform="rotate(-90 1980 504)" fill="#212121"/>
<rect x="1986" y="504" width="24" height="4" transform="rotate(-90 1986 504)" fill="#212121"/>
<rect x="1992" y="504" width="24" height="4" transform="rotate(-90 1992 504)" fill="#212121"/>
<rect x="1998" y="504" width="24" height="4" transform="rotate(-90 1998 504)" fill="#212121"/>
<rect x="2004" y="504" width="24" height="4" transform="rotate(-90 2004 504)" fill="#212121"/>
<rect x="2010" y="504" width="24" height="4" transform="rotate(-90 2010 504)" fill="#212121"/>
<rect width="24" height="24" transform="matrix(1.31134e-07 1 1 -1.31134e-07 2016 480)" fill="#212121"/>
<rect x="1896" y="504" width="24" height="4" transform="rotate(-90 1896 504)" fill="#212121"/>
<rect x="1902" y="504" width="24" height="4" transform="rotate(-90 1902 504)" fill="#212121"/>
<rect x="1908" y="504" width="24" height="4" transform="rotate(-90 1908 504)" fill="#212121"/>
<rect x="1914" y="504" width="24" height="4" transform="rotate(-90 1914 504)" fill="#212121"/>
<rect x="1920" y="504" width="24" height="4" transform="rotate(-90 1920 504)" fill="#212121"/>
<rect x="1926" y="504" width="24" height="4" transform="rotate(-90 1926 504)" fill="#212121"/>
<rect x="1932" y="504" width="24" height="4" transform="rotate(-90 1932 504)" fill="#212121"/>
<rect x="1938" y="504" width="24" height="4" transform="rotate(-90 1938 504)" fill="#212121"/>
<rect width="24" height="24" transform="matrix(1.31134e-07 1 1 -1.31134e-07 1944 480)" fill="#212121"/>
<rect x="1824" y="504" width="24" height="4" transform="rotate(-90 1824 504)" fill="#212121"/>
<rect x="1830" y="504" width="24" height="4" transform="rotate(-90 1830 504)" fill="#212121"/>
<rect x="1836" y="504" width="24" height="4" transform="rotate(-90 1836 504)" fill="#212121"/>
<rect x="1842" y="504" width="24" height="4" transform="rotate(-90 1842 504)" fill="#212121"/>
<rect x="1848" y="504" width="24" height="4" transform="rotate(-90 1848 504)" fill="#212121"/>
<rect x="1854" y="504" width="24" height="4" transform="rotate(-90 1854 504)" fill="#212121"/>
<rect x="1860" y="504" width="24" height="4" transform="rotate(-90 1860 504)" fill="#212121"/>
<rect x="1866" y="504" width="24" height="4" transform="rotate(-90 1866 504)" fill="#212121"/>
<rect width="24" height="24" transform="matrix(1.31134e-07 1 1 -1.31134e-07 1872 480)" fill="#212121"/>
<rect width="24" height="24" transform="matrix(-1 8.74228e-08 8.74228e-08 1 1824 480)" fill="#212121"/>
<rect x="1968" y="936" width="24" height="4" transform="rotate(-90 1968 936)" fill="#212121"/>
<rect x="1974" y="936" width="24" height="4" transform="rotate(-90 1974 936)" fill="#212121"/>
<rect x="1980" y="936" width="24" height="4" transform="rotate(-90 1980 936)" fill="#212121"/>
<rect x="1986" y="936" width="24" height="4" transform="rotate(-90 1986 936)" fill="#212121"/>
<rect x="1992" y="936" width="24" height="4" transform="rotate(-90 1992 936)" fill="#212121"/>
<rect x="1998" y="936" width="24" height="4" transform="rotate(-90 1998 936)" fill="#212121"/>
<rect x="2004" y="936" width="24" height="4" transform="rotate(-90 2004 936)" fill="#212121"/>
<rect x="2010" y="936" width="24" height="4" transform="rotate(-90 2010 936)" fill="#212121"/>
<rect width="24" height="24" transform="matrix(1.31134e-07 1 1 -1.31134e-07 2016 912)" fill="#212121"/>
<rect x="1896" y="936" width="24" height="4" transform="rotate(-90 1896 936)" fill="#212121"/>
<rect x="1902" y="936" width="24" height="4" transform="rotate(-90 1902 936)" fill="#212121"/>
<rect x="1908" y="936" width="24" height="4" transform="rotate(-90 1908 936)" fill="#212121"/>
<rect x="1914" y="936" width="24" height="4" transform="rotate(-90 1914 936)" fill="#212121"/>
<rect x="1920" y="936" width="24" height="4" transform="rotate(-90 1920 936)" fill="#212121"/>
<rect x="1926" y="936" width="24" height="4" transform="rotate(-90 1926 936)" fill="#212121"/>
<rect x="1932" y="936" width="24" height="4" transform="rotate(-90 1932 936)" fill="#212121"/>
<rect x="1938" y="936" width="24" height="4" transform="rotate(-90 1938 936)" fill="#212121"/>
<rect width="24" height="24" transform="matrix(1.31134e-07 1 1 -1.31134e-07 1944 912)" fill="#212121"/>
<rect x="1824" y="936" width="24" height="4" transform="rotate(-90 1824 936)" fill="#212121"/>
<rect x="1830" y="936" width="24" height="4" transform="rotate(-90 1830 936)" fill="#212121"/>
<rect x="1836" y="936" width="24" height="4" transform="rotate(-90 1836 936)" fill="#212121"/>
<rect x="1842" y="936" width="24" height="4" transform="rotate(-90 1842 936)" fill="#212121"/>
<rect x="1848" y="936" width="24" height="4" transform="rotate(-90 1848 936)" fill="#212121"/>
<rect x="1854" y="936" width="24" height="4" transform="rotate(-90 1854 936)" fill="#212121"/>
<rect x="1860" y="936" width="24" height="4" transform="rotate(-90 1860 936)" fill="#212121"/>
<rect x="1866" y="936" width="24" height="4" transform="rotate(-90 1866 936)" fill="#212121"/>
<rect width="24" height="24" transform="matrix(1.31134e-07 1 1 -1.31134e-07 1872 912)" fill="#212121"/>
<rect width="24" height="24" transform="matrix(-1 8.74228e-08 8.74228e-08 1 1824 912)" fill="#212121"/>
<rect x="1344" y="456" width="24" height="4" transform="rotate(-90 1344 456)" fill="#212121"/>
<rect x="1350" y="456" width="24" height="4" transform="rotate(-90 1350 456)" fill="#212121"/>
<rect x="1356" y="456" width="24" height="4" transform="rotate(-90 1356 456)" fill="#212121"/>
<rect x="1362" y="456" width="24" height="4" transform="rotate(-90 1362 456)" fill="#212121"/>
<rect x="1368" y="456" width="24" height="4" transform="rotate(-90 1368 456)" fill="#212121"/>
<rect x="1374" y="456" width="24" height="4" transform="rotate(-90 1374 456)" fill="#212121"/>
<rect x="1380" y="456" width="24" height="4" transform="rotate(-90 1380 456)" fill="#212121"/>
<rect x="1386" y="456" width="24" height="4" transform="rotate(-90 1386 456)" fill="#212121"/>
<rect width="24" height="24" transform="matrix(1.31134e-07 1 1 -1.31134e-07 1392 432)" fill="#212121"/>
<rect x="1272" y="456" width="24" height="4" transform="rotate(-90 1272 456)" fill="#212121"/>
<rect x="1278" y="456" width="24" height="4" transform="rotate(-90 1278 456)" fill="#212121"/>
<rect x="1284" y="456" width="24" height="4" transform="rotate(-90 1284 456)" fill="#212121"/>
<rect x="1290" y="456" width="24" height="4" transform="rotate(-90 1290 456)" fill="#212121"/>
<rect x="1296" y="456" width="24" height="4" transform="rotate(-90 1296 456)" fill="#212121"/>
<rect x="1302" y="456" width="24" height="4" transform="rotate(-90 1302 456)" fill="#212121"/>
<rect x="1308" y="456" width="24" height="4" transform="rotate(-90 1308 456)" fill="#212121"/>
<rect x="1314" y="456" width="24" height="4" transform="rotate(-90 1314 456)" fill="#212121"/>
<rect width="24" height="24" transform="matrix(1.31134e-07 1 1 -1.31134e-07 1320 432)" fill="#212121"/>
<rect x="1200" y="456" width="24" height="4" transform="rotate(-90 1200 456)" fill="#212121"/>
<rect x="1206" y="456" width="24" height="4" transform="rotate(-90 1206 456)" fill="#212121"/>
<rect x="1212" y="456" width="24" height="4" transform="rotate(-90 1212 456)" fill="#212121"/>
<rect x="1218" y="456" width="24" height="4" transform="rotate(-90 1218 456)" fill="#212121"/>
<rect x="1224" y="456" width="24" height="4" transform="rotate(-90 1224 456)" fill="#212121"/>
<rect x="1230" y="456" width="24" height="4" transform="rotate(-90 1230 456)" fill="#212121"/>
<rect x="1236" y="456" width="24" height="4" transform="rotate(-90 1236 456)" fill="#212121"/>
<rect x="1242" y="456" width="24" height="4" transform="rotate(-90 1242 456)" fill="#212121"/>
<rect width="24" height="24" transform="matrix(1.31134e-07 1 1 -1.31134e-07 1248 432)" fill="#212121"/>
<rect width="24" height="24" transform="matrix(-1 8.74228e-08 8.74228e-08 1 1200 432)" fill="#212121"/>
<rect x="1344" y="888" width="24" height="4" transform="rotate(-90 1344 888)" fill="#212121"/>
<rect x="1350" y="888" width="24" height="4" transform="rotate(-90 1350 888)" fill="#212121"/>
<rect x="1356" y="888" width="24" height="4" transform="rotate(-90 1356 888)" fill="#212121"/>
<rect x="1362" y="888" width="24" height="4" transform="rotate(-90 1362 888)" fill="#212121"/>
<rect x="1368" y="888" width="24" height="4" transform="rotate(-90 1368 888)" fill="#212121"/>
<rect x="1374" y="888" width="24" height="4" transform="rotate(-90 1374 888)" fill="#212121"/>
<rect x="1380" y="888" width="24" height="4" transform="rotate(-90 1380 888)" fill="#212121"/>
<rect x="1386" y="888" width="24" height="4" transform="rotate(-90 1386 888)" fill="#212121"/>
<rect width="24" height="24" transform="matrix(1.31134e-07 1 1 -1.31134e-07 1392 864)" fill="#212121"/>
<rect x="1272" y="888" width="24" height="4" transform="rotate(-90 1272 888)" fill="#212121"/>
<rect x="1278" y="888" width="24" height="4" transform="rotate(-90 1278 888)" fill="#212121"/>
<rect x="1284" y="888" width="24" height="4" transform="rotate(-90 1284 888)" fill="#212121"/>
<rect x="1290" y="888" width="24" height="4" transform="rotate(-90 1290 888)" fill="#212121"/>
<rect x="1296" y="888" width="24" height="4" transform="rotate(-90 1296 888)" fill="#212121"/>
<rect x="1302" y="888" width="24" height="4" transform="rotate(-90 1302 888)" fill="#212121"/>
<rect x="1308" y="888" width="24" height="4" transform="rotate(-90 1308 888)" fill="#212121"/>
<rect x="1314" y="888" width="24" height="4" transform="rotate(-90 1314 888)" fill="#212121"/>
<rect width="24" height="24" transform="matrix(1.31134e-07 1 1 -1.31134e-07 1320 864)" fill="#212121"/>
<rect x="1200" y="888" width="24" height="4" transform="rotate(-90 1200 888)" fill="#212121"/>
<rect x="1206" y="888" width="24" height="4" transform="rotate(-90 1206 888)" fill="#212121"/>
<rect x="1212" y="888" width="24" height="4" transform="rotate(-90 1212 888)" fill="#212121"/>
<rect x="1218" y="888" width="24" height="4" transform="rotate(-90 1218 888)" fill="#212121"/>
<rect x="1224" y="888" width="24" height="4" transform="rotate(-90 1224 888)" fill="#212121"/>
<rect x="1230" y="888" width="24" height="4" transform="rotate(-90 1230 888)" fill="#212121"/>
<rect x="1236" y="888" width="24" height="4" transform="rotate(-90 1236 888)" fill="#212121"/>
<rect x="1242" y="888" width="24" height="4" transform="rotate(-90 1242 888)" fill="#212121"/>
<rect width="24" height="24" transform="matrix(1.31134e-07 1 1 -1.31134e-07 1248 864)" fill="#212121"/>
<rect width="24" height="24" transform="matrix(-1 8.74228e-08 8.74228e-08 1 1200 864)" fill="#212121"/>
<rect x="984" y="456" width="24" height="4" transform="rotate(-90 984 456)" fill="#212121"/>
<rect x="990" y="456" width="24" height="4" transform="rotate(-90 990 456)" fill="#212121"/>
<rect x="996" y="456" width="24" height="4" transform="rotate(-90 996 456)" fill="#212121"/>
<rect x="1002" y="456" width="24" height="4" transform="rotate(-90 1002 456)" fill="#212121"/>
<rect x="1008" y="456" width="24" height="4" transform="rotate(-90 1008 456)" fill="#212121"/>
<rect x="1014" y="456" width="24" height="4" transform="rotate(-90 1014 456)" fill="#212121"/>
<rect x="1020" y="456" width="24" height="4" transform="rotate(-90 1020 456)" fill="#212121"/>
<rect x="1026" y="456" width="24" height="4" transform="rotate(-90 1026 456)" fill="#212121"/>
<rect width="24" height="24" transform="matrix(1.31134e-07 1 1 -1.31134e-07 1032 432)" fill="#212121"/>
<rect x="912" y="456" width="24" height="4" transform="rotate(-90 912 456)" fill="#212121"/>
<rect x="918" y="456" width="24" height="4" transform="rotate(-90 918 456)" fill="#212121"/>
<rect x="924" y="456" width="24" height="4" transform="rotate(-90 924 456)" fill="#212121"/>
<rect x="930" y="456" width="24" height="4" transform="rotate(-90 930 456)" fill="#212121"/>
<rect x="936" y="456" width="24" height="4" transform="rotate(-90 936 456)" fill="#212121"/>
<rect x="942" y="456" width="24" height="4" transform="rotate(-90 942 456)" fill="#212121"/>
<rect x="948" y="456" width="24" height="4" transform="rotate(-90 948 456)" fill="#212121"/>
<rect x="954" y="456" width="24" height="4" transform="rotate(-90 954 456)" fill="#212121"/>
<rect width="24" height="24" transform="matrix(1.31134e-07 1 1 -1.31134e-07 960 432)" fill="#212121"/>
<rect x="840" y="456" width="24" height="4" transform="rotate(-90 840 456)" fill="#212121"/>
<rect x="846" y="456" width="24" height="4" transform="rotate(-90 846 456)" fill="#212121"/>
<rect x="852" y="456" width="24" height="4" transform="rotate(-90 852 456)" fill="#212121"/>
<rect x="858" y="456" width="24" height="4" transform="rotate(-90 858 456)" fill="#212121"/>
<rect x="864" y="456" width="24" height="4" transform="rotate(-90 864 456)" fill="#212121"/>
<rect x="870" y="456" width="24" height="4" transform="rotate(-90 870 456)" fill="#212121"/>
<rect x="876" y="456" width="24" height="4" transform="rotate(-90 876 456)" fill="#212121"/>
<rect x="882" y="456" width="24" height="4" transform="rotate(-90 882 456)" fill="#212121"/>
<rect width="24" height="24" transform="matrix(1.31134e-07 1 1 -1.31134e-07 888 432)" fill="#212121"/>
<rect width="24" height="24" transform="matrix(-1 8.74228e-08 8.74228e-08 1 840 432)" fill="#212121"/>
<rect x="984" y="888" width="24" height="4" transform="rotate(-90 984 888)" fill="#212121"/>
<rect x="990" y="888" width="24" height="4" transform="rotate(-90 990 888)" fill="#212121"/>
<rect x="996" y="888" width="24" height="4" transform="rotate(-90 996 888)" fill="#212121"/>
<rect x="1002" y="888" width="24" height="4" transform="rotate(-90 1002 888)" fill="#212121"/>
<rect x="1008" y="888" width="24" height="4" transform="rotate(-90 1008 888)" fill="#212121"/>
<rect x="1014" y="888" width="24" height="4" transform="rotate(-90 1014 888)" fill="#212121"/>
<rect x="1020" y="888" width="24" height="4" transform="rotate(-90 1020 888)" fill="#212121"/>
<rect x="1026" y="888" width="24" height="4" transform="rotate(-90 1026 888)" fill="#212121"/>
<rect width="24" height="24" transform="matrix(1.31134e-07 1 1 -1.31134e-07 1032 864)" fill="#212121"/>
<rect x="912" y="888" width="24" height="4" transform="rotate(-90 912 888)" fill="#212121"/>
<rect x="918" y="888" width="24" height="4" transform="rotate(-90 918 888)" fill="#212121"/>
<rect x="924" y="888" width="24" height="4" transform="rotate(-90 924 888)" fill="#212121"/>
<rect x="930" y="888" width="24" height="4" transform="rotate(-90 930 888)" fill="#212121"/>
<rect x="936" y="888" width="24" height="4" transform="rotate(-90 936 888)" fill="#212121"/>
<rect x="942" y="888" width="24" height="4" transform="rotate(-90 942 888)" fill="#212121"/>
<rect x="948" y="888" width="24" height="4" transform="rotate(-90 948 888)" fill="#212121"/>
<rect x="954" y="888" width="24" height="4" transform="rotate(-90 954 888)" fill="#212121"/>
<rect width="24" height="24" transform="matrix(1.31134e-07 1 1 -1.31134e-07 960 864)" fill="#212121"/>
<rect x="840" y="888" width="24" height="4" transform="rotate(-90 840 888)" fill="#212121"/>
<rect x="846" y="888" width="24" height="4" transform="rotate(-90 846 888)" fill="#212121"/>
<rect x="852" y="888" width="24" height="4" transform="rotate(-90 852 888)" fill="#212121"/>
<rect x="858" y="888" width="24" height="4" transform="rotate(-90 858 888)" fill="#212121"/>
<rect x="864" y="888" width="24" height="4" transform="rotate(-90 864 888)" fill="#212121"/>
<rect x="870" y="888" width="24" height="4" transform="rotate(-90 870 888)" fill="#212121"/>
<rect x="876" y="888" width="24" height="4" transform="rotate(-90 876 888)" fill="#212121"/>
<rect x="882" y="888" width="24" height="4" transform="rotate(-90 882 888)" fill="#212121"/>
<rect width="24" height="24" transform="matrix(1.31134e-07 1 1 -1.31134e-07 888 864)" fill="#212121"/>
<rect width="24" height="24" transform="matrix(-1 8.74228e-08 8.74228e-08 1 840 864)" fill="#212121"/>
<rect x="1968" y="456" width="24" height="4" transform="rotate(-90 1968 456)" fill="#212121"/>
<rect x="1974" y="456" width="24" height="4" transform="rotate(-90 1974 456)" fill="#212121"/>
<rect x="1980" y="456" width="24" height="4" transform="rotate(-90 1980 456)" fill="#212121"/>
<rect x="1986" y="456" width="24" height="4" transform="rotate(-90 1986 456)" fill="#212121"/>
<rect x="1992" y="456" width="24" height="4" transform="rotate(-90 1992 456)" fill="#212121"/>
<rect x="1998" y="456" width="24" height="4" transform="rotate(-90 1998 456)" fill="#212121"/>
<rect x="2004" y="456" width="24" height="4" transform="rotate(-90 2004 456)" fill="#212121"/>
<rect x="2010" y="456" width="24" height="4" transform="rotate(-90 2010 456)" fill="#212121"/>
<rect width="24" height="24" transform="matrix(1.31134e-07 1 1 -1.31134e-07 2016 432)" fill="#212121"/>
<rect x="1896" y="456" width="24" height="4" transform="rotate(-90 1896 456)" fill="#212121"/>
<rect x="1902" y="456" width="24" height="4" transform="rotate(-90 1902 456)" fill="#212121"/>
<rect x="1908" y="456" width="24" height="4" transform="rotate(-90 1908 456)" fill="#212121"/>
<rect x="1914" y="456" width="24" height="4" transform="rotate(-90 1914 456)" fill="#212121"/>
<rect x="1920" y="456" width="24" height="4" transform="rotate(-90 1920 456)" fill="#212121"/>
<rect x="1926" y="456" width="24" height="4" transform="rotate(-90 1926 456)" fill="#212121"/>
<rect x="1932" y="456" width="24" height="4" transform="rotate(-90 1932 456)" fill="#212121"/>
<rect x="1938" y="456" width="24" height="4" transform="rotate(-90 1938 456)" fill="#212121"/>
<rect width="24" height="24" transform="matrix(1.31134e-07 1 1 -1.31134e-07 1944 432)" fill="#212121"/>
<rect x="1824" y="456" width="24" height="4" transform="rotate(-90 1824 456)" fill="#212121"/>
<rect x="1830" y="456" width="24" height="4" transform="rotate(-90 1830 456)" fill="#212121"/>
<rect x="1836" y="456" width="24" height="4" transform="rotate(-90 1836 456)" fill="#212121"/>
<rect x="1842" y="456" width="24" height="4" transform="rotate(-90 1842 456)" fill="#212121"/>
<rect x="1848" y="456" width="24" height="4" transform="rotate(-90 1848 456)" fill="#212121"/>
<rect x="1854" y="456" width="24" height="4" transform="rotate(-90 1854 456)" fill="#212121"/>
<rect x="1860" y="456" width="24" height="4" transform="rotate(-90 1860 456)" fill="#212121"/>
<rect x="1866" y="456" width="24" height="4" transform="rotate(-90 1866 456)" fill="#212121"/>
<rect width="24" height="24" transform="matrix(1.31134e-07 1 1 -1.31134e-07 1872 432)" fill="#212121"/>
<rect width="24" height="24" transform="matrix(-1 8.74228e-08 8.74228e-08 1 1824 432)" fill="#212121"/>
<rect x="1968" y="888" width="24" height="4" transform="rotate(-90 1968 888)" fill="#212121"/>
<rect x="1974" y="888" width="24" height="4" transform="rotate(-90 1974 888)" fill="#212121"/>
<rect x="1980" y="888" width="24" height="4" transform="rotate(-90 1980 888)" fill="#212121"/>
<rect x="1986" y="888" width="24" height="4" transform="rotate(-90 1986 888)" fill="#212121"/>
<rect x="1992" y="888" width="24" height="4" transform="rotate(-90 1992 888)" fill="#212121"/>
<rect x="1998" y="888" width="24" height="4" transform="rotate(-90 1998 888)" fill="#212121"/>
<rect x="2004" y="888" width="24" height="4" transform="rotate(-90 2004 888)" fill="#212121"/>
<rect x="2010" y="888" width="24" height="4" transform="rotate(-90 2010 888)" fill="#212121"/>
<rect width="24" height="24" transform="matrix(1.31134e-07 1 1 -1.31134e-07 2016 864)" fill="#212121"/>
<rect x="1896" y="888" width="24" height="4" transform="rotate(-90 1896 888)" fill="#212121"/>
<rect x="1902" y="888" width="24" height="4" transform="rotate(-90 1902 888)" fill="#212121"/>
<rect x="1908" y="888" width="24" height="4" transform="rotate(-90 1908 888)" fill="#212121"/>
<rect x="1914" y="888" width="24" height="4" transform="rotate(-90 1914 888)" fill="#212121"/>
<rect x="1920" y="888" width="24" height="4" transform="rotate(-90 1920 888)" fill="#212121"/>
<rect x="1926" y="888" width="24" height="4" transform="rotate(-90 1926 888)" fill="#212121"/>
<rect x="1932" y="888" width="24" height="4" transform="rotate(-90 1932 888)" fill="#212121"/>
<rect x="1938" y="888" width="24" height="4" transform="rotate(-90 1938 888)" fill="#212121"/>
<rect width="24" height="24" transform="matrix(1.31134e-07 1 1 -1.31134e-07 1944 864)" fill="#212121"/>
<rect x="1824" y="888" width="24" height="4" transform="rotate(-90 1824 888)" fill="#212121"/>
<rect x="1830" y="888" width="24" height="4" transform="rotate(-90 1830 888)" fill="#212121"/>
<rect x="1836" y="888" width="24" height="4" transform="rotate(-90 1836 888)" fill="#212121"/>
<rect x="1842" y="888" width="24" height="4" transform="rotate(-90 1842 888)" fill="#212121"/>
<rect x="1848" y="888" width="24" height="4" transform="rotate(-90 1848 888)" fill="#212121"/>
<rect x="1854" y="888" width="24" height="4" transform="rotate(-90 1854 888)" fill="#212121"/>
<rect x="1860" y="888" width="24" height="4" transform="rotate(-90 1860 888)" fill="#212121"/>
<rect x="1866" y="888" width="24" height="4" transform="rotate(-90 1866 888)" fill="#212121"/>
<rect width="24" height="24" transform="matrix(1.31134e-07 1 1 -1.31134e-07 1872 864)" fill="#212121"/>
<rect width="24" height="24" transform="matrix(-1 8.74228e-08 8.74228e-08 1 1824 864)" fill="#212121"/>
<rect width="48" height="48" transform="translate(1608 384)" fill="#212121"/>
<path d="M1639.97 412.849C1639.95 412.776 1639.91 412.707 1639.86 412.648C1639.8 412.59 1639.74 412.542 1639.67 412.507C1639.6 412.472 1639.53 412.451 1639.45 412.446C1639.37 412.44 1639.29 412.45 1639.22 412.475L1637.93 412.905L1635.79 408.623C1635.74 408.525 1635.66 408.442 1635.57 408.384C1635.48 408.326 1635.37 408.296 1635.26 408.296H1629.33V406.518H1633.48C1633.64 406.518 1633.79 406.455 1633.9 406.344C1634.01 406.233 1634.07 406.082 1634.07 405.925C1634.07 405.768 1634.01 405.617 1633.9 405.506C1633.79 405.395 1633.64 405.333 1633.48 405.333H1629.33V404.666C1629.89 404.522 1630.38 404.179 1630.7 403.701C1631.02 403.223 1631.16 402.644 1631.09 402.072C1631.02 401.499 1630.74 400.973 1630.31 400.592C1629.87 400.21 1629.32 400 1628.74 400C1628.16 400 1627.6 400.21 1627.17 400.592C1626.74 400.973 1626.46 401.499 1626.39 402.072C1626.31 402.644 1626.45 403.223 1626.78 403.701C1627.1 404.179 1627.59 404.522 1628.15 404.666V405.467C1626.87 405.759 1625.74 406.511 1624.98 407.58C1624.23 408.649 1623.89 409.96 1624.03 411.263C1624.18 412.565 1624.8 413.768 1625.78 414.642C1626.76 415.516 1628.02 415.999 1629.33 416C1631.81 416 1634.05 414.318 1634.65 412C1634.67 411.924 1634.67 411.846 1634.66 411.769C1634.65 411.692 1634.62 411.617 1634.58 411.55C1634.54 411.483 1634.49 411.425 1634.43 411.378C1634.37 411.331 1634.3 411.297 1634.22 411.277C1634.15 411.258 1634.07 411.254 1633.99 411.264C1633.91 411.275 1633.84 411.301 1633.77 411.341C1633.7 411.38 1633.65 411.433 1633.6 411.495C1633.55 411.557 1633.52 411.628 1633.5 411.703C1633.04 413.481 1631.25 414.815 1629.33 414.815C1628.33 414.814 1627.37 414.456 1626.62 413.804C1625.86 413.152 1625.37 412.251 1625.23 411.265C1625.08 410.279 1625.3 409.275 1625.83 408.435C1626.37 407.595 1627.19 406.976 1628.15 406.691V408.888C1628.15 409.046 1628.21 409.196 1628.32 409.307C1628.43 409.419 1628.58 409.481 1628.74 409.481H1634.89L1637.1 413.895C1637.16 414.022 1637.27 414.122 1637.4 414.177C1637.53 414.231 1637.68 414.236 1637.82 414.191L1639.59 413.598C1639.74 413.549 1639.87 413.442 1639.94 413.301C1640.01 413.161 1640.02 412.998 1639.97 412.849ZM1627.55 402.369C1627.55 402.135 1627.62 401.906 1627.75 401.711C1627.88 401.516 1628.07 401.364 1628.28 401.274C1628.5 401.185 1628.74 401.161 1628.97 401.207C1629.2 401.253 1629.41 401.365 1629.58 401.531C1629.74 401.697 1629.86 401.908 1629.9 402.138C1629.95 402.368 1629.92 402.606 1629.83 402.823C1629.74 403.04 1629.59 403.225 1629.4 403.355C1629.2 403.485 1628.97 403.555 1628.74 403.555C1628.42 403.555 1628.12 403.43 1627.9 403.207C1627.68 402.985 1627.55 402.684 1627.55 402.369Z" fill="white"/>
<rect width="48" height="48" transform="translate(1512 984)" fill="#212121"/>
<path d="M1543.97 1012.85C1543.95 1012.78 1543.91 1012.71 1543.86 1012.65C1543.8 1012.59 1543.74 1012.54 1543.67 1012.51C1543.6 1012.47 1543.53 1012.45 1543.45 1012.45C1543.37 1012.44 1543.29 1012.45 1543.22 1012.47L1541.93 1012.9L1539.79 1008.62C1539.74 1008.52 1539.66 1008.44 1539.57 1008.38C1539.48 1008.33 1539.37 1008.3 1539.26 1008.3H1533.33V1006.52H1537.48C1537.64 1006.52 1537.79 1006.46 1537.9 1006.34C1538.01 1006.23 1538.07 1006.08 1538.07 1005.93C1538.07 1005.77 1538.01 1005.62 1537.9 1005.51C1537.79 1005.39 1537.64 1005.33 1537.48 1005.33H1533.33V1004.67C1533.89 1004.52 1534.38 1004.18 1534.7 1003.7C1535.02 1003.22 1535.16 1002.64 1535.09 1002.07C1535.02 1001.5 1534.74 1000.97 1534.31 1000.59C1533.87 1000.21 1533.32 1000 1532.74 1000C1532.16 1000 1531.6 1000.21 1531.17 1000.59C1530.74 1000.97 1530.46 1001.5 1530.39 1002.07C1530.31 1002.64 1530.45 1003.22 1530.78 1003.7C1531.1 1004.18 1531.59 1004.52 1532.15 1004.67V1005.47C1530.87 1005.76 1529.74 1006.51 1528.98 1007.58C1528.23 1008.65 1527.89 1009.96 1528.03 1011.26C1528.18 1012.57 1528.8 1013.77 1529.78 1014.64C1530.76 1015.52 1532.02 1016 1533.33 1016C1535.81 1016 1538.05 1014.32 1538.65 1012C1538.67 1011.92 1538.67 1011.85 1538.66 1011.77C1538.65 1011.69 1538.62 1011.62 1538.58 1011.55C1538.54 1011.48 1538.49 1011.42 1538.43 1011.38C1538.37 1011.33 1538.3 1011.3 1538.22 1011.28C1538.15 1011.26 1538.07 1011.25 1537.99 1011.26C1537.91 1011.28 1537.84 1011.3 1537.77 1011.34C1537.7 1011.38 1537.65 1011.43 1537.6 1011.49C1537.55 1011.56 1537.52 1011.63 1537.5 1011.7C1537.04 1013.48 1535.25 1014.81 1533.33 1014.81C1532.33 1014.81 1531.37 1014.46 1530.62 1013.8C1529.86 1013.15 1529.37 1012.25 1529.23 1011.27C1529.08 1010.28 1529.3 1009.27 1529.83 1008.43C1530.37 1007.6 1531.19 1006.98 1532.15 1006.69V1008.89C1532.15 1009.05 1532.21 1009.2 1532.32 1009.31C1532.43 1009.42 1532.58 1009.48 1532.74 1009.48H1538.89L1541.1 1013.89C1541.16 1014.02 1541.27 1014.12 1541.4 1014.18C1541.53 1014.23 1541.68 1014.24 1541.82 1014.19L1543.59 1013.6C1543.74 1013.55 1543.87 1013.44 1543.94 1013.3C1544.01 1013.16 1544.02 1013 1543.97 1012.85ZM1531.55 1002.37C1531.55 1002.13 1531.62 1001.91 1531.75 1001.71C1531.88 1001.52 1532.07 1001.36 1532.28 1001.27C1532.5 1001.18 1532.74 1001.16 1532.97 1001.21C1533.2 1001.25 1533.41 1001.37 1533.58 1001.53C1533.74 1001.7 1533.86 1001.91 1533.9 1002.14C1533.95 1002.37 1533.92 1002.61 1533.83 1002.82C1533.74 1003.04 1533.59 1003.22 1533.4 1003.35C1533.2 1003.49 1532.97 1003.55 1532.74 1003.55C1532.42 1003.55 1532.12 1003.43 1531.9 1003.21C1531.68 1002.99 1531.55 1002.68 1531.55 1002.37Z" fill="white"/>
<defs>
<filter id="filter0_d_1119_58773" x="140" y="764" width="2636" height="284" filterUnits="userSpaceOnUse" color-interpolation-filters="sRGB">
<feFlood flood-opacity="0" result="BackgroundImageFix"/>
<feColorMatrix in="SourceAlpha" type="matrix" values="0 0 0 0 0 0 0 0 0 0 0 0 0 0 0 0 0 0 127 0" result="hardAlpha"/>
<feOffset dx="8" dy="8"/>
<feGaussianBlur stdDeviation="2"/>
<feComposite in2="hardAlpha" operator="out"/>
<feColorMatrix type="matrix" values="0 0 0 0 0 0 0 0 0 0 0 0 0 0 0 0 0 0 0.4 0"/>
<feBlend mode="normal" in2="BackgroundImageFix" result="effect1_dropShadow_1119_58773"/>
<feBlend mode="normal" in="SourceGraphic" in2="effect1_dropShadow_1119_58773" result="shape"/>
</filter>
<filter id="filter1_d_1119_58773" x="140" y="380" width="2636" height="260" filterUnits="userSpaceOnUse" color-interpolation-filters="sRGB">
<feFlood flood-opacity="0" result="BackgroundImageFix"/>
<feColorMatrix in="SourceAlpha" type="matrix" values="0 0 0 0 0 0 0 0 0 0 0 0 0 0 0 0 0 0 127 0" result="hardAlpha"/>
<feOffset dx="8" dy="8"/>
<feGaussianBlur stdDeviation="2"/>
<feComposite in2="hardAlpha" operator="out"/>
<feColorMatrix type="matrix" values="0 0 0 0 0 0 0 0 0 0 0 0 0 0 0 0 0 0 0.4 0"/>
<feBlend mode="normal" in2="BackgroundImageFix" result="effect1_dropShadow_1119_58773"/>
<feBlend mode="normal" in="SourceGraphic" in2="effect1_dropShadow_1119_58773" result="shape"/>
</filter>
</defs>
</svg>
