<svg width="3840" height="2160" viewBox="0 0 3840 2160" fill="none" xmlns="http://www.w3.org/2000/svg">
<rect x="816" y="936" width="2208" height="288" fill="#EEEEEE"/>
<g filter="url(#filter0_d_1119_84929)">
<mask id="path-2-outside-1_1119_84929" maskUnits="userSpaceOnUse" x="812" y="1148" width="2216" height="248" fill="black">
<rect fill="white" x="812" y="1148" width="2216" height="248"/>
<path fill-rule="evenodd" clip-rule="evenodd" d="M816 1152H3024V1224H2160V1344H2208V1392H2160H1176V1224H816V1152Z"/>
</mask>
<path fill-rule="evenodd" clip-rule="evenodd" d="M816 1152H3024V1224H2160V1344H2208V1392H2160H1176V1224H816V1152Z" fill="#D9D9D9"/>
<path d="M3024 1152H3028V1148H3024V1152ZM816 1152V1148H812V1152H816ZM3024 1224V1228H3028V1224H3024ZM2160 1224V1220H2156V1224H2160ZM2160 1344H2156V1348H2160V1344ZM2208 1344H2212V1340H2208V1344ZM2208 1392V1396H2212V1392H2208ZM1176 1392H1172V1396H1176V1392ZM1176 1224H1180V1220H1176V1224ZM816 1224H812V1228H816V1224ZM3024 1148H816V1156H3024V1148ZM3028 1224V1152H3020V1224H3028ZM2160 1228H3024V1220H2160V1228ZM2164 1344V1224H2156V1344H2164ZM2160 1348H2208V1340H2160V1348ZM2204 1344V1392H2212V1344H2204ZM2208 1388H2160V1396H2208V1388ZM1176 1396H2160V1388H1176V1396ZM1172 1224V1392H1180V1224H1172ZM816 1228H1176V1220H816V1228ZM812 1152V1224H820V1152H812Z" fill="#474747" mask="url(#path-2-outside-1_1119_84929)"/>
</g>
<g filter="url(#filter1_d_1119_84929)">
<mask id="path-4-outside-2_1119_84929" maskUnits="userSpaceOnUse" x="812" y="715.008" width="2216" height="297" fill="black">
<rect fill="white" x="812" y="715.008" width="2216" height="297"/>
<path fill-rule="evenodd" clip-rule="evenodd" d="M816 1008.01H3024V936.008H816V1008.01ZM1176 936H2160V768V720H2112V768H1176V936Z"/>
</mask>
<path fill-rule="evenodd" clip-rule="evenodd" d="M816 1008.01H3024V936.008H816V1008.01ZM1176 936H2160V768V720H2112V768H1176V936Z" fill="#D9D9D9"/>
<path d="M3024 1008.01H3028V1012.01H3024V1008.01ZM816 1008.01V1012.01H812V1008.01H816ZM3024 936.008V932.008H3028V936.008H3024ZM816 936.008H812V932.008H816V936.008ZM2160 936H2164V940H2160V936ZM1176 936V940H1172V936H1176ZM2160 720V716H2164V720H2160ZM2112 720H2108V716H2112V720ZM2112 768H2116V772H2112V768ZM1176 768H1172V764H1176V768ZM3024 1012.01H816V1004.01H3024V1012.01ZM3028 936.008V1008.01H3020V936.008H3028ZM816 932.008H3024V940.008H816V932.008ZM812 1008.01V936.008H820V1008.01H812ZM2160 940H1176V932H2160V940ZM2164 768V936H2156V768H2164ZM2156 768V720H2164V768H2156ZM2160 724H2112V716H2160V724ZM2116 720V768H2108V720H2116ZM1176 764H2112V772H1176V764ZM1172 936V768H1180V936H1172Z" fill="#474747" mask="url(#path-4-outside-2_1119_84929)"/>
</g>
<rect width="24" height="4" transform="matrix(2.18557e-07 -1 -1 -2.18557e-07 1488 1320)" fill="#212121"/>
<rect width="24" height="4" transform="matrix(2.18557e-07 -1 -1 -2.18557e-07 1482 1320)" fill="#212121"/>
<rect width="24" height="4" transform="matrix(2.18557e-07 -1 -1 -2.18557e-07 1476 1320)" fill="#212121"/>
<rect width="24" height="4" transform="matrix(2.18557e-07 -1 -1 -2.18557e-07 1470 1320)" fill="#212121"/>
<rect width="24" height="4" transform="matrix(2.18557e-07 -1 -1 -2.18557e-07 1464 1320)" fill="#212121"/>
<rect width="24" height="4" transform="matrix(2.18557e-07 -1 -1 -2.18557e-07 1458 1320)" fill="#212121"/>
<rect width="24" height="4" transform="matrix(2.18557e-07 -1 -1 -2.18557e-07 1452 1320)" fill="#212121"/>
<rect width="24" height="4" transform="matrix(2.18557e-07 -1 -1 -2.18557e-07 1446 1320)" fill="#212121"/>
<rect x="1440" y="1296" width="24" height="24" transform="rotate(90 1440 1296)" fill="#212121"/>
<rect width="24" height="4" transform="matrix(2.18557e-07 -1 -1 -2.18557e-07 1560 1320)" fill="#212121"/>
<rect width="24" height="4" transform="matrix(2.18557e-07 -1 -1 -2.18557e-07 1554 1320)" fill="#212121"/>
<rect width="24" height="4" transform="matrix(2.18557e-07 -1 -1 -2.18557e-07 1548 1320)" fill="#212121"/>
<rect width="24" height="4" transform="matrix(2.18557e-07 -1 -1 -2.18557e-07 1542 1320)" fill="#212121"/>
<rect width="24" height="4" transform="matrix(2.18557e-07 -1 -1 -2.18557e-07 1536 1320)" fill="#212121"/>
<rect width="24" height="4" transform="matrix(2.18557e-07 -1 -1 -2.18557e-07 1530 1320)" fill="#212121"/>
<rect width="24" height="4" transform="matrix(2.18557e-07 -1 -1 -2.18557e-07 1524 1320)" fill="#212121"/>
<rect width="24" height="4" transform="matrix(2.18557e-07 -1 -1 -2.18557e-07 1518 1320)" fill="#212121"/>
<rect x="1512" y="1296" width="24" height="24" transform="rotate(90 1512 1296)" fill="#212121"/>
<rect width="24" height="4" transform="matrix(2.18557e-07 -1 -1 -2.18557e-07 1632 1320)" fill="#212121"/>
<rect width="24" height="4" transform="matrix(2.18557e-07 -1 -1 -2.18557e-07 1626 1320)" fill="#212121"/>
<rect width="24" height="4" transform="matrix(2.18557e-07 -1 -1 -2.18557e-07 1620 1320)" fill="#212121"/>
<rect width="24" height="4" transform="matrix(2.18557e-07 -1 -1 -2.18557e-07 1614 1320)" fill="#212121"/>
<rect width="24" height="4" transform="matrix(2.18557e-07 -1 -1 -2.18557e-07 1608 1320)" fill="#212121"/>
<rect width="24" height="4" transform="matrix(2.18557e-07 -1 -1 -2.18557e-07 1602 1320)" fill="#212121"/>
<rect width="24" height="4" transform="matrix(2.18557e-07 -1 -1 -2.18557e-07 1596 1320)" fill="#212121"/>
<rect width="24" height="4" transform="matrix(2.18557e-07 -1 -1 -2.18557e-07 1590 1320)" fill="#212121"/>
<rect x="1584" y="1296" width="24" height="24" transform="rotate(90 1584 1296)" fill="#212121"/>
<rect x="1632" y="1296" width="24" height="24" fill="#212121"/>
<rect width="24" height="4" transform="matrix(2.18557e-07 -1 -1 -2.18557e-07 1488 792)" fill="#212121"/>
<rect width="24" height="4" transform="matrix(2.18557e-07 -1 -1 -2.18557e-07 1482 792)" fill="#212121"/>
<rect width="24" height="4" transform="matrix(2.18557e-07 -1 -1 -2.18557e-07 1476 792)" fill="#212121"/>
<rect width="24" height="4" transform="matrix(2.18557e-07 -1 -1 -2.18557e-07 1470 792)" fill="#212121"/>
<rect width="24" height="4" transform="matrix(2.18557e-07 -1 -1 -2.18557e-07 1464 792)" fill="#212121"/>
<rect width="24" height="4" transform="matrix(2.18557e-07 -1 -1 -2.18557e-07 1458 792)" fill="#212121"/>
<rect width="24" height="4" transform="matrix(2.18557e-07 -1 -1 -2.18557e-07 1452 792)" fill="#212121"/>
<rect width="24" height="4" transform="matrix(2.18557e-07 -1 -1 -2.18557e-07 1446 792)" fill="#212121"/>
<rect x="1440" y="768" width="24" height="24" transform="rotate(90 1440 768)" fill="#212121"/>
<rect width="24" height="4" transform="matrix(2.18557e-07 -1 -1 -2.18557e-07 1560 792)" fill="#212121"/>
<rect width="24" height="4" transform="matrix(2.18557e-07 -1 -1 -2.18557e-07 1554 792)" fill="#212121"/>
<rect width="24" height="4" transform="matrix(2.18557e-07 -1 -1 -2.18557e-07 1548 792)" fill="#212121"/>
<rect width="24" height="4" transform="matrix(2.18557e-07 -1 -1 -2.18557e-07 1542 792)" fill="#212121"/>
<rect width="24" height="4" transform="matrix(2.18557e-07 -1 -1 -2.18557e-07 1536 792)" fill="#212121"/>
<rect width="24" height="4" transform="matrix(2.18557e-07 -1 -1 -2.18557e-07 1530 792)" fill="#212121"/>
<rect width="24" height="4" transform="matrix(2.18557e-07 -1 -1 -2.18557e-07 1524 792)" fill="#212121"/>
<rect width="24" height="4" transform="matrix(2.18557e-07 -1 -1 -2.18557e-07 1518 792)" fill="#212121"/>
<rect x="1512" y="768" width="24" height="24" transform="rotate(90 1512 768)" fill="#212121"/>
<rect width="24" height="4" transform="matrix(2.18557e-07 -1 -1 -2.18557e-07 1632 792)" fill="#212121"/>
<rect width="24" height="4" transform="matrix(2.18557e-07 -1 -1 -2.18557e-07 1626 792)" fill="#212121"/>
<rect width="24" height="4" transform="matrix(2.18557e-07 -1 -1 -2.18557e-07 1620 792)" fill="#212121"/>
<rect width="24" height="4" transform="matrix(2.18557e-07 -1 -1 -2.18557e-07 1614 792)" fill="#212121"/>
<rect width="24" height="4" transform="matrix(2.18557e-07 -1 -1 -2.18557e-07 1608 792)" fill="#212121"/>
<rect width="24" height="4" transform="matrix(2.18557e-07 -1 -1 -2.18557e-07 1602 792)" fill="#212121"/>
<rect width="24" height="4" transform="matrix(2.18557e-07 -1 -1 -2.18557e-07 1596 792)" fill="#212121"/>
<rect width="24" height="4" transform="matrix(2.18557e-07 -1 -1 -2.18557e-07 1590 792)" fill="#212121"/>
<rect x="1584" y="768" width="24" height="24" transform="rotate(90 1584 768)" fill="#212121"/>
<rect x="1632" y="768" width="24" height="24" fill="#212121"/>
<rect width="24" height="4" transform="matrix(2.18557e-07 -1 -1 -2.18557e-07 1824 1320)" fill="#212121"/>
<rect width="24" height="4" transform="matrix(2.18557e-07 -1 -1 -2.18557e-07 1818 1320)" fill="#212121"/>
<rect width="24" height="4" transform="matrix(2.18557e-07 -1 -1 -2.18557e-07 1812 1320)" fill="#212121"/>
<rect width="24" height="4" transform="matrix(2.18557e-07 -1 -1 -2.18557e-07 1806 1320)" fill="#212121"/>
<rect width="24" height="4" transform="matrix(2.18557e-07 -1 -1 -2.18557e-07 1800 1320)" fill="#212121"/>
<rect width="24" height="4" transform="matrix(2.18557e-07 -1 -1 -2.18557e-07 1794 1320)" fill="#212121"/>
<rect width="24" height="4" transform="matrix(2.18557e-07 -1 -1 -2.18557e-07 1788 1320)" fill="#212121"/>
<rect width="24" height="4" transform="matrix(2.18557e-07 -1 -1 -2.18557e-07 1782 1320)" fill="#212121"/>
<rect x="1776" y="1296" width="24" height="24" transform="rotate(90 1776 1296)" fill="#212121"/>
<rect width="24" height="4" transform="matrix(2.18557e-07 -1 -1 -2.18557e-07 1896 1320)" fill="#212121"/>
<rect width="24" height="4" transform="matrix(2.18557e-07 -1 -1 -2.18557e-07 1890 1320)" fill="#212121"/>
<rect width="24" height="4" transform="matrix(2.18557e-07 -1 -1 -2.18557e-07 1884 1320)" fill="#212121"/>
<rect width="24" height="4" transform="matrix(2.18557e-07 -1 -1 -2.18557e-07 1878 1320)" fill="#212121"/>
<rect width="24" height="4" transform="matrix(2.18557e-07 -1 -1 -2.18557e-07 1872 1320)" fill="#212121"/>
<rect width="24" height="4" transform="matrix(2.18557e-07 -1 -1 -2.18557e-07 1866 1320)" fill="#212121"/>
<rect width="24" height="4" transform="matrix(2.18557e-07 -1 -1 -2.18557e-07 1860 1320)" fill="#212121"/>
<rect width="24" height="4" transform="matrix(2.18557e-07 -1 -1 -2.18557e-07 1854 1320)" fill="#212121"/>
<rect x="1848" y="1296" width="24" height="24" transform="rotate(90 1848 1296)" fill="#212121"/>
<rect width="24" height="4" transform="matrix(2.18557e-07 -1 -1 -2.18557e-07 1968 1320)" fill="#212121"/>
<rect width="24" height="4" transform="matrix(2.18557e-07 -1 -1 -2.18557e-07 1962 1320)" fill="#212121"/>
<rect width="24" height="4" transform="matrix(2.18557e-07 -1 -1 -2.18557e-07 1956 1320)" fill="#212121"/>
<rect width="24" height="4" transform="matrix(2.18557e-07 -1 -1 -2.18557e-07 1950 1320)" fill="#212121"/>
<rect width="24" height="4" transform="matrix(2.18557e-07 -1 -1 -2.18557e-07 1944 1320)" fill="#212121"/>
<rect width="24" height="4" transform="matrix(2.18557e-07 -1 -1 -2.18557e-07 1938 1320)" fill="#212121"/>
<rect width="24" height="4" transform="matrix(2.18557e-07 -1 -1 -2.18557e-07 1932 1320)" fill="#212121"/>
<rect width="24" height="4" transform="matrix(2.18557e-07 -1 -1 -2.18557e-07 1926 1320)" fill="#212121"/>
<rect x="1920" y="1296" width="24" height="24" transform="rotate(90 1920 1296)" fill="#212121"/>
<rect x="1968" y="1296" width="24" height="24" fill="#212121"/>
<rect width="24" height="4" transform="matrix(2.18557e-07 -1 -1 -2.18557e-07 1824 792)" fill="#212121"/>
<rect width="24" height="4" transform="matrix(2.18557e-07 -1 -1 -2.18557e-07 1818 792)" fill="#212121"/>
<rect width="24" height="4" transform="matrix(2.18557e-07 -1 -1 -2.18557e-07 1812 792)" fill="#212121"/>
<rect width="24" height="4" transform="matrix(2.18557e-07 -1 -1 -2.18557e-07 1806 792)" fill="#212121"/>
<rect width="24" height="4" transform="matrix(2.18557e-07 -1 -1 -2.18557e-07 1800 792)" fill="#212121"/>
<rect width="24" height="4" transform="matrix(2.18557e-07 -1 -1 -2.18557e-07 1794 792)" fill="#212121"/>
<rect width="24" height="4" transform="matrix(2.18557e-07 -1 -1 -2.18557e-07 1788 792)" fill="#212121"/>
<rect width="24" height="4" transform="matrix(2.18557e-07 -1 -1 -2.18557e-07 1782 792)" fill="#212121"/>
<rect x="1776" y="768" width="24" height="24" transform="rotate(90 1776 768)" fill="#212121"/>
<rect width="24" height="4" transform="matrix(2.18557e-07 -1 -1 -2.18557e-07 1896 792)" fill="#212121"/>
<rect width="24" height="4" transform="matrix(2.18557e-07 -1 -1 -2.18557e-07 1890 792)" fill="#212121"/>
<rect width="24" height="4" transform="matrix(2.18557e-07 -1 -1 -2.18557e-07 1884 792)" fill="#212121"/>
<rect width="24" height="4" transform="matrix(2.18557e-07 -1 -1 -2.18557e-07 1878 792)" fill="#212121"/>
<rect width="24" height="4" transform="matrix(2.18557e-07 -1 -1 -2.18557e-07 1872 792)" fill="#212121"/>
<rect width="24" height="4" transform="matrix(2.18557e-07 -1 -1 -2.18557e-07 1866 792)" fill="#212121"/>
<rect width="24" height="4" transform="matrix(2.18557e-07 -1 -1 -2.18557e-07 1860 792)" fill="#212121"/>
<rect width="24" height="4" transform="matrix(2.18557e-07 -1 -1 -2.18557e-07 1854 792)" fill="#212121"/>
<rect x="1848" y="768" width="24" height="24" transform="rotate(90 1848 768)" fill="#212121"/>
<rect width="24" height="4" transform="matrix(2.18557e-07 -1 -1 -2.18557e-07 1968 792)" fill="#212121"/>
<rect width="24" height="4" transform="matrix(2.18557e-07 -1 -1 -2.18557e-07 1962 792)" fill="#212121"/>
<rect width="24" height="4" transform="matrix(2.18557e-07 -1 -1 -2.18557e-07 1956 792)" fill="#212121"/>
<rect width="24" height="4" transform="matrix(2.18557e-07 -1 -1 -2.18557e-07 1950 792)" fill="#212121"/>
<rect width="24" height="4" transform="matrix(2.18557e-07 -1 -1 -2.18557e-07 1944 792)" fill="#212121"/>
<rect width="24" height="4" transform="matrix(2.18557e-07 -1 -1 -2.18557e-07 1938 792)" fill="#212121"/>
<rect width="24" height="4" transform="matrix(2.18557e-07 -1 -1 -2.18557e-07 1932 792)" fill="#212121"/>
<rect width="24" height="4" transform="matrix(2.18557e-07 -1 -1 -2.18557e-07 1926 792)" fill="#212121"/>
<rect x="1920" y="768" width="24" height="24" transform="rotate(90 1920 768)" fill="#212121"/>
<rect x="1968" y="768" width="24" height="24" fill="#212121"/>
<rect width="24" height="4" transform="matrix(2.18557e-07 -1 -1 -2.18557e-07 1488 1344)" fill="#212121"/>
<rect width="24" height="4" transform="matrix(2.18557e-07 -1 -1 -2.18557e-07 1482 1344)" fill="#212121"/>
<rect width="24" height="4" transform="matrix(2.18557e-07 -1 -1 -2.18557e-07 1476 1344)" fill="#212121"/>
<rect width="24" height="4" transform="matrix(2.18557e-07 -1 -1 -2.18557e-07 1470 1344)" fill="#212121"/>
<rect width="24" height="4" transform="matrix(2.18557e-07 -1 -1 -2.18557e-07 1464 1344)" fill="#212121"/>
<rect width="24" height="4" transform="matrix(2.18557e-07 -1 -1 -2.18557e-07 1458 1344)" fill="#212121"/>
<rect width="24" height="4" transform="matrix(2.18557e-07 -1 -1 -2.18557e-07 1452 1344)" fill="#212121"/>
<rect width="24" height="4" transform="matrix(2.18557e-07 -1 -1 -2.18557e-07 1446 1344)" fill="#212121"/>
<rect x="1440" y="1320" width="24" height="24" transform="rotate(90 1440 1320)" fill="#212121"/>
<rect width="24" height="4" transform="matrix(2.18557e-07 -1 -1 -2.18557e-07 1560 1344)" fill="#212121"/>
<rect width="24" height="4" transform="matrix(2.18557e-07 -1 -1 -2.18557e-07 1554 1344)" fill="#212121"/>
<rect width="24" height="4" transform="matrix(2.18557e-07 -1 -1 -2.18557e-07 1548 1344)" fill="#212121"/>
<rect width="24" height="4" transform="matrix(2.18557e-07 -1 -1 -2.18557e-07 1542 1344)" fill="#212121"/>
<rect width="24" height="4" transform="matrix(2.18557e-07 -1 -1 -2.18557e-07 1536 1344)" fill="#212121"/>
<rect width="24" height="4" transform="matrix(2.18557e-07 -1 -1 -2.18557e-07 1530 1344)" fill="#212121"/>
<rect width="24" height="4" transform="matrix(2.18557e-07 -1 -1 -2.18557e-07 1524 1344)" fill="#212121"/>
<rect width="24" height="4" transform="matrix(2.18557e-07 -1 -1 -2.18557e-07 1518 1344)" fill="#212121"/>
<rect x="1512" y="1320" width="24" height="24" transform="rotate(90 1512 1320)" fill="#212121"/>
<rect width="24" height="4" transform="matrix(2.18557e-07 -1 -1 -2.18557e-07 1632 1344)" fill="#212121"/>
<rect width="24" height="4" transform="matrix(2.18557e-07 -1 -1 -2.18557e-07 1626 1344)" fill="#212121"/>
<rect width="24" height="4" transform="matrix(2.18557e-07 -1 -1 -2.18557e-07 1620 1344)" fill="#212121"/>
<rect width="24" height="4" transform="matrix(2.18557e-07 -1 -1 -2.18557e-07 1614 1344)" fill="#212121"/>
<rect width="24" height="4" transform="matrix(2.18557e-07 -1 -1 -2.18557e-07 1608 1344)" fill="#212121"/>
<rect width="24" height="4" transform="matrix(2.18557e-07 -1 -1 -2.18557e-07 1602 1344)" fill="#212121"/>
<rect width="24" height="4" transform="matrix(2.18557e-07 -1 -1 -2.18557e-07 1596 1344)" fill="#212121"/>
<rect width="24" height="4" transform="matrix(2.18557e-07 -1 -1 -2.18557e-07 1590 1344)" fill="#212121"/>
<rect x="1584" y="1320" width="24" height="24" transform="rotate(90 1584 1320)" fill="#212121"/>
<rect x="1632" y="1320" width="24" height="24" fill="#212121"/>
<rect width="24" height="4" transform="matrix(2.18557e-07 -1 -1 -2.18557e-07 1488 816)" fill="#212121"/>
<rect width="24" height="4" transform="matrix(2.18557e-07 -1 -1 -2.18557e-07 1482 816)" fill="#212121"/>
<rect width="24" height="4" transform="matrix(2.18557e-07 -1 -1 -2.18557e-07 1476 816)" fill="#212121"/>
<rect width="24" height="4" transform="matrix(2.18557e-07 -1 -1 -2.18557e-07 1470 816)" fill="#212121"/>
<rect width="24" height="4" transform="matrix(2.18557e-07 -1 -1 -2.18557e-07 1464 816)" fill="#212121"/>
<rect width="24" height="4" transform="matrix(2.18557e-07 -1 -1 -2.18557e-07 1458 816)" fill="#212121"/>
<rect width="24" height="4" transform="matrix(2.18557e-07 -1 -1 -2.18557e-07 1452 816)" fill="#212121"/>
<rect width="24" height="4" transform="matrix(2.18557e-07 -1 -1 -2.18557e-07 1446 816)" fill="#212121"/>
<rect x="1440" y="792" width="24" height="24" transform="rotate(90 1440 792)" fill="#212121"/>
<rect width="24" height="4" transform="matrix(2.18557e-07 -1 -1 -2.18557e-07 1560 816)" fill="#212121"/>
<rect width="24" height="4" transform="matrix(2.18557e-07 -1 -1 -2.18557e-07 1554 816)" fill="#212121"/>
<rect width="24" height="4" transform="matrix(2.18557e-07 -1 -1 -2.18557e-07 1548 816)" fill="#212121"/>
<rect width="24" height="4" transform="matrix(2.18557e-07 -1 -1 -2.18557e-07 1542 816)" fill="#212121"/>
<rect width="24" height="4" transform="matrix(2.18557e-07 -1 -1 -2.18557e-07 1536 816)" fill="#212121"/>
<rect width="24" height="4" transform="matrix(2.18557e-07 -1 -1 -2.18557e-07 1530 816)" fill="#212121"/>
<rect width="24" height="4" transform="matrix(2.18557e-07 -1 -1 -2.18557e-07 1524 816)" fill="#212121"/>
<rect width="24" height="4" transform="matrix(2.18557e-07 -1 -1 -2.18557e-07 1518 816)" fill="#212121"/>
<rect x="1512" y="792" width="24" height="24" transform="rotate(90 1512 792)" fill="#212121"/>
<rect width="24" height="4" transform="matrix(2.18557e-07 -1 -1 -2.18557e-07 1632 816)" fill="#212121"/>
<rect width="24" height="4" transform="matrix(2.18557e-07 -1 -1 -2.18557e-07 1626 816)" fill="#212121"/>
<rect width="24" height="4" transform="matrix(2.18557e-07 -1 -1 -2.18557e-07 1620 816)" fill="#212121"/>
<rect width="24" height="4" transform="matrix(2.18557e-07 -1 -1 -2.18557e-07 1614 816)" fill="#212121"/>
<rect width="24" height="4" transform="matrix(2.18557e-07 -1 -1 -2.18557e-07 1608 816)" fill="#212121"/>
<rect width="24" height="4" transform="matrix(2.18557e-07 -1 -1 -2.18557e-07 1602 816)" fill="#212121"/>
<rect width="24" height="4" transform="matrix(2.18557e-07 -1 -1 -2.18557e-07 1596 816)" fill="#212121"/>
<rect width="24" height="4" transform="matrix(2.18557e-07 -1 -1 -2.18557e-07 1590 816)" fill="#212121"/>
<rect x="1584" y="792" width="24" height="24" transform="rotate(90 1584 792)" fill="#212121"/>
<rect x="1632" y="792" width="24" height="24" fill="#212121"/>
<rect width="24" height="4" transform="matrix(2.18557e-07 -1 -1 -2.18557e-07 1824 1344)" fill="#212121"/>
<rect width="24" height="4" transform="matrix(2.18557e-07 -1 -1 -2.18557e-07 1818 1344)" fill="#212121"/>
<rect width="24" height="4" transform="matrix(2.18557e-07 -1 -1 -2.18557e-07 1812 1344)" fill="#212121"/>
<rect width="24" height="4" transform="matrix(2.18557e-07 -1 -1 -2.18557e-07 1806 1344)" fill="#212121"/>
<rect width="24" height="4" transform="matrix(2.18557e-07 -1 -1 -2.18557e-07 1800 1344)" fill="#212121"/>
<rect width="24" height="4" transform="matrix(2.18557e-07 -1 -1 -2.18557e-07 1794 1344)" fill="#212121"/>
<rect width="24" height="4" transform="matrix(2.18557e-07 -1 -1 -2.18557e-07 1788 1344)" fill="#212121"/>
<rect width="24" height="4" transform="matrix(2.18557e-07 -1 -1 -2.18557e-07 1782 1344)" fill="#212121"/>
<rect x="1776" y="1320" width="24" height="24" transform="rotate(90 1776 1320)" fill="#212121"/>
<rect width="24" height="4" transform="matrix(2.18557e-07 -1 -1 -2.18557e-07 1896 1344)" fill="#212121"/>
<rect width="24" height="4" transform="matrix(2.18557e-07 -1 -1 -2.18557e-07 1890 1344)" fill="#212121"/>
<rect width="24" height="4" transform="matrix(2.18557e-07 -1 -1 -2.18557e-07 1884 1344)" fill="#212121"/>
<rect width="24" height="4" transform="matrix(2.18557e-07 -1 -1 -2.18557e-07 1878 1344)" fill="#212121"/>
<rect width="24" height="4" transform="matrix(2.18557e-07 -1 -1 -2.18557e-07 1872 1344)" fill="#212121"/>
<rect width="24" height="4" transform="matrix(2.18557e-07 -1 -1 -2.18557e-07 1866 1344)" fill="#212121"/>
<rect width="24" height="4" transform="matrix(2.18557e-07 -1 -1 -2.18557e-07 1860 1344)" fill="#212121"/>
<rect width="24" height="4" transform="matrix(2.18557e-07 -1 -1 -2.18557e-07 1854 1344)" fill="#212121"/>
<rect x="1848" y="1320" width="24" height="24" transform="rotate(90 1848 1320)" fill="#212121"/>
<rect width="24" height="4" transform="matrix(2.18557e-07 -1 -1 -2.18557e-07 1968 1344)" fill="#212121"/>
<rect width="24" height="4" transform="matrix(2.18557e-07 -1 -1 -2.18557e-07 1962 1344)" fill="#212121"/>
<rect width="24" height="4" transform="matrix(2.18557e-07 -1 -1 -2.18557e-07 1956 1344)" fill="#212121"/>
<rect width="24" height="4" transform="matrix(2.18557e-07 -1 -1 -2.18557e-07 1950 1344)" fill="#212121"/>
<rect width="24" height="4" transform="matrix(2.18557e-07 -1 -1 -2.18557e-07 1944 1344)" fill="#212121"/>
<rect width="24" height="4" transform="matrix(2.18557e-07 -1 -1 -2.18557e-07 1938 1344)" fill="#212121"/>
<rect width="24" height="4" transform="matrix(2.18557e-07 -1 -1 -2.18557e-07 1932 1344)" fill="#212121"/>
<rect width="24" height="4" transform="matrix(2.18557e-07 -1 -1 -2.18557e-07 1926 1344)" fill="#212121"/>
<rect x="1920" y="1320" width="24" height="24" transform="rotate(90 1920 1320)" fill="#212121"/>
<rect x="1968" y="1320" width="24" height="24" fill="#212121"/>
<rect width="24" height="4" transform="matrix(2.18557e-07 -1 -1 -2.18557e-07 1824 816)" fill="#212121"/>
<rect width="24" height="4" transform="matrix(2.18557e-07 -1 -1 -2.18557e-07 1818 816)" fill="#212121"/>
<rect width="24" height="4" transform="matrix(2.18557e-07 -1 -1 -2.18557e-07 1812 816)" fill="#212121"/>
<rect width="24" height="4" transform="matrix(2.18557e-07 -1 -1 -2.18557e-07 1806 816)" fill="#212121"/>
<rect width="24" height="4" transform="matrix(2.18557e-07 -1 -1 -2.18557e-07 1800 816)" fill="#212121"/>
<rect width="24" height="4" transform="matrix(2.18557e-07 -1 -1 -2.18557e-07 1794 816)" fill="#212121"/>
<rect width="24" height="4" transform="matrix(2.18557e-07 -1 -1 -2.18557e-07 1788 816)" fill="#212121"/>
<rect width="24" height="4" transform="matrix(2.18557e-07 -1 -1 -2.18557e-07 1782 816)" fill="#212121"/>
<rect x="1776" y="792" width="24" height="24" transform="rotate(90 1776 792)" fill="#212121"/>
<rect width="24" height="4" transform="matrix(2.18557e-07 -1 -1 -2.18557e-07 1896 816)" fill="#212121"/>
<rect width="24" height="4" transform="matrix(2.18557e-07 -1 -1 -2.18557e-07 1890 816)" fill="#212121"/>
<rect width="24" height="4" transform="matrix(2.18557e-07 -1 -1 -2.18557e-07 1884 816)" fill="#212121"/>
<rect width="24" height="4" transform="matrix(2.18557e-07 -1 -1 -2.18557e-07 1878 816)" fill="#212121"/>
<rect width="24" height="4" transform="matrix(2.18557e-07 -1 -1 -2.18557e-07 1872 816)" fill="#212121"/>
<rect width="24" height="4" transform="matrix(2.18557e-07 -1 -1 -2.18557e-07 1866 816)" fill="#212121"/>
<rect width="24" height="4" transform="matrix(2.18557e-07 -1 -1 -2.18557e-07 1860 816)" fill="#212121"/>
<rect width="24" height="4" transform="matrix(2.18557e-07 -1 -1 -2.18557e-07 1854 816)" fill="#212121"/>
<rect x="1848" y="792" width="24" height="24" transform="rotate(90 1848 792)" fill="#212121"/>
<rect width="24" height="4" transform="matrix(2.18557e-07 -1 -1 -2.18557e-07 1968 816)" fill="#212121"/>
<rect width="24" height="4" transform="matrix(2.18557e-07 -1 -1 -2.18557e-07 1962 816)" fill="#212121"/>
<rect width="24" height="4" transform="matrix(2.18557e-07 -1 -1 -2.18557e-07 1956 816)" fill="#212121"/>
<rect width="24" height="4" transform="matrix(2.18557e-07 -1 -1 -2.18557e-07 1950 816)" fill="#212121"/>
<rect width="24" height="4" transform="matrix(2.18557e-07 -1 -1 -2.18557e-07 1944 816)" fill="#212121"/>
<rect width="24" height="4" transform="matrix(2.18557e-07 -1 -1 -2.18557e-07 1938 816)" fill="#212121"/>
<rect width="24" height="4" transform="matrix(2.18557e-07 -1 -1 -2.18557e-07 1932 816)" fill="#212121"/>
<rect width="24" height="4" transform="matrix(2.18557e-07 -1 -1 -2.18557e-07 1926 816)" fill="#212121"/>
<rect x="1920" y="792" width="24" height="24" transform="rotate(90 1920 792)" fill="#212121"/>
<rect x="1968" y="792" width="24" height="24" fill="#212121"/>
<rect width="24" height="4" transform="matrix(2.18557e-07 -1 -1 -2.18557e-07 1488 1368)" fill="#212121"/>
<rect width="24" height="4" transform="matrix(2.18557e-07 -1 -1 -2.18557e-07 1482 1368)" fill="#212121"/>
<rect width="24" height="4" transform="matrix(2.18557e-07 -1 -1 -2.18557e-07 1476 1368)" fill="#212121"/>
<rect width="24" height="4" transform="matrix(2.18557e-07 -1 -1 -2.18557e-07 1470 1368)" fill="#212121"/>
<rect width="24" height="4" transform="matrix(2.18557e-07 -1 -1 -2.18557e-07 1464 1368)" fill="#212121"/>
<rect width="24" height="4" transform="matrix(2.18557e-07 -1 -1 -2.18557e-07 1458 1368)" fill="#212121"/>
<rect width="24" height="4" transform="matrix(2.18557e-07 -1 -1 -2.18557e-07 1452 1368)" fill="#212121"/>
<rect width="24" height="4" transform="matrix(2.18557e-07 -1 -1 -2.18557e-07 1446 1368)" fill="#212121"/>
<rect x="1440" y="1344" width="24" height="24" transform="rotate(90 1440 1344)" fill="#212121"/>
<rect width="24" height="4" transform="matrix(2.18557e-07 -1 -1 -2.18557e-07 1560 1368)" fill="#212121"/>
<rect width="24" height="4" transform="matrix(2.18557e-07 -1 -1 -2.18557e-07 1554 1368)" fill="#212121"/>
<rect width="24" height="4" transform="matrix(2.18557e-07 -1 -1 -2.18557e-07 1548 1368)" fill="#212121"/>
<rect width="24" height="4" transform="matrix(2.18557e-07 -1 -1 -2.18557e-07 1542 1368)" fill="#212121"/>
<rect width="24" height="4" transform="matrix(2.18557e-07 -1 -1 -2.18557e-07 1536 1368)" fill="#212121"/>
<rect width="24" height="4" transform="matrix(2.18557e-07 -1 -1 -2.18557e-07 1530 1368)" fill="#212121"/>
<rect width="24" height="4" transform="matrix(2.18557e-07 -1 -1 -2.18557e-07 1524 1368)" fill="#212121"/>
<rect width="24" height="4" transform="matrix(2.18557e-07 -1 -1 -2.18557e-07 1518 1368)" fill="#212121"/>
<rect x="1512" y="1344" width="24" height="24" transform="rotate(90 1512 1344)" fill="#212121"/>
<rect width="24" height="4" transform="matrix(2.18557e-07 -1 -1 -2.18557e-07 1632 1368)" fill="#212121"/>
<rect width="24" height="4" transform="matrix(2.18557e-07 -1 -1 -2.18557e-07 1626 1368)" fill="#212121"/>
<rect width="24" height="4" transform="matrix(2.18557e-07 -1 -1 -2.18557e-07 1620 1368)" fill="#212121"/>
<rect width="24" height="4" transform="matrix(2.18557e-07 -1 -1 -2.18557e-07 1614 1368)" fill="#212121"/>
<rect width="24" height="4" transform="matrix(2.18557e-07 -1 -1 -2.18557e-07 1608 1368)" fill="#212121"/>
<rect width="24" height="4" transform="matrix(2.18557e-07 -1 -1 -2.18557e-07 1602 1368)" fill="#212121"/>
<rect width="24" height="4" transform="matrix(2.18557e-07 -1 -1 -2.18557e-07 1596 1368)" fill="#212121"/>
<rect width="24" height="4" transform="matrix(2.18557e-07 -1 -1 -2.18557e-07 1590 1368)" fill="#212121"/>
<rect x="1584" y="1344" width="24" height="24" transform="rotate(90 1584 1344)" fill="#212121"/>
<rect x="1632" y="1344" width="24" height="24" fill="#212121"/>
<rect width="24" height="4" transform="matrix(2.18557e-07 -1 -1 -2.18557e-07 1488 840)" fill="#212121"/>
<rect width="24" height="4" transform="matrix(2.18557e-07 -1 -1 -2.18557e-07 1482 840)" fill="#212121"/>
<rect width="24" height="4" transform="matrix(2.18557e-07 -1 -1 -2.18557e-07 1476 840)" fill="#212121"/>
<rect width="24" height="4" transform="matrix(2.18557e-07 -1 -1 -2.18557e-07 1470 840)" fill="#212121"/>
<rect width="24" height="4" transform="matrix(2.18557e-07 -1 -1 -2.18557e-07 1464 840)" fill="#212121"/>
<rect width="24" height="4" transform="matrix(2.18557e-07 -1 -1 -2.18557e-07 1458 840)" fill="#212121"/>
<rect width="24" height="4" transform="matrix(2.18557e-07 -1 -1 -2.18557e-07 1452 840)" fill="#212121"/>
<rect width="24" height="4" transform="matrix(2.18557e-07 -1 -1 -2.18557e-07 1446 840)" fill="#212121"/>
<rect x="1440" y="816" width="24" height="24" transform="rotate(90 1440 816)" fill="#212121"/>
<rect width="24" height="4" transform="matrix(2.18557e-07 -1 -1 -2.18557e-07 1560 840)" fill="#212121"/>
<rect width="24" height="4" transform="matrix(2.18557e-07 -1 -1 -2.18557e-07 1554 840)" fill="#212121"/>
<rect width="24" height="4" transform="matrix(2.18557e-07 -1 -1 -2.18557e-07 1548 840)" fill="#212121"/>
<rect width="24" height="4" transform="matrix(2.18557e-07 -1 -1 -2.18557e-07 1542 840)" fill="#212121"/>
<rect width="24" height="4" transform="matrix(2.18557e-07 -1 -1 -2.18557e-07 1536 840)" fill="#212121"/>
<rect width="24" height="4" transform="matrix(2.18557e-07 -1 -1 -2.18557e-07 1530 840)" fill="#212121"/>
<rect width="24" height="4" transform="matrix(2.18557e-07 -1 -1 -2.18557e-07 1524 840)" fill="#212121"/>
<rect width="24" height="4" transform="matrix(2.18557e-07 -1 -1 -2.18557e-07 1518 840)" fill="#212121"/>
<rect x="1512" y="816" width="24" height="24" transform="rotate(90 1512 816)" fill="#212121"/>
<rect width="24" height="4" transform="matrix(2.18557e-07 -1 -1 -2.18557e-07 1632 840)" fill="#212121"/>
<rect width="24" height="4" transform="matrix(2.18557e-07 -1 -1 -2.18557e-07 1626 840)" fill="#212121"/>
<rect width="24" height="4" transform="matrix(2.18557e-07 -1 -1 -2.18557e-07 1620 840)" fill="#212121"/>
<rect width="24" height="4" transform="matrix(2.18557e-07 -1 -1 -2.18557e-07 1614 840)" fill="#212121"/>
<rect width="24" height="4" transform="matrix(2.18557e-07 -1 -1 -2.18557e-07 1608 840)" fill="#212121"/>
<rect width="24" height="4" transform="matrix(2.18557e-07 -1 -1 -2.18557e-07 1602 840)" fill="#212121"/>
<rect width="24" height="4" transform="matrix(2.18557e-07 -1 -1 -2.18557e-07 1596 840)" fill="#212121"/>
<rect width="24" height="4" transform="matrix(2.18557e-07 -1 -1 -2.18557e-07 1590 840)" fill="#212121"/>
<rect x="1584" y="816" width="24" height="24" transform="rotate(90 1584 816)" fill="#212121"/>
<rect x="1632" y="816" width="24" height="24" fill="#212121"/>
<rect width="24" height="4" transform="matrix(2.18557e-07 -1 -1 -2.18557e-07 1824 1368)" fill="#212121"/>
<rect width="24" height="4" transform="matrix(2.18557e-07 -1 -1 -2.18557e-07 1818 1368)" fill="#212121"/>
<rect width="24" height="4" transform="matrix(2.18557e-07 -1 -1 -2.18557e-07 1812 1368)" fill="#212121"/>
<rect width="24" height="4" transform="matrix(2.18557e-07 -1 -1 -2.18557e-07 1806 1368)" fill="#212121"/>
<rect width="24" height="4" transform="matrix(2.18557e-07 -1 -1 -2.18557e-07 1800 1368)" fill="#212121"/>
<rect width="24" height="4" transform="matrix(2.18557e-07 -1 -1 -2.18557e-07 1794 1368)" fill="#212121"/>
<rect width="24" height="4" transform="matrix(2.18557e-07 -1 -1 -2.18557e-07 1788 1368)" fill="#212121"/>
<rect width="24" height="4" transform="matrix(2.18557e-07 -1 -1 -2.18557e-07 1782 1368)" fill="#212121"/>
<rect x="1776" y="1344" width="24" height="24" transform="rotate(90 1776 1344)" fill="#212121"/>
<rect width="24" height="4" transform="matrix(2.18557e-07 -1 -1 -2.18557e-07 1896 1368)" fill="#212121"/>
<rect width="24" height="4" transform="matrix(2.18557e-07 -1 -1 -2.18557e-07 1890 1368)" fill="#212121"/>
<rect width="24" height="4" transform="matrix(2.18557e-07 -1 -1 -2.18557e-07 1884 1368)" fill="#212121"/>
<rect width="24" height="4" transform="matrix(2.18557e-07 -1 -1 -2.18557e-07 1878 1368)" fill="#212121"/>
<rect width="24" height="4" transform="matrix(2.18557e-07 -1 -1 -2.18557e-07 1872 1368)" fill="#212121"/>
<rect width="24" height="4" transform="matrix(2.18557e-07 -1 -1 -2.18557e-07 1866 1368)" fill="#212121"/>
<rect width="24" height="4" transform="matrix(2.18557e-07 -1 -1 -2.18557e-07 1860 1368)" fill="#212121"/>
<rect width="24" height="4" transform="matrix(2.18557e-07 -1 -1 -2.18557e-07 1854 1368)" fill="#212121"/>
<rect x="1848" y="1344" width="24" height="24" transform="rotate(90 1848 1344)" fill="#212121"/>
<rect width="24" height="4" transform="matrix(2.18557e-07 -1 -1 -2.18557e-07 1968 1368)" fill="#212121"/>
<rect width="24" height="4" transform="matrix(2.18557e-07 -1 -1 -2.18557e-07 1962 1368)" fill="#212121"/>
<rect width="24" height="4" transform="matrix(2.18557e-07 -1 -1 -2.18557e-07 1956 1368)" fill="#212121"/>
<rect width="24" height="4" transform="matrix(2.18557e-07 -1 -1 -2.18557e-07 1950 1368)" fill="#212121"/>
<rect width="24" height="4" transform="matrix(2.18557e-07 -1 -1 -2.18557e-07 1944 1368)" fill="#212121"/>
<rect width="24" height="4" transform="matrix(2.18557e-07 -1 -1 -2.18557e-07 1938 1368)" fill="#212121"/>
<rect width="24" height="4" transform="matrix(2.18557e-07 -1 -1 -2.18557e-07 1932 1368)" fill="#212121"/>
<rect width="24" height="4" transform="matrix(2.18557e-07 -1 -1 -2.18557e-07 1926 1368)" fill="#212121"/>
<rect x="1920" y="1344" width="24" height="24" transform="rotate(90 1920 1344)" fill="#212121"/>
<rect x="1968" y="1344" width="24" height="24" fill="#212121"/>
<rect width="24" height="4" transform="matrix(2.18557e-07 -1 -1 -2.18557e-07 1824 840)" fill="#212121"/>
<rect width="24" height="4" transform="matrix(2.18557e-07 -1 -1 -2.18557e-07 1818 840)" fill="#212121"/>
<rect width="24" height="4" transform="matrix(2.18557e-07 -1 -1 -2.18557e-07 1812 840)" fill="#212121"/>
<rect width="24" height="4" transform="matrix(2.18557e-07 -1 -1 -2.18557e-07 1806 840)" fill="#212121"/>
<rect width="24" height="4" transform="matrix(2.18557e-07 -1 -1 -2.18557e-07 1800 840)" fill="#212121"/>
<rect width="24" height="4" transform="matrix(2.18557e-07 -1 -1 -2.18557e-07 1794 840)" fill="#212121"/>
<rect width="24" height="4" transform="matrix(2.18557e-07 -1 -1 -2.18557e-07 1788 840)" fill="#212121"/>
<rect width="24" height="4" transform="matrix(2.18557e-07 -1 -1 -2.18557e-07 1782 840)" fill="#212121"/>
<rect x="1776" y="816" width="24" height="24" transform="rotate(90 1776 816)" fill="#212121"/>
<rect width="24" height="4" transform="matrix(2.18557e-07 -1 -1 -2.18557e-07 1896 840)" fill="#212121"/>
<rect width="24" height="4" transform="matrix(2.18557e-07 -1 -1 -2.18557e-07 1890 840)" fill="#212121"/>
<rect width="24" height="4" transform="matrix(2.18557e-07 -1 -1 -2.18557e-07 1884 840)" fill="#212121"/>
<rect width="24" height="4" transform="matrix(2.18557e-07 -1 -1 -2.18557e-07 1878 840)" fill="#212121"/>
<rect width="24" height="4" transform="matrix(2.18557e-07 -1 -1 -2.18557e-07 1872 840)" fill="#212121"/>
<rect width="24" height="4" transform="matrix(2.18557e-07 -1 -1 -2.18557e-07 1866 840)" fill="#212121"/>
<rect width="24" height="4" transform="matrix(2.18557e-07 -1 -1 -2.18557e-07 1860 840)" fill="#212121"/>
<rect width="24" height="4" transform="matrix(2.18557e-07 -1 -1 -2.18557e-07 1854 840)" fill="#212121"/>
<rect x="1848" y="816" width="24" height="24" transform="rotate(90 1848 816)" fill="#212121"/>
<rect width="24" height="4" transform="matrix(2.18557e-07 -1 -1 -2.18557e-07 1968 840)" fill="#212121"/>
<rect width="24" height="4" transform="matrix(2.18557e-07 -1 -1 -2.18557e-07 1962 840)" fill="#212121"/>
<rect width="24" height="4" transform="matrix(2.18557e-07 -1 -1 -2.18557e-07 1956 840)" fill="#212121"/>
<rect width="24" height="4" transform="matrix(2.18557e-07 -1 -1 -2.18557e-07 1950 840)" fill="#212121"/>
<rect width="24" height="4" transform="matrix(2.18557e-07 -1 -1 -2.18557e-07 1944 840)" fill="#212121"/>
<rect width="24" height="4" transform="matrix(2.18557e-07 -1 -1 -2.18557e-07 1938 840)" fill="#212121"/>
<rect width="24" height="4" transform="matrix(2.18557e-07 -1 -1 -2.18557e-07 1932 840)" fill="#212121"/>
<rect width="24" height="4" transform="matrix(2.18557e-07 -1 -1 -2.18557e-07 1926 840)" fill="#212121"/>
<rect x="1920" y="816" width="24" height="24" transform="rotate(90 1920 816)" fill="#212121"/>
<rect x="1968" y="816" width="24" height="24" fill="#212121"/>
<rect width="48" height="48" transform="translate(2160 1344)" fill="#212121"/>
<path d="M2191.97 1372.85C2191.95 1372.78 2191.91 1372.71 2191.86 1372.65C2191.8 1372.59 2191.74 1372.54 2191.67 1372.51C2191.6 1372.47 2191.53 1372.45 2191.45 1372.45C2191.37 1372.44 2191.29 1372.45 2191.22 1372.47L2189.93 1372.9L2187.79 1368.62C2187.74 1368.52 2187.66 1368.44 2187.57 1368.38C2187.48 1368.33 2187.37 1368.3 2187.26 1368.3L2181.33 1368.3L2181.33 1366.52L2185.48 1366.52C2185.64 1366.52 2185.79 1366.46 2185.9 1366.34C2186.01 1366.23 2186.07 1366.08 2186.07 1365.93C2186.07 1365.77 2186.01 1365.62 2185.9 1365.51C2185.79 1365.39 2185.64 1365.33 2185.48 1365.33L2181.33 1365.33L2181.33 1364.67C2181.89 1364.52 2182.38 1364.18 2182.7 1363.7C2183.02 1363.22 2183.16 1362.64 2183.09 1362.07C2183.02 1361.5 2182.74 1360.97 2182.31 1360.59C2181.87 1360.21 2181.32 1360 2180.74 1360C2180.16 1360 2179.6 1360.21 2179.17 1360.59C2178.74 1360.97 2178.46 1361.5 2178.39 1362.07C2178.31 1362.64 2178.45 1363.22 2178.78 1363.7C2179.1 1364.18 2179.59 1364.52 2180.15 1364.67L2180.15 1365.47C2178.87 1365.76 2177.74 1366.51 2176.98 1367.58C2176.23 1368.65 2175.89 1369.96 2176.03 1371.26C2176.18 1372.57 2176.8 1373.77 2177.78 1374.64C2178.76 1375.52 2180.02 1376 2181.33 1376C2183.81 1376 2186.05 1374.32 2186.65 1372C2186.67 1371.92 2186.67 1371.85 2186.66 1371.77C2186.65 1371.69 2186.62 1371.62 2186.58 1371.55C2186.54 1371.48 2186.49 1371.42 2186.43 1371.38C2186.37 1371.33 2186.3 1371.3 2186.22 1371.28C2186.15 1371.26 2186.07 1371.25 2185.99 1371.26C2185.91 1371.28 2185.84 1371.3 2185.77 1371.34C2185.7 1371.38 2185.65 1371.43 2185.6 1371.49C2185.55 1371.56 2185.52 1371.63 2185.5 1371.7C2185.04 1373.48 2183.25 1374.81 2181.33 1374.81C2180.33 1374.81 2179.37 1374.46 2178.62 1373.8C2177.86 1373.15 2177.37 1372.25 2177.23 1371.27C2177.08 1370.28 2177.3 1369.27 2177.83 1368.43C2178.37 1367.6 2179.19 1366.98 2180.15 1366.69L2180.15 1368.89C2180.15 1369.05 2180.21 1369.2 2180.32 1369.31C2180.43 1369.42 2180.58 1369.48 2180.74 1369.48L2186.89 1369.48L2189.1 1373.89C2189.16 1374.02 2189.27 1374.12 2189.4 1374.18C2189.53 1374.23 2189.68 1374.24 2189.82 1374.19L2191.59 1373.6C2191.74 1373.55 2191.87 1373.44 2191.94 1373.3C2192.01 1373.16 2192.02 1373 2191.97 1372.85ZM2179.55 1362.37C2179.55 1362.13 2179.62 1361.91 2179.75 1361.71C2179.88 1361.52 2180.07 1361.36 2180.28 1361.27C2180.5 1361.18 2180.74 1361.16 2180.97 1361.21C2181.2 1361.25 2181.41 1361.37 2181.58 1361.53C2181.74 1361.7 2181.86 1361.91 2181.9 1362.14C2181.95 1362.37 2181.92 1362.61 2181.83 1362.82C2181.74 1363.04 2181.59 1363.22 2181.4 1363.35C2181.2 1363.49 2180.97 1363.55 2180.74 1363.55C2180.42 1363.55 2180.12 1363.43 2179.9 1363.21C2179.68 1362.99 2179.55 1362.68 2179.55 1362.37Z" fill="white"/>
<rect width="48" height="48" transform="translate(2112 720)" fill="#212121"/>
<path d="M2143.97 748.849C2143.95 748.776 2143.91 748.707 2143.86 748.648C2143.8 748.59 2143.74 748.542 2143.67 748.507C2143.6 748.472 2143.53 748.451 2143.45 748.446C2143.37 748.44 2143.29 748.45 2143.22 748.475L2141.93 748.905L2139.79 744.623C2139.74 744.525 2139.66 744.442 2139.57 744.384C2139.48 744.326 2139.37 744.296 2139.26 744.296L2133.33 744.296L2133.33 742.518L2137.48 742.518C2137.64 742.518 2137.79 742.455 2137.9 742.344C2138.01 742.233 2138.07 742.082 2138.07 741.925C2138.07 741.768 2138.01 741.617 2137.9 741.506C2137.79 741.395 2137.64 741.333 2137.48 741.333L2133.33 741.333L2133.33 740.666C2133.89 740.522 2134.38 740.179 2134.7 739.701C2135.02 739.223 2135.16 738.644 2135.09 738.072C2135.02 737.499 2134.74 736.973 2134.31 736.592C2133.87 736.21 2133.32 736 2132.74 736C2132.16 736 2131.6 736.21 2131.17 736.592C2130.74 736.973 2130.46 737.499 2130.39 738.072C2130.31 738.644 2130.45 739.223 2130.78 739.701C2131.1 740.179 2131.59 740.522 2132.15 740.666L2132.15 741.467C2130.87 741.759 2129.74 742.511 2128.98 743.58C2128.23 744.649 2127.89 745.96 2128.03 747.263C2128.18 748.565 2128.8 749.768 2129.78 750.642C2130.76 751.516 2132.02 751.999 2133.33 752C2135.81 752 2138.05 750.318 2138.65 748C2138.67 747.924 2138.67 747.846 2138.66 747.769C2138.65 747.692 2138.62 747.617 2138.58 747.55C2138.54 747.483 2138.49 747.425 2138.43 747.378C2138.37 747.331 2138.3 747.297 2138.22 747.277C2138.15 747.258 2138.07 747.254 2137.99 747.264C2137.91 747.275 2137.84 747.301 2137.77 747.341C2137.7 747.38 2137.65 747.433 2137.6 747.495C2137.55 747.557 2137.52 747.628 2137.5 747.703C2137.04 749.481 2135.25 750.815 2133.33 750.815C2132.33 750.814 2131.37 750.456 2130.62 749.804C2129.86 749.152 2129.37 748.251 2129.23 747.265C2129.08 746.279 2129.3 745.275 2129.83 744.435C2130.37 743.595 2131.19 742.976 2132.15 742.691L2132.15 744.888C2132.15 745.046 2132.21 745.196 2132.32 745.307C2132.43 745.419 2132.58 745.481 2132.74 745.481L2138.89 745.481L2141.1 749.895C2141.16 750.022 2141.27 750.122 2141.4 750.177C2141.53 750.231 2141.68 750.236 2141.82 750.191L2143.59 749.598C2143.74 749.549 2143.87 749.442 2143.94 749.301C2144.01 749.161 2144.02 748.998 2143.97 748.849ZM2131.55 738.369C2131.55 738.135 2131.62 737.906 2131.75 737.711C2131.88 737.516 2132.07 737.364 2132.28 737.274C2132.5 737.185 2132.74 737.161 2132.97 737.207C2133.2 737.253 2133.41 737.365 2133.58 737.531C2133.74 737.697 2133.86 737.908 2133.9 738.138C2133.95 738.368 2133.92 738.606 2133.83 738.823C2133.74 739.04 2133.59 739.225 2133.4 739.355C2133.2 739.485 2132.97 739.555 2132.74 739.555C2132.42 739.555 2132.12 739.43 2131.9 739.207C2131.68 738.985 2131.55 738.684 2131.55 738.369Z" fill="white"/>
<defs>
<filter id="filter0_d_1119_84929" x="812" y="1148" width="2228" height="260" filterUnits="userSpaceOnUse" color-interpolation-filters="sRGB">
<feFlood flood-opacity="0" result="BackgroundImageFix"/>
<feColorMatrix in="SourceAlpha" type="matrix" values="0 0 0 0 0 0 0 0 0 0 0 0 0 0 0 0 0 0 127 0" result="hardAlpha"/>
<feOffset dx="8" dy="8"/>
<feGaussianBlur stdDeviation="2"/>
<feComposite in2="hardAlpha" operator="out"/>
<feColorMatrix type="matrix" values="0 0 0 0 0 0 0 0 0 0 0 0 0 0 0 0 0 0 0.4 0"/>
<feBlend mode="normal" in2="BackgroundImageFix" result="effect1_dropShadow_1119_84929"/>
<feBlend mode="normal" in="SourceGraphic" in2="effect1_dropShadow_1119_84929" result="shape"/>
</filter>
<filter id="filter1_d_1119_84929" x="812" y="716" width="2228" height="308.008" filterUnits="userSpaceOnUse" color-interpolation-filters="sRGB">
<feFlood flood-opacity="0" result="BackgroundImageFix"/>
<feColorMatrix in="SourceAlpha" type="matrix" values="0 0 0 0 0 0 0 0 0 0 0 0 0 0 0 0 0 0 127 0" result="hardAlpha"/>
<feOffset dx="8" dy="8"/>
<feGaussianBlur stdDeviation="2"/>
<feComposite in2="hardAlpha" operator="out"/>
<feColorMatrix type="matrix" values="0 0 0 0 0 0 0 0 0 0 0 0 0 0 0 0 0 0 0.4 0"/>
<feBlend mode="normal" in2="BackgroundImageFix" result="effect1_dropShadow_1119_84929"/>
<feBlend mode="normal" in="SourceGraphic" in2="effect1_dropShadow_1119_84929" result="shape"/>
</filter>
</defs>
</svg>
