<svg width="2880" height="1440" viewBox="0 0 2880 1440" fill="none" xmlns="http://www.w3.org/2000/svg">
<rect x="312" y="432" width="2016" height="336" fill="#EEEEEE"/>
<g filter="url(#filter0_d_1119_7966)">
<mask id="path-2-outside-1_1119_7966" maskUnits="userSpaceOnUse" x="308" y="260" width="2024" height="272" fill="black">
<rect fill="white" x="308" y="260" width="2024" height="272"/>
<path fill-rule="evenodd" clip-rule="evenodd" d="M1344 264H1296V312H624V432H312V528H2328V432H2016V312H1344V264Z"/>
</mask>
<path fill-rule="evenodd" clip-rule="evenodd" d="M1344 264H1296V312H624V432H312V528H2328V432H2016V312H1344V264Z" fill="#D9D9D9"/>
<path d="M1296 264V260H1292V264H1296ZM1344 264H1348V260H1344V264ZM1296 312V316H1300V312H1296ZM624 312V308H620V312H624ZM624 432V436H628V432H624ZM312 432V428H308V432H312ZM312 528H308V532H312V528ZM2328 528V532H2332V528H2328ZM2328 432H2332V428H2328V432ZM2016 432H2012V436H2016V432ZM2016 312H2020V308H2016V312ZM1344 312H1340V316H1344V312ZM1296 268H1344V260H1296V268ZM1300 312V264H1292V312H1300ZM1296 308H624V316H1296V308ZM620 312V432H628V312H620ZM624 428H312V436H624V428ZM308 432V528H316V432H308ZM312 532H2328V524H312V532ZM2332 528V432H2324V528H2332ZM2328 428H2016V436H2328V428ZM2020 432V312H2012V432H2020ZM2016 308H1344V316H2016V308ZM1340 264V312H1348V264H1340Z" fill="#474747" mask="url(#path-2-outside-1_1119_7966)"/>
</g>
<g filter="url(#filter1_d_1119_7966)">
<mask id="path-4-outside-2_1119_7966" maskUnits="userSpaceOnUse" x="308" y="668" width="2024" height="272" fill="black">
<rect fill="white" x="308" y="668" width="2024" height="272"/>
<path fill-rule="evenodd" clip-rule="evenodd" d="M1344 936H1296V888H624V768H312V672H2328V768H2016V888H1344V936Z"/>
</mask>
<path fill-rule="evenodd" clip-rule="evenodd" d="M1344 936H1296V888H624V768H312V672H2328V768H2016V888H1344V936Z" fill="#D9D9D9"/>
<path d="M1296 936V940H1292V936H1296ZM1344 936H1348V940H1344V936ZM1296 888V884H1300V888H1296ZM624 888V892H620V888H624ZM624 768V764H628V768H624ZM312 768V772H308V768H312ZM312 672H308V668H312V672ZM2328 672V668H2332V672H2328ZM2328 768H2332V772H2328V768ZM2016 768H2012V764H2016V768ZM2016 888H2020V892H2016V888ZM1344 888H1340V884H1344V888ZM1296 932H1344V940H1296V932ZM1300 888V936H1292V888H1300ZM1296 892H624V884H1296V892ZM620 888V768H628V888H620ZM624 772H312V764H624V772ZM308 768V672H316V768H308ZM312 668H2328V676H312V668ZM2332 672V768H2324V672H2332ZM2328 772H2016V764H2328V772ZM2020 768V888H2012V768H2020ZM2016 892H1344V884H2016V892ZM1340 936V888H1348V936H1340Z" fill="#474747" mask="url(#path-4-outside-2_1119_7966)"/>
</g>
<rect width="48" height="48" transform="translate(1296 264)" fill="#212121"/>
<path d="M1327.97 292.849C1327.95 292.776 1327.91 292.707 1327.86 292.648C1327.8 292.59 1327.74 292.542 1327.67 292.507C1327.6 292.472 1327.53 292.451 1327.45 292.446C1327.37 292.44 1327.29 292.45 1327.22 292.475L1325.93 292.905L1323.79 288.623C1323.74 288.525 1323.66 288.442 1323.57 288.384C1323.48 288.326 1323.37 288.296 1323.26 288.296H1317.33V286.518H1321.48C1321.64 286.518 1321.79 286.455 1321.9 286.344C1322.01 286.233 1322.07 286.082 1322.07 285.925C1322.07 285.768 1322.01 285.617 1321.9 285.506C1321.79 285.395 1321.64 285.333 1321.48 285.333H1317.33V284.666C1317.89 284.522 1318.38 284.179 1318.7 283.701C1319.02 283.223 1319.16 282.644 1319.09 282.072C1319.02 281.499 1318.74 280.973 1318.31 280.592C1317.87 280.21 1317.32 280 1316.74 280C1316.16 280 1315.6 280.21 1315.17 280.592C1314.74 280.973 1314.46 281.499 1314.39 282.072C1314.31 282.644 1314.45 283.223 1314.78 283.701C1315.1 284.179 1315.59 284.522 1316.15 284.666V285.467C1314.87 285.759 1313.74 286.511 1312.98 287.58C1312.23 288.649 1311.89 289.96 1312.03 291.263C1312.18 292.565 1312.8 293.768 1313.78 294.642C1314.76 295.516 1316.02 295.999 1317.33 296C1319.81 296 1322.05 294.318 1322.65 292C1322.67 291.924 1322.67 291.846 1322.66 291.769C1322.65 291.692 1322.62 291.617 1322.58 291.55C1322.54 291.483 1322.49 291.425 1322.43 291.378C1322.37 291.331 1322.3 291.297 1322.22 291.277C1322.15 291.258 1322.07 291.254 1321.99 291.264C1321.91 291.275 1321.84 291.301 1321.77 291.341C1321.7 291.38 1321.65 291.433 1321.6 291.495C1321.55 291.557 1321.52 291.628 1321.5 291.703C1321.04 293.481 1319.25 294.815 1317.33 294.815C1316.33 294.814 1315.37 294.456 1314.62 293.804C1313.86 293.152 1313.37 292.251 1313.23 291.265C1313.08 290.279 1313.3 289.275 1313.83 288.435C1314.37 287.595 1315.19 286.976 1316.15 286.691V288.888C1316.15 289.046 1316.21 289.196 1316.32 289.307C1316.43 289.419 1316.58 289.481 1316.74 289.481H1322.89L1325.1 293.895C1325.16 294.022 1325.27 294.122 1325.4 294.177C1325.53 294.231 1325.68 294.236 1325.82 294.191L1327.59 293.598C1327.74 293.549 1327.87 293.442 1327.94 293.301C1328.01 293.161 1328.02 292.998 1327.97 292.849ZM1315.55 282.369C1315.55 282.135 1315.62 281.906 1315.75 281.711C1315.88 281.516 1316.07 281.364 1316.28 281.274C1316.5 281.185 1316.74 281.161 1316.97 281.207C1317.2 281.253 1317.41 281.365 1317.58 281.531C1317.74 281.697 1317.86 281.908 1317.9 282.138C1317.95 282.368 1317.92 282.606 1317.83 282.823C1317.74 283.04 1317.59 283.225 1317.4 283.355C1317.2 283.485 1316.97 283.555 1316.74 283.555C1316.42 283.555 1316.12 283.43 1315.9 283.207C1315.68 282.985 1315.55 282.684 1315.55 282.369Z" fill="white"/>
<rect width="48" height="48" transform="translate(1296 888)" fill="#212121"/>
<path d="M1327.97 916.849C1327.95 916.776 1327.91 916.707 1327.86 916.648C1327.8 916.59 1327.74 916.542 1327.67 916.507C1327.6 916.472 1327.53 916.451 1327.45 916.446C1327.37 916.44 1327.29 916.45 1327.22 916.475L1325.93 916.905L1323.79 912.623C1323.74 912.525 1323.66 912.442 1323.57 912.384C1323.48 912.326 1323.37 912.296 1323.26 912.296H1317.33V910.518H1321.48C1321.64 910.518 1321.79 910.455 1321.9 910.344C1322.01 910.233 1322.07 910.082 1322.07 909.925C1322.07 909.768 1322.01 909.617 1321.9 909.506C1321.79 909.395 1321.64 909.333 1321.48 909.333H1317.33V908.666C1317.89 908.522 1318.38 908.179 1318.7 907.701C1319.02 907.223 1319.16 906.644 1319.09 906.072C1319.02 905.499 1318.74 904.973 1318.31 904.592C1317.87 904.21 1317.32 904 1316.74 904C1316.16 904 1315.6 904.21 1315.17 904.592C1314.74 904.973 1314.46 905.499 1314.39 906.072C1314.31 906.644 1314.45 907.223 1314.78 907.701C1315.1 908.179 1315.59 908.522 1316.15 908.666V909.467C1314.87 909.759 1313.74 910.511 1312.98 911.58C1312.23 912.649 1311.89 913.96 1312.03 915.263C1312.18 916.565 1312.8 917.768 1313.78 918.642C1314.76 919.516 1316.02 919.999 1317.33 920C1319.81 920 1322.05 918.318 1322.65 916C1322.67 915.924 1322.67 915.846 1322.66 915.769C1322.65 915.692 1322.62 915.617 1322.58 915.55C1322.54 915.483 1322.49 915.425 1322.43 915.378C1322.37 915.331 1322.3 915.297 1322.22 915.277C1322.15 915.258 1322.07 915.254 1321.99 915.264C1321.91 915.275 1321.84 915.301 1321.77 915.341C1321.7 915.38 1321.65 915.433 1321.6 915.495C1321.55 915.557 1321.52 915.628 1321.5 915.703C1321.04 917.481 1319.25 918.815 1317.33 918.815C1316.33 918.814 1315.37 918.456 1314.62 917.804C1313.86 917.152 1313.37 916.251 1313.23 915.265C1313.08 914.279 1313.3 913.275 1313.83 912.435C1314.37 911.595 1315.19 910.976 1316.15 910.691V912.888C1316.15 913.046 1316.21 913.196 1316.32 913.307C1316.43 913.419 1316.58 913.481 1316.74 913.481H1322.89L1325.1 917.895C1325.16 918.022 1325.27 918.122 1325.4 918.177C1325.53 918.231 1325.68 918.236 1325.82 918.191L1327.59 917.598C1327.74 917.549 1327.87 917.442 1327.94 917.301C1328.01 917.161 1328.02 916.998 1327.97 916.849ZM1315.55 906.369C1315.55 906.135 1315.62 905.906 1315.75 905.711C1315.88 905.516 1316.07 905.364 1316.28 905.274C1316.5 905.185 1316.74 905.161 1316.97 905.207C1317.2 905.253 1317.41 905.365 1317.58 905.531C1317.74 905.697 1317.86 905.908 1317.9 906.138C1317.95 906.368 1317.92 906.606 1317.83 906.823C1317.74 907.04 1317.59 907.225 1317.4 907.355C1317.2 907.485 1316.97 907.555 1316.74 907.555C1316.42 907.555 1316.12 907.43 1315.9 907.207C1315.68 906.985 1315.55 906.684 1315.55 906.369Z" fill="white"/>
<rect width="24" height="4" transform="matrix(-1.31134e-07 1 1 1.31134e-07 1008 336)" fill="#212121"/>
<rect width="24" height="4" transform="matrix(-1.31134e-07 1 1 1.31134e-07 1014 336)" fill="#212121"/>
<rect width="24" height="4" transform="matrix(-1.31134e-07 1 1 1.31134e-07 1020 336)" fill="#212121"/>
<rect width="24" height="4" transform="matrix(-1.31134e-07 1 1 1.31134e-07 1026 336)" fill="#212121"/>
<rect width="24" height="4" transform="matrix(-1.31134e-07 1 1 1.31134e-07 1032 336)" fill="#212121"/>
<rect width="24" height="4" transform="matrix(-1.31134e-07 1 1 1.31134e-07 1038 336)" fill="#212121"/>
<rect width="24" height="4" transform="matrix(-1.31134e-07 1 1 1.31134e-07 1044 336)" fill="#212121"/>
<rect width="24" height="4" transform="matrix(-1.31134e-07 1 1 1.31134e-07 1050 336)" fill="#212121"/>
<rect x="1056" y="360" width="24" height="24" transform="rotate(-90 1056 360)" fill="#212121"/>
<rect width="24" height="4" transform="matrix(-1.31134e-07 1 1 1.31134e-07 936 336)" fill="#212121"/>
<rect width="24" height="4" transform="matrix(-1.31134e-07 1 1 1.31134e-07 942 336)" fill="#212121"/>
<rect width="24" height="4" transform="matrix(-1.31134e-07 1 1 1.31134e-07 948 336)" fill="#212121"/>
<rect width="24" height="4" transform="matrix(-1.31134e-07 1 1 1.31134e-07 954 336)" fill="#212121"/>
<rect width="24" height="4" transform="matrix(-1.31134e-07 1 1 1.31134e-07 960 336)" fill="#212121"/>
<rect width="24" height="4" transform="matrix(-1.31134e-07 1 1 1.31134e-07 966 336)" fill="#212121"/>
<rect width="24" height="4" transform="matrix(-1.31134e-07 1 1 1.31134e-07 972 336)" fill="#212121"/>
<rect width="24" height="4" transform="matrix(-1.31134e-07 1 1 1.31134e-07 978 336)" fill="#212121"/>
<rect x="984" y="360" width="24" height="24" transform="rotate(-90 984 360)" fill="#212121"/>
<rect x="936" y="360" width="24" height="24" transform="rotate(-180 936 360)" fill="#212121"/>
<rect width="24" height="4" transform="matrix(-1.31134e-07 1 1 1.31134e-07 1008 312)" fill="#212121"/>
<rect width="24" height="4" transform="matrix(-1.31134e-07 1 1 1.31134e-07 1014 312)" fill="#212121"/>
<rect width="24" height="4" transform="matrix(-1.31134e-07 1 1 1.31134e-07 1020 312)" fill="#212121"/>
<rect width="24" height="4" transform="matrix(-1.31134e-07 1 1 1.31134e-07 1026 312)" fill="#212121"/>
<rect width="24" height="4" transform="matrix(-1.31134e-07 1 1 1.31134e-07 1032 312)" fill="#212121"/>
<rect width="24" height="4" transform="matrix(-1.31134e-07 1 1 1.31134e-07 1038 312)" fill="#212121"/>
<rect width="24" height="4" transform="matrix(-1.31134e-07 1 1 1.31134e-07 1044 312)" fill="#212121"/>
<rect width="24" height="4" transform="matrix(-1.31134e-07 1 1 1.31134e-07 1050 312)" fill="#212121"/>
<rect x="1056" y="336" width="24" height="24" transform="rotate(-90 1056 336)" fill="#212121"/>
<rect width="24" height="4" transform="matrix(-1.31134e-07 1 1 1.31134e-07 936 312)" fill="#212121"/>
<rect width="24" height="4" transform="matrix(-1.31134e-07 1 1 1.31134e-07 942 312)" fill="#212121"/>
<rect width="24" height="4" transform="matrix(-1.31134e-07 1 1 1.31134e-07 948 312)" fill="#212121"/>
<rect width="24" height="4" transform="matrix(-1.31134e-07 1 1 1.31134e-07 954 312)" fill="#212121"/>
<rect width="24" height="4" transform="matrix(-1.31134e-07 1 1 1.31134e-07 960 312)" fill="#212121"/>
<rect width="24" height="4" transform="matrix(-1.31134e-07 1 1 1.31134e-07 966 312)" fill="#212121"/>
<rect width="24" height="4" transform="matrix(-1.31134e-07 1 1 1.31134e-07 972 312)" fill="#212121"/>
<rect width="24" height="4" transform="matrix(-1.31134e-07 1 1 1.31134e-07 978 312)" fill="#212121"/>
<rect x="984" y="336" width="24" height="24" transform="rotate(-90 984 336)" fill="#212121"/>
<rect x="936" y="336" width="24" height="24" transform="rotate(-180 936 336)" fill="#212121"/>
<rect width="24" height="4" transform="matrix(-1.31134e-07 1 1 1.31134e-07 1656 312)" fill="#212121"/>
<rect width="24" height="4" transform="matrix(-1.31134e-07 1 1 1.31134e-07 1662 312)" fill="#212121"/>
<rect width="24" height="4" transform="matrix(-1.31134e-07 1 1 1.31134e-07 1668 312)" fill="#212121"/>
<rect width="24" height="4" transform="matrix(-1.31134e-07 1 1 1.31134e-07 1674 312)" fill="#212121"/>
<rect width="24" height="4" transform="matrix(-1.31134e-07 1 1 1.31134e-07 1680 312)" fill="#212121"/>
<rect width="24" height="4" transform="matrix(-1.31134e-07 1 1 1.31134e-07 1686 312)" fill="#212121"/>
<rect width="24" height="4" transform="matrix(-1.31134e-07 1 1 1.31134e-07 1692 312)" fill="#212121"/>
<rect width="24" height="4" transform="matrix(-1.31134e-07 1 1 1.31134e-07 1698 312)" fill="#212121"/>
<rect x="1704" y="336" width="24" height="24" transform="rotate(-90 1704 336)" fill="#212121"/>
<rect width="24" height="4" transform="matrix(-1.31134e-07 1 1 1.31134e-07 1584 312)" fill="#212121"/>
<rect width="24" height="4" transform="matrix(-1.31134e-07 1 1 1.31134e-07 1590 312)" fill="#212121"/>
<rect width="24" height="4" transform="matrix(-1.31134e-07 1 1 1.31134e-07 1596 312)" fill="#212121"/>
<rect width="24" height="4" transform="matrix(-1.31134e-07 1 1 1.31134e-07 1602 312)" fill="#212121"/>
<rect width="24" height="4" transform="matrix(-1.31134e-07 1 1 1.31134e-07 1608 312)" fill="#212121"/>
<rect width="24" height="4" transform="matrix(-1.31134e-07 1 1 1.31134e-07 1614 312)" fill="#212121"/>
<rect width="24" height="4" transform="matrix(-1.31134e-07 1 1 1.31134e-07 1620 312)" fill="#212121"/>
<rect width="24" height="4" transform="matrix(-1.31134e-07 1 1 1.31134e-07 1626 312)" fill="#212121"/>
<rect x="1632" y="336" width="24" height="24" transform="rotate(-90 1632 336)" fill="#212121"/>
<rect x="1584" y="336" width="24" height="24" transform="rotate(-180 1584 336)" fill="#212121"/>
<rect width="24" height="4" transform="matrix(-1.31134e-07 1 1 1.31134e-07 1008 840)" fill="#212121"/>
<rect width="24" height="4" transform="matrix(-1.31134e-07 1 1 1.31134e-07 1014 840)" fill="#212121"/>
<rect width="24" height="4" transform="matrix(-1.31134e-07 1 1 1.31134e-07 1020 840)" fill="#212121"/>
<rect width="24" height="4" transform="matrix(-1.31134e-07 1 1 1.31134e-07 1026 840)" fill="#212121"/>
<rect width="24" height="4" transform="matrix(-1.31134e-07 1 1 1.31134e-07 1032 840)" fill="#212121"/>
<rect width="24" height="4" transform="matrix(-1.31134e-07 1 1 1.31134e-07 1038 840)" fill="#212121"/>
<rect width="24" height="4" transform="matrix(-1.31134e-07 1 1 1.31134e-07 1044 840)" fill="#212121"/>
<rect width="24" height="4" transform="matrix(-1.31134e-07 1 1 1.31134e-07 1050 840)" fill="#212121"/>
<rect x="1056" y="864" width="24" height="24" transform="rotate(-90 1056 864)" fill="#212121"/>
<rect width="24" height="4" transform="matrix(-1.31134e-07 1 1 1.31134e-07 936 840)" fill="#212121"/>
<rect width="24" height="4" transform="matrix(-1.31134e-07 1 1 1.31134e-07 942 840)" fill="#212121"/>
<rect width="24" height="4" transform="matrix(-1.31134e-07 1 1 1.31134e-07 948 840)" fill="#212121"/>
<rect width="24" height="4" transform="matrix(-1.31134e-07 1 1 1.31134e-07 954 840)" fill="#212121"/>
<rect width="24" height="4" transform="matrix(-1.31134e-07 1 1 1.31134e-07 960 840)" fill="#212121"/>
<rect width="24" height="4" transform="matrix(-1.31134e-07 1 1 1.31134e-07 966 840)" fill="#212121"/>
<rect width="24" height="4" transform="matrix(-1.31134e-07 1 1 1.31134e-07 972 840)" fill="#212121"/>
<rect width="24" height="4" transform="matrix(-1.31134e-07 1 1 1.31134e-07 978 840)" fill="#212121"/>
<rect x="984" y="864" width="24" height="24" transform="rotate(-90 984 864)" fill="#212121"/>
<rect x="936" y="864" width="24" height="24" transform="rotate(-180 936 864)" fill="#212121"/>
<rect width="24" height="4" transform="matrix(-1.31134e-07 1 1 1.31134e-07 1008 864)" fill="#212121"/>
<rect width="24" height="4" transform="matrix(-1.31134e-07 1 1 1.31134e-07 1014 864)" fill="#212121"/>
<rect width="24" height="4" transform="matrix(-1.31134e-07 1 1 1.31134e-07 1020 864)" fill="#212121"/>
<rect width="24" height="4" transform="matrix(-1.31134e-07 1 1 1.31134e-07 1026 864)" fill="#212121"/>
<rect width="24" height="4" transform="matrix(-1.31134e-07 1 1 1.31134e-07 1032 864)" fill="#212121"/>
<rect width="24" height="4" transform="matrix(-1.31134e-07 1 1 1.31134e-07 1038 864)" fill="#212121"/>
<rect width="24" height="4" transform="matrix(-1.31134e-07 1 1 1.31134e-07 1044 864)" fill="#212121"/>
<rect width="24" height="4" transform="matrix(-1.31134e-07 1 1 1.31134e-07 1050 864)" fill="#212121"/>
<rect x="1056" y="888" width="24" height="24" transform="rotate(-90 1056 888)" fill="#212121"/>
<rect width="24" height="4" transform="matrix(-1.31134e-07 1 1 1.31134e-07 936 864)" fill="#212121"/>
<rect width="24" height="4" transform="matrix(-1.31134e-07 1 1 1.31134e-07 942 864)" fill="#212121"/>
<rect width="24" height="4" transform="matrix(-1.31134e-07 1 1 1.31134e-07 948 864)" fill="#212121"/>
<rect width="24" height="4" transform="matrix(-1.31134e-07 1 1 1.31134e-07 954 864)" fill="#212121"/>
<rect width="24" height="4" transform="matrix(-1.31134e-07 1 1 1.31134e-07 960 864)" fill="#212121"/>
<rect width="24" height="4" transform="matrix(-1.31134e-07 1 1 1.31134e-07 966 864)" fill="#212121"/>
<rect width="24" height="4" transform="matrix(-1.31134e-07 1 1 1.31134e-07 972 864)" fill="#212121"/>
<rect width="24" height="4" transform="matrix(-1.31134e-07 1 1 1.31134e-07 978 864)" fill="#212121"/>
<rect x="984" y="888" width="24" height="24" transform="rotate(-90 984 888)" fill="#212121"/>
<rect x="936" y="888" width="24" height="24" transform="rotate(-180 936 888)" fill="#212121"/>
<rect width="24" height="4" transform="matrix(-1.31134e-07 1 1 1.31134e-07 1656 864)" fill="#212121"/>
<rect width="24" height="4" transform="matrix(-1.31134e-07 1 1 1.31134e-07 1662 864)" fill="#212121"/>
<rect width="24" height="4" transform="matrix(-1.31134e-07 1 1 1.31134e-07 1668 864)" fill="#212121"/>
<rect width="24" height="4" transform="matrix(-1.31134e-07 1 1 1.31134e-07 1674 864)" fill="#212121"/>
<rect width="24" height="4" transform="matrix(-1.31134e-07 1 1 1.31134e-07 1680 864)" fill="#212121"/>
<rect width="24" height="4" transform="matrix(-1.31134e-07 1 1 1.31134e-07 1686 864)" fill="#212121"/>
<rect width="24" height="4" transform="matrix(-1.31134e-07 1 1 1.31134e-07 1692 864)" fill="#212121"/>
<rect width="24" height="4" transform="matrix(-1.31134e-07 1 1 1.31134e-07 1698 864)" fill="#212121"/>
<rect x="1704" y="888" width="24" height="24" transform="rotate(-90 1704 888)" fill="#212121"/>
<rect width="24" height="4" transform="matrix(-1.31134e-07 1 1 1.31134e-07 1584 864)" fill="#212121"/>
<rect width="24" height="4" transform="matrix(-1.31134e-07 1 1 1.31134e-07 1590 864)" fill="#212121"/>
<rect width="24" height="4" transform="matrix(-1.31134e-07 1 1 1.31134e-07 1596 864)" fill="#212121"/>
<rect width="24" height="4" transform="matrix(-1.31134e-07 1 1 1.31134e-07 1602 864)" fill="#212121"/>
<rect width="24" height="4" transform="matrix(-1.31134e-07 1 1 1.31134e-07 1608 864)" fill="#212121"/>
<rect width="24" height="4" transform="matrix(-1.31134e-07 1 1 1.31134e-07 1614 864)" fill="#212121"/>
<rect width="24" height="4" transform="matrix(-1.31134e-07 1 1 1.31134e-07 1620 864)" fill="#212121"/>
<rect width="24" height="4" transform="matrix(-1.31134e-07 1 1 1.31134e-07 1626 864)" fill="#212121"/>
<rect x="1632" y="888" width="24" height="24" transform="rotate(-90 1632 888)" fill="#212121"/>
<rect x="1584" y="888" width="24" height="24" transform="rotate(-180 1584 888)" fill="#212121"/>
<rect width="24" height="4" transform="matrix(-1.31134e-07 1 1 1.31134e-07 1656 336)" fill="#212121"/>
<rect width="24" height="4" transform="matrix(-1.31134e-07 1 1 1.31134e-07 1662 336)" fill="#212121"/>
<rect width="24" height="4" transform="matrix(-1.31134e-07 1 1 1.31134e-07 1668 336)" fill="#212121"/>
<rect width="24" height="4" transform="matrix(-1.31134e-07 1 1 1.31134e-07 1674 336)" fill="#212121"/>
<rect width="24" height="4" transform="matrix(-1.31134e-07 1 1 1.31134e-07 1680 336)" fill="#212121"/>
<rect width="24" height="4" transform="matrix(-1.31134e-07 1 1 1.31134e-07 1686 336)" fill="#212121"/>
<rect width="24" height="4" transform="matrix(-1.31134e-07 1 1 1.31134e-07 1692 336)" fill="#212121"/>
<rect width="24" height="4" transform="matrix(-1.31134e-07 1 1 1.31134e-07 1698 336)" fill="#212121"/>
<rect x="1704" y="360" width="24" height="24" transform="rotate(-90 1704 360)" fill="#212121"/>
<rect width="24" height="4" transform="matrix(-1.31134e-07 1 1 1.31134e-07 1584 336)" fill="#212121"/>
<rect width="24" height="4" transform="matrix(-1.31134e-07 1 1 1.31134e-07 1590 336)" fill="#212121"/>
<rect width="24" height="4" transform="matrix(-1.31134e-07 1 1 1.31134e-07 1596 336)" fill="#212121"/>
<rect width="24" height="4" transform="matrix(-1.31134e-07 1 1 1.31134e-07 1602 336)" fill="#212121"/>
<rect width="24" height="4" transform="matrix(-1.31134e-07 1 1 1.31134e-07 1608 336)" fill="#212121"/>
<rect width="24" height="4" transform="matrix(-1.31134e-07 1 1 1.31134e-07 1614 336)" fill="#212121"/>
<rect width="24" height="4" transform="matrix(-1.31134e-07 1 1 1.31134e-07 1620 336)" fill="#212121"/>
<rect width="24" height="4" transform="matrix(-1.31134e-07 1 1 1.31134e-07 1626 336)" fill="#212121"/>
<rect x="1632" y="360" width="24" height="24" transform="rotate(-90 1632 360)" fill="#212121"/>
<rect x="1584" y="360" width="24" height="24" transform="rotate(-180 1584 360)" fill="#212121"/>
<rect width="24" height="4" transform="matrix(-1.31134e-07 1 1 1.31134e-07 1656 840)" fill="#212121"/>
<rect width="24" height="4" transform="matrix(-1.31134e-07 1 1 1.31134e-07 1662 840)" fill="#212121"/>
<rect width="24" height="4" transform="matrix(-1.31134e-07 1 1 1.31134e-07 1668 840)" fill="#212121"/>
<rect width="24" height="4" transform="matrix(-1.31134e-07 1 1 1.31134e-07 1674 840)" fill="#212121"/>
<rect width="24" height="4" transform="matrix(-1.31134e-07 1 1 1.31134e-07 1680 840)" fill="#212121"/>
<rect width="24" height="4" transform="matrix(-1.31134e-07 1 1 1.31134e-07 1686 840)" fill="#212121"/>
<rect width="24" height="4" transform="matrix(-1.31134e-07 1 1 1.31134e-07 1692 840)" fill="#212121"/>
<rect width="24" height="4" transform="matrix(-1.31134e-07 1 1 1.31134e-07 1698 840)" fill="#212121"/>
<rect x="1704" y="864" width="24" height="24" transform="rotate(-90 1704 864)" fill="#212121"/>
<rect width="24" height="4" transform="matrix(-1.31134e-07 1 1 1.31134e-07 1584 840)" fill="#212121"/>
<rect width="24" height="4" transform="matrix(-1.31134e-07 1 1 1.31134e-07 1590 840)" fill="#212121"/>
<rect width="24" height="4" transform="matrix(-1.31134e-07 1 1 1.31134e-07 1596 840)" fill="#212121"/>
<rect width="24" height="4" transform="matrix(-1.31134e-07 1 1 1.31134e-07 1602 840)" fill="#212121"/>
<rect width="24" height="4" transform="matrix(-1.31134e-07 1 1 1.31134e-07 1608 840)" fill="#212121"/>
<rect width="24" height="4" transform="matrix(-1.31134e-07 1 1 1.31134e-07 1614 840)" fill="#212121"/>
<rect width="24" height="4" transform="matrix(-1.31134e-07 1 1 1.31134e-07 1620 840)" fill="#212121"/>
<rect width="24" height="4" transform="matrix(-1.31134e-07 1 1 1.31134e-07 1626 840)" fill="#212121"/>
<rect x="1632" y="864" width="24" height="24" transform="rotate(-90 1632 864)" fill="#212121"/>
<rect x="1584" y="864" width="24" height="24" transform="rotate(-180 1584 864)" fill="#212121"/>
<rect x="600.5" y="408.5" width="23" height="23" stroke="#212121"/>
<path d="M610.5 417.5C610.105 417.5 609.718 417.383 609.389 417.163C609.06 416.943 608.804 416.631 608.653 416.265C608.501 415.9 608.462 415.498 608.539 415.11C608.616 414.722 608.807 414.365 609.086 414.086C609.366 413.806 609.722 413.616 610.11 413.538C610.498 413.461 610.9 413.501 611.266 413.652C611.631 413.804 611.944 414.06 612.163 414.389C612.383 414.718 612.5 415.104 612.5 415.5C612.5 416.03 612.29 416.539 611.915 416.914C611.54 417.289 611.031 417.5 610.5 417.5ZM610.5 414.5C610.303 414.5 610.109 414.559 609.945 414.669C609.78 414.778 609.652 414.935 609.577 415.117C609.501 415.3 609.481 415.501 609.52 415.695C609.558 415.889 609.653 416.067 609.793 416.207C609.933 416.347 610.111 416.442 610.305 416.481C610.499 416.519 610.7 416.5 610.883 416.424C611.066 416.348 611.222 416.22 611.332 416.056C611.442 415.891 611.5 415.698 611.5 415.5C611.5 415.235 611.395 414.98 611.208 414.793C611.02 414.605 610.766 414.5 610.5 414.5ZM606.294 420.793C606.332 420.81 606.762 420.998 607.523 420.998C608.389 420.998 609.682 420.755 611.316 419.748C611.565 420.453 611.888 421.131 612.279 421.769C611.576 421.985 610.914 422.319 610.322 422.757C609.13 423.666 608.5 424.959 608.5 426.5C608.5 426.633 608.553 426.76 608.647 426.854C608.741 426.947 608.868 427 609 427C609.133 427 609.26 426.947 609.354 426.854C609.448 426.76 609.5 426.633 609.5 426.5C609.5 423.894 611.669 422.956 612.884 422.634C612.919 422.678 612.954 422.723 612.99 422.766C614.217 424.253 615.755 425.027 617.467 425.027C617.662 425.028 617.856 425.019 618.05 425C618.183 424.987 618.305 424.921 618.389 424.818C618.474 424.715 618.514 424.583 618.5 424.45C618.487 424.317 618.422 424.195 618.319 424.111C618.215 424.027 618.083 423.987 617.95 424C616.33 424.161 614.921 423.532 613.763 422.125C612.982 421.179 612.45 420.024 612.185 419.188C614.617 417.772 616.171 418.977 616.188 418.99C616.239 419.033 616.298 419.066 616.362 419.086C616.426 419.107 616.493 419.114 616.56 419.108C616.626 419.101 616.691 419.082 616.75 419.05C616.809 419.018 616.861 418.975 616.903 418.922C616.945 418.87 616.976 418.81 616.994 418.746C617.012 418.681 617.017 418.614 617.009 418.547C617 418.481 616.979 418.417 616.945 418.359C616.911 418.301 616.866 418.25 616.813 418.21C616.719 418.135 614.487 416.398 611.219 418.621C608.377 420.553 606.723 419.89 606.707 419.883C606.647 419.854 606.582 419.838 606.516 419.835C606.45 419.832 606.384 419.842 606.322 419.865C606.26 419.888 606.203 419.923 606.154 419.968C606.105 420.013 606.066 420.067 606.039 420.127C606.011 420.188 605.996 420.253 605.994 420.319C605.992 420.385 606.003 420.451 606.027 420.513C606.05 420.575 606.086 420.632 606.132 420.68C606.177 420.727 606.232 420.766 606.293 420.793H606.294Z" fill="#212121"/>
<rect x="599.5" y="408.5" width="23" height="23" transform="rotate(90 599.5 408.5)" stroke="#212121"/>
<line x1="600.5" y1="408" x2="600.5" y2="432" stroke="#212121"/>
<line x1="594.5" y1="408" x2="594.5" y2="432" stroke="#212121"/>
<line x1="588.5" y1="408" x2="588.5" y2="432" stroke="#212121"/>
<line x1="582.5" y1="408" x2="582.5" y2="432" stroke="#212121"/>
<line x1="576.5" y1="408" x2="576.5" y2="432" stroke="#212121"/>
<rect x="-0.5" y="0.5" width="23" height="23" transform="matrix(-1 0 0 1 2039 408)" stroke="#212121"/>
<path d="M2029.5 417.5C2029.9 417.5 2030.28 417.383 2030.61 417.163C2030.94 416.943 2031.2 416.631 2031.35 416.265C2031.5 415.9 2031.54 415.498 2031.46 415.11C2031.38 414.722 2031.19 414.365 2030.91 414.086C2030.63 413.806 2030.28 413.616 2029.89 413.538C2029.5 413.461 2029.1 413.501 2028.73 413.652C2028.37 413.804 2028.06 414.06 2027.84 414.389C2027.62 414.718 2027.5 415.104 2027.5 415.5C2027.5 416.03 2027.71 416.539 2028.09 416.914C2028.46 417.289 2028.97 417.5 2029.5 417.5ZM2029.5 414.5C2029.7 414.5 2029.89 414.559 2030.06 414.669C2030.22 414.778 2030.35 414.935 2030.42 415.117C2030.5 415.3 2030.52 415.501 2030.48 415.695C2030.44 415.889 2030.35 416.067 2030.21 416.207C2030.07 416.347 2029.89 416.442 2029.69 416.481C2029.5 416.519 2029.3 416.5 2029.12 416.424C2028.93 416.348 2028.78 416.22 2028.67 416.056C2028.56 415.891 2028.5 415.698 2028.5 415.5C2028.5 415.235 2028.6 414.98 2028.79 414.793C2028.98 414.605 2029.23 414.5 2029.5 414.5ZM2033.71 420.793C2033.67 420.81 2033.24 420.998 2032.48 420.998C2031.61 420.998 2030.32 420.755 2028.68 419.748C2028.44 420.453 2028.11 421.131 2027.72 421.769C2028.42 421.985 2029.09 422.319 2029.68 422.757C2030.87 423.666 2031.5 424.959 2031.5 426.5C2031.5 426.633 2031.45 426.76 2031.35 426.854C2031.26 426.947 2031.13 427 2031 427C2030.87 427 2030.74 426.947 2030.65 426.854C2030.55 426.76 2030.5 426.633 2030.5 426.5C2030.5 423.894 2028.33 422.956 2027.12 422.634C2027.08 422.678 2027.05 422.723 2027.01 422.766C2025.78 424.253 2024.24 425.027 2022.53 425.027C2022.34 425.028 2022.14 425.019 2021.95 425C2021.82 424.987 2021.7 424.921 2021.61 424.818C2021.53 424.715 2021.49 424.583 2021.5 424.45C2021.51 424.317 2021.58 424.195 2021.68 424.111C2021.78 424.027 2021.92 423.987 2022.05 424C2023.67 424.161 2025.08 423.532 2026.24 422.125C2027.02 421.179 2027.55 420.024 2027.82 419.188C2025.38 417.772 2023.83 418.977 2023.81 418.99C2023.76 419.033 2023.7 419.066 2023.64 419.086C2023.57 419.107 2023.51 419.114 2023.44 419.108C2023.37 419.101 2023.31 419.082 2023.25 419.05C2023.19 419.018 2023.14 418.975 2023.1 418.922C2023.06 418.87 2023.02 418.81 2023.01 418.746C2022.99 418.681 2022.98 418.614 2022.99 418.547C2023 418.481 2023.02 418.417 2023.05 418.359C2023.09 418.301 2023.13 418.25 2023.19 418.21C2023.28 418.135 2025.51 416.398 2028.78 418.621C2031.62 420.553 2033.28 419.89 2033.29 419.883C2033.35 419.854 2033.42 419.838 2033.48 419.835C2033.55 419.832 2033.62 419.842 2033.68 419.865C2033.74 419.888 2033.8 419.923 2033.85 419.968C2033.89 420.013 2033.93 420.067 2033.96 420.127C2033.99 420.188 2034 420.253 2034.01 420.319C2034.01 420.385 2034 420.451 2033.97 420.513C2033.95 420.575 2033.91 420.632 2033.87 420.68C2033.82 420.727 2033.77 420.766 2033.71 420.793H2033.71Z" fill="#212121"/>
<rect x="0.5" y="0.5" width="23" height="23" transform="matrix(4.37114e-08 1 1 -4.37114e-08 2040 408)" stroke="#212121"/>
<line y1="-0.5" x2="24" y2="-0.5" transform="matrix(4.37114e-08 1 1 -4.37114e-08 2040 408)" stroke="#212121"/>
<line y1="-0.5" x2="24" y2="-0.5" transform="matrix(4.37114e-08 1 1 -4.37114e-08 2046 408)" stroke="#212121"/>
<line y1="-0.5" x2="24" y2="-0.5" transform="matrix(4.37114e-08 1 1 -4.37114e-08 2052 408)" stroke="#212121"/>
<line y1="-0.5" x2="24" y2="-0.5" transform="matrix(4.37114e-08 1 1 -4.37114e-08 2058 408)" stroke="#212121"/>
<line y1="-0.5" x2="24" y2="-0.5" transform="matrix(4.37114e-08 1 1 -4.37114e-08 2064 408)" stroke="#212121"/>
<rect x="-0.5" y="0.5" width="23" height="23" transform="matrix(-1 0 0 1 2039 792)" stroke="#212121"/>
<path d="M2029.5 801.5C2029.9 801.5 2030.28 801.383 2030.61 801.163C2030.94 800.943 2031.2 800.631 2031.35 800.265C2031.5 799.9 2031.54 799.498 2031.46 799.11C2031.38 798.722 2031.19 798.365 2030.91 798.086C2030.63 797.806 2030.28 797.616 2029.89 797.538C2029.5 797.461 2029.1 797.501 2028.73 797.652C2028.37 797.804 2028.06 798.06 2027.84 798.389C2027.62 798.718 2027.5 799.104 2027.5 799.5C2027.5 800.03 2027.71 800.539 2028.09 800.914C2028.46 801.289 2028.97 801.5 2029.5 801.5ZM2029.5 798.5C2029.7 798.5 2029.89 798.559 2030.06 798.669C2030.22 798.778 2030.35 798.935 2030.42 799.117C2030.5 799.3 2030.52 799.501 2030.48 799.695C2030.44 799.889 2030.35 800.067 2030.21 800.207C2030.07 800.347 2029.89 800.442 2029.69 800.481C2029.5 800.519 2029.3 800.5 2029.12 800.424C2028.93 800.348 2028.78 800.22 2028.67 800.056C2028.56 799.891 2028.5 799.698 2028.5 799.5C2028.5 799.235 2028.6 798.98 2028.79 798.793C2028.98 798.605 2029.23 798.5 2029.5 798.5ZM2033.71 804.793C2033.67 804.81 2033.24 804.998 2032.48 804.998C2031.61 804.998 2030.32 804.755 2028.68 803.748C2028.44 804.453 2028.11 805.131 2027.72 805.769C2028.42 805.985 2029.09 806.319 2029.68 806.757C2030.87 807.666 2031.5 808.959 2031.5 810.5C2031.5 810.633 2031.45 810.76 2031.35 810.854C2031.26 810.947 2031.13 811 2031 811C2030.87 811 2030.74 810.947 2030.65 810.854C2030.55 810.76 2030.5 810.633 2030.5 810.5C2030.5 807.894 2028.33 806.956 2027.12 806.634C2027.08 806.678 2027.05 806.723 2027.01 806.766C2025.78 808.253 2024.24 809.027 2022.53 809.027C2022.34 809.028 2022.14 809.019 2021.95 809C2021.82 808.987 2021.7 808.921 2021.61 808.818C2021.53 808.715 2021.49 808.583 2021.5 808.45C2021.51 808.317 2021.58 808.195 2021.68 808.111C2021.78 808.027 2021.92 807.987 2022.05 808C2023.67 808.161 2025.08 807.532 2026.24 806.125C2027.02 805.179 2027.55 804.024 2027.82 803.188C2025.38 801.772 2023.83 802.977 2023.81 802.99C2023.76 803.033 2023.7 803.066 2023.64 803.086C2023.57 803.107 2023.51 803.114 2023.44 803.108C2023.37 803.101 2023.31 803.082 2023.25 803.05C2023.19 803.018 2023.14 802.975 2023.1 802.922C2023.06 802.87 2023.02 802.81 2023.01 802.746C2022.99 802.681 2022.98 802.614 2022.99 802.547C2023 802.481 2023.02 802.417 2023.05 802.359C2023.09 802.301 2023.13 802.25 2023.19 802.21C2023.28 802.135 2025.51 800.398 2028.78 802.621C2031.62 804.553 2033.28 803.89 2033.29 803.883C2033.35 803.854 2033.42 803.838 2033.48 803.835C2033.55 803.832 2033.62 803.842 2033.68 803.865C2033.74 803.888 2033.8 803.923 2033.85 803.968C2033.89 804.013 2033.93 804.067 2033.96 804.127C2033.99 804.188 2034 804.253 2034.01 804.319C2034.01 804.385 2034 804.451 2033.97 804.513C2033.95 804.575 2033.91 804.632 2033.87 804.68C2033.82 804.727 2033.77 804.766 2033.71 804.793H2033.71Z" fill="#212121"/>
<rect x="0.5" y="0.5" width="23" height="23" transform="matrix(4.37114e-08 1 1 -4.37114e-08 2040 792)" stroke="#212121"/>
<line y1="-0.5" x2="24" y2="-0.5" transform="matrix(4.37114e-08 1 1 -4.37114e-08 2040 792)" stroke="#212121"/>
<line y1="-0.5" x2="24" y2="-0.5" transform="matrix(4.37114e-08 1 1 -4.37114e-08 2046 792)" stroke="#212121"/>
<line y1="-0.5" x2="24" y2="-0.5" transform="matrix(4.37114e-08 1 1 -4.37114e-08 2052 792)" stroke="#212121"/>
<line y1="-0.5" x2="24" y2="-0.5" transform="matrix(4.37114e-08 1 1 -4.37114e-08 2058 792)" stroke="#212121"/>
<line y1="-0.5" x2="24" y2="-0.5" transform="matrix(4.37114e-08 1 1 -4.37114e-08 2064 792)" stroke="#212121"/>
<rect x="600.5" y="864.5" width="23" height="23" stroke="#212121"/>
<path d="M610.5 873.5C610.105 873.5 609.718 873.383 609.389 873.163C609.06 872.943 608.804 872.631 608.653 872.265C608.501 871.9 608.462 871.498 608.539 871.11C608.616 870.722 608.807 870.365 609.086 870.086C609.366 869.806 609.722 869.616 610.11 869.538C610.498 869.461 610.9 869.501 611.266 869.652C611.631 869.804 611.944 870.06 612.163 870.389C612.383 870.718 612.5 871.104 612.5 871.5C612.5 872.03 612.29 872.539 611.915 872.914C611.54 873.289 611.031 873.5 610.5 873.5ZM610.5 870.5C610.303 870.5 610.109 870.559 609.945 870.669C609.78 870.778 609.652 870.935 609.577 871.117C609.501 871.3 609.481 871.501 609.52 871.695C609.558 871.889 609.653 872.067 609.793 872.207C609.933 872.347 610.111 872.442 610.305 872.481C610.499 872.519 610.7 872.5 610.883 872.424C611.066 872.348 611.222 872.22 611.332 872.056C611.442 871.891 611.5 871.698 611.5 871.5C611.5 871.235 611.395 870.98 611.208 870.793C611.02 870.605 610.766 870.5 610.5 870.5ZM606.294 876.793C606.332 876.81 606.762 876.998 607.523 876.998C608.389 876.998 609.682 876.755 611.316 875.748C611.565 876.453 611.888 877.131 612.279 877.769C611.576 877.985 610.914 878.319 610.322 878.757C609.13 879.666 608.5 880.959 608.5 882.5C608.5 882.633 608.553 882.76 608.647 882.854C608.741 882.947 608.868 883 609 883C609.133 883 609.26 882.947 609.354 882.854C609.448 882.76 609.5 882.633 609.5 882.5C609.5 879.894 611.669 878.956 612.884 878.634C612.919 878.678 612.954 878.723 612.99 878.766C614.217 880.253 615.755 881.027 617.467 881.027C617.662 881.028 617.856 881.019 618.05 881C618.183 880.987 618.305 880.921 618.389 880.818C618.474 880.715 618.514 880.583 618.5 880.45C618.487 880.317 618.422 880.195 618.319 880.111C618.215 880.027 618.083 879.987 617.95 880C616.33 880.161 614.921 879.532 613.763 878.125C612.982 877.179 612.45 876.024 612.185 875.188C614.617 873.772 616.171 874.977 616.188 874.99C616.239 875.033 616.298 875.066 616.362 875.086C616.426 875.107 616.493 875.114 616.56 875.108C616.626 875.101 616.691 875.082 616.75 875.05C616.809 875.018 616.861 874.975 616.903 874.922C616.945 874.87 616.976 874.81 616.994 874.746C617.012 874.681 617.017 874.614 617.009 874.547C617 874.481 616.979 874.417 616.945 874.359C616.911 874.301 616.866 874.25 616.813 874.21C616.719 874.135 614.487 872.398 611.219 874.621C608.377 876.553 606.723 875.89 606.707 875.883C606.647 875.854 606.582 875.838 606.516 875.835C606.45 875.832 606.384 875.842 606.322 875.865C606.26 875.888 606.203 875.923 606.154 875.968C606.105 876.013 606.066 876.067 606.039 876.127C606.011 876.188 605.996 876.253 605.994 876.319C605.992 876.385 606.003 876.451 606.027 876.513C606.05 876.575 606.086 876.632 606.132 876.68C606.177 876.727 606.232 876.766 606.293 876.793H606.294Z" fill="#212121"/>
<rect x="599.5" y="864.5" width="23" height="23" transform="rotate(90 599.5 864.5)" stroke="#212121"/>
<line x1="600.5" y1="864" x2="600.5" y2="888" stroke="#212121"/>
<line x1="594.5" y1="864" x2="594.5" y2="888" stroke="#212121"/>
<line x1="588.5" y1="864" x2="588.5" y2="888" stroke="#212121"/>
<line x1="582.5" y1="864" x2="582.5" y2="888" stroke="#212121"/>
<line x1="576.5" y1="864" x2="576.5" y2="888" stroke="#212121"/>
<defs>
<filter id="filter0_d_1119_7966" x="308" y="260" width="2036" height="284" filterUnits="userSpaceOnUse" color-interpolation-filters="sRGB">
<feFlood flood-opacity="0" result="BackgroundImageFix"/>
<feColorMatrix in="SourceAlpha" type="matrix" values="0 0 0 0 0 0 0 0 0 0 0 0 0 0 0 0 0 0 127 0" result="hardAlpha"/>
<feOffset dx="8" dy="8"/>
<feGaussianBlur stdDeviation="2"/>
<feComposite in2="hardAlpha" operator="out"/>
<feColorMatrix type="matrix" values="0 0 0 0 0 0 0 0 0 0 0 0 0 0 0 0 0 0 0.4 0"/>
<feBlend mode="normal" in2="BackgroundImageFix" result="effect1_dropShadow_1119_7966"/>
<feBlend mode="normal" in="SourceGraphic" in2="effect1_dropShadow_1119_7966" result="shape"/>
</filter>
<filter id="filter1_d_1119_7966" x="308" y="668" width="2036" height="284" filterUnits="userSpaceOnUse" color-interpolation-filters="sRGB">
<feFlood flood-opacity="0" result="BackgroundImageFix"/>
<feColorMatrix in="SourceAlpha" type="matrix" values="0 0 0 0 0 0 0 0 0 0 0 0 0 0 0 0 0 0 127 0" result="hardAlpha"/>
<feOffset dx="8" dy="8"/>
<feGaussianBlur stdDeviation="2"/>
<feComposite in2="hardAlpha" operator="out"/>
<feColorMatrix type="matrix" values="0 0 0 0 0 0 0 0 0 0 0 0 0 0 0 0 0 0 0.4 0"/>
<feBlend mode="normal" in2="BackgroundImageFix" result="effect1_dropShadow_1119_7966"/>
<feBlend mode="normal" in="SourceGraphic" in2="effect1_dropShadow_1119_7966" result="shape"/>
</filter>
</defs>
</svg>
