<svg width="5760" height="1440" viewBox="0 0 5760 1440" fill="none" xmlns="http://www.w3.org/2000/svg">
<mask id="path-1-inside-1_1119_501" fill="white">
<path d="M1824 596H3936V892H1824V596Z"/>
</mask>
<path d="M1824 596H3936V892H1824V596Z" fill="#EEEEEE"/>
<path d="M1824 600H3936V592H1824V600ZM3936 888H1824V896H3936V888Z" fill="#474747" mask="url(#path-1-inside-1_1119_501)"/>
<g filter="url(#filter0_d_1119_501)">
<path d="M1824 648H3936V840H1824V648Z" fill="#D9D9D9"/>
<path d="M3938 646V842H1822V646H3938Z" stroke="#474747" stroke-width="4"/>
</g>
<rect x="1968.5" y="696.5" width="167" height="95" fill="#CCCCCC" stroke="black"/>
<rect x="3624.5" y="696.5" width="167" height="95" fill="#CCCCCC" stroke="black"/>
<rect x="2352.5" y="696.5" width="167" height="95" fill="#CCCCCC" stroke="black"/>
<rect x="2904.5" y="696.5" width="167" height="95" fill="#CCCCCC" stroke="black"/>
<rect x="3240.5" y="696.5" width="167" height="95" fill="#CCCCCC" stroke="black"/>
<rect width="24" height="4" transform="matrix(-1.31134e-07 1 1 1.31134e-07 2448 744)" fill="#242424"/>
<rect width="24" height="4" transform="matrix(-1.31134e-07 1 1 1.31134e-07 2454 744)" fill="#242424"/>
<rect width="24" height="4" transform="matrix(-1.31134e-07 1 1 1.31134e-07 2460 744)" fill="#242424"/>
<rect width="24" height="4" transform="matrix(-1.31134e-07 1 1 1.31134e-07 2466 744)" fill="#242424"/>
<rect width="24" height="4" transform="matrix(-1.31134e-07 1 1 1.31134e-07 2472 744)" fill="#242424"/>
<rect width="24" height="4" transform="matrix(-1.31134e-07 1 1 1.31134e-07 2478 744)" fill="#242424"/>
<rect width="24" height="4" transform="matrix(-1.31134e-07 1 1 1.31134e-07 2484 744)" fill="#242424"/>
<rect width="24" height="4" transform="matrix(-1.31134e-07 1 1 1.31134e-07 2490 744)" fill="#242424"/>
<rect x="2496" y="768" width="24" height="24" transform="rotate(-90 2496 768)" fill="#242424"/>
<rect width="24" height="4" transform="matrix(-1.31134e-07 1 1 1.31134e-07 2376 744)" fill="#242424"/>
<rect width="24" height="4" transform="matrix(-1.31134e-07 1 1 1.31134e-07 2382 744)" fill="#242424"/>
<rect width="24" height="4" transform="matrix(-1.31134e-07 1 1 1.31134e-07 2388 744)" fill="#242424"/>
<rect width="24" height="4" transform="matrix(-1.31134e-07 1 1 1.31134e-07 2394 744)" fill="#242424"/>
<rect width="24" height="4" transform="matrix(-1.31134e-07 1 1 1.31134e-07 2400 744)" fill="#242424"/>
<rect width="24" height="4" transform="matrix(-1.31134e-07 1 1 1.31134e-07 2406 744)" fill="#242424"/>
<rect width="24" height="4" transform="matrix(-1.31134e-07 1 1 1.31134e-07 2412 744)" fill="#242424"/>
<rect width="24" height="4" transform="matrix(-1.31134e-07 1 1 1.31134e-07 2418 744)" fill="#242424"/>
<rect x="2424" y="768" width="24" height="24" transform="rotate(-90 2424 768)" fill="#242424"/>
<rect x="2376" y="768" width="24" height="24" transform="rotate(-180 2376 768)" fill="#242424"/>
<rect width="24" height="4" transform="matrix(-1.31134e-07 1 1 1.31134e-07 3000 744)" fill="#242424"/>
<rect width="24" height="4" transform="matrix(-1.31134e-07 1 1 1.31134e-07 3006 744)" fill="#242424"/>
<rect width="24" height="4" transform="matrix(-1.31134e-07 1 1 1.31134e-07 3012 744)" fill="#242424"/>
<rect width="24" height="4" transform="matrix(-1.31134e-07 1 1 1.31134e-07 3018 744)" fill="#242424"/>
<rect width="24" height="4" transform="matrix(-1.31134e-07 1 1 1.31134e-07 3024 744)" fill="#242424"/>
<rect width="24" height="4" transform="matrix(-1.31134e-07 1 1 1.31134e-07 3030 744)" fill="#242424"/>
<rect width="24" height="4" transform="matrix(-1.31134e-07 1 1 1.31134e-07 3036 744)" fill="#242424"/>
<rect width="24" height="4" transform="matrix(-1.31134e-07 1 1 1.31134e-07 3042 744)" fill="#242424"/>
<rect x="3048" y="768" width="24" height="24" transform="rotate(-90 3048 768)" fill="#242424"/>
<rect width="24" height="4" transform="matrix(-1.31134e-07 1 1 1.31134e-07 2928 744)" fill="#242424"/>
<rect width="24" height="4" transform="matrix(-1.31134e-07 1 1 1.31134e-07 2934 744)" fill="#242424"/>
<rect width="24" height="4" transform="matrix(-1.31134e-07 1 1 1.31134e-07 2940 744)" fill="#242424"/>
<rect width="24" height="4" transform="matrix(-1.31134e-07 1 1 1.31134e-07 2946 744)" fill="#242424"/>
<rect width="24" height="4" transform="matrix(-1.31134e-07 1 1 1.31134e-07 2952 744)" fill="#242424"/>
<rect width="24" height="4" transform="matrix(-1.31134e-07 1 1 1.31134e-07 2958 744)" fill="#242424"/>
<rect width="24" height="4" transform="matrix(-1.31134e-07 1 1 1.31134e-07 2964 744)" fill="#242424"/>
<rect width="24" height="4" transform="matrix(-1.31134e-07 1 1 1.31134e-07 2970 744)" fill="#242424"/>
<rect x="2976" y="768" width="24" height="24" transform="rotate(-90 2976 768)" fill="#242424"/>
<rect x="2928" y="768" width="24" height="24" transform="rotate(-180 2928 768)" fill="#242424"/>
<rect width="24" height="4" transform="matrix(-1.31134e-07 1 1 1.31134e-07 3336 744)" fill="#242424"/>
<rect width="24" height="4" transform="matrix(-1.31134e-07 1 1 1.31134e-07 3342 744)" fill="#242424"/>
<rect width="24" height="4" transform="matrix(-1.31134e-07 1 1 1.31134e-07 3348 744)" fill="#242424"/>
<rect width="24" height="4" transform="matrix(-1.31134e-07 1 1 1.31134e-07 3354 744)" fill="#242424"/>
<rect width="24" height="4" transform="matrix(-1.31134e-07 1 1 1.31134e-07 3360 744)" fill="#242424"/>
<rect width="24" height="4" transform="matrix(-1.31134e-07 1 1 1.31134e-07 3366 744)" fill="#242424"/>
<rect width="24" height="4" transform="matrix(-1.31134e-07 1 1 1.31134e-07 3372 744)" fill="#242424"/>
<rect width="24" height="4" transform="matrix(-1.31134e-07 1 1 1.31134e-07 3378 744)" fill="#242424"/>
<rect x="3384" y="768" width="24" height="24" transform="rotate(-90 3384 768)" fill="#242424"/>
<rect width="24" height="4" transform="matrix(-1.31134e-07 1 1 1.31134e-07 3264 744)" fill="#242424"/>
<rect width="24" height="4" transform="matrix(-1.31134e-07 1 1 1.31134e-07 3270 744)" fill="#242424"/>
<rect width="24" height="4" transform="matrix(-1.31134e-07 1 1 1.31134e-07 3276 744)" fill="#242424"/>
<rect width="24" height="4" transform="matrix(-1.31134e-07 1 1 1.31134e-07 3282 744)" fill="#242424"/>
<rect width="24" height="4" transform="matrix(-1.31134e-07 1 1 1.31134e-07 3288 744)" fill="#242424"/>
<rect width="24" height="4" transform="matrix(-1.31134e-07 1 1 1.31134e-07 3294 744)" fill="#242424"/>
<rect width="24" height="4" transform="matrix(-1.31134e-07 1 1 1.31134e-07 3300 744)" fill="#242424"/>
<rect width="24" height="4" transform="matrix(-1.31134e-07 1 1 1.31134e-07 3306 744)" fill="#242424"/>
<rect x="3312" y="768" width="24" height="24" transform="rotate(-90 3312 768)" fill="#242424"/>
<rect x="3264" y="768" width="24" height="24" transform="rotate(-180 3264 768)" fill="#242424"/>
<rect width="24" height="4" transform="matrix(-1.31134e-07 1 1 1.31134e-07 2448 720)" fill="#242424"/>
<rect width="24" height="4" transform="matrix(-1.31134e-07 1 1 1.31134e-07 2454 720)" fill="#242424"/>
<rect width="24" height="4" transform="matrix(-1.31134e-07 1 1 1.31134e-07 2460 720)" fill="#242424"/>
<rect width="24" height="4" transform="matrix(-1.31134e-07 1 1 1.31134e-07 2466 720)" fill="#242424"/>
<rect width="24" height="4" transform="matrix(-1.31134e-07 1 1 1.31134e-07 2472 720)" fill="#242424"/>
<rect width="24" height="4" transform="matrix(-1.31134e-07 1 1 1.31134e-07 2478 720)" fill="#242424"/>
<rect width="24" height="4" transform="matrix(-1.31134e-07 1 1 1.31134e-07 2484 720)" fill="#242424"/>
<rect width="24" height="4" transform="matrix(-1.31134e-07 1 1 1.31134e-07 2490 720)" fill="#242424"/>
<rect x="2496" y="744" width="24" height="24" transform="rotate(-90 2496 744)" fill="#242424"/>
<rect width="24" height="4" transform="matrix(-1.31134e-07 1 1 1.31134e-07 2376 720)" fill="#242424"/>
<rect width="24" height="4" transform="matrix(-1.31134e-07 1 1 1.31134e-07 2382 720)" fill="#242424"/>
<rect width="24" height="4" transform="matrix(-1.31134e-07 1 1 1.31134e-07 2388 720)" fill="#242424"/>
<rect width="24" height="4" transform="matrix(-1.31134e-07 1 1 1.31134e-07 2394 720)" fill="#242424"/>
<rect width="24" height="4" transform="matrix(-1.31134e-07 1 1 1.31134e-07 2400 720)" fill="#242424"/>
<rect width="24" height="4" transform="matrix(-1.31134e-07 1 1 1.31134e-07 2406 720)" fill="#242424"/>
<rect width="24" height="4" transform="matrix(-1.31134e-07 1 1 1.31134e-07 2412 720)" fill="#242424"/>
<rect width="24" height="4" transform="matrix(-1.31134e-07 1 1 1.31134e-07 2418 720)" fill="#242424"/>
<rect x="2424" y="744" width="24" height="24" transform="rotate(-90 2424 744)" fill="#242424"/>
<rect x="2376" y="744" width="24" height="24" transform="rotate(-180 2376 744)" fill="#242424"/>
<rect width="24" height="4" transform="matrix(-1.31134e-07 1 1 1.31134e-07 3000 720)" fill="#242424"/>
<rect width="24" height="4" transform="matrix(-1.31134e-07 1 1 1.31134e-07 3006 720)" fill="#242424"/>
<rect width="24" height="4" transform="matrix(-1.31134e-07 1 1 1.31134e-07 3012 720)" fill="#242424"/>
<rect width="24" height="4" transform="matrix(-1.31134e-07 1 1 1.31134e-07 3018 720)" fill="#242424"/>
<rect width="24" height="4" transform="matrix(-1.31134e-07 1 1 1.31134e-07 3024 720)" fill="#242424"/>
<rect width="24" height="4" transform="matrix(-1.31134e-07 1 1 1.31134e-07 3030 720)" fill="#242424"/>
<rect width="24" height="4" transform="matrix(-1.31134e-07 1 1 1.31134e-07 3036 720)" fill="#242424"/>
<rect width="24" height="4" transform="matrix(-1.31134e-07 1 1 1.31134e-07 3042 720)" fill="#242424"/>
<rect x="3048" y="744" width="24" height="24" transform="rotate(-90 3048 744)" fill="#242424"/>
<rect width="24" height="4" transform="matrix(-1.31134e-07 1 1 1.31134e-07 2928 720)" fill="#242424"/>
<rect width="24" height="4" transform="matrix(-1.31134e-07 1 1 1.31134e-07 2934 720)" fill="#242424"/>
<rect width="24" height="4" transform="matrix(-1.31134e-07 1 1 1.31134e-07 2940 720)" fill="#242424"/>
<rect width="24" height="4" transform="matrix(-1.31134e-07 1 1 1.31134e-07 2946 720)" fill="#242424"/>
<rect width="24" height="4" transform="matrix(-1.31134e-07 1 1 1.31134e-07 2952 720)" fill="#242424"/>
<rect width="24" height="4" transform="matrix(-1.31134e-07 1 1 1.31134e-07 2958 720)" fill="#242424"/>
<rect width="24" height="4" transform="matrix(-1.31134e-07 1 1 1.31134e-07 2964 720)" fill="#242424"/>
<rect width="24" height="4" transform="matrix(-1.31134e-07 1 1 1.31134e-07 2970 720)" fill="#242424"/>
<rect x="2976" y="744" width="24" height="24" transform="rotate(-90 2976 744)" fill="#242424"/>
<rect x="2928" y="744" width="24" height="24" transform="rotate(-180 2928 744)" fill="#242424"/>
<rect width="24" height="4" transform="matrix(-1.31134e-07 1 1 1.31134e-07 3336 720)" fill="#242424"/>
<rect width="24" height="4" transform="matrix(-1.31134e-07 1 1 1.31134e-07 3342 720)" fill="#242424"/>
<rect width="24" height="4" transform="matrix(-1.31134e-07 1 1 1.31134e-07 3348 720)" fill="#242424"/>
<rect width="24" height="4" transform="matrix(-1.31134e-07 1 1 1.31134e-07 3354 720)" fill="#242424"/>
<rect width="24" height="4" transform="matrix(-1.31134e-07 1 1 1.31134e-07 3360 720)" fill="#242424"/>
<rect width="24" height="4" transform="matrix(-1.31134e-07 1 1 1.31134e-07 3366 720)" fill="#242424"/>
<rect width="24" height="4" transform="matrix(-1.31134e-07 1 1 1.31134e-07 3372 720)" fill="#242424"/>
<rect width="24" height="4" transform="matrix(-1.31134e-07 1 1 1.31134e-07 3378 720)" fill="#242424"/>
<rect x="3384" y="744" width="24" height="24" transform="rotate(-90 3384 744)" fill="#242424"/>
<rect width="24" height="4" transform="matrix(-1.31134e-07 1 1 1.31134e-07 3264 720)" fill="#242424"/>
<rect width="24" height="4" transform="matrix(-1.31134e-07 1 1 1.31134e-07 3270 720)" fill="#242424"/>
<rect width="24" height="4" transform="matrix(-1.31134e-07 1 1 1.31134e-07 3276 720)" fill="#242424"/>
<rect width="24" height="4" transform="matrix(-1.31134e-07 1 1 1.31134e-07 3282 720)" fill="#242424"/>
<rect width="24" height="4" transform="matrix(-1.31134e-07 1 1 1.31134e-07 3288 720)" fill="#242424"/>
<rect width="24" height="4" transform="matrix(-1.31134e-07 1 1 1.31134e-07 3294 720)" fill="#242424"/>
<rect width="24" height="4" transform="matrix(-1.31134e-07 1 1 1.31134e-07 3300 720)" fill="#242424"/>
<rect width="24" height="4" transform="matrix(-1.31134e-07 1 1 1.31134e-07 3306 720)" fill="#242424"/>
<rect x="3312" y="744" width="24" height="24" transform="rotate(-90 3312 744)" fill="#242424"/>
<rect x="3264" y="744" width="24" height="24" transform="rotate(-180 3264 744)" fill="#242424"/>
<rect x="2516" y="788" width="160" height="16" transform="rotate(-180 2516 788)" stroke="#242424" stroke-width="8"/>
<rect width="24" height="4" transform="matrix(-1.31134e-07 1 1 1.31134e-07 2448 768)" fill="#242424"/>
<rect width="24" height="4" transform="matrix(-1.31134e-07 1 1 1.31134e-07 2454 768)" fill="#242424"/>
<rect width="24" height="4" transform="matrix(-1.31134e-07 1 1 1.31134e-07 2460 768)" fill="#242424"/>
<rect width="24" height="4" transform="matrix(-1.31134e-07 1 1 1.31134e-07 2466 768)" fill="#242424"/>
<rect width="24" height="4" transform="matrix(-1.31134e-07 1 1 1.31134e-07 2472 768)" fill="#242424"/>
<rect width="24" height="4" transform="matrix(-1.31134e-07 1 1 1.31134e-07 2478 768)" fill="#242424"/>
<rect width="24" height="4" transform="matrix(-1.31134e-07 1 1 1.31134e-07 2484 768)" fill="#242424"/>
<rect width="24" height="4" transform="matrix(-1.31134e-07 1 1 1.31134e-07 2490 768)" fill="#242424"/>
<rect x="2496" y="792" width="24" height="24" transform="rotate(-90 2496 792)" fill="#242424"/>
<rect width="24" height="4" transform="matrix(-1.31134e-07 1 1 1.31134e-07 2376 768)" fill="#242424"/>
<rect width="24" height="4" transform="matrix(-1.31134e-07 1 1 1.31134e-07 2382 768)" fill="#242424"/>
<rect width="24" height="4" transform="matrix(-1.31134e-07 1 1 1.31134e-07 2388 768)" fill="#242424"/>
<rect width="24" height="4" transform="matrix(-1.31134e-07 1 1 1.31134e-07 2394 768)" fill="#242424"/>
<rect width="24" height="4" transform="matrix(-1.31134e-07 1 1 1.31134e-07 2400 768)" fill="#242424"/>
<rect width="24" height="4" transform="matrix(-1.31134e-07 1 1 1.31134e-07 2406 768)" fill="#242424"/>
<rect width="24" height="4" transform="matrix(-1.31134e-07 1 1 1.31134e-07 2412 768)" fill="#242424"/>
<rect width="24" height="4" transform="matrix(-1.31134e-07 1 1 1.31134e-07 2418 768)" fill="#242424"/>
<rect x="2424" y="792" width="24" height="24" transform="rotate(-90 2424 792)" fill="#242424"/>
<rect x="2376" y="792" width="24" height="24" transform="rotate(-180 2376 792)" fill="#242424"/>
<rect x="3068" y="788" width="160" height="16" transform="rotate(-180 3068 788)" stroke="#242424" stroke-width="8"/>
<rect width="24" height="4" transform="matrix(-1.31134e-07 1 1 1.31134e-07 3000 768)" fill="#242424"/>
<rect width="24" height="4" transform="matrix(-1.31134e-07 1 1 1.31134e-07 3006 768)" fill="#242424"/>
<rect width="24" height="4" transform="matrix(-1.31134e-07 1 1 1.31134e-07 3012 768)" fill="#242424"/>
<rect width="24" height="4" transform="matrix(-1.31134e-07 1 1 1.31134e-07 3018 768)" fill="#242424"/>
<rect width="24" height="4" transform="matrix(-1.31134e-07 1 1 1.31134e-07 3024 768)" fill="#242424"/>
<rect width="24" height="4" transform="matrix(-1.31134e-07 1 1 1.31134e-07 3030 768)" fill="#242424"/>
<rect width="24" height="4" transform="matrix(-1.31134e-07 1 1 1.31134e-07 3036 768)" fill="#242424"/>
<rect width="24" height="4" transform="matrix(-1.31134e-07 1 1 1.31134e-07 3042 768)" fill="#242424"/>
<rect x="3048" y="792" width="24" height="24" transform="rotate(-90 3048 792)" fill="#242424"/>
<rect width="24" height="4" transform="matrix(-1.31134e-07 1 1 1.31134e-07 2928 768)" fill="#242424"/>
<rect width="24" height="4" transform="matrix(-1.31134e-07 1 1 1.31134e-07 2934 768)" fill="#242424"/>
<rect width="24" height="4" transform="matrix(-1.31134e-07 1 1 1.31134e-07 2940 768)" fill="#242424"/>
<rect width="24" height="4" transform="matrix(-1.31134e-07 1 1 1.31134e-07 2946 768)" fill="#242424"/>
<rect width="24" height="4" transform="matrix(-1.31134e-07 1 1 1.31134e-07 2952 768)" fill="#242424"/>
<rect width="24" height="4" transform="matrix(-1.31134e-07 1 1 1.31134e-07 2958 768)" fill="#242424"/>
<rect width="24" height="4" transform="matrix(-1.31134e-07 1 1 1.31134e-07 2964 768)" fill="#242424"/>
<rect width="24" height="4" transform="matrix(-1.31134e-07 1 1 1.31134e-07 2970 768)" fill="#242424"/>
<rect x="2976" y="792" width="24" height="24" transform="rotate(-90 2976 792)" fill="#242424"/>
<rect x="2928" y="792" width="24" height="24" transform="rotate(-180 2928 792)" fill="#242424"/>
<rect x="3404" y="788" width="160" height="16" transform="rotate(-180 3404 788)" stroke="#242424" stroke-width="8"/>
<rect width="24" height="4" transform="matrix(-1.31134e-07 1 1 1.31134e-07 3336 768)" fill="#242424"/>
<rect width="24" height="4" transform="matrix(-1.31134e-07 1 1 1.31134e-07 3342 768)" fill="#242424"/>
<rect width="24" height="4" transform="matrix(-1.31134e-07 1 1 1.31134e-07 3348 768)" fill="#242424"/>
<rect width="24" height="4" transform="matrix(-1.31134e-07 1 1 1.31134e-07 3354 768)" fill="#242424"/>
<rect width="24" height="4" transform="matrix(-1.31134e-07 1 1 1.31134e-07 3360 768)" fill="#242424"/>
<rect width="24" height="4" transform="matrix(-1.31134e-07 1 1 1.31134e-07 3366 768)" fill="#242424"/>
<rect width="24" height="4" transform="matrix(-1.31134e-07 1 1 1.31134e-07 3372 768)" fill="#242424"/>
<rect width="24" height="4" transform="matrix(-1.31134e-07 1 1 1.31134e-07 3378 768)" fill="#242424"/>
<rect x="3384" y="792" width="24" height="24" transform="rotate(-90 3384 792)" fill="#242424"/>
<rect width="24" height="4" transform="matrix(-1.31134e-07 1 1 1.31134e-07 3264 768)" fill="#242424"/>
<rect width="24" height="4" transform="matrix(-1.31134e-07 1 1 1.31134e-07 3270 768)" fill="#242424"/>
<rect width="24" height="4" transform="matrix(-1.31134e-07 1 1 1.31134e-07 3276 768)" fill="#242424"/>
<rect width="24" height="4" transform="matrix(-1.31134e-07 1 1 1.31134e-07 3282 768)" fill="#242424"/>
<rect width="24" height="4" transform="matrix(-1.31134e-07 1 1 1.31134e-07 3288 768)" fill="#242424"/>
<rect width="24" height="4" transform="matrix(-1.31134e-07 1 1 1.31134e-07 3294 768)" fill="#242424"/>
<rect width="24" height="4" transform="matrix(-1.31134e-07 1 1 1.31134e-07 3300 768)" fill="#242424"/>
<rect width="24" height="4" transform="matrix(-1.31134e-07 1 1 1.31134e-07 3306 768)" fill="#242424"/>
<rect x="3312" y="792" width="24" height="24" transform="rotate(-90 3312 792)" fill="#242424"/>
<rect x="3264" y="792" width="24" height="24" transform="rotate(-180 3264 792)" fill="#242424"/>
<rect x="2352" y="716" width="168" height="4" fill="#242424"/>
<rect x="2904" y="716" width="168" height="4" fill="#242424"/>
<rect x="3240" y="716" width="168" height="4" fill="#242424"/>
<rect x="1944.5" y="696.5" width="23" height="23" stroke="#242424"/>
<path d="M1954.5 705.5C1954.1 705.5 1953.72 705.383 1953.39 705.163C1953.06 704.943 1952.8 704.631 1952.65 704.265C1952.5 703.9 1952.46 703.498 1952.54 703.11C1952.62 702.722 1952.81 702.365 1953.09 702.086C1953.37 701.806 1953.72 701.616 1954.11 701.538C1954.5 701.461 1954.9 701.501 1955.27 701.652C1955.63 701.804 1955.94 702.06 1956.16 702.389C1956.38 702.718 1956.5 703.104 1956.5 703.5C1956.5 704.03 1956.29 704.539 1955.91 704.914C1955.54 705.289 1955.03 705.5 1954.5 705.5ZM1954.5 702.5C1954.3 702.5 1954.11 702.559 1953.94 702.669C1953.78 702.778 1953.65 702.935 1953.58 703.117C1953.5 703.3 1953.48 703.501 1953.52 703.695C1953.56 703.889 1953.65 704.067 1953.79 704.207C1953.93 704.347 1954.11 704.442 1954.31 704.481C1954.5 704.519 1954.7 704.5 1954.88 704.424C1955.07 704.348 1955.22 704.22 1955.33 704.056C1955.44 703.891 1955.5 703.698 1955.5 703.5C1955.5 703.235 1955.4 702.98 1955.21 702.793C1955.02 702.605 1954.77 702.5 1954.5 702.5ZM1950.29 708.793C1950.33 708.81 1950.76 708.998 1951.52 708.998C1952.39 708.998 1953.68 708.755 1955.32 707.748C1955.56 708.453 1955.89 709.131 1956.28 709.769C1955.58 709.985 1954.91 710.319 1954.32 710.757C1953.13 711.666 1952.5 712.959 1952.5 714.5C1952.5 714.633 1952.55 714.76 1952.65 714.854C1952.74 714.947 1952.87 715 1953 715C1953.13 715 1953.26 714.947 1953.35 714.854C1953.45 714.76 1953.5 714.633 1953.5 714.5C1953.5 711.894 1955.67 710.956 1956.88 710.634C1956.92 710.678 1956.95 710.723 1956.99 710.766C1958.22 712.253 1959.76 713.027 1961.47 713.027C1961.66 713.028 1961.86 713.019 1962.05 713C1962.18 712.987 1962.3 712.921 1962.39 712.818C1962.47 712.715 1962.51 712.583 1962.5 712.45C1962.49 712.317 1962.42 712.195 1962.32 712.111C1962.22 712.027 1962.08 711.987 1961.95 712C1960.33 712.161 1958.92 711.532 1957.76 710.125C1956.98 709.179 1956.45 708.024 1956.18 707.188C1958.62 705.772 1960.17 706.977 1960.19 706.99C1960.24 707.033 1960.3 707.066 1960.36 707.086C1960.43 707.107 1960.49 707.114 1960.56 707.108C1960.63 707.101 1960.69 707.082 1960.75 707.05C1960.81 707.018 1960.86 706.975 1960.9 706.922C1960.94 706.87 1960.98 706.81 1960.99 706.746C1961.01 706.681 1961.02 706.614 1961.01 706.547C1961 706.481 1960.98 706.417 1960.95 706.359C1960.91 706.301 1960.87 706.25 1960.81 706.21C1960.72 706.135 1958.49 704.398 1955.22 706.621C1952.38 708.553 1950.72 707.89 1950.71 707.883C1950.65 707.854 1950.58 707.838 1950.52 707.835C1950.45 707.832 1950.38 707.842 1950.32 707.865C1950.26 707.888 1950.2 707.923 1950.15 707.968C1950.11 708.013 1950.07 708.067 1950.04 708.127C1950.01 708.188 1950 708.253 1949.99 708.319C1949.99 708.385 1950 708.451 1950.03 708.513C1950.05 708.575 1950.09 708.632 1950.13 708.68C1950.18 708.727 1950.23 708.766 1950.29 708.793H1950.29Z" fill="#242424"/>
<rect x="1944.5" y="720.5" width="23" height="23" stroke="#242424"/>
<line x1="1944" y1="719.5" x2="1968" y2="719.5" stroke="#242424"/>
<line x1="1944" y1="725.5" x2="1968" y2="725.5" stroke="#242424"/>
<line x1="1944" y1="731.5" x2="1968" y2="731.5" stroke="#242424"/>
<line x1="1944" y1="737.5" x2="1968" y2="737.5" stroke="#242424"/>
<line x1="1944" y1="743.5" x2="1968" y2="743.5" stroke="#242424"/>
<rect x="1944.5" y="744.5" width="23" height="23" stroke="#242424"/>
<line x1="1944" y1="743.5" x2="1968" y2="743.5" stroke="#242424"/>
<line x1="1944" y1="749.5" x2="1968" y2="749.5" stroke="#242424"/>
<line x1="1944" y1="755.5" x2="1968" y2="755.5" stroke="#242424"/>
<line x1="1944" y1="761.5" x2="1968" y2="761.5" stroke="#242424"/>
<line x1="1944" y1="767.5" x2="1968" y2="767.5" stroke="#242424"/>
<rect x="1944.5" y="768.5" width="23" height="23" stroke="#242424"/>
<rect x="3816.5" y="696.5" width="23" height="23" stroke="#242424"/>
<path d="M3826.5 705.5C3826.1 705.5 3825.72 705.383 3825.39 705.163C3825.06 704.943 3824.8 704.631 3824.65 704.265C3824.5 703.9 3824.46 703.498 3824.54 703.11C3824.62 702.722 3824.81 702.365 3825.09 702.086C3825.37 701.806 3825.72 701.616 3826.11 701.538C3826.5 701.461 3826.9 701.501 3827.27 701.652C3827.63 701.804 3827.94 702.06 3828.16 702.389C3828.38 702.718 3828.5 703.104 3828.5 703.5C3828.5 704.03 3828.29 704.539 3827.91 704.914C3827.54 705.289 3827.03 705.5 3826.5 705.5ZM3826.5 702.5C3826.3 702.5 3826.11 702.559 3825.94 702.669C3825.78 702.778 3825.65 702.935 3825.58 703.117C3825.5 703.3 3825.48 703.501 3825.52 703.695C3825.56 703.889 3825.65 704.067 3825.79 704.207C3825.93 704.347 3826.11 704.442 3826.31 704.481C3826.5 704.519 3826.7 704.5 3826.88 704.424C3827.07 704.348 3827.22 704.22 3827.33 704.056C3827.44 703.891 3827.5 703.698 3827.5 703.5C3827.5 703.235 3827.4 702.98 3827.21 702.793C3827.02 702.605 3826.77 702.5 3826.5 702.5ZM3822.29 708.793C3822.33 708.81 3822.76 708.998 3823.52 708.998C3824.39 708.998 3825.68 708.755 3827.32 707.748C3827.56 708.453 3827.89 709.131 3828.28 709.769C3827.58 709.985 3826.91 710.319 3826.32 710.757C3825.13 711.666 3824.5 712.959 3824.5 714.5C3824.5 714.633 3824.55 714.76 3824.65 714.854C3824.74 714.947 3824.87 715 3825 715C3825.13 715 3825.26 714.947 3825.35 714.854C3825.45 714.76 3825.5 714.633 3825.5 714.5C3825.5 711.894 3827.67 710.956 3828.88 710.634C3828.92 710.678 3828.95 710.723 3828.99 710.766C3830.22 712.253 3831.76 713.027 3833.47 713.027C3833.66 713.028 3833.86 713.019 3834.05 713C3834.18 712.987 3834.3 712.921 3834.39 712.818C3834.47 712.715 3834.51 712.583 3834.5 712.45C3834.49 712.317 3834.42 712.195 3834.32 712.111C3834.22 712.027 3834.08 711.987 3833.95 712C3832.33 712.161 3830.92 711.532 3829.76 710.125C3828.98 709.179 3828.45 708.024 3828.18 707.188C3830.62 705.772 3832.17 706.977 3832.19 706.99C3832.24 707.033 3832.3 707.066 3832.36 707.086C3832.43 707.107 3832.49 707.114 3832.56 707.108C3832.63 707.101 3832.69 707.082 3832.75 707.05C3832.81 707.018 3832.86 706.975 3832.9 706.922C3832.94 706.87 3832.98 706.81 3832.99 706.746C3833.01 706.681 3833.02 706.614 3833.01 706.547C3833 706.481 3832.98 706.417 3832.95 706.359C3832.91 706.301 3832.87 706.25 3832.81 706.21C3832.72 706.135 3830.49 704.398 3827.22 706.621C3824.38 708.553 3822.72 707.89 3822.71 707.883C3822.65 707.854 3822.58 707.838 3822.52 707.835C3822.45 707.832 3822.38 707.842 3822.32 707.865C3822.26 707.888 3822.2 707.923 3822.15 707.968C3822.11 708.013 3822.07 708.067 3822.04 708.127C3822.01 708.188 3822 708.253 3821.99 708.319C3821.99 708.385 3822 708.451 3822.03 708.513C3822.05 708.575 3822.09 708.632 3822.13 708.68C3822.18 708.727 3822.23 708.766 3822.29 708.793H3822.29Z" fill="#242424"/>
<rect x="3816.5" y="720.5" width="23" height="23" stroke="#242424"/>
<line x1="3816" y1="719.5" x2="3840" y2="719.5" stroke="#242424"/>
<line x1="3816" y1="725.5" x2="3840" y2="725.5" stroke="#242424"/>
<line x1="3816" y1="731.5" x2="3840" y2="731.5" stroke="#242424"/>
<line x1="3816" y1="737.5" x2="3840" y2="737.5" stroke="#242424"/>
<line x1="3816" y1="743.5" x2="3840" y2="743.5" stroke="#242424"/>
<rect x="3816.5" y="744.5" width="23" height="23" stroke="#242424"/>
<line x1="3816" y1="743.5" x2="3840" y2="743.5" stroke="#242424"/>
<line x1="3816" y1="749.5" x2="3840" y2="749.5" stroke="#242424"/>
<line x1="3816" y1="755.5" x2="3840" y2="755.5" stroke="#242424"/>
<line x1="3816" y1="761.5" x2="3840" y2="761.5" stroke="#242424"/>
<line x1="3816" y1="767.5" x2="3840" y2="767.5" stroke="#242424"/>
<rect x="3816.5" y="768.5" width="23" height="23" stroke="#242424"/>
<rect x="1920.5" y="696.5" width="23" height="23" stroke="#242424"/>
<rect x="1920.5" y="720.5" width="23" height="23" stroke="#242424"/>
<line x1="1920" y1="719.5" x2="1944" y2="719.5" stroke="#242424"/>
<line x1="1920" y1="725.5" x2="1944" y2="725.5" stroke="#242424"/>
<line x1="1920" y1="731.5" x2="1944" y2="731.5" stroke="#242424"/>
<line x1="1920" y1="737.5" x2="1944" y2="737.5" stroke="#242424"/>
<line x1="1920" y1="743.5" x2="1944" y2="743.5" stroke="#242424"/>
<rect x="1920.5" y="744.5" width="23" height="23" stroke="#242424"/>
<line x1="1920" y1="743.5" x2="1944" y2="743.5" stroke="#242424"/>
<line x1="1920" y1="749.5" x2="1944" y2="749.5" stroke="#242424"/>
<line x1="1920" y1="755.5" x2="1944" y2="755.5" stroke="#242424"/>
<line x1="1920" y1="761.5" x2="1944" y2="761.5" stroke="#242424"/>
<line x1="1920" y1="767.5" x2="1944" y2="767.5" stroke="#242424"/>
<rect x="1920.5" y="768.5" width="23" height="23" stroke="#242424"/>
<path d="M1937.64 775.022L1933.85 773.884L1935.73 772.947C1935.84 772.887 1935.93 772.783 1935.98 772.657C1936.02 772.531 1936.01 772.393 1935.95 772.275C1935.89 772.157 1935.78 772.067 1935.66 772.025C1935.53 771.984 1935.39 771.994 1935.28 772.053L1932.38 773.503C1931.07 773.537 1929.83 774.079 1928.92 775.013C1928.01 775.947 1927.5 777.199 1927.5 778.503V785C1927.5 785.133 1927.55 785.26 1927.65 785.354C1927.74 785.448 1927.87 785.5 1928 785.5C1928.13 785.5 1928.26 785.448 1928.35 785.354C1928.45 785.26 1928.5 785.133 1928.5 785V783H1929.5V786.5C1929.5 786.766 1929.61 787.02 1929.79 787.207C1929.98 787.395 1930.23 787.5 1930.5 787.5H1934.5C1934.77 787.5 1935.02 787.395 1935.21 787.207C1935.39 787.02 1935.5 786.766 1935.5 786.5V778.5C1935.5 777.792 1935.25 777.106 1934.79 776.565C1934.33 776.024 1933.7 775.662 1933 775.543V774.672L1937.36 775.979C1937.42 776 1937.49 776.008 1937.55 776.002C1937.62 775.996 1937.68 775.978 1937.74 775.947C1937.8 775.916 1937.85 775.873 1937.9 775.822C1937.94 775.771 1937.97 775.711 1937.99 775.647C1938.01 775.584 1938.02 775.517 1938.01 775.45C1938 775.384 1937.98 775.32 1937.95 775.262C1937.92 775.203 1937.87 775.152 1937.82 775.111C1937.77 775.07 1937.71 775.039 1937.64 775.022ZM1928.5 782V778.5C1928.5 777.527 1928.86 776.587 1929.5 775.856C1930.15 775.126 1931.03 774.656 1932 774.533V775.543C1931.3 775.662 1930.67 776.024 1930.21 776.565C1929.75 777.106 1929.5 777.792 1929.5 778.5V782H1928.5ZM1934.5 786.5H1930.5V783H1934.5V786.5ZM1934.5 778.5V782H1930.5V778.5C1930.5 777.97 1930.71 777.461 1931.09 777.086C1931.46 776.711 1931.97 776.5 1932.5 776.5C1933.03 776.5 1933.54 776.711 1933.91 777.086C1934.29 777.461 1934.5 777.97 1934.5 778.5Z" fill="black"/>
<rect x="3792.5" y="696.5" width="23" height="23" stroke="#242424"/>
<rect x="3792.5" y="720.5" width="23" height="23" stroke="#242424"/>
<line x1="3792" y1="719.5" x2="3816" y2="719.5" stroke="#242424"/>
<line x1="3792" y1="725.5" x2="3816" y2="725.5" stroke="#242424"/>
<line x1="3792" y1="731.5" x2="3816" y2="731.5" stroke="#242424"/>
<line x1="3792" y1="737.5" x2="3816" y2="737.5" stroke="#242424"/>
<line x1="3792" y1="743.5" x2="3816" y2="743.5" stroke="#242424"/>
<rect x="3792.5" y="744.5" width="23" height="23" stroke="#242424"/>
<line x1="3792" y1="743.5" x2="3816" y2="743.5" stroke="#242424"/>
<line x1="3792" y1="749.5" x2="3816" y2="749.5" stroke="#242424"/>
<line x1="3792" y1="755.5" x2="3816" y2="755.5" stroke="#242424"/>
<line x1="3792" y1="761.5" x2="3816" y2="761.5" stroke="#242424"/>
<line x1="3792" y1="767.5" x2="3816" y2="767.5" stroke="#242424"/>
<rect x="3792.5" y="768.5" width="23" height="23" stroke="#242424"/>
<path d="M3809.64 775.022L3805.85 773.884L3807.73 772.947C3807.84 772.887 3807.93 772.783 3807.98 772.657C3808.02 772.531 3808.01 772.393 3807.95 772.275C3807.89 772.157 3807.78 772.067 3807.66 772.025C3807.53 771.984 3807.39 771.994 3807.28 772.053L3804.38 773.503C3803.07 773.537 3801.83 774.079 3800.92 775.013C3800.01 775.947 3799.5 777.199 3799.5 778.503V785C3799.5 785.133 3799.55 785.26 3799.65 785.354C3799.74 785.448 3799.87 785.5 3800 785.5C3800.13 785.5 3800.26 785.448 3800.35 785.354C3800.45 785.26 3800.5 785.133 3800.5 785V783H3801.5V786.5C3801.5 786.766 3801.61 787.02 3801.79 787.207C3801.98 787.395 3802.23 787.5 3802.5 787.5H3806.5C3806.77 787.5 3807.02 787.395 3807.21 787.207C3807.39 787.02 3807.5 786.766 3807.5 786.5V778.5C3807.5 777.792 3807.25 777.106 3806.79 776.565C3806.33 776.024 3805.7 775.662 3805 775.543V774.672L3809.36 775.979C3809.42 776 3809.49 776.008 3809.55 776.002C3809.62 775.996 3809.68 775.978 3809.74 775.947C3809.8 775.916 3809.85 775.873 3809.9 775.822C3809.94 775.771 3809.97 775.711 3809.99 775.647C3810.01 775.584 3810.02 775.517 3810.01 775.45C3810 775.384 3809.98 775.32 3809.95 775.262C3809.92 775.203 3809.87 775.152 3809.82 775.111C3809.77 775.07 3809.71 775.039 3809.64 775.022ZM3800.5 782V778.5C3800.5 777.527 3800.86 776.587 3801.5 775.856C3802.15 775.126 3803.03 774.656 3804 774.533V775.543C3803.3 775.662 3802.67 776.024 3802.21 776.565C3801.75 777.106 3801.5 777.792 3801.5 778.5V782H3800.5ZM3806.5 786.5H3802.5V783H3806.5V786.5ZM3806.5 778.5V782H3802.5V778.5C3802.5 777.97 3802.71 777.461 3803.09 777.086C3803.46 776.711 3803.97 776.5 3804.5 776.5C3805.03 776.5 3805.54 776.711 3805.91 777.086C3806.29 777.461 3806.5 777.97 3806.5 778.5Z" fill="black"/>
<rect width="48" height="48" transform="translate(2784 720)" fill="#242424"/>
<path d="M2815.97 748.849C2815.95 748.776 2815.91 748.707 2815.86 748.648C2815.8 748.59 2815.74 748.542 2815.67 748.507C2815.6 748.472 2815.53 748.451 2815.45 748.446C2815.37 748.44 2815.29 748.45 2815.22 748.475L2813.93 748.905L2811.79 744.623C2811.74 744.525 2811.66 744.442 2811.57 744.384C2811.48 744.326 2811.37 744.296 2811.26 744.296L2805.33 744.296L2805.33 742.518L2809.48 742.518C2809.64 742.518 2809.79 742.455 2809.9 742.344C2810.01 742.233 2810.07 742.082 2810.07 741.925C2810.07 741.768 2810.01 741.617 2809.9 741.506C2809.79 741.395 2809.64 741.333 2809.48 741.333L2805.33 741.333L2805.33 740.666C2805.89 740.522 2806.38 740.179 2806.7 739.701C2807.02 739.223 2807.16 738.644 2807.09 738.072C2807.02 737.499 2806.74 736.973 2806.31 736.592C2805.87 736.21 2805.32 736 2804.74 736C2804.16 736 2803.6 736.21 2803.17 736.592C2802.74 736.973 2802.46 737.499 2802.39 738.072C2802.31 738.644 2802.45 739.223 2802.78 739.701C2803.1 740.179 2803.59 740.522 2804.15 740.666L2804.15 741.467C2802.87 741.759 2801.74 742.511 2800.98 743.58C2800.23 744.649 2799.89 745.96 2800.03 747.263C2800.18 748.565 2800.8 749.768 2801.78 750.642C2802.76 751.516 2804.02 751.999 2805.33 752C2807.81 752 2810.05 750.318 2810.65 748C2810.67 747.924 2810.67 747.846 2810.66 747.769C2810.65 747.692 2810.62 747.617 2810.58 747.55C2810.54 747.483 2810.49 747.425 2810.43 747.378C2810.37 747.331 2810.3 747.297 2810.22 747.277C2810.15 747.258 2810.07 747.254 2809.99 747.264C2809.91 747.275 2809.84 747.301 2809.77 747.341C2809.7 747.38 2809.65 747.433 2809.6 747.495C2809.55 747.557 2809.52 747.628 2809.5 747.703C2809.04 749.481 2807.25 750.815 2805.33 750.815C2804.33 750.814 2803.37 750.456 2802.62 749.804C2801.86 749.152 2801.37 748.251 2801.23 747.265C2801.08 746.279 2801.3 745.275 2801.83 744.435C2802.37 743.595 2803.19 742.976 2804.15 742.691L2804.15 744.888C2804.15 745.046 2804.21 745.196 2804.32 745.307C2804.43 745.419 2804.58 745.481 2804.74 745.481L2810.89 745.481L2813.1 749.895C2813.16 750.022 2813.27 750.122 2813.4 750.177C2813.53 750.231 2813.68 750.236 2813.82 750.191L2815.59 749.598C2815.74 749.549 2815.87 749.442 2815.94 749.301C2816.01 749.161 2816.02 748.998 2815.97 748.849ZM2803.55 738.369C2803.55 738.135 2803.62 737.906 2803.75 737.711C2803.88 737.516 2804.07 737.364 2804.28 737.274C2804.5 737.185 2804.74 737.161 2804.97 737.207C2805.2 737.253 2805.41 737.365 2805.58 737.531C2805.74 737.697 2805.86 737.908 2805.9 738.138C2805.95 738.368 2805.92 738.606 2805.83 738.823C2805.74 739.04 2805.59 739.225 2805.4 739.355C2805.2 739.485 2804.97 739.555 2804.74 739.555C2804.42 739.555 2804.12 739.43 2803.9 739.207C2803.68 738.985 2803.55 738.684 2803.55 738.369Z" fill="white"/>
<defs>
<filter id="filter0_d_1119_501" x="1820" y="644" width="2132" height="212" filterUnits="userSpaceOnUse" color-interpolation-filters="sRGB">
<feFlood flood-opacity="0" result="BackgroundImageFix"/>
<feColorMatrix in="SourceAlpha" type="matrix" values="0 0 0 0 0 0 0 0 0 0 0 0 0 0 0 0 0 0 127 0" result="hardAlpha"/>
<feOffset dx="8" dy="8"/>
<feGaussianBlur stdDeviation="2"/>
<feComposite in2="hardAlpha" operator="out"/>
<feColorMatrix type="matrix" values="0 0 0 0 0 0 0 0 0 0 0 0 0 0 0 0 0 0 0.4 0"/>
<feBlend mode="normal" in2="BackgroundImageFix" result="effect1_dropShadow_1119_501"/>
<feBlend mode="normal" in="SourceGraphic" in2="effect1_dropShadow_1119_501" result="shape"/>
</filter>
</defs>
</svg>
