<svg width="2880" height="1440" viewBox="0 0 2880 1440" fill="none" xmlns="http://www.w3.org/2000/svg">
<rect width="133" height="48" transform="translate(1374 1152)" fill="#242424"/>
<path d="M1383.5 1181V1170.82H1387.06C1387.77 1170.82 1388.35 1170.94 1388.81 1171.19C1389.27 1171.43 1389.62 1171.75 1389.84 1172.17C1390.07 1172.57 1390.18 1173.03 1390.18 1173.52C1390.18 1173.96 1390.1 1174.32 1389.95 1174.61C1389.79 1174.89 1389.59 1175.12 1389.34 1175.28C1389.09 1175.45 1388.82 1175.57 1388.53 1175.65V1175.75C1388.84 1175.77 1389.15 1175.88 1389.47 1176.08C1389.78 1176.28 1390.05 1176.56 1390.26 1176.93C1390.47 1177.3 1390.58 1177.76 1390.58 1178.3C1390.58 1178.81 1390.46 1179.26 1390.23 1179.67C1390 1180.08 1389.63 1180.4 1389.13 1180.64C1388.63 1180.88 1387.98 1181 1387.18 1181H1383.5ZM1384.73 1179.91H1387.18C1387.98 1179.91 1388.55 1179.75 1388.89 1179.44C1389.23 1179.12 1389.4 1178.74 1389.4 1178.3C1389.4 1177.95 1389.32 1177.63 1389.14 1177.34C1388.96 1177.05 1388.71 1176.81 1388.39 1176.63C1388.06 1176.46 1387.68 1176.37 1387.24 1176.37H1384.73V1179.91ZM1384.73 1175.29H1387.02C1387.39 1175.29 1387.72 1175.22 1388.02 1175.07C1388.32 1174.93 1388.56 1174.72 1388.74 1174.46C1388.92 1174.19 1389.01 1173.88 1389.01 1173.52C1389.01 1173.08 1388.85 1172.7 1388.54 1172.38C1388.23 1172.07 1387.73 1171.91 1387.06 1171.91H1384.73V1175.29ZM1394.69 1181.18C1394.21 1181.18 1393.77 1181.09 1393.37 1180.91C1392.98 1180.72 1392.67 1180.45 1392.43 1180.11C1392.2 1179.75 1392.09 1179.33 1392.09 1178.83C1392.09 1178.39 1392.17 1178.04 1392.34 1177.77C1392.52 1177.49 1392.75 1177.28 1393.04 1177.12C1393.32 1176.97 1393.64 1176.85 1393.99 1176.77C1394.34 1176.69 1394.69 1176.63 1395.05 1176.59C1395.51 1176.53 1395.89 1176.48 1396.18 1176.45C1396.47 1176.42 1396.68 1176.36 1396.81 1176.29C1396.95 1176.21 1397.02 1176.08 1397.02 1175.89V1175.85C1397.02 1175.36 1396.88 1174.98 1396.62 1174.71C1396.35 1174.43 1395.95 1174.3 1395.41 1174.3C1394.85 1174.3 1394.41 1174.42 1394.09 1174.67C1393.77 1174.91 1393.55 1175.17 1393.42 1175.45L1392.3 1175.05C1392.5 1174.59 1392.77 1174.23 1393.1 1173.97C1393.43 1173.71 1393.8 1173.53 1394.19 1173.42C1394.59 1173.32 1394.98 1173.26 1395.37 1173.26C1395.61 1173.26 1395.89 1173.29 1396.21 1173.35C1396.53 1173.41 1396.84 1173.53 1397.14 1173.71C1397.44 1173.89 1397.69 1174.16 1397.89 1174.52C1398.09 1174.88 1398.19 1175.36 1398.19 1175.97V1181H1397.02V1179.97H1396.96C1396.88 1180.13 1396.75 1180.31 1396.56 1180.5C1396.37 1180.69 1396.13 1180.85 1395.82 1180.98C1395.51 1181.11 1395.14 1181.18 1394.69 1181.18ZM1394.87 1180.12C1395.33 1180.12 1395.73 1180.03 1396.04 1179.85C1396.36 1179.67 1396.61 1179.43 1396.77 1179.15C1396.93 1178.86 1397.02 1178.55 1397.02 1178.24V1177.16C1396.97 1177.22 1396.86 1177.28 1396.69 1177.33C1396.52 1177.37 1396.33 1177.41 1396.11 1177.45C1395.9 1177.48 1395.69 1177.51 1395.48 1177.54C1395.28 1177.56 1395.12 1177.58 1394.99 1177.6C1394.68 1177.64 1394.4 1177.7 1394.13 1177.79C1393.87 1177.88 1393.66 1178.01 1393.5 1178.19C1393.34 1178.36 1393.26 1178.59 1393.26 1178.89C1393.26 1179.3 1393.41 1179.61 1393.71 1179.82C1394.02 1180.02 1394.4 1180.12 1394.87 1180.12ZM1400.81 1183.86C1400.62 1183.86 1400.44 1183.85 1400.28 1183.81C1400.13 1183.78 1400.02 1183.75 1399.96 1183.72L1400.26 1182.69C1400.54 1182.76 1400.8 1182.79 1401.01 1182.77C1401.23 1182.75 1401.43 1182.65 1401.6 1182.48C1401.77 1182.3 1401.93 1182.02 1402.07 1181.64L1402.29 1181.04L1399.46 1173.36H1400.74L1402.84 1179.45H1402.92L1405.03 1173.36H1406.3L1403.06 1182.11C1402.92 1182.51 1402.74 1182.83 1402.52 1183.09C1402.3 1183.35 1402.05 1183.55 1401.77 1183.67C1401.49 1183.8 1401.17 1183.86 1400.81 1183.86ZM1409.87 1181.18C1409.38 1181.18 1408.94 1181.09 1408.55 1180.91C1408.16 1180.72 1407.84 1180.45 1407.61 1180.11C1407.38 1179.75 1407.26 1179.33 1407.26 1178.83C1407.26 1178.39 1407.35 1178.04 1407.52 1177.77C1407.69 1177.49 1407.92 1177.28 1408.21 1177.12C1408.5 1176.97 1408.82 1176.85 1409.17 1176.77C1409.52 1176.69 1409.87 1176.63 1410.22 1176.59C1410.69 1176.53 1411.07 1176.48 1411.35 1176.45C1411.65 1176.42 1411.86 1176.36 1411.99 1176.29C1412.13 1176.21 1412.19 1176.08 1412.19 1175.89V1175.85C1412.19 1175.36 1412.06 1174.98 1411.79 1174.71C1411.53 1174.43 1411.12 1174.3 1410.58 1174.3C1410.02 1174.3 1409.58 1174.42 1409.27 1174.67C1408.95 1174.91 1408.72 1175.17 1408.59 1175.45L1407.48 1175.05C1407.68 1174.59 1407.94 1174.23 1408.28 1173.97C1408.61 1173.71 1408.98 1173.53 1409.37 1173.42C1409.77 1173.32 1410.16 1173.26 1410.54 1173.26C1410.79 1173.26 1411.07 1173.29 1411.39 1173.35C1411.71 1173.41 1412.02 1173.53 1412.32 1173.71C1412.62 1173.89 1412.87 1174.16 1413.07 1174.52C1413.27 1174.88 1413.37 1175.36 1413.37 1175.97V1181H1412.19V1179.97H1412.13C1412.05 1180.13 1411.92 1180.31 1411.74 1180.5C1411.55 1180.69 1411.3 1180.85 1411 1180.98C1410.69 1181.11 1410.31 1181.18 1409.87 1181.18ZM1410.05 1180.12C1410.51 1180.12 1410.9 1180.03 1411.22 1179.85C1411.54 1179.67 1411.78 1179.43 1411.95 1179.15C1412.11 1178.86 1412.19 1178.55 1412.19 1178.24V1177.16C1412.14 1177.22 1412.03 1177.28 1411.87 1177.33C1411.7 1177.37 1411.51 1177.41 1411.29 1177.45C1411.07 1177.48 1410.86 1177.51 1410.66 1177.54C1410.46 1177.56 1410.29 1177.58 1410.17 1177.6C1409.86 1177.64 1409.58 1177.7 1409.31 1177.79C1409.05 1177.88 1408.84 1178.01 1408.67 1178.19C1408.51 1178.36 1408.44 1178.59 1408.44 1178.89C1408.44 1179.3 1408.59 1179.61 1408.89 1179.82C1409.19 1180.02 1409.58 1180.12 1410.05 1180.12ZM1416.68 1176.41V1181H1415.51V1173.36H1416.64V1174.56H1416.74C1416.92 1174.17 1417.19 1173.86 1417.56 1173.62C1417.92 1173.38 1418.39 1173.26 1418.97 1173.26C1419.49 1173.26 1419.94 1173.37 1420.33 1173.58C1420.71 1173.79 1421.02 1174.11 1421.23 1174.54C1421.45 1174.96 1421.55 1175.5 1421.55 1176.15V1181H1420.38V1176.23C1420.38 1175.63 1420.22 1175.16 1419.91 1174.83C1419.6 1174.49 1419.17 1174.32 1418.63 1174.32C1418.26 1174.32 1417.92 1174.4 1417.63 1174.56C1417.33 1174.72 1417.1 1174.96 1416.94 1175.27C1416.77 1175.58 1416.68 1175.96 1416.68 1176.41ZM1425.95 1181.18C1425.46 1181.18 1425.02 1181.09 1424.63 1180.91C1424.23 1180.72 1423.92 1180.45 1423.69 1180.11C1423.46 1179.75 1423.34 1179.33 1423.34 1178.83C1423.34 1178.39 1423.43 1178.04 1423.6 1177.77C1423.77 1177.49 1424 1177.28 1424.29 1177.12C1424.58 1176.97 1424.9 1176.85 1425.24 1176.77C1425.6 1176.69 1425.95 1176.63 1426.3 1176.59C1426.77 1176.53 1427.14 1176.48 1427.43 1176.45C1427.72 1176.42 1427.94 1176.36 1428.07 1176.29C1428.2 1176.21 1428.27 1176.08 1428.27 1175.89V1175.85C1428.27 1175.36 1428.14 1174.98 1427.87 1174.71C1427.6 1174.43 1427.2 1174.3 1426.66 1174.3C1426.1 1174.3 1425.66 1174.42 1425.34 1174.67C1425.03 1174.91 1424.8 1175.17 1424.67 1175.45L1423.56 1175.05C1423.76 1174.59 1424.02 1174.23 1424.35 1173.97C1424.69 1173.71 1425.05 1173.53 1425.45 1173.42C1425.85 1173.32 1426.24 1173.26 1426.62 1173.26C1426.87 1173.26 1427.15 1173.29 1427.47 1173.35C1427.79 1173.41 1428.1 1173.53 1428.4 1173.71C1428.7 1173.89 1428.95 1174.16 1429.15 1174.52C1429.35 1174.88 1429.45 1175.36 1429.45 1175.97V1181H1428.27V1179.97H1428.21C1428.13 1180.13 1428 1180.31 1427.81 1180.5C1427.63 1180.69 1427.38 1180.85 1427.07 1180.98C1426.77 1181.11 1426.39 1181.18 1425.95 1181.18ZM1426.12 1180.12C1426.59 1180.12 1426.98 1180.03 1427.3 1179.85C1427.62 1179.67 1427.86 1179.43 1428.02 1179.15C1428.19 1178.86 1428.27 1178.55 1428.27 1178.24V1177.16C1428.22 1177.22 1428.11 1177.28 1427.94 1177.33C1427.78 1177.37 1427.59 1177.41 1427.37 1177.45C1427.15 1177.48 1426.94 1177.51 1426.74 1177.54C1426.53 1177.56 1426.37 1177.58 1426.24 1177.6C1425.94 1177.64 1425.65 1177.7 1425.39 1177.79C1425.13 1177.88 1424.91 1178.01 1424.75 1178.19C1424.59 1178.36 1424.51 1178.59 1424.51 1178.89C1424.51 1179.3 1424.66 1179.61 1424.97 1179.82C1425.27 1180.02 1425.66 1180.12 1426.12 1180.12ZM1431.59 1183.86V1173.36H1432.72V1174.58H1432.86C1432.95 1174.44 1433.06 1174.28 1433.22 1174.07C1433.37 1173.86 1433.6 1173.68 1433.88 1173.51C1434.18 1173.35 1434.57 1173.26 1435.07 1173.26C1435.71 1173.26 1436.28 1173.42 1436.77 1173.75C1437.26 1174.07 1437.64 1174.52 1437.92 1175.11C1438.19 1175.7 1438.33 1176.4 1438.33 1177.2C1438.33 1178.01 1438.19 1178.71 1437.92 1179.3C1437.64 1179.89 1437.26 1180.35 1436.77 1180.68C1436.28 1181 1435.72 1181.16 1435.09 1181.16C1434.6 1181.16 1434.2 1181.08 1433.91 1180.92C1433.61 1180.75 1433.39 1180.56 1433.23 1180.35C1433.07 1180.14 1432.95 1179.97 1432.86 1179.83H1432.76V1183.86H1431.59ZM1432.74 1177.18C1432.74 1177.76 1432.82 1178.27 1432.99 1178.71C1433.16 1179.15 1433.41 1179.49 1433.73 1179.74C1434.06 1179.98 1434.46 1180.11 1434.93 1180.11C1435.42 1180.11 1435.83 1179.98 1436.16 1179.72C1436.49 1179.46 1436.74 1179.1 1436.9 1178.66C1437.07 1178.22 1437.15 1177.73 1437.15 1177.18C1437.15 1176.64 1437.07 1176.16 1436.91 1175.73C1436.74 1175.3 1436.5 1174.95 1436.17 1174.7C1435.84 1174.45 1435.42 1174.32 1434.93 1174.32C1434.45 1174.32 1434.05 1174.44 1433.72 1174.68C1433.4 1174.92 1433.15 1175.25 1432.99 1175.69C1432.82 1176.11 1432.74 1176.61 1432.74 1177.18ZM1442.36 1181.18C1441.88 1181.18 1441.44 1181.09 1441.05 1180.91C1440.65 1180.72 1440.34 1180.45 1440.11 1180.11C1439.88 1179.75 1439.76 1179.33 1439.76 1178.83C1439.76 1178.39 1439.85 1178.04 1440.02 1177.77C1440.19 1177.49 1440.42 1177.28 1440.71 1177.12C1441 1176.97 1441.32 1176.85 1441.66 1176.77C1442.02 1176.69 1442.37 1176.63 1442.72 1176.59C1443.19 1176.53 1443.56 1176.48 1443.85 1176.45C1444.14 1176.42 1444.36 1176.36 1444.49 1176.29C1444.62 1176.21 1444.69 1176.08 1444.69 1175.89V1175.85C1444.69 1175.36 1444.56 1174.98 1444.29 1174.71C1444.02 1174.43 1443.62 1174.3 1443.08 1174.3C1442.52 1174.3 1442.08 1174.42 1441.76 1174.67C1441.45 1174.91 1441.22 1175.17 1441.09 1175.45L1439.98 1175.05C1440.18 1174.59 1440.44 1174.23 1440.77 1173.97C1441.11 1173.71 1441.47 1173.53 1441.87 1173.42C1442.27 1173.32 1442.66 1173.26 1443.04 1173.26C1443.29 1173.26 1443.57 1173.29 1443.89 1173.35C1444.21 1173.41 1444.52 1173.53 1444.82 1173.71C1445.12 1173.89 1445.37 1174.16 1445.57 1174.52C1445.77 1174.88 1445.86 1175.36 1445.86 1175.97V1181H1444.69V1179.97H1444.63C1444.55 1180.13 1444.42 1180.31 1444.23 1180.5C1444.05 1180.69 1443.8 1180.85 1443.49 1180.98C1443.19 1181.11 1442.81 1181.18 1442.36 1181.18ZM1442.54 1180.12C1443.01 1180.12 1443.4 1180.03 1443.72 1179.85C1444.04 1179.67 1444.28 1179.43 1444.44 1179.15C1444.61 1178.86 1444.69 1178.55 1444.69 1178.24V1177.16C1444.64 1177.22 1444.53 1177.28 1444.36 1177.33C1444.2 1177.37 1444.01 1177.41 1443.79 1177.45C1443.57 1177.48 1443.36 1177.51 1443.16 1177.54C1442.95 1177.56 1442.79 1177.58 1442.66 1177.6C1442.36 1177.64 1442.07 1177.7 1441.81 1177.79C1441.55 1177.88 1441.33 1178.01 1441.17 1178.19C1441.01 1178.36 1440.93 1178.59 1440.93 1178.89C1440.93 1179.3 1441.08 1179.61 1441.39 1179.82C1441.69 1180.02 1442.08 1180.12 1442.54 1180.12ZM1449.18 1170.82V1181H1448.01V1170.82H1449.18ZM1452.08 1183.86C1451.89 1183.86 1451.71 1183.85 1451.55 1183.81C1451.4 1183.78 1451.29 1183.75 1451.23 1183.72L1451.53 1182.69C1451.81 1182.76 1452.06 1182.79 1452.28 1182.77C1452.5 1182.75 1452.7 1182.65 1452.86 1182.48C1453.04 1182.3 1453.19 1182.02 1453.34 1181.64L1453.56 1181.04L1450.73 1173.36H1452L1454.11 1179.45H1454.19L1456.3 1173.36H1457.57L1454.33 1182.11C1454.19 1182.51 1454.01 1182.83 1453.79 1183.09C1453.57 1183.35 1453.32 1183.55 1453.04 1183.67C1452.76 1183.8 1452.44 1183.86 1452.08 1183.86ZM1461.14 1181.18C1460.65 1181.18 1460.21 1181.09 1459.82 1180.91C1459.42 1180.72 1459.11 1180.45 1458.88 1180.11C1458.65 1179.75 1458.53 1179.33 1458.53 1178.83C1458.53 1178.39 1458.62 1178.04 1458.79 1177.77C1458.96 1177.49 1459.19 1177.28 1459.48 1177.12C1459.77 1176.97 1460.09 1176.85 1460.44 1176.77C1460.79 1176.69 1461.14 1176.63 1461.49 1176.59C1461.96 1176.53 1462.33 1176.48 1462.62 1176.45C1462.91 1176.42 1463.13 1176.36 1463.26 1176.29C1463.4 1176.21 1463.46 1176.08 1463.46 1175.89V1175.85C1463.46 1175.36 1463.33 1174.98 1463.06 1174.71C1462.8 1174.43 1462.39 1174.3 1461.85 1174.3C1461.29 1174.3 1460.85 1174.42 1460.53 1174.67C1460.22 1174.91 1459.99 1175.17 1459.86 1175.45L1458.75 1175.05C1458.95 1174.59 1459.21 1174.23 1459.55 1173.97C1459.88 1173.71 1460.24 1173.53 1460.64 1173.42C1461.04 1173.32 1461.43 1173.26 1461.81 1173.26C1462.06 1173.26 1462.34 1173.29 1462.66 1173.35C1462.98 1173.41 1463.29 1173.53 1463.59 1173.71C1463.89 1173.89 1464.14 1174.16 1464.34 1174.52C1464.54 1174.88 1464.64 1175.36 1464.64 1175.97V1181H1463.46V1179.97H1463.4C1463.32 1180.13 1463.19 1180.31 1463.01 1180.5C1462.82 1180.69 1462.57 1180.85 1462.27 1180.98C1461.96 1181.11 1461.58 1181.18 1461.14 1181.18ZM1461.32 1180.12C1461.78 1180.12 1462.17 1180.03 1462.49 1179.85C1462.81 1179.67 1463.05 1179.43 1463.21 1179.15C1463.38 1178.86 1463.46 1178.55 1463.46 1178.24V1177.16C1463.41 1177.22 1463.3 1177.28 1463.14 1177.33C1462.97 1177.37 1462.78 1177.41 1462.56 1177.45C1462.34 1177.48 1462.13 1177.51 1461.93 1177.54C1461.72 1177.56 1461.56 1177.58 1461.43 1177.6C1461.13 1177.64 1460.84 1177.7 1460.58 1177.79C1460.32 1177.88 1460.11 1178.01 1459.94 1178.19C1459.78 1178.36 1459.7 1178.59 1459.7 1178.89C1459.7 1179.3 1459.86 1179.61 1460.16 1179.82C1460.46 1180.02 1460.85 1180.12 1461.32 1180.12ZM1476.44 1173.36C1476.38 1172.86 1476.14 1172.47 1475.72 1172.19C1475.29 1171.91 1474.77 1171.77 1474.16 1171.77C1473.71 1171.77 1473.31 1171.85 1472.97 1171.99C1472.64 1172.14 1472.38 1172.34 1472.19 1172.59C1472 1172.85 1471.91 1173.14 1471.91 1173.46C1471.91 1173.73 1471.97 1173.97 1472.1 1174.16C1472.24 1174.36 1472.4 1174.52 1472.61 1174.65C1472.82 1174.77 1473.03 1174.88 1473.26 1174.96C1473.48 1175.04 1473.69 1175.1 1473.88 1175.15L1474.91 1175.43C1475.18 1175.5 1475.47 1175.6 1475.8 1175.72C1476.12 1175.84 1476.44 1176.01 1476.74 1176.22C1477.04 1176.43 1477.29 1176.7 1477.48 1177.03C1477.68 1177.36 1477.78 1177.76 1477.78 1178.24C1477.78 1178.79 1477.63 1179.28 1477.34 1179.73C1477.06 1180.17 1476.64 1180.52 1476.09 1180.79C1475.54 1181.05 1474.88 1181.18 1474.1 1181.18C1473.37 1181.18 1472.74 1181.06 1472.2 1180.83C1471.67 1180.59 1471.25 1180.26 1470.95 1179.84C1470.65 1179.42 1470.48 1178.93 1470.44 1178.38H1471.71C1471.74 1178.76 1471.87 1179.08 1472.1 1179.33C1472.33 1179.58 1472.61 1179.76 1472.96 1179.89C1473.31 1180.01 1473.69 1180.07 1474.1 1180.07C1474.57 1180.07 1474.99 1179.99 1475.36 1179.84C1475.74 1179.68 1476.04 1179.47 1476.25 1179.19C1476.47 1178.91 1476.58 1178.59 1476.58 1178.22C1476.58 1177.88 1476.49 1177.6 1476.3 1177.39C1476.11 1177.18 1475.86 1177.01 1475.55 1176.87C1475.24 1176.74 1474.91 1176.62 1474.55 1176.53L1473.3 1176.17C1472.51 1175.94 1471.88 1175.61 1471.41 1175.19C1470.95 1174.76 1470.72 1174.21 1470.72 1173.52C1470.72 1172.95 1470.87 1172.46 1471.18 1172.03C1471.49 1171.6 1471.91 1171.27 1472.43 1171.04C1472.96 1170.8 1473.55 1170.68 1474.2 1170.68C1474.85 1170.68 1475.44 1170.8 1475.95 1171.03C1476.46 1171.26 1476.86 1171.58 1477.16 1171.99C1477.46 1172.39 1477.62 1172.85 1477.64 1173.36H1476.44ZM1479.64 1181V1173.36H1480.82V1181H1479.64ZM1480.24 1172.09C1480.01 1172.09 1479.81 1172.01 1479.65 1171.86C1479.49 1171.7 1479.4 1171.51 1479.4 1171.3C1479.4 1171.08 1479.49 1170.89 1479.65 1170.73C1479.81 1170.58 1480.01 1170.5 1480.24 1170.5C1480.47 1170.5 1480.66 1170.58 1480.83 1170.73C1480.99 1170.89 1481.08 1171.08 1481.08 1171.3C1481.08 1171.51 1480.99 1171.7 1480.83 1171.86C1480.66 1172.01 1480.47 1172.09 1480.24 1172.09ZM1485.85 1181.16C1485.21 1181.16 1484.65 1181 1484.16 1180.68C1483.68 1180.35 1483.3 1179.89 1483.02 1179.3C1482.75 1178.71 1482.61 1178.01 1482.61 1177.2C1482.61 1176.4 1482.75 1175.7 1483.02 1175.11C1483.3 1174.52 1483.68 1174.07 1484.17 1173.75C1484.66 1173.42 1485.23 1173.26 1485.87 1173.26C1486.37 1173.26 1486.76 1173.35 1487.05 1173.51C1487.34 1173.68 1487.56 1173.86 1487.71 1174.07C1487.87 1174.28 1487.99 1174.44 1488.08 1174.58H1488.18V1170.82H1489.35V1181H1488.22V1179.83H1488.08C1487.99 1179.97 1487.87 1180.14 1487.71 1180.35C1487.55 1180.56 1487.32 1180.75 1487.03 1180.92C1486.73 1181.08 1486.34 1181.16 1485.85 1181.16ZM1486.01 1180.11C1486.48 1180.11 1486.88 1179.98 1487.2 1179.74C1487.53 1179.49 1487.77 1179.15 1487.94 1178.71C1488.11 1178.27 1488.2 1177.76 1488.2 1177.18C1488.2 1176.61 1488.11 1176.11 1487.95 1175.69C1487.78 1175.25 1487.54 1174.92 1487.21 1174.68C1486.89 1174.44 1486.49 1174.32 1486.01 1174.32C1485.51 1174.32 1485.1 1174.45 1484.77 1174.7C1484.44 1174.95 1484.19 1175.3 1484.02 1175.73C1483.86 1176.16 1483.78 1176.64 1483.78 1177.18C1483.78 1177.73 1483.86 1178.22 1484.03 1178.66C1484.2 1179.1 1484.45 1179.46 1484.78 1179.72C1485.11 1179.98 1485.52 1180.11 1486.01 1180.11ZM1494.86 1181.16C1494.13 1181.16 1493.49 1181 1492.96 1180.67C1492.43 1180.34 1492.02 1179.89 1491.73 1179.3C1491.45 1178.71 1491.3 1178.02 1491.3 1177.24C1491.3 1176.46 1491.45 1175.77 1491.73 1175.17C1492.02 1174.57 1492.42 1174.11 1492.93 1173.77C1493.45 1173.43 1494.05 1173.26 1494.74 1173.26C1495.14 1173.26 1495.53 1173.33 1495.92 1173.46C1496.31 1173.6 1496.66 1173.81 1496.98 1174.11C1497.3 1174.4 1497.55 1174.8 1497.74 1175.28C1497.93 1175.77 1498.02 1176.37 1498.02 1177.08V1177.58H1492.14V1176.57H1496.83C1496.83 1176.13 1496.75 1175.75 1496.57 1175.41C1496.4 1175.07 1496.16 1174.81 1495.85 1174.61C1495.54 1174.42 1495.17 1174.32 1494.74 1174.32C1494.28 1174.32 1493.87 1174.43 1493.53 1174.67C1493.19 1174.89 1492.93 1175.19 1492.75 1175.56C1492.57 1175.93 1492.48 1176.32 1492.48 1176.74V1177.42C1492.48 1178 1492.58 1178.49 1492.77 1178.89C1492.98 1179.28 1493.26 1179.59 1493.61 1179.8C1493.97 1180 1494.39 1180.11 1494.86 1180.11C1495.17 1180.11 1495.45 1180.06 1495.7 1179.98C1495.95 1179.89 1496.17 1179.75 1496.35 1179.58C1496.53 1179.4 1496.67 1179.18 1496.77 1178.91L1497.91 1179.23C1497.79 1179.61 1497.59 1179.95 1497.3 1180.24C1497.02 1180.53 1496.67 1180.76 1496.26 1180.92C1495.85 1181.08 1495.38 1181.16 1494.86 1181.16Z" fill="white"/>
<rect width="149" height="48" transform="translate(1366 240)" fill="#242424"/>
<path d="M1375.5 269V258.818H1378.94C1379.74 258.818 1380.39 258.954 1380.9 259.226C1381.41 259.494 1381.79 259.864 1382.03 260.335C1382.28 260.805 1382.4 261.34 1382.4 261.94C1382.4 262.54 1382.28 263.072 1382.03 263.536C1381.79 264 1381.41 264.365 1380.9 264.63C1380.4 264.892 1379.75 265.023 1378.96 265.023H1376.18V263.909H1378.92C1379.46 263.909 1379.9 263.83 1380.23 263.67C1380.57 263.511 1380.81 263.286 1380.96 262.994C1381.11 262.699 1381.19 262.348 1381.19 261.94C1381.19 261.533 1381.11 261.176 1380.96 260.871C1380.81 260.567 1380.56 260.331 1380.23 260.165C1379.89 259.996 1379.45 259.912 1378.9 259.912H1376.73V269H1375.5ZM1380.29 264.426L1382.8 269H1381.37L1378.9 264.426H1380.29ZM1386.54 269.179C1386.06 269.179 1385.62 269.088 1385.23 268.906C1384.83 268.72 1384.52 268.453 1384.29 268.105C1384.05 267.754 1383.94 267.33 1383.94 266.832C1383.94 266.395 1384.02 266.04 1384.2 265.768C1384.37 265.493 1384.6 265.278 1384.89 265.122C1385.18 264.966 1385.49 264.85 1385.84 264.774C1386.19 264.695 1386.55 264.632 1386.9 264.585C1387.36 264.526 1387.74 264.481 1388.03 264.451C1388.32 264.418 1388.53 264.363 1388.67 264.287C1388.8 264.211 1388.87 264.078 1388.87 263.889V263.849C1388.87 263.359 1388.74 262.978 1388.47 262.706C1388.2 262.434 1387.8 262.298 1387.26 262.298C1386.7 262.298 1386.26 262.421 1385.94 262.666C1385.62 262.911 1385.4 263.173 1385.27 263.452L1384.16 263.054C1384.36 262.59 1384.62 262.229 1384.95 261.97C1385.29 261.708 1385.65 261.526 1386.05 261.423C1386.44 261.317 1386.83 261.264 1387.22 261.264C1387.46 261.264 1387.75 261.294 1388.06 261.354C1388.39 261.41 1388.7 261.528 1388.99 261.707C1389.3 261.886 1389.55 262.156 1389.74 262.517C1389.94 262.878 1390.04 263.362 1390.04 263.969V269H1388.87V267.966H1388.81C1388.73 268.132 1388.6 268.309 1388.41 268.498C1388.23 268.687 1387.98 268.848 1387.67 268.98C1387.36 269.113 1386.99 269.179 1386.54 269.179ZM1386.72 268.125C1387.19 268.125 1387.58 268.034 1387.89 267.852C1388.22 267.669 1388.46 267.434 1388.62 267.146C1388.79 266.857 1388.87 266.554 1388.87 266.236V265.162C1388.82 265.222 1388.71 265.276 1388.54 265.326C1388.38 265.372 1388.18 265.414 1387.96 265.45C1387.75 265.483 1387.54 265.513 1387.33 265.54C1387.13 265.563 1386.97 265.583 1386.84 265.599C1386.54 265.639 1386.25 265.704 1385.99 265.793C1385.72 265.879 1385.51 266.01 1385.35 266.186C1385.19 266.358 1385.11 266.594 1385.11 266.892C1385.11 267.3 1385.26 267.608 1385.56 267.817C1385.87 268.022 1386.25 268.125 1386.72 268.125ZM1395.27 272.023C1394.7 272.023 1394.21 271.95 1393.8 271.804C1393.4 271.661 1393.06 271.473 1392.79 271.237C1392.52 271.005 1392.3 270.757 1392.14 270.491L1393.08 269.835C1393.19 269.974 1393.32 270.134 1393.48 270.312C1393.64 270.495 1393.87 270.652 1394.15 270.785C1394.43 270.921 1394.81 270.989 1395.27 270.989C1395.88 270.989 1396.39 270.839 1396.79 270.541C1397.19 270.243 1397.39 269.776 1397.39 269.139V267.588H1397.3C1397.21 267.727 1397.09 267.9 1396.93 268.105C1396.77 268.307 1396.55 268.488 1396.25 268.647C1395.96 268.803 1395.56 268.881 1395.07 268.881C1394.45 268.881 1393.9 268.735 1393.41 268.443C1392.92 268.152 1392.53 267.727 1392.25 267.17C1391.97 266.614 1391.83 265.937 1391.83 265.142C1391.83 264.36 1391.96 263.679 1392.24 263.099C1392.51 262.515 1392.9 262.065 1393.39 261.746C1393.88 261.425 1394.44 261.264 1395.09 261.264C1395.58 261.264 1395.98 261.347 1396.27 261.513C1396.57 261.675 1396.79 261.861 1396.95 262.07C1397.11 262.275 1397.23 262.444 1397.31 262.577H1397.43V261.364H1398.57V269.219C1398.57 269.875 1398.42 270.409 1398.12 270.82C1397.83 271.234 1397.43 271.537 1396.93 271.729C1396.43 271.925 1395.88 272.023 1395.27 272.023ZM1395.23 267.827C1395.7 267.827 1396.1 267.719 1396.42 267.504C1396.74 267.288 1396.99 266.978 1397.16 266.574C1397.33 266.17 1397.41 265.686 1397.41 265.122C1397.41 264.572 1397.33 264.086 1397.17 263.665C1397 263.245 1396.75 262.915 1396.43 262.676C1396.11 262.437 1395.7 262.318 1395.23 262.318C1394.73 262.318 1394.32 262.444 1393.98 262.696C1393.66 262.948 1393.41 263.286 1393.24 263.71C1393.08 264.134 1393 264.605 1393 265.122C1393 265.652 1393.08 266.121 1393.25 266.529C1393.42 266.933 1393.67 267.252 1393.99 267.484C1394.33 267.712 1394.74 267.827 1395.23 267.827ZM1401.89 264.406V269H1400.72V258.818H1401.89V262.557H1401.99C1402.17 262.162 1402.44 261.849 1402.79 261.617C1403.15 261.382 1403.64 261.264 1404.24 261.264C1404.76 261.264 1405.21 261.369 1405.6 261.577C1405.99 261.783 1406.3 262.099 1406.51 262.527C1406.73 262.951 1406.84 263.491 1406.84 264.148V269H1405.67V264.227C1405.67 263.621 1405.51 263.152 1405.19 262.82C1404.88 262.486 1404.45 262.318 1403.9 262.318C1403.51 262.318 1403.17 262.399 1402.86 262.562C1402.56 262.724 1402.32 262.961 1402.15 263.273C1401.97 263.584 1401.89 263.962 1401.89 264.406ZM1413.8 265.878V261.364H1414.97V269H1413.8V267.707H1413.72C1413.54 268.095 1413.26 268.425 1412.88 268.697C1412.51 268.965 1412.03 269.099 1411.45 269.099C1410.98 269.099 1410.55 268.995 1410.18 268.786C1409.81 268.574 1409.52 268.256 1409.31 267.832C1409.09 267.404 1408.99 266.866 1408.99 266.216V261.364H1410.16V266.136C1410.16 266.693 1410.32 267.137 1410.63 267.469C1410.94 267.8 1411.34 267.966 1411.83 267.966C1412.12 267.966 1412.42 267.891 1412.72 267.742C1413.03 267.593 1413.28 267.364 1413.49 267.056C1413.7 266.748 1413.8 266.355 1413.8 265.878ZM1423.37 261.364L1420.54 269H1419.35L1416.53 261.364H1417.8L1419.91 267.449H1419.99L1422.09 261.364H1423.37ZM1426.93 269.179C1426.45 269.179 1426.01 269.088 1425.61 268.906C1425.22 268.72 1424.9 268.453 1424.67 268.105C1424.44 267.754 1424.32 267.33 1424.32 266.832C1424.32 266.395 1424.41 266.04 1424.58 265.768C1424.76 265.493 1424.99 265.278 1425.27 265.122C1425.56 264.966 1425.88 264.85 1426.23 264.774C1426.58 264.695 1426.93 264.632 1427.29 264.585C1427.75 264.526 1428.13 264.481 1428.42 264.451C1428.71 264.418 1428.92 264.363 1429.05 264.287C1429.19 264.211 1429.26 264.078 1429.26 263.889V263.849C1429.26 263.359 1429.12 262.978 1428.85 262.706C1428.59 262.434 1428.19 262.298 1427.65 262.298C1427.09 262.298 1426.65 262.421 1426.33 262.666C1426.01 262.911 1425.79 263.173 1425.66 263.452L1424.54 263.054C1424.74 262.59 1425.01 262.229 1425.34 261.97C1425.67 261.708 1426.04 261.526 1426.43 261.423C1426.83 261.317 1427.22 261.264 1427.61 261.264C1427.85 261.264 1428.13 261.294 1428.45 261.354C1428.77 261.41 1429.08 261.528 1429.38 261.707C1429.68 261.886 1429.93 262.156 1430.13 262.517C1430.33 262.878 1430.43 263.362 1430.43 263.969V269H1429.26V267.966H1429.2C1429.12 268.132 1428.98 268.309 1428.8 268.498C1428.61 268.687 1428.37 268.848 1428.06 268.98C1427.75 269.113 1427.37 269.179 1426.93 269.179ZM1427.11 268.125C1427.57 268.125 1427.96 268.034 1428.28 267.852C1428.6 267.669 1428.85 267.434 1429.01 267.146C1429.17 266.857 1429.26 266.554 1429.26 266.236V265.162C1429.21 265.222 1429.1 265.276 1428.93 265.326C1428.76 265.372 1428.57 265.414 1428.35 265.45C1428.14 265.483 1427.93 265.513 1427.72 265.54C1427.52 265.563 1427.35 265.583 1427.23 265.599C1426.92 265.639 1426.64 265.704 1426.37 265.793C1426.11 265.879 1425.9 266.01 1425.74 266.186C1425.58 266.358 1425.5 266.594 1425.5 266.892C1425.5 267.3 1425.65 267.608 1425.95 267.817C1426.25 268.022 1426.64 268.125 1427.11 268.125ZM1433.74 264.406V269H1432.57V261.364H1433.7V262.557H1433.8C1433.98 262.169 1434.25 261.857 1434.62 261.622C1434.98 261.384 1435.45 261.264 1436.03 261.264C1436.55 261.264 1437 261.37 1437.39 261.582C1437.78 261.791 1438.08 262.109 1438.29 262.537C1438.51 262.961 1438.62 263.498 1438.62 264.148V269H1437.44V264.227C1437.44 263.627 1437.29 263.16 1436.98 262.825C1436.66 262.487 1436.24 262.318 1435.69 262.318C1435.32 262.318 1434.98 262.399 1434.69 262.562C1434.4 262.724 1434.17 262.961 1434 263.273C1433.83 263.584 1433.74 263.962 1433.74 264.406ZM1443.01 269.179C1442.52 269.179 1442.08 269.088 1441.69 268.906C1441.3 268.72 1440.98 268.453 1440.75 268.105C1440.52 267.754 1440.4 267.33 1440.4 266.832C1440.4 266.395 1440.49 266.04 1440.66 265.768C1440.83 265.493 1441.06 265.278 1441.35 265.122C1441.64 264.966 1441.96 264.85 1442.31 264.774C1442.66 264.695 1443.01 264.632 1443.37 264.585C1443.83 264.526 1444.21 264.481 1444.49 264.451C1444.79 264.418 1445 264.363 1445.13 264.287C1445.27 264.211 1445.33 264.078 1445.33 263.889V263.849C1445.33 263.359 1445.2 262.978 1444.93 262.706C1444.67 262.434 1444.26 262.298 1443.72 262.298C1443.16 262.298 1442.72 262.421 1442.41 262.666C1442.09 262.911 1441.86 263.173 1441.73 263.452L1440.62 263.054C1440.82 262.59 1441.09 262.229 1441.42 261.97C1441.75 261.708 1442.12 261.526 1442.51 261.423C1442.91 261.317 1443.3 261.264 1443.68 261.264C1443.93 261.264 1444.21 261.294 1444.53 261.354C1444.85 261.41 1445.16 261.528 1445.46 261.707C1445.76 261.886 1446.01 262.156 1446.21 262.517C1446.41 262.878 1446.51 263.362 1446.51 263.969V269H1445.33V267.966H1445.27C1445.2 268.132 1445.06 268.309 1444.88 268.498C1444.69 268.687 1444.44 268.848 1444.14 268.98C1443.83 269.113 1443.45 269.179 1443.01 269.179ZM1443.19 268.125C1443.65 268.125 1444.04 268.034 1444.36 267.852C1444.68 267.669 1444.92 267.434 1445.09 267.146C1445.25 266.857 1445.33 266.554 1445.33 266.236V265.162C1445.28 265.222 1445.18 265.276 1445.01 265.326C1444.84 265.372 1444.65 265.414 1444.43 265.45C1444.21 265.483 1444 265.513 1443.8 265.54C1443.6 265.563 1443.43 265.583 1443.31 265.599C1443 265.639 1442.72 265.704 1442.45 265.793C1442.19 265.879 1441.98 266.01 1441.81 266.186C1441.66 266.358 1441.58 266.594 1441.58 266.892C1441.58 267.3 1441.73 267.608 1442.03 267.817C1442.33 268.022 1442.72 268.125 1443.19 268.125ZM1449.82 264.406V269H1448.65V258.818H1449.82V262.557H1449.92C1450.1 262.162 1450.37 261.849 1450.73 261.617C1451.09 261.382 1451.57 261.264 1452.17 261.264C1452.69 261.264 1453.15 261.369 1453.54 261.577C1453.93 261.783 1454.23 262.099 1454.45 262.527C1454.66 262.951 1454.77 263.491 1454.77 264.148V269H1453.6V264.227C1453.6 263.621 1453.44 263.152 1453.13 262.82C1452.82 262.486 1452.38 262.318 1451.83 262.318C1451.45 262.318 1451.1 262.399 1450.8 262.562C1450.5 262.724 1450.26 262.961 1450.08 263.273C1449.91 263.584 1449.82 263.962 1449.82 264.406ZM1459.17 269.179C1458.68 269.179 1458.24 269.088 1457.85 268.906C1457.46 268.72 1457.14 268.453 1456.91 268.105C1456.68 267.754 1456.56 267.33 1456.56 266.832C1456.56 266.395 1456.65 266.04 1456.82 265.768C1456.99 265.493 1457.22 265.278 1457.51 265.122C1457.8 264.966 1458.12 264.85 1458.47 264.774C1458.82 264.695 1459.17 264.632 1459.53 264.585C1459.99 264.526 1460.37 264.481 1460.65 264.451C1460.95 264.418 1461.16 264.363 1461.29 264.287C1461.43 264.211 1461.49 264.078 1461.49 263.889V263.849C1461.49 263.359 1461.36 262.978 1461.09 262.706C1460.83 262.434 1460.42 262.298 1459.88 262.298C1459.32 262.298 1458.88 262.421 1458.57 262.666C1458.25 262.911 1458.02 263.173 1457.89 263.452L1456.78 263.054C1456.98 262.59 1457.25 262.229 1457.58 261.97C1457.91 261.708 1458.28 261.526 1458.67 261.423C1459.07 261.317 1459.46 261.264 1459.84 261.264C1460.09 261.264 1460.37 261.294 1460.69 261.354C1461.01 261.41 1461.32 261.528 1461.62 261.707C1461.92 261.886 1462.17 262.156 1462.37 262.517C1462.57 262.878 1462.67 263.362 1462.67 263.969V269H1461.49V267.966H1461.43C1461.36 268.132 1461.22 268.309 1461.04 268.498C1460.85 268.687 1460.6 268.848 1460.3 268.98C1459.99 269.113 1459.61 269.179 1459.17 269.179ZM1459.35 268.125C1459.81 268.125 1460.2 268.034 1460.52 267.852C1460.84 267.669 1461.08 267.434 1461.25 267.146C1461.41 266.857 1461.49 266.554 1461.49 266.236V265.162C1461.44 265.222 1461.34 265.276 1461.17 265.326C1461 265.372 1460.81 265.414 1460.59 265.45C1460.37 265.483 1460.16 265.513 1459.96 265.54C1459.76 265.563 1459.59 265.583 1459.47 265.599C1459.16 265.639 1458.88 265.704 1458.61 265.793C1458.35 265.879 1458.14 266.01 1457.97 266.186C1457.82 266.358 1457.74 266.594 1457.74 266.892C1457.74 267.3 1457.89 267.608 1458.19 267.817C1458.49 268.022 1458.88 268.125 1459.35 268.125ZM1465.98 258.818V269H1464.81V258.818H1465.98ZM1469.3 258.818V269H1468.13V258.818H1469.3ZM1471.45 269V261.364H1472.63V269H1471.45ZM1472.05 260.091C1471.82 260.091 1471.62 260.013 1471.46 259.857C1471.3 259.701 1471.22 259.514 1471.22 259.295C1471.22 259.077 1471.3 258.889 1471.46 258.734C1471.62 258.578 1471.82 258.5 1472.05 258.5C1472.28 258.5 1472.47 258.578 1472.64 258.734C1472.8 258.889 1472.89 259.077 1472.89 259.295C1472.89 259.514 1472.8 259.701 1472.64 259.857C1472.47 260.013 1472.28 260.091 1472.05 260.091ZM1484.44 261.364C1484.38 260.86 1484.14 260.469 1483.71 260.19C1483.29 259.912 1482.77 259.773 1482.15 259.773C1481.7 259.773 1481.31 259.846 1480.97 259.991C1480.64 260.137 1480.37 260.338 1480.19 260.593C1480 260.848 1479.91 261.138 1479.91 261.463C1479.91 261.735 1479.97 261.969 1480.1 262.164C1480.23 262.356 1480.4 262.517 1480.61 262.646C1480.81 262.772 1481.03 262.877 1481.25 262.96C1481.48 263.039 1481.69 263.104 1481.88 263.153L1482.91 263.432C1483.17 263.501 1483.47 263.598 1483.79 263.72C1484.12 263.843 1484.44 264.01 1484.73 264.222C1485.04 264.431 1485.28 264.7 1485.48 265.028C1485.68 265.356 1485.77 265.759 1485.77 266.236C1485.77 266.786 1485.63 267.283 1485.34 267.727C1485.06 268.171 1484.64 268.524 1484.09 268.786C1483.54 269.048 1482.88 269.179 1482.09 269.179C1481.37 269.179 1480.73 269.061 1480.2 268.826C1479.67 268.591 1479.25 268.263 1478.95 267.842C1478.65 267.421 1478.47 266.932 1478.44 266.375H1479.71C1479.74 266.759 1479.87 267.078 1480.1 267.33C1480.32 267.578 1480.61 267.764 1480.96 267.886C1481.31 268.006 1481.69 268.065 1482.09 268.065C1482.56 268.065 1482.99 267.989 1483.36 267.837C1483.74 267.681 1484.03 267.465 1484.25 267.19C1484.47 266.912 1484.58 266.587 1484.58 266.216C1484.58 265.878 1484.49 265.603 1484.3 265.391C1484.11 265.179 1483.86 265.006 1483.55 264.874C1483.24 264.741 1482.91 264.625 1482.55 264.526L1481.3 264.168C1480.5 263.939 1479.87 263.612 1479.41 263.188C1478.95 262.764 1478.71 262.209 1478.71 261.523C1478.71 260.953 1478.87 260.455 1479.18 260.031C1479.49 259.604 1479.91 259.272 1480.43 259.037C1480.96 258.798 1481.54 258.679 1482.19 258.679C1482.85 258.679 1483.43 258.797 1483.94 259.032C1484.45 259.264 1484.86 259.582 1485.16 259.987C1485.46 260.391 1485.62 260.85 1485.63 261.364H1484.44ZM1487.64 269V261.364H1488.81V269H1487.64ZM1488.24 260.091C1488.01 260.091 1487.81 260.013 1487.65 259.857C1487.48 259.701 1487.4 259.514 1487.4 259.295C1487.4 259.077 1487.48 258.889 1487.65 258.734C1487.81 258.578 1488.01 258.5 1488.24 258.5C1488.47 258.5 1488.66 258.578 1488.82 258.734C1488.99 258.889 1489.07 259.077 1489.07 259.295C1489.07 259.514 1488.99 259.701 1488.82 259.857C1488.66 260.013 1488.47 260.091 1488.24 260.091ZM1493.85 269.159C1493.21 269.159 1492.65 268.998 1492.16 268.677C1491.67 268.352 1491.29 267.895 1491.02 267.305C1490.74 266.711 1490.61 266.01 1490.61 265.202C1490.61 264.4 1490.74 263.704 1491.02 263.114C1491.29 262.524 1491.68 262.068 1492.17 261.746C1492.66 261.425 1493.22 261.264 1493.87 261.264C1494.36 261.264 1494.76 261.347 1495.05 261.513C1495.34 261.675 1495.56 261.861 1495.71 262.07C1495.87 262.275 1495.99 262.444 1496.07 262.577H1496.17V258.818H1497.35V269H1496.21V267.827H1496.07C1495.99 267.966 1495.87 268.142 1495.71 268.354C1495.55 268.562 1495.32 268.75 1495.03 268.915C1494.73 269.078 1494.34 269.159 1493.85 269.159ZM1494.01 268.105C1494.48 268.105 1494.87 267.982 1495.2 267.737C1495.52 267.489 1495.77 267.146 1495.94 266.708C1496.11 266.267 1496.19 265.759 1496.19 265.182C1496.19 264.612 1496.11 264.113 1495.95 263.685C1495.78 263.254 1495.53 262.92 1495.21 262.681C1494.88 262.439 1494.48 262.318 1494.01 262.318C1493.51 262.318 1493.09 262.446 1492.76 262.701C1492.44 262.953 1492.19 263.296 1492.02 263.73C1491.86 264.161 1491.78 264.645 1491.78 265.182C1491.78 265.725 1491.86 266.219 1492.03 266.663C1492.2 267.104 1492.45 267.455 1492.77 267.717C1493.1 267.976 1493.52 268.105 1494.01 268.105ZM1502.86 269.159C1502.12 269.159 1501.49 268.997 1500.96 268.672C1500.43 268.344 1500.02 267.886 1499.73 267.3C1499.44 266.71 1499.3 266.024 1499.3 265.241C1499.3 264.459 1499.44 263.77 1499.73 263.173C1500.02 262.573 1500.42 262.106 1500.93 261.771C1501.45 261.433 1502.05 261.264 1502.74 261.264C1503.14 261.264 1503.53 261.33 1503.92 261.463C1504.31 261.596 1504.66 261.811 1504.98 262.109C1505.3 262.404 1505.55 262.795 1505.74 263.283C1505.93 263.77 1506.02 264.37 1506.02 265.082V265.58H1500.14V264.565H1504.83C1504.83 264.134 1504.74 263.75 1504.57 263.412C1504.4 263.074 1504.16 262.807 1503.84 262.612C1503.53 262.416 1503.17 262.318 1502.74 262.318C1502.27 262.318 1501.87 262.434 1501.53 262.666C1501.19 262.895 1500.93 263.193 1500.75 263.561C1500.57 263.929 1500.47 264.323 1500.47 264.744V265.42C1500.47 265.997 1500.57 266.486 1500.77 266.887C1500.97 267.285 1501.25 267.588 1501.61 267.797C1501.97 268.002 1502.39 268.105 1502.86 268.105C1503.17 268.105 1503.45 268.062 1503.7 267.976C1503.95 267.886 1504.16 267.754 1504.35 267.578C1504.53 267.399 1504.67 267.177 1504.77 266.912L1505.9 267.23C1505.78 267.615 1505.58 267.953 1505.3 268.244C1505.02 268.533 1504.67 268.758 1504.26 268.92C1503.84 269.08 1503.38 269.159 1502.86 269.159Z" fill="white"/>
<g filter="url(#filter0_d_1119_66185)">
<path d="M1393 316C1393 313.791 1394.79 312 1397 312H1485C1487.21 312 1489 313.791 1489 316V356C1489 358.209 1487.21 360 1485 360H1397C1394.79 360 1393 358.209 1393 356V316Z" fill="#242424" shape-rendering="crispEdges"/>
<path d="M1485 311C1487.76 311 1490 313.239 1490 316V356C1490 358.761 1487.76 361 1485 361H1397C1394.24 361 1392 358.761 1392 356V316C1392 313.239 1394.24 311 1397 311H1485Z" stroke="#474747" stroke-width="2" shape-rendering="crispEdges"/>
<path d="M1448.4 345.132L1445.57 345.107L1444.09 340.558L1437.83 340.504L1436.33 345.028L1433.57 345.004L1439.41 328.302L1442.82 328.331L1448.4 345.132ZM1443.44 338.225L1441.1 330.812L1440.98 330.811L1438.49 338.182L1443.44 338.225Z" fill="white"/>
<path d="M1429 345.696V321.027H1453V345.696" stroke="white" stroke-width="2"/>
</g>
<g filter="url(#filter1_d_1119_66185)">
<path d="M1393 1084C1393 1081.79 1394.79 1080 1397 1080H1485C1487.21 1080 1489 1081.79 1489 1084V1124C1489 1126.21 1487.21 1128 1485 1128H1397C1394.79 1128 1393 1126.21 1393 1124V1084Z" fill="#242424" shape-rendering="crispEdges"/>
<path d="M1485 1079C1487.76 1079 1490 1081.24 1490 1084V1124C1490 1126.76 1487.76 1129 1485 1129H1397C1394.24 1129 1392 1126.76 1392 1124V1084C1392 1081.24 1394.24 1079 1397 1079H1485Z" stroke="#474747" stroke-width="2" shape-rendering="crispEdges"/>
<path d="M1435.1 1113.02L1435.24 1096.27L1442.65 1096.33C1445.41 1096.35 1447.1 1098.07 1447.08 1100.69C1447.06 1103.21 1445.52 1104.11 1444.15 1104.21L1444.15 1104.36C1445.52 1104.42 1447.64 1105.49 1447.62 1108.3C1447.6 1111.01 1445.73 1113.11 1443.26 1113.09L1435.1 1113.02ZM1437.87 1105.62L1437.83 1110.71L1442.49 1110.75C1443.88 1110.76 1444.75 1110 1444.76 1108.64L1444.77 1107.82C1444.78 1106.45 1443.92 1105.68 1442.53 1105.66L1437.87 1105.62ZM1437.93 1098.62L1437.89 1103.37L1442.09 1103.4C1443.41 1103.42 1444.21 1102.7 1444.22 1101.43L1444.23 1100.66C1444.24 1099.39 1443.45 1098.66 1442.13 1098.65L1437.93 1098.62Z" fill="white"/>
<path d="M1429 1113.7V1089.03H1453V1113.7" stroke="white" stroke-width="2"/>
</g>
<rect width="192" height="48" transform="translate(1344 1224)" fill="#242424"/>
<path d="M1460.14 1241V1230.82H1464.16C1464.93 1230.82 1465.59 1230.97 1466.13 1231.26C1466.68 1231.55 1467.09 1231.96 1467.38 1232.48C1467.66 1233 1467.81 1233.59 1467.81 1234.27C1467.81 1234.94 1467.66 1235.54 1467.37 1236.06C1467.08 1236.58 1466.66 1236.98 1466.1 1237.27C1465.55 1237.55 1464.89 1237.7 1464.11 1237.7H1461.54V1235.97H1463.76C1464.17 1235.97 1464.51 1235.9 1464.78 1235.76C1465.05 1235.61 1465.26 1235.41 1465.39 1235.16C1465.52 1234.9 1465.59 1234.6 1465.59 1234.27C1465.59 1233.93 1465.52 1233.64 1465.39 1233.38C1465.26 1233.13 1465.05 1232.93 1464.78 1232.79C1464.51 1232.65 1464.16 1232.58 1463.75 1232.58H1462.3V1241H1460.14ZM1471.29 1230.82V1241H1469.17V1230.82H1471.29ZM1475.16 1241.14C1474.67 1241.14 1474.24 1241.06 1473.86 1240.89C1473.48 1240.72 1473.17 1240.46 1472.95 1240.13C1472.73 1239.79 1472.62 1239.37 1472.62 1238.87C1472.62 1238.44 1472.7 1238.09 1472.86 1237.8C1473.01 1237.51 1473.23 1237.28 1473.49 1237.1C1473.76 1236.93 1474.07 1236.79 1474.41 1236.7C1474.75 1236.62 1475.11 1236.55 1475.49 1236.52C1475.94 1236.47 1476.29 1236.43 1476.57 1236.39C1476.84 1236.34 1477.04 1236.28 1477.16 1236.2C1477.28 1236.11 1477.34 1235.99 1477.34 1235.83V1235.8C1477.34 1235.48 1477.24 1235.24 1477.04 1235.07C1476.85 1234.9 1476.57 1234.81 1476.21 1234.81C1475.83 1234.81 1475.52 1234.89 1475.3 1235.06C1475.07 1235.23 1474.92 1235.44 1474.85 1235.69L1472.89 1235.53C1472.99 1235.07 1473.19 1234.67 1473.48 1234.33C1473.77 1233.99 1474.15 1233.72 1474.61 1233.54C1475.07 1233.36 1475.61 1233.26 1476.22 1233.26C1476.64 1233.26 1477.05 1233.31 1477.44 1233.41C1477.83 1233.51 1478.17 1233.67 1478.48 1233.88C1478.78 1234.08 1479.02 1234.35 1479.2 1234.68C1479.37 1235.01 1479.46 1235.4 1479.46 1235.85V1241H1477.45V1239.94H1477.39C1477.27 1240.18 1477.1 1240.39 1476.9 1240.57C1476.69 1240.75 1476.45 1240.89 1476.16 1241C1475.87 1241.09 1475.54 1241.14 1475.16 1241.14ZM1475.77 1239.68C1476.08 1239.68 1476.35 1239.62 1476.59 1239.5C1476.83 1239.37 1477.02 1239.2 1477.15 1238.99C1477.29 1238.78 1477.36 1238.54 1477.36 1238.27V1237.46C1477.29 1237.5 1477.2 1237.54 1477.08 1237.58C1476.97 1237.61 1476.84 1237.64 1476.7 1237.67C1476.56 1237.7 1476.42 1237.73 1476.27 1237.75C1476.13 1237.77 1476 1237.79 1475.89 1237.8C1475.64 1237.84 1475.42 1237.9 1475.23 1237.98C1475.05 1238.06 1474.9 1238.16 1474.8 1238.3C1474.7 1238.43 1474.65 1238.6 1474.65 1238.8C1474.65 1239.09 1474.75 1239.31 1474.96 1239.46C1475.17 1239.61 1475.44 1239.68 1475.77 1239.68ZM1485.16 1233.36V1234.95H1480.57V1233.36H1485.16ZM1481.61 1231.53H1483.73V1238.65C1483.73 1238.85 1483.76 1239 1483.82 1239.11C1483.88 1239.22 1483.96 1239.29 1484.07 1239.33C1484.18 1239.38 1484.3 1239.4 1484.44 1239.4C1484.54 1239.4 1484.64 1239.39 1484.74 1239.37C1484.84 1239.35 1484.92 1239.34 1484.97 1239.33L1485.3 1240.91C1485.2 1240.94 1485.05 1240.98 1484.86 1241.02C1484.66 1241.07 1484.43 1241.09 1484.16 1241.1C1483.65 1241.12 1483.2 1241.06 1482.81 1240.9C1482.43 1240.74 1482.14 1240.5 1481.92 1240.17C1481.71 1239.85 1481.61 1239.43 1481.61 1238.93V1231.53ZM1490.65 1233.36V1234.95H1485.94V1233.36H1490.65ZM1487.02 1241V1232.81C1487.02 1232.26 1487.12 1231.8 1487.34 1231.43C1487.56 1231.07 1487.86 1230.8 1488.23 1230.61C1488.61 1230.43 1489.04 1230.34 1489.52 1230.34C1489.85 1230.34 1490.14 1230.37 1490.41 1230.42C1490.68 1230.47 1490.89 1230.51 1491.02 1230.55L1490.64 1232.14C1490.56 1232.11 1490.46 1232.09 1490.33 1232.07C1490.21 1232.04 1490.09 1232.03 1489.96 1232.03C1489.65 1232.03 1489.44 1232.1 1489.31 1232.25C1489.19 1232.39 1489.13 1232.59 1489.13 1232.85V1241H1487.02ZM1495.12 1241.15C1494.35 1241.15 1493.68 1240.99 1493.12 1240.66C1492.56 1240.33 1492.13 1239.86 1491.82 1239.27C1491.52 1238.68 1491.36 1237.99 1491.36 1237.21C1491.36 1236.42 1491.52 1235.73 1491.82 1235.14C1492.13 1234.55 1492.56 1234.09 1493.12 1233.76C1493.68 1233.43 1494.35 1233.26 1495.12 1233.26C1495.89 1233.26 1496.56 1233.43 1497.12 1233.76C1497.68 1234.09 1498.12 1234.55 1498.42 1235.14C1498.73 1235.73 1498.88 1236.42 1498.88 1237.21C1498.88 1237.99 1498.73 1238.68 1498.42 1239.27C1498.12 1239.86 1497.68 1240.33 1497.12 1240.66C1496.56 1240.99 1495.89 1241.15 1495.12 1241.15ZM1495.13 1239.51C1495.48 1239.51 1495.78 1239.41 1496.01 1239.21C1496.25 1239.01 1496.42 1238.73 1496.54 1238.38C1496.67 1238.04 1496.73 1237.64 1496.73 1237.2C1496.73 1236.75 1496.67 1236.36 1496.54 1236.01C1496.42 1235.66 1496.25 1235.39 1496.01 1235.18C1495.78 1234.98 1495.48 1234.88 1495.13 1234.88C1494.78 1234.88 1494.48 1234.98 1494.24 1235.18C1494 1235.39 1493.82 1235.66 1493.69 1236.01C1493.58 1236.36 1493.52 1236.75 1493.52 1237.2C1493.52 1237.64 1493.58 1238.04 1493.69 1238.38C1493.82 1238.73 1494 1239.01 1494.24 1239.21C1494.48 1239.41 1494.78 1239.51 1495.13 1239.51ZM1500.26 1241V1233.36H1502.31V1234.7H1502.39C1502.53 1234.22 1502.76 1233.86 1503.09 1233.62C1503.42 1233.38 1503.8 1233.25 1504.22 1233.25C1504.33 1233.25 1504.45 1233.26 1504.57 1233.27C1504.69 1233.29 1504.8 1233.31 1504.89 1233.33V1235.21C1504.79 1235.18 1504.65 1235.15 1504.48 1235.13C1504.3 1235.11 1504.14 1235.09 1504 1235.09C1503.68 1235.09 1503.41 1235.16 1503.16 1235.3C1502.92 1235.43 1502.73 1235.62 1502.58 1235.85C1502.44 1236.09 1502.38 1236.37 1502.38 1236.68V1241H1500.26ZM1505.99 1241V1233.36H1508V1234.71H1508.09C1508.25 1234.26 1508.52 1233.91 1508.89 1233.65C1509.26 1233.39 1509.7 1233.26 1510.22 1233.26C1510.75 1233.26 1511.19 1233.4 1511.56 1233.66C1511.93 1233.92 1512.17 1234.27 1512.29 1234.71H1512.37C1512.53 1234.27 1512.81 1233.92 1513.22 1233.66C1513.63 1233.4 1514.12 1233.26 1514.68 1233.26C1515.39 1233.26 1515.97 1233.49 1516.41 1233.95C1516.86 1234.4 1517.08 1235.04 1517.08 1235.86V1241H1514.97V1236.28C1514.97 1235.86 1514.86 1235.54 1514.63 1235.33C1514.41 1235.12 1514.12 1235.01 1513.79 1235.01C1513.4 1235.01 1513.1 1235.13 1512.89 1235.38C1512.67 1235.62 1512.56 1235.94 1512.56 1236.34V1241H1510.51V1236.24C1510.51 1235.86 1510.4 1235.56 1510.19 1235.34C1509.97 1235.12 1509.69 1235.01 1509.35 1235.01C1509.11 1235.01 1508.9 1235.07 1508.71 1235.19C1508.52 1235.3 1508.38 1235.47 1508.27 1235.68C1508.16 1235.89 1508.1 1236.13 1508.1 1236.42V1241H1505.99ZM1526.41 1230.82V1241H1524.25V1232.86H1524.19L1521.86 1234.32V1232.41L1524.38 1230.82H1526.41Z" fill="white"/>
<path d="M1378 1269.75C1379.93 1269.75 1381.81 1269.18 1383.42 1268.11C1385.02 1267.04 1386.27 1265.51 1387.01 1263.73C1387.75 1261.95 1387.94 1259.99 1387.56 1258.1C1387.19 1256.21 1386.26 1254.47 1384.89 1253.11C1383.53 1251.74 1381.79 1250.81 1379.9 1250.44C1378.01 1250.06 1376.05 1250.25 1374.27 1250.99C1372.49 1251.73 1370.96 1252.98 1369.89 1254.58C1368.82 1256.19 1368.25 1258.07 1368.25 1260C1368.25 1262.59 1369.28 1265.06 1371.11 1266.89C1372.94 1268.72 1375.41 1269.75 1378 1269.75ZM1378 1251.75C1379.63 1251.75 1381.23 1252.23 1382.58 1253.14C1383.94 1254.05 1385 1255.34 1385.62 1256.84C1386.25 1258.35 1386.41 1260.01 1386.09 1261.61C1385.77 1263.21 1384.99 1264.68 1383.83 1265.83C1382.68 1266.99 1381.21 1267.77 1379.61 1268.09C1378.01 1268.41 1376.35 1268.25 1374.84 1267.62C1373.34 1267 1372.05 1265.94 1371.14 1264.58C1370.23 1263.23 1369.75 1261.63 1369.75 1260C1369.75 1257.81 1370.62 1255.72 1372.17 1254.17C1373.72 1252.62 1375.81 1251.75 1378 1251.75ZM1373.72 1260.53C1373.65 1260.46 1373.59 1260.38 1373.56 1260.29C1373.52 1260.2 1373.5 1260.1 1373.5 1260C1373.5 1259.9 1373.52 1259.8 1373.56 1259.71C1373.59 1259.62 1373.65 1259.54 1373.72 1259.47L1376.72 1256.47C1376.86 1256.33 1377.05 1256.25 1377.25 1256.25C1377.45 1256.25 1377.64 1256.33 1377.78 1256.47C1377.92 1256.61 1378 1256.8 1378 1257C1378 1257.2 1377.92 1257.39 1377.78 1257.53L1376.06 1259.25L1381.75 1259.25C1381.95 1259.25 1382.14 1259.33 1382.28 1259.47C1382.42 1259.61 1382.5 1259.8 1382.5 1260C1382.5 1260.2 1382.42 1260.39 1382.28 1260.53C1382.14 1260.67 1381.95 1260.75 1381.75 1260.75L1376.06 1260.75L1377.78 1262.47C1377.92 1262.61 1378 1262.8 1378 1263C1378 1263.2 1377.92 1263.39 1377.78 1263.53C1377.64 1263.67 1377.45 1263.75 1377.25 1263.75C1377.05 1263.75 1376.86 1263.67 1376.72 1263.53L1373.72 1260.53Z" fill="white"/>
<path d="M1399.23 1255.91V1254.82H1406.87V1255.91H1403.67V1265H1402.43V1255.91H1399.23ZM1410.61 1265.16C1409.92 1265.16 1409.31 1265 1408.79 1264.67C1408.27 1264.34 1407.87 1263.88 1407.58 1263.29C1407.29 1262.7 1407.15 1262.01 1407.15 1261.22C1407.15 1260.43 1407.29 1259.73 1407.58 1259.14C1407.87 1258.55 1408.27 1258.08 1408.79 1257.76C1409.31 1257.43 1409.92 1257.26 1410.61 1257.26C1411.3 1257.26 1411.9 1257.43 1412.42 1257.76C1412.94 1258.08 1413.34 1258.55 1413.63 1259.14C1413.92 1259.73 1414.07 1260.43 1414.07 1261.22C1414.07 1262.01 1413.92 1262.7 1413.63 1263.29C1413.34 1263.88 1412.94 1264.34 1412.42 1264.67C1411.9 1265 1411.3 1265.16 1410.61 1265.16ZM1410.61 1264.11C1411.13 1264.11 1411.56 1263.97 1411.9 1263.7C1412.24 1263.43 1412.49 1263.08 1412.65 1262.64C1412.81 1262.21 1412.89 1261.73 1412.89 1261.22C1412.89 1260.71 1412.81 1260.24 1412.65 1259.79C1412.49 1259.35 1412.24 1259 1411.9 1258.73C1411.56 1258.45 1411.13 1258.32 1410.61 1258.32C1410.08 1258.32 1409.65 1258.45 1409.31 1258.73C1408.98 1259 1408.72 1259.35 1408.56 1259.79C1408.4 1260.24 1408.32 1260.71 1408.32 1261.22C1408.32 1261.73 1408.4 1262.21 1408.56 1262.64C1408.72 1263.08 1408.98 1263.43 1409.31 1263.7C1409.65 1263.97 1410.08 1264.11 1410.61 1264.11ZM1417.33 1265L1415 1257.36H1416.23L1417.88 1263.21H1417.96L1419.59 1257.36H1420.85L1422.46 1263.19H1422.54L1424.19 1257.36H1425.42L1423.09 1265H1421.94L1420.27 1259.13H1420.15L1418.48 1265H1417.33ZM1429.22 1265.18C1428.74 1265.18 1428.3 1265.09 1427.9 1264.91C1427.51 1264.72 1427.19 1264.45 1426.96 1264.11C1426.73 1263.75 1426.61 1263.33 1426.61 1262.83C1426.61 1262.39 1426.7 1262.04 1426.87 1261.77C1427.05 1261.49 1427.28 1261.28 1427.56 1261.12C1427.85 1260.97 1428.17 1260.85 1428.52 1260.77C1428.87 1260.69 1429.22 1260.63 1429.58 1260.59C1430.04 1260.53 1430.42 1260.48 1430.71 1260.45C1431 1260.42 1431.21 1260.36 1431.34 1260.29C1431.48 1260.21 1431.55 1260.08 1431.55 1259.89V1259.85C1431.55 1259.36 1431.41 1258.98 1431.14 1258.71C1430.88 1258.43 1430.48 1258.3 1429.94 1258.3C1429.38 1258.3 1428.94 1258.42 1428.62 1258.67C1428.3 1258.91 1428.08 1259.17 1427.95 1259.45L1426.83 1259.05C1427.03 1258.59 1427.3 1258.23 1427.63 1257.97C1427.96 1257.71 1428.33 1257.53 1428.72 1257.42C1429.12 1257.32 1429.51 1257.26 1429.9 1257.26C1430.14 1257.26 1430.42 1257.29 1430.74 1257.35C1431.06 1257.41 1431.37 1257.53 1431.67 1257.71C1431.97 1257.89 1432.22 1258.16 1432.42 1258.52C1432.62 1258.88 1432.72 1259.36 1432.72 1259.97V1265H1431.55V1263.97H1431.49C1431.41 1264.13 1431.27 1264.31 1431.09 1264.5C1430.9 1264.69 1430.66 1264.85 1430.35 1264.98C1430.04 1265.11 1429.66 1265.18 1429.22 1265.18ZM1429.4 1264.12C1429.86 1264.12 1430.25 1264.03 1430.57 1263.85C1430.89 1263.67 1431.14 1263.43 1431.3 1263.15C1431.46 1262.86 1431.55 1262.55 1431.55 1262.24V1261.16C1431.5 1261.22 1431.39 1261.28 1431.22 1261.33C1431.05 1261.37 1430.86 1261.41 1430.64 1261.45C1430.43 1261.48 1430.22 1261.51 1430.01 1261.54C1429.81 1261.56 1429.64 1261.58 1429.52 1261.6C1429.21 1261.64 1428.93 1261.7 1428.66 1261.79C1428.4 1261.88 1428.19 1262.01 1428.03 1262.19C1427.87 1262.36 1427.79 1262.59 1427.79 1262.89C1427.79 1263.3 1427.94 1263.61 1428.24 1263.82C1428.54 1264.02 1428.93 1264.12 1429.4 1264.12ZM1434.86 1265V1257.36H1435.99V1258.52H1436.07C1436.21 1258.14 1436.47 1257.83 1436.83 1257.6C1437.19 1257.36 1437.61 1257.24 1438.06 1257.24C1438.15 1257.24 1438.26 1257.25 1438.39 1257.25C1438.52 1257.25 1438.61 1257.26 1438.68 1257.26V1258.46C1438.64 1258.45 1438.55 1258.43 1438.41 1258.41C1438.27 1258.39 1438.12 1258.38 1437.96 1258.38C1437.59 1258.38 1437.26 1258.46 1436.97 1258.61C1436.68 1258.76 1436.45 1258.98 1436.28 1259.25C1436.12 1259.52 1436.03 1259.82 1436.03 1260.17V1265H1434.86ZM1442.72 1265.16C1442.08 1265.16 1441.52 1265 1441.04 1264.68C1440.55 1264.35 1440.17 1263.89 1439.89 1263.3C1439.62 1262.71 1439.48 1262.01 1439.48 1261.2C1439.48 1260.4 1439.62 1259.7 1439.89 1259.11C1440.17 1258.52 1440.55 1258.07 1441.04 1257.75C1441.53 1257.42 1442.1 1257.26 1442.74 1257.26C1443.24 1257.26 1443.63 1257.35 1443.92 1257.51C1444.21 1257.68 1444.43 1257.86 1444.59 1258.07C1444.74 1258.28 1444.86 1258.44 1444.95 1258.58H1445.05V1254.82H1446.22V1265H1445.09V1263.83H1444.95C1444.86 1263.97 1444.74 1264.14 1444.58 1264.35C1444.42 1264.56 1444.19 1264.75 1443.9 1264.92C1443.6 1265.08 1443.21 1265.16 1442.72 1265.16ZM1442.88 1264.11C1443.35 1264.11 1443.75 1263.98 1444.07 1263.74C1444.4 1263.49 1444.65 1263.15 1444.81 1262.71C1444.98 1262.27 1445.07 1261.76 1445.07 1261.18C1445.07 1260.61 1444.98 1260.11 1444.82 1259.69C1444.65 1259.25 1444.41 1258.92 1444.08 1258.68C1443.76 1258.44 1443.36 1258.32 1442.88 1258.32C1442.38 1258.32 1441.97 1258.45 1441.64 1258.7C1441.31 1258.95 1441.06 1259.3 1440.9 1259.73C1440.73 1260.16 1440.65 1260.64 1440.65 1261.18C1440.65 1261.73 1440.74 1262.22 1440.9 1262.66C1441.07 1263.1 1441.32 1263.46 1441.65 1263.72C1441.98 1263.98 1442.39 1264.11 1442.88 1264.11ZM1453.94 1259.07L1452.89 1259.37C1452.82 1259.2 1452.72 1259.03 1452.59 1258.86C1452.47 1258.69 1452.3 1258.55 1452.08 1258.44C1451.86 1258.33 1451.58 1258.28 1451.24 1258.28C1450.77 1258.28 1450.38 1258.39 1450.07 1258.6C1449.76 1258.81 1449.61 1259.08 1449.61 1259.41C1449.61 1259.7 1449.71 1259.93 1449.92 1260.1C1450.14 1260.27 1450.47 1260.41 1450.92 1260.53L1452.05 1260.8C1452.74 1260.97 1453.24 1261.22 1453.58 1261.56C1453.91 1261.9 1454.08 1262.34 1454.08 1262.87C1454.08 1263.31 1453.96 1263.7 1453.7 1264.05C1453.45 1264.39 1453.11 1264.66 1452.66 1264.86C1452.21 1265.06 1451.69 1265.16 1451.1 1265.16C1450.32 1265.16 1449.67 1264.99 1449.16 1264.65C1448.65 1264.31 1448.33 1263.82 1448.19 1263.17L1449.31 1262.89C1449.41 1263.3 1449.61 1263.61 1449.91 1263.82C1450.21 1264.02 1450.6 1264.12 1451.08 1264.12C1451.63 1264.12 1452.06 1264.01 1452.38 1263.78C1452.71 1263.54 1452.87 1263.26 1452.87 1262.93C1452.87 1262.67 1452.78 1262.44 1452.59 1262.27C1452.4 1262.08 1452.12 1261.95 1451.73 1261.86L1450.46 1261.56C1449.76 1261.39 1449.25 1261.14 1448.92 1260.79C1448.6 1260.44 1448.43 1260 1448.43 1259.47C1448.43 1259.04 1448.55 1258.66 1448.8 1258.33C1449.04 1258 1449.37 1257.74 1449.8 1257.55C1450.22 1257.36 1450.7 1257.26 1451.24 1257.26C1451.99 1257.26 1452.59 1257.43 1453.02 1257.76C1453.45 1258.09 1453.76 1258.53 1453.94 1259.07ZM1459.94 1254.82H1461.42L1464.88 1263.27H1465L1468.46 1254.82H1469.93V1265H1468.77V1257.26H1468.67L1465.49 1265H1464.38L1461.2 1257.26H1461.1V1265H1459.94V1254.82ZM1474.49 1265.18C1474 1265.18 1473.56 1265.09 1473.17 1264.91C1472.78 1264.72 1472.46 1264.45 1472.23 1264.11C1472 1263.75 1471.88 1263.33 1471.88 1262.83C1471.88 1262.39 1471.97 1262.04 1472.14 1261.77C1472.31 1261.49 1472.54 1261.28 1472.83 1261.12C1473.12 1260.97 1473.44 1260.85 1473.79 1260.77C1474.14 1260.69 1474.49 1260.63 1474.84 1260.59C1475.31 1260.53 1475.69 1260.48 1475.97 1260.45C1476.27 1260.42 1476.48 1260.36 1476.61 1260.29C1476.75 1260.21 1476.81 1260.08 1476.81 1259.89V1259.85C1476.81 1259.36 1476.68 1258.98 1476.41 1258.71C1476.15 1258.43 1475.74 1258.3 1475.2 1258.3C1474.64 1258.3 1474.2 1258.42 1473.89 1258.67C1473.57 1258.91 1473.34 1259.17 1473.21 1259.45L1472.1 1259.05C1472.3 1258.59 1472.56 1258.23 1472.9 1257.97C1473.23 1257.71 1473.6 1257.53 1473.99 1257.42C1474.39 1257.32 1474.78 1257.26 1475.16 1257.26C1475.41 1257.26 1475.69 1257.29 1476.01 1257.35C1476.33 1257.41 1476.64 1257.53 1476.94 1257.71C1477.24 1257.89 1477.49 1258.16 1477.69 1258.52C1477.89 1258.88 1477.99 1259.36 1477.99 1259.97V1265H1476.81V1263.97H1476.75C1476.67 1264.13 1476.54 1264.31 1476.36 1264.5C1476.17 1264.69 1475.92 1264.85 1475.62 1264.98C1475.31 1265.11 1474.93 1265.18 1474.49 1265.18ZM1474.67 1264.12C1475.13 1264.12 1475.52 1264.03 1475.84 1263.85C1476.16 1263.67 1476.4 1263.43 1476.57 1263.15C1476.73 1262.86 1476.81 1262.55 1476.81 1262.24V1261.16C1476.76 1261.22 1476.65 1261.28 1476.49 1261.33C1476.32 1261.37 1476.13 1261.41 1475.91 1261.45C1475.69 1261.48 1475.48 1261.51 1475.28 1261.54C1475.08 1261.56 1474.91 1261.58 1474.79 1261.6C1474.48 1261.64 1474.2 1261.7 1473.93 1261.79C1473.67 1261.88 1473.46 1262.01 1473.29 1262.19C1473.13 1262.36 1473.06 1262.59 1473.06 1262.89C1473.06 1263.3 1473.21 1263.61 1473.51 1263.82C1473.81 1264.02 1474.2 1264.12 1474.67 1264.12ZM1483.01 1265.16C1482.38 1265.16 1481.81 1265 1481.33 1264.68C1480.84 1264.35 1480.46 1263.89 1480.18 1263.3C1479.91 1262.71 1479.77 1262.01 1479.77 1261.2C1479.77 1260.4 1479.91 1259.7 1480.18 1259.11C1480.46 1258.52 1480.84 1258.07 1481.33 1257.75C1481.82 1257.42 1482.39 1257.26 1483.03 1257.26C1483.53 1257.26 1483.92 1257.35 1484.21 1257.51C1484.5 1257.68 1484.72 1257.86 1484.88 1258.07C1485.03 1258.28 1485.15 1258.44 1485.24 1258.58H1485.34V1254.82H1486.51V1265H1485.38V1263.83H1485.24C1485.15 1263.97 1485.03 1264.14 1484.87 1264.35C1484.71 1264.56 1484.49 1264.75 1484.19 1264.92C1483.9 1265.08 1483.5 1265.16 1483.01 1265.16ZM1483.17 1264.11C1483.64 1264.11 1484.04 1263.98 1484.36 1263.74C1484.69 1263.49 1484.94 1263.15 1485.11 1262.71C1485.27 1262.27 1485.36 1261.76 1485.36 1261.18C1485.36 1260.61 1485.28 1260.11 1485.11 1259.69C1484.94 1259.25 1484.7 1258.92 1484.37 1258.68C1484.05 1258.44 1483.65 1258.32 1483.17 1258.32C1482.67 1258.32 1482.26 1258.45 1481.93 1258.7C1481.6 1258.95 1481.35 1259.3 1481.19 1259.73C1481.03 1260.16 1480.94 1260.64 1480.94 1261.18C1480.94 1261.73 1481.03 1262.22 1481.19 1262.66C1481.36 1263.1 1481.61 1263.46 1481.94 1263.72C1482.27 1263.98 1482.68 1264.11 1483.17 1264.11ZM1491.07 1265.18C1490.59 1265.18 1490.15 1265.09 1489.75 1264.91C1489.36 1264.72 1489.05 1264.45 1488.81 1264.11C1488.58 1263.75 1488.47 1263.33 1488.47 1262.83C1488.47 1262.39 1488.55 1262.04 1488.72 1261.77C1488.9 1261.49 1489.13 1261.28 1489.42 1261.12C1489.7 1260.97 1490.02 1260.85 1490.37 1260.77C1490.72 1260.69 1491.07 1260.63 1491.43 1260.59C1491.89 1260.53 1492.27 1260.48 1492.56 1260.45C1492.85 1260.42 1493.06 1260.36 1493.19 1260.29C1493.33 1260.21 1493.4 1260.08 1493.4 1259.89V1259.85C1493.4 1259.36 1493.26 1258.98 1493 1258.71C1492.73 1258.43 1492.33 1258.3 1491.79 1258.3C1491.23 1258.3 1490.79 1258.42 1490.47 1258.67C1490.15 1258.91 1489.93 1259.17 1489.8 1259.45L1488.68 1259.05C1488.88 1258.59 1489.15 1258.23 1489.48 1257.97C1489.81 1257.71 1490.18 1257.53 1490.57 1257.42C1490.97 1257.32 1491.36 1257.26 1491.75 1257.26C1491.99 1257.26 1492.27 1257.29 1492.59 1257.35C1492.91 1257.41 1493.22 1257.53 1493.52 1257.71C1493.82 1257.89 1494.07 1258.16 1494.27 1258.52C1494.47 1258.88 1494.57 1259.36 1494.57 1259.97V1265H1493.4V1263.97H1493.34C1493.26 1264.13 1493.13 1264.31 1492.94 1264.5C1492.75 1264.69 1492.51 1264.85 1492.2 1264.98C1491.89 1265.11 1491.52 1265.18 1491.07 1265.18ZM1491.25 1264.12C1491.71 1264.12 1492.11 1264.03 1492.42 1263.85C1492.74 1263.67 1492.99 1263.43 1493.15 1263.15C1493.31 1262.86 1493.4 1262.55 1493.4 1262.24V1261.16C1493.35 1261.22 1493.24 1261.28 1493.07 1261.33C1492.9 1261.37 1492.71 1261.41 1492.49 1261.45C1492.28 1261.48 1492.07 1261.51 1491.86 1261.54C1491.66 1261.56 1491.5 1261.58 1491.37 1261.6C1491.06 1261.64 1490.78 1261.7 1490.51 1261.79C1490.25 1261.88 1490.04 1262.01 1489.88 1262.19C1489.72 1262.36 1489.64 1262.59 1489.64 1262.89C1489.64 1263.3 1489.79 1263.61 1490.09 1263.82C1490.4 1264.02 1490.78 1264.12 1491.25 1264.12ZM1498.44 1265L1496.12 1257.36H1497.35L1499 1263.21H1499.08L1500.71 1257.36H1501.96L1503.57 1263.19H1503.65L1505.3 1257.36H1506.54L1504.21 1265H1503.06L1501.39 1259.13H1501.27L1499.6 1265H1498.44ZM1510.33 1265.18C1509.85 1265.18 1509.41 1265.09 1509.02 1264.91C1508.62 1264.72 1508.31 1264.45 1508.08 1264.11C1507.85 1263.75 1507.73 1263.33 1507.73 1262.83C1507.73 1262.39 1507.82 1262.04 1507.99 1261.77C1508.16 1261.49 1508.39 1261.28 1508.68 1261.12C1508.97 1260.97 1509.29 1260.85 1509.63 1260.77C1509.99 1260.69 1510.34 1260.63 1510.69 1260.59C1511.16 1260.53 1511.53 1260.48 1511.82 1260.45C1512.11 1260.42 1512.32 1260.36 1512.46 1260.29C1512.59 1260.21 1512.66 1260.08 1512.66 1259.89V1259.85C1512.66 1259.36 1512.53 1258.98 1512.26 1258.71C1511.99 1258.43 1511.59 1258.3 1511.05 1258.3C1510.49 1258.3 1510.05 1258.42 1509.73 1258.67C1509.41 1258.91 1509.19 1259.17 1509.06 1259.45L1507.95 1259.05C1508.15 1258.59 1508.41 1258.23 1508.74 1257.97C1509.08 1257.71 1509.44 1257.53 1509.84 1257.42C1510.24 1257.32 1510.63 1257.26 1511.01 1257.26C1511.26 1257.26 1511.54 1257.29 1511.86 1257.35C1512.18 1257.41 1512.49 1257.53 1512.79 1257.71C1513.09 1257.89 1513.34 1258.16 1513.54 1258.52C1513.74 1258.88 1513.83 1259.36 1513.83 1259.97V1265H1512.66V1263.97H1512.6C1512.52 1264.13 1512.39 1264.31 1512.2 1264.5C1512.02 1264.69 1511.77 1264.85 1511.46 1264.98C1511.16 1265.11 1510.78 1265.18 1510.33 1265.18ZM1510.51 1264.12C1510.98 1264.12 1511.37 1264.03 1511.69 1263.85C1512.01 1263.67 1512.25 1263.43 1512.41 1263.15C1512.58 1262.86 1512.66 1262.55 1512.66 1262.24V1261.16C1512.61 1261.22 1512.5 1261.28 1512.33 1261.33C1512.17 1261.37 1511.98 1261.41 1511.76 1261.45C1511.54 1261.48 1511.33 1261.51 1511.13 1261.54C1510.92 1261.56 1510.76 1261.58 1510.63 1261.6C1510.33 1261.64 1510.04 1261.7 1509.78 1261.79C1509.52 1261.88 1509.3 1262.01 1509.14 1262.19C1508.98 1262.36 1508.9 1262.59 1508.9 1262.89C1508.9 1263.3 1509.05 1263.61 1509.36 1263.82C1509.66 1264.02 1510.05 1264.12 1510.51 1264.12ZM1515.98 1265V1257.36H1517.11V1258.52H1517.19C1517.33 1258.14 1517.58 1257.83 1517.94 1257.6C1518.31 1257.36 1518.72 1257.24 1519.18 1257.24C1519.26 1257.24 1519.37 1257.25 1519.5 1257.25C1519.63 1257.25 1519.73 1257.26 1519.79 1257.26V1258.46C1519.75 1258.45 1519.66 1258.43 1519.52 1258.41C1519.38 1258.39 1519.23 1258.38 1519.08 1258.38C1518.71 1258.38 1518.38 1258.46 1518.08 1258.61C1517.8 1258.76 1517.57 1258.98 1517.4 1259.25C1517.23 1259.52 1517.15 1259.82 1517.15 1260.17V1265H1515.98ZM1523.43 1265.18C1522.95 1265.18 1522.51 1265.09 1522.11 1264.91C1521.72 1264.72 1521.41 1264.45 1521.18 1264.11C1520.94 1263.75 1520.83 1263.33 1520.83 1262.83C1520.83 1262.39 1520.91 1262.04 1521.09 1261.77C1521.26 1261.49 1521.49 1261.28 1521.78 1261.12C1522.07 1260.97 1522.38 1260.85 1522.73 1260.77C1523.08 1260.69 1523.44 1260.63 1523.79 1260.59C1524.25 1260.53 1524.63 1260.48 1524.92 1260.45C1525.21 1260.42 1525.42 1260.36 1525.56 1260.29C1525.69 1260.21 1525.76 1260.08 1525.76 1259.89V1259.85C1525.76 1259.36 1525.62 1258.98 1525.36 1258.71C1525.09 1258.43 1524.69 1258.3 1524.15 1258.3C1523.59 1258.3 1523.15 1258.42 1522.83 1258.67C1522.51 1258.91 1522.29 1259.17 1522.16 1259.45L1521.05 1259.05C1521.24 1258.59 1521.51 1258.23 1521.84 1257.97C1522.18 1257.71 1522.54 1257.53 1522.94 1257.42C1523.33 1257.32 1523.72 1257.26 1524.11 1257.26C1524.35 1257.26 1524.64 1257.29 1524.95 1257.35C1525.28 1257.41 1525.59 1257.53 1525.88 1257.71C1526.18 1257.89 1526.44 1258.16 1526.63 1258.52C1526.83 1258.88 1526.93 1259.36 1526.93 1259.97V1265H1525.76V1263.97H1525.7C1525.62 1264.13 1525.49 1264.31 1525.3 1264.5C1525.12 1264.69 1524.87 1264.85 1524.56 1264.98C1524.25 1265.11 1523.88 1265.18 1523.43 1265.18ZM1523.61 1264.12C1524.08 1264.12 1524.47 1264.03 1524.78 1263.85C1525.11 1263.67 1525.35 1263.43 1525.51 1263.15C1525.68 1262.86 1525.76 1262.55 1525.76 1262.24V1261.16C1525.71 1261.22 1525.6 1261.28 1525.43 1261.33C1525.27 1261.37 1525.07 1261.41 1524.85 1261.45C1524.64 1261.48 1524.43 1261.51 1524.22 1261.54C1524.02 1261.56 1523.86 1261.58 1523.73 1261.6C1523.43 1261.64 1523.14 1261.7 1522.88 1261.79C1522.61 1261.88 1522.4 1262.01 1522.24 1262.19C1522.08 1262.36 1522 1262.59 1522 1262.89C1522 1263.3 1522.15 1263.61 1522.45 1263.82C1522.76 1264.02 1523.14 1264.12 1523.61 1264.12Z" fill="white"/>
<rect width="192" height="48" transform="translate(1344 168)" fill="#242424"/>
<path d="M1353.03 185V174.818H1357.05C1357.82 174.818 1358.48 174.966 1359.02 175.261C1359.56 175.552 1359.98 175.958 1360.26 176.479C1360.55 176.996 1360.7 177.592 1360.7 178.268C1360.7 178.945 1360.55 179.541 1360.26 180.058C1359.97 180.575 1359.54 180.978 1358.99 181.266C1358.44 181.555 1357.77 181.699 1356.99 181.699H1354.43V179.974H1356.64C1357.06 179.974 1357.4 179.902 1357.67 179.76C1357.94 179.614 1358.14 179.414 1358.27 179.158C1358.41 178.9 1358.48 178.603 1358.48 178.268C1358.48 177.93 1358.41 177.635 1358.27 177.384C1358.14 177.128 1357.94 176.931 1357.67 176.792C1357.4 176.649 1357.05 176.578 1356.63 176.578H1355.18V185H1353.03ZM1364.17 174.818V185H1362.05V174.818H1364.17ZM1368.05 185.144C1367.56 185.144 1367.12 185.06 1366.74 184.891C1366.36 184.718 1366.06 184.465 1365.84 184.13C1365.62 183.792 1365.51 183.371 1365.51 182.867C1365.51 182.443 1365.59 182.087 1365.74 181.798C1365.9 181.51 1366.11 181.278 1366.38 181.102C1366.65 180.927 1366.95 180.794 1367.3 180.705C1367.64 180.615 1368 180.552 1368.38 180.516C1368.82 180.469 1369.18 180.426 1369.45 180.386C1369.72 180.343 1369.92 180.28 1370.04 180.197C1370.17 180.115 1370.23 179.992 1370.23 179.83V179.8C1370.23 179.485 1370.13 179.241 1369.93 179.069C1369.73 178.897 1369.46 178.81 1369.1 178.81C1368.71 178.81 1368.41 178.895 1368.19 179.064C1367.96 179.23 1367.81 179.438 1367.74 179.69L1365.78 179.531C1365.88 179.067 1366.07 178.666 1366.37 178.328C1366.66 177.987 1367.03 177.725 1367.49 177.543C1367.96 177.357 1368.5 177.264 1369.11 177.264C1369.53 177.264 1369.94 177.314 1370.32 177.413C1370.71 177.513 1371.06 177.667 1371.36 177.876C1371.67 178.085 1371.91 178.353 1372.08 178.681C1372.26 179.006 1372.35 179.395 1372.35 179.849V185H1370.34V183.941H1370.28C1370.16 184.18 1369.99 184.39 1369.79 184.572C1369.58 184.751 1369.33 184.892 1369.05 184.995C1368.76 185.094 1368.42 185.144 1368.05 185.144ZM1368.65 183.683C1368.96 183.683 1369.24 183.621 1369.48 183.499C1369.72 183.373 1369.9 183.204 1370.04 182.991C1370.18 182.779 1370.24 182.539 1370.24 182.271V181.46C1370.18 181.503 1370.09 181.543 1369.97 181.58C1369.86 181.613 1369.73 181.644 1369.59 181.674C1369.44 181.701 1369.3 181.725 1369.16 181.749C1369.02 181.768 1368.89 181.787 1368.77 181.803C1368.52 181.84 1368.31 181.898 1368.12 181.977C1367.94 182.057 1367.79 182.165 1367.69 182.3C1367.59 182.433 1367.53 182.599 1367.53 182.798C1367.53 183.086 1367.64 183.306 1367.85 183.459C1368.06 183.608 1368.33 183.683 1368.65 183.683ZM1378.05 177.364V178.955H1373.45V177.364H1378.05ZM1374.5 175.534H1376.61V182.653C1376.61 182.849 1376.64 183.001 1376.7 183.111C1376.76 183.217 1376.85 183.291 1376.95 183.335C1377.06 183.378 1377.19 183.399 1377.33 183.399C1377.43 183.399 1377.53 183.391 1377.63 183.374C1377.73 183.354 1377.8 183.339 1377.86 183.33L1378.19 184.906C1378.08 184.939 1377.94 184.977 1377.74 185.02C1377.55 185.066 1377.32 185.094 1377.04 185.104C1376.53 185.124 1376.08 185.056 1375.7 184.901C1375.32 184.745 1375.02 184.503 1374.81 184.175C1374.6 183.847 1374.49 183.432 1374.5 182.932V175.534ZM1383.54 177.364V178.955H1378.82V177.364H1383.54ZM1379.9 185V176.812C1379.9 176.258 1380.01 175.799 1380.23 175.435C1380.45 175.07 1380.74 174.797 1381.12 174.614C1381.5 174.432 1381.93 174.341 1382.41 174.341C1382.73 174.341 1383.03 174.366 1383.3 174.415C1383.57 174.465 1383.77 174.51 1383.91 174.55L1383.53 176.141C1383.44 176.114 1383.34 176.089 1383.22 176.066C1383.1 176.043 1382.98 176.031 1382.85 176.031C1382.54 176.031 1382.32 176.104 1382.2 176.25C1382.08 176.393 1382.02 176.593 1382.02 176.852V185H1379.9ZM1388.01 185.149C1387.24 185.149 1386.57 184.985 1386 184.657C1385.44 184.326 1385.01 183.865 1384.71 183.275C1384.4 182.682 1384.25 181.994 1384.25 181.212C1384.25 180.423 1384.4 179.733 1384.71 179.143C1385.01 178.55 1385.44 178.089 1386 177.761C1386.57 177.43 1387.24 177.264 1388.01 177.264C1388.78 177.264 1389.45 177.43 1390.01 177.761C1390.57 178.089 1391 178.55 1391.31 179.143C1391.61 179.733 1391.77 180.423 1391.77 181.212C1391.77 181.994 1391.61 182.682 1391.31 183.275C1391 183.865 1390.57 184.326 1390.01 184.657C1389.45 184.985 1388.78 185.149 1388.01 185.149ZM1388.02 183.509C1388.37 183.509 1388.66 183.409 1388.9 183.21C1389.13 183.008 1389.31 182.733 1389.43 182.385C1389.55 182.037 1389.61 181.641 1389.61 181.197C1389.61 180.753 1389.55 180.357 1389.43 180.009C1389.31 179.661 1389.13 179.385 1388.9 179.183C1388.66 178.981 1388.37 178.88 1388.02 178.88C1387.66 178.88 1387.37 178.981 1387.12 179.183C1386.88 179.385 1386.7 179.661 1386.58 180.009C1386.46 180.357 1386.4 180.753 1386.4 181.197C1386.4 181.641 1386.46 182.037 1386.58 182.385C1386.7 182.733 1386.88 183.008 1387.12 183.21C1387.37 183.409 1387.66 183.509 1388.02 183.509ZM1393.14 185V177.364H1395.2V178.696H1395.28C1395.42 178.222 1395.65 177.864 1395.98 177.622C1396.31 177.377 1396.68 177.254 1397.11 177.254C1397.22 177.254 1397.33 177.261 1397.45 177.274C1397.58 177.287 1397.68 177.306 1397.78 177.329V179.208C1397.68 179.178 1397.54 179.152 1397.36 179.129C1397.19 179.105 1397.03 179.094 1396.88 179.094C1396.57 179.094 1396.29 179.162 1396.05 179.298C1395.81 179.43 1395.61 179.616 1395.47 179.854C1395.33 180.093 1395.26 180.368 1395.26 180.68V185H1393.14ZM1398.87 185V177.364H1400.89V178.711H1400.98C1401.14 178.263 1401.4 177.911 1401.78 177.652C1402.15 177.393 1402.59 177.264 1403.11 177.264C1403.63 177.264 1404.08 177.395 1404.45 177.657C1404.81 177.915 1405.06 178.267 1405.18 178.711H1405.26C1405.42 178.273 1405.7 177.924 1406.11 177.662C1406.52 177.397 1407 177.264 1407.56 177.264C1408.28 177.264 1408.85 177.491 1409.3 177.945C1409.75 178.396 1409.97 179.036 1409.97 179.864V185H1407.86V180.282C1407.86 179.858 1407.74 179.54 1407.52 179.327C1407.29 179.115 1407.01 179.009 1406.67 179.009C1406.29 179.009 1405.99 179.132 1405.77 179.377C1405.56 179.619 1405.45 179.939 1405.45 180.337V185H1403.4V180.237C1403.4 179.863 1403.29 179.564 1403.07 179.342C1402.86 179.12 1402.58 179.009 1402.23 179.009C1402 179.009 1401.79 179.069 1401.6 179.188C1401.41 179.304 1401.26 179.468 1401.15 179.68C1401.05 179.889 1400.99 180.134 1400.99 180.416V185H1398.87ZM1414.86 185V183.449L1418.49 180.093C1418.79 179.795 1419.05 179.526 1419.26 179.288C1419.47 179.049 1419.64 178.815 1419.74 178.587C1419.85 178.355 1419.91 178.104 1419.91 177.836C1419.91 177.538 1419.84 177.281 1419.7 177.065C1419.57 176.847 1419.38 176.679 1419.15 176.563C1418.91 176.444 1418.65 176.384 1418.35 176.384C1418.04 176.384 1417.76 176.447 1417.53 176.573C1417.3 176.699 1417.12 176.88 1417 177.115C1416.87 177.35 1416.81 177.63 1416.81 177.955H1414.76C1414.76 177.289 1414.91 176.711 1415.22 176.22C1415.52 175.73 1415.94 175.35 1416.48 175.082C1417.03 174.813 1417.65 174.679 1418.36 174.679C1419.09 174.679 1419.73 174.808 1420.27 175.067C1420.81 175.322 1421.23 175.677 1421.53 176.131C1421.84 176.585 1421.99 177.105 1421.99 177.692C1421.99 178.076 1421.91 178.456 1421.76 178.83C1421.61 179.205 1421.34 179.621 1420.96 180.078C1420.57 180.532 1420.03 181.077 1419.33 181.714L1417.85 183.17V183.24H1422.12V185H1414.86Z" fill="white"/>
<path d="M1353.04 199.912V198.818H1360.68V199.912H1357.48V209H1356.24V199.912H1353.04ZM1364.42 209.159C1363.73 209.159 1363.12 208.995 1362.6 208.667C1362.08 208.339 1361.68 207.88 1361.39 207.29C1361.1 206.7 1360.96 206.01 1360.96 205.222C1360.96 204.426 1361.1 203.732 1361.39 203.138C1361.68 202.545 1362.08 202.085 1362.6 201.756C1363.12 201.428 1363.73 201.264 1364.42 201.264C1365.1 201.264 1365.71 201.428 1366.23 201.756C1366.75 202.085 1367.15 202.545 1367.44 203.138C1367.73 203.732 1367.88 204.426 1367.88 205.222C1367.88 206.01 1367.73 206.7 1367.44 207.29C1367.15 207.88 1366.75 208.339 1366.23 208.667C1365.71 208.995 1365.1 209.159 1364.42 209.159ZM1364.42 208.105C1364.94 208.105 1365.37 207.971 1365.71 207.702C1366.05 207.434 1366.3 207.081 1366.46 206.643C1366.62 206.206 1366.7 205.732 1366.7 205.222C1366.7 204.711 1366.62 204.236 1366.46 203.795C1366.3 203.354 1366.05 202.998 1365.71 202.726C1365.37 202.454 1364.94 202.318 1364.42 202.318C1363.89 202.318 1363.46 202.454 1363.12 202.726C1362.78 202.998 1362.53 203.354 1362.37 203.795C1362.21 204.236 1362.13 204.711 1362.13 205.222C1362.13 205.732 1362.21 206.206 1362.37 206.643C1362.53 207.081 1362.78 207.434 1363.12 207.702C1363.46 207.971 1363.89 208.105 1364.42 208.105ZM1371.14 209L1368.81 201.364H1370.04L1371.69 207.21H1371.77L1373.4 201.364H1374.66L1376.27 207.19H1376.35L1378 201.364H1379.23L1376.9 209H1375.75L1374.08 203.134H1373.96L1372.29 209H1371.14ZM1383.03 209.179C1382.55 209.179 1382.11 209.088 1381.71 208.906C1381.32 208.72 1381 208.453 1380.77 208.105C1380.54 207.754 1380.42 207.33 1380.42 206.832C1380.42 206.395 1380.51 206.04 1380.68 205.768C1380.85 205.493 1381.09 205.278 1381.37 205.122C1381.66 204.966 1381.98 204.85 1382.33 204.774C1382.68 204.695 1383.03 204.632 1383.39 204.585C1383.85 204.526 1384.23 204.481 1384.52 204.451C1384.81 204.418 1385.02 204.363 1385.15 204.287C1385.29 204.211 1385.36 204.078 1385.36 203.889V203.849C1385.36 203.359 1385.22 202.978 1384.95 202.706C1384.69 202.434 1384.29 202.298 1383.74 202.298C1383.18 202.298 1382.75 202.421 1382.43 202.666C1382.11 202.911 1381.89 203.173 1381.76 203.452L1380.64 203.054C1380.84 202.59 1381.11 202.229 1381.44 201.97C1381.77 201.708 1382.14 201.526 1382.53 201.423C1382.93 201.317 1383.32 201.264 1383.71 201.264C1383.95 201.264 1384.23 201.294 1384.55 201.354C1384.87 201.41 1385.18 201.528 1385.48 201.707C1385.78 201.886 1386.03 202.156 1386.23 202.517C1386.43 202.878 1386.53 203.362 1386.53 203.969V209H1385.36V207.966H1385.3C1385.22 208.132 1385.08 208.309 1384.9 208.498C1384.71 208.687 1384.47 208.848 1384.16 208.98C1383.85 209.113 1383.47 209.179 1383.03 209.179ZM1383.21 208.125C1383.67 208.125 1384.06 208.034 1384.38 207.852C1384.7 207.669 1384.94 207.434 1385.11 207.146C1385.27 206.857 1385.36 206.554 1385.36 206.236V205.162C1385.31 205.222 1385.2 205.276 1385.03 205.326C1384.86 205.372 1384.67 205.414 1384.45 205.45C1384.24 205.483 1384.03 205.513 1383.82 205.54C1383.62 205.563 1383.45 205.583 1383.33 205.599C1383.02 205.639 1382.74 205.704 1382.47 205.793C1382.21 205.879 1382 206.01 1381.84 206.186C1381.68 206.358 1381.6 206.594 1381.6 206.892C1381.6 207.3 1381.75 207.608 1382.05 207.817C1382.35 208.022 1382.74 208.125 1383.21 208.125ZM1388.67 209V201.364H1389.8V202.517H1389.88C1390.02 202.139 1390.27 201.833 1390.64 201.597C1391 201.362 1391.41 201.244 1391.87 201.244C1391.96 201.244 1392.07 201.246 1392.2 201.249C1392.32 201.253 1392.42 201.258 1392.49 201.264V202.457C1392.45 202.447 1392.36 202.433 1392.22 202.413C1392.08 202.389 1391.93 202.378 1391.77 202.378C1391.4 202.378 1391.07 202.456 1390.78 202.612C1390.49 202.764 1390.26 202.976 1390.09 203.248C1389.93 203.516 1389.84 203.823 1389.84 204.168V209H1388.67ZM1396.53 209.159C1395.89 209.159 1395.33 208.998 1394.85 208.677C1394.36 208.352 1393.98 207.895 1393.7 207.305C1393.43 206.711 1393.29 206.01 1393.29 205.202C1393.29 204.4 1393.43 203.704 1393.7 203.114C1393.98 202.524 1394.36 202.068 1394.85 201.746C1395.34 201.425 1395.91 201.264 1396.55 201.264C1397.05 201.264 1397.44 201.347 1397.73 201.513C1398.02 201.675 1398.24 201.861 1398.39 202.07C1398.55 202.275 1398.67 202.444 1398.76 202.577H1398.86V198.818H1400.03V209H1398.9V207.827H1398.76C1398.67 207.966 1398.55 208.142 1398.39 208.354C1398.23 208.562 1398 208.75 1397.71 208.915C1397.41 209.078 1397.02 209.159 1396.53 209.159ZM1396.69 208.105C1397.16 208.105 1397.56 207.982 1397.88 207.737C1398.21 207.489 1398.45 207.146 1398.62 206.708C1398.79 206.267 1398.88 205.759 1398.88 205.182C1398.88 204.612 1398.79 204.113 1398.63 203.685C1398.46 203.254 1398.22 202.92 1397.89 202.681C1397.57 202.439 1397.17 202.318 1396.69 202.318C1396.19 202.318 1395.78 202.446 1395.45 202.701C1395.12 202.953 1394.87 203.296 1394.71 203.73C1394.54 204.161 1394.46 204.645 1394.46 205.182C1394.46 205.725 1394.55 206.219 1394.71 206.663C1394.88 207.104 1395.13 207.455 1395.46 207.717C1395.79 207.976 1396.2 208.105 1396.69 208.105ZM1407.75 203.074L1406.7 203.372C1406.63 203.196 1406.53 203.026 1406.4 202.86C1406.28 202.691 1406.11 202.552 1405.89 202.442C1405.67 202.333 1405.39 202.278 1405.05 202.278C1404.58 202.278 1404.19 202.386 1403.88 202.602C1403.57 202.814 1403.42 203.084 1403.42 203.412C1403.42 203.704 1403.52 203.934 1403.73 204.103C1403.95 204.272 1404.28 204.413 1404.73 204.526L1405.86 204.804C1406.55 204.97 1407.05 205.223 1407.39 205.565C1407.72 205.903 1407.89 206.339 1407.89 206.872C1407.89 207.31 1407.76 207.701 1407.51 208.045C1407.26 208.39 1406.92 208.662 1406.47 208.861C1406.02 209.06 1405.5 209.159 1404.91 209.159C1404.13 209.159 1403.48 208.99 1402.97 208.652C1402.46 208.314 1402.14 207.82 1402 207.17L1403.12 206.892C1403.22 207.303 1403.42 207.611 1403.72 207.817C1404.02 208.022 1404.41 208.125 1404.89 208.125C1405.43 208.125 1405.87 208.009 1406.19 207.777C1406.52 207.542 1406.68 207.26 1406.68 206.932C1406.68 206.667 1406.58 206.445 1406.4 206.266C1406.21 206.083 1405.93 205.947 1405.54 205.858L1404.27 205.56C1403.57 205.394 1403.06 205.137 1402.73 204.789C1402.41 204.438 1402.24 203.999 1402.24 203.472C1402.24 203.041 1402.36 202.66 1402.61 202.328C1402.85 201.997 1403.18 201.737 1403.61 201.548C1404.03 201.359 1404.51 201.264 1405.05 201.264C1405.8 201.264 1406.4 201.43 1406.83 201.761C1407.26 202.093 1407.57 202.53 1407.75 203.074ZM1419.32 201.364C1419.26 200.86 1419.02 200.469 1418.6 200.19C1418.17 199.912 1417.65 199.773 1417.03 199.773C1416.58 199.773 1416.19 199.846 1415.85 199.991C1415.52 200.137 1415.25 200.338 1415.07 200.593C1414.88 200.848 1414.79 201.138 1414.79 201.463C1414.79 201.735 1414.85 201.969 1414.98 202.164C1415.11 202.356 1415.28 202.517 1415.49 202.646C1415.69 202.772 1415.91 202.877 1416.13 202.96C1416.36 203.039 1416.57 203.104 1416.76 203.153L1417.79 203.432C1418.06 203.501 1418.35 203.598 1418.68 203.72C1419 203.843 1419.32 204.01 1419.61 204.222C1419.92 204.431 1420.17 204.7 1420.36 205.028C1420.56 205.356 1420.65 205.759 1420.65 206.236C1420.65 206.786 1420.51 207.283 1420.22 207.727C1419.94 208.171 1419.52 208.524 1418.97 208.786C1418.42 209.048 1417.76 209.179 1416.98 209.179C1416.25 209.179 1415.61 209.061 1415.08 208.826C1414.55 208.591 1414.13 208.263 1413.83 207.842C1413.53 207.421 1413.36 206.932 1413.32 206.375H1414.59C1414.62 206.759 1414.75 207.078 1414.98 207.33C1415.21 207.578 1415.49 207.764 1415.84 207.886C1416.19 208.006 1416.57 208.065 1416.98 208.065C1417.45 208.065 1417.87 207.989 1418.24 207.837C1418.62 207.681 1418.91 207.465 1419.13 207.19C1419.35 206.912 1419.46 206.587 1419.46 206.216C1419.46 205.878 1419.37 205.603 1419.18 205.391C1418.99 205.179 1418.74 205.006 1418.43 204.874C1418.12 204.741 1417.79 204.625 1417.43 204.526L1416.18 204.168C1415.38 203.939 1414.75 203.612 1414.29 203.188C1413.83 202.764 1413.59 202.209 1413.59 201.523C1413.59 200.953 1413.75 200.455 1414.06 200.031C1414.37 199.604 1414.79 199.272 1415.31 199.037C1415.84 198.798 1416.42 198.679 1417.07 198.679C1417.73 198.679 1418.31 198.797 1418.82 199.032C1419.33 199.264 1419.74 199.582 1420.04 199.987C1420.34 200.391 1420.5 200.85 1420.51 201.364H1419.32ZM1422.52 209V201.364H1423.7V209H1422.52ZM1423.12 200.091C1422.89 200.091 1422.69 200.013 1422.53 199.857C1422.36 199.701 1422.28 199.514 1422.28 199.295C1422.28 199.077 1422.36 198.889 1422.53 198.734C1422.69 198.578 1422.89 198.5 1423.12 198.5C1423.35 198.5 1423.54 198.578 1423.71 198.734C1423.87 198.889 1423.95 199.077 1423.95 199.295C1423.95 199.514 1423.87 199.701 1423.71 199.857C1423.54 200.013 1423.35 200.091 1423.12 200.091ZM1427.02 198.818V209H1425.84V198.818H1427.02ZM1430.26 206.216L1430.24 204.764H1430.48L1433.82 201.364H1435.27L1431.71 204.963H1431.61L1430.26 206.216ZM1429.17 209V198.818H1430.34V209H1429.17ZM1434.02 209L1431.04 205.222L1431.87 204.406L1435.51 209H1434.02ZM1442.11 198.818V209H1440.88V198.818H1442.11ZM1445.6 204.406V209H1444.42V201.364H1445.56V202.557H1445.66C1445.84 202.169 1446.11 201.857 1446.47 201.622C1446.84 201.384 1447.31 201.264 1447.88 201.264C1448.4 201.264 1448.85 201.37 1449.24 201.582C1449.63 201.791 1449.93 202.109 1450.15 202.537C1450.36 202.961 1450.47 203.498 1450.47 204.148V209H1449.3V204.227C1449.3 203.627 1449.14 203.16 1448.83 202.825C1448.52 202.487 1448.09 202.318 1447.55 202.318C1447.17 202.318 1446.84 202.399 1446.54 202.562C1446.25 202.724 1446.02 202.961 1445.85 203.273C1445.68 203.584 1445.6 203.962 1445.6 204.406ZM1458.02 203.074L1456.97 203.372C1456.9 203.196 1456.8 203.026 1456.68 202.86C1456.55 202.691 1456.38 202.552 1456.16 202.442C1455.94 202.333 1455.66 202.278 1455.32 202.278C1454.85 202.278 1454.46 202.386 1454.15 202.602C1453.84 202.814 1453.69 203.084 1453.69 203.412C1453.69 203.704 1453.79 203.934 1454.01 204.103C1454.22 204.272 1454.55 204.413 1455 204.526L1456.13 204.804C1456.82 204.97 1457.33 205.223 1457.66 205.565C1457.99 205.903 1458.16 206.339 1458.16 206.872C1458.16 207.31 1458.04 207.701 1457.78 208.045C1457.54 208.39 1457.19 208.662 1456.74 208.861C1456.29 209.06 1455.77 209.159 1455.18 209.159C1454.4 209.159 1453.76 208.99 1453.25 208.652C1452.73 208.314 1452.41 207.82 1452.28 207.17L1453.39 206.892C1453.5 207.303 1453.7 207.611 1453.99 207.817C1454.29 208.022 1454.68 208.125 1455.16 208.125C1455.71 208.125 1456.14 208.009 1456.46 207.777C1456.79 207.542 1456.95 207.26 1456.95 206.932C1456.95 206.667 1456.86 206.445 1456.67 206.266C1456.49 206.083 1456.2 205.947 1455.82 205.858L1454.54 205.56C1453.84 205.394 1453.33 205.137 1453 204.789C1452.68 204.438 1452.51 203.999 1452.51 203.472C1452.51 203.041 1452.64 202.66 1452.88 202.328C1453.12 201.997 1453.46 201.737 1453.88 201.548C1454.3 201.359 1454.78 201.264 1455.32 201.264C1456.07 201.264 1456.67 201.43 1457.1 201.761C1457.53 202.093 1457.84 202.53 1458.02 203.074ZM1463.25 201.364V202.358H1459.29V201.364H1463.25ZM1460.45 199.534H1461.62V206.812C1461.62 207.144 1461.67 207.393 1461.76 207.558C1461.86 207.721 1461.99 207.83 1462.14 207.886C1462.3 207.939 1462.46 207.966 1462.63 207.966C1462.76 207.966 1462.87 207.959 1462.95 207.946C1463.03 207.929 1463.1 207.916 1463.15 207.906L1463.39 208.96C1463.31 208.99 1463.2 209.02 1463.06 209.05C1462.91 209.083 1462.73 209.099 1462.51 209.099C1462.18 209.099 1461.86 209.028 1461.54 208.886C1461.22 208.743 1460.96 208.526 1460.75 208.234C1460.55 207.943 1460.45 207.575 1460.45 207.131V199.534ZM1465.01 209V201.364H1466.19V209H1465.01ZM1465.61 200.091C1465.38 200.091 1465.18 200.013 1465.02 199.857C1464.86 199.701 1464.78 199.514 1464.78 199.295C1464.78 199.077 1464.86 198.889 1465.02 198.734C1465.18 198.578 1465.38 198.5 1465.61 198.5C1465.84 198.5 1466.04 198.578 1466.2 198.734C1466.36 198.889 1466.45 199.077 1466.45 199.295C1466.45 199.514 1466.36 199.701 1466.2 199.857C1466.04 200.013 1465.84 200.091 1465.61 200.091ZM1471.66 201.364V202.358H1467.7V201.364H1471.66ZM1468.85 199.534H1470.03V206.812C1470.03 207.144 1470.07 207.393 1470.17 207.558C1470.27 207.721 1470.4 207.83 1470.55 207.886C1470.7 207.939 1470.87 207.966 1471.04 207.966C1471.17 207.966 1471.28 207.959 1471.36 207.946C1471.44 207.929 1471.51 207.916 1471.56 207.906L1471.8 208.96C1471.72 208.99 1471.61 209.02 1471.46 209.05C1471.32 209.083 1471.14 209.099 1470.92 209.099C1470.59 209.099 1470.27 209.028 1469.95 208.886C1469.63 208.743 1469.37 208.526 1469.16 208.234C1468.96 207.943 1468.85 207.575 1468.85 207.131V199.534ZM1478.23 205.878V201.364H1479.41V209H1478.23V207.707H1478.16C1477.98 208.095 1477.7 208.425 1477.32 208.697C1476.94 208.965 1476.47 209.099 1475.89 209.099C1475.41 209.099 1474.99 208.995 1474.62 208.786C1474.24 208.574 1473.95 208.256 1473.74 207.832C1473.53 207.404 1473.42 206.866 1473.42 206.216V201.364H1474.6V206.136C1474.6 206.693 1474.75 207.137 1475.06 207.469C1475.38 207.8 1475.78 207.966 1476.27 207.966C1476.56 207.966 1476.85 207.891 1477.16 207.742C1477.46 207.593 1477.72 207.364 1477.92 207.056C1478.13 206.748 1478.23 206.355 1478.23 205.878ZM1484.88 201.364V202.358H1480.92V201.364H1484.88ZM1482.07 199.534H1483.25V206.812C1483.25 207.144 1483.3 207.393 1483.39 207.558C1483.49 207.721 1483.62 207.83 1483.77 207.886C1483.93 207.939 1484.09 207.966 1484.26 207.966C1484.39 207.966 1484.5 207.959 1484.58 207.946C1484.66 207.929 1484.73 207.916 1484.78 207.906L1485.02 208.96C1484.94 208.99 1484.83 209.02 1484.68 209.05C1484.54 209.083 1484.36 209.099 1484.14 209.099C1483.81 209.099 1483.49 209.028 1483.17 208.886C1482.85 208.743 1482.59 208.526 1482.38 208.234C1482.18 207.943 1482.07 207.575 1482.07 207.131V199.534ZM1489.76 209.159C1489.03 209.159 1488.39 208.997 1487.86 208.672C1487.33 208.344 1486.92 207.886 1486.63 207.3C1486.35 206.71 1486.2 206.024 1486.2 205.241C1486.2 204.459 1486.35 203.77 1486.63 203.173C1486.92 202.573 1487.32 202.106 1487.83 201.771C1488.35 201.433 1488.95 201.264 1489.64 201.264C1490.04 201.264 1490.43 201.33 1490.82 201.463C1491.21 201.596 1491.56 201.811 1491.88 202.109C1492.2 202.404 1492.45 202.795 1492.64 203.283C1492.83 203.77 1492.92 204.37 1492.92 205.082V205.58H1487.04V204.565H1491.73C1491.73 204.134 1491.65 203.75 1491.47 203.412C1491.3 203.074 1491.06 202.807 1490.75 202.612C1490.44 202.416 1490.07 202.318 1489.64 202.318C1489.18 202.318 1488.77 202.434 1488.43 202.666C1488.09 202.895 1487.83 203.193 1487.65 203.561C1487.47 203.929 1487.38 204.323 1487.38 204.744V205.42C1487.38 205.997 1487.48 206.486 1487.67 206.887C1487.88 207.285 1488.16 207.588 1488.52 207.797C1488.87 208.002 1489.29 208.105 1489.76 208.105C1490.07 208.105 1490.35 208.062 1490.6 207.976C1490.85 207.886 1491.07 207.754 1491.25 207.578C1491.43 207.399 1491.57 207.177 1491.67 206.912L1492.81 207.23C1492.69 207.615 1492.49 207.953 1492.2 208.244C1491.92 208.533 1491.57 208.758 1491.16 208.92C1490.75 209.08 1490.28 209.159 1489.76 209.159Z" fill="white"/>
<path d="M1514 194.25C1512.07 194.25 1510.19 194.822 1508.58 195.893C1506.98 196.965 1505.73 198.487 1504.99 200.269C1504.25 202.05 1504.06 204.011 1504.44 205.902C1504.81 207.793 1505.74 209.531 1507.11 210.894C1508.47 212.258 1510.21 213.186 1512.1 213.563C1513.99 213.939 1515.95 213.746 1517.73 213.008C1519.51 212.27 1521.04 211.02 1522.11 209.417C1523.18 207.813 1523.75 205.928 1523.75 204C1523.75 201.415 1522.72 198.937 1520.89 197.109C1519.06 195.281 1516.59 194.253 1514 194.25ZM1514 212.25C1512.37 212.25 1510.77 211.766 1509.42 210.86C1508.06 209.953 1507 208.665 1506.38 207.157C1505.75 205.65 1505.59 203.991 1505.91 202.391C1506.23 200.79 1507.01 199.32 1508.17 198.166C1509.32 197.013 1510.79 196.227 1512.39 195.909C1513.99 195.59 1515.65 195.754 1517.16 196.378C1518.66 197.002 1519.95 198.06 1520.86 199.417C1521.77 200.773 1522.25 202.368 1522.25 204C1522.25 206.187 1521.38 208.284 1519.83 209.831C1518.28 211.378 1516.19 212.248 1514 212.25ZM1518.28 203.469C1518.35 203.539 1518.41 203.622 1518.44 203.713C1518.48 203.804 1518.5 203.901 1518.5 204C1518.5 204.099 1518.48 204.196 1518.44 204.287C1518.41 204.378 1518.35 204.461 1518.28 204.531L1515.28 207.531C1515.14 207.671 1514.95 207.75 1514.75 207.75C1514.55 207.75 1514.36 207.671 1514.22 207.531C1514.08 207.39 1514 207.199 1514 207C1514 206.801 1514.08 206.61 1514.22 206.469L1515.94 204.75H1510.25C1510.05 204.75 1509.86 204.671 1509.72 204.53C1509.58 204.39 1509.5 204.199 1509.5 204C1509.5 203.801 1509.58 203.61 1509.72 203.47C1509.86 203.329 1510.05 203.25 1510.25 203.25H1515.94L1514.22 201.531C1514.08 201.39 1514 201.199 1514 201C1514 200.801 1514.08 200.61 1514.22 200.469C1514.36 200.329 1514.55 200.25 1514.75 200.25C1514.95 200.25 1515.14 200.329 1515.28 200.469L1518.28 203.469Z" fill="white"/>
<rect width="1161" height="72" transform="translate(860 684)" fill="#242424"/>
<path d="M1026.94 793.182V697.182H1037.31V708.273H1038.58C1039.37 707.061 1040.46 705.515 1041.85 703.636C1043.28 701.727 1045.31 700.03 1047.94 698.545C1050.61 697.03 1054.22 696.273 1058.76 696.273C1064.64 696.273 1069.82 697.742 1074.31 700.682C1078.79 703.621 1082.29 707.788 1084.81 713.182C1087.32 718.576 1088.58 724.939 1088.58 732.273C1088.58 739.667 1087.32 746.076 1084.81 751.5C1082.29 756.894 1078.81 761.076 1074.35 764.045C1069.9 766.985 1064.76 768.455 1058.94 768.455C1054.46 768.455 1050.87 767.712 1048.17 766.227C1045.47 764.712 1043.4 763 1041.94 761.091C1040.49 759.152 1039.37 757.545 1038.58 756.273H1037.67V793.182H1026.94ZM1037.49 732.091C1037.49 737.364 1038.26 742.015 1039.81 746.045C1041.35 750.045 1043.61 753.182 1046.58 755.455C1049.55 757.697 1053.19 758.818 1057.49 758.818C1061.97 758.818 1065.72 757.636 1068.72 755.273C1071.75 752.879 1074.02 749.667 1075.53 745.636C1077.08 741.576 1077.85 737.061 1077.85 732.091C1077.85 727.182 1077.09 722.758 1075.58 718.818C1074.09 714.848 1071.84 711.712 1068.81 709.409C1065.81 707.076 1062.03 705.909 1057.49 705.909C1053.13 705.909 1049.46 707.015 1046.49 709.227C1043.52 711.409 1041.28 714.47 1039.76 718.409C1038.25 722.318 1037.49 726.879 1037.49 732.091ZM1115.67 725V767H1104.94V673.909H1115.67V708.091H1116.58C1118.22 704.485 1120.67 701.621 1123.94 699.5C1127.25 697.348 1131.64 696.273 1137.12 696.273C1141.88 696.273 1146.05 697.227 1149.62 699.136C1153.2 701.015 1155.97 703.909 1157.94 707.818C1159.94 711.697 1160.94 716.636 1160.94 722.636V767H1150.22V723.364C1150.22 717.818 1148.78 713.53 1145.9 710.5C1143.05 707.439 1139.09 705.909 1134.03 705.909C1130.52 705.909 1127.37 706.652 1124.58 708.136C1121.82 709.621 1119.64 711.788 1118.03 714.636C1116.46 717.485 1115.67 720.939 1115.67 725ZM1201.11 768.636C1196.69 768.636 1192.67 767.803 1189.07 766.136C1185.46 764.439 1182.6 762 1180.48 758.818C1178.36 755.606 1177.3 751.727 1177.3 747.182C1177.3 743.182 1178.08 739.939 1179.66 737.455C1181.23 734.939 1183.34 732.97 1185.98 731.545C1188.61 730.121 1191.52 729.061 1194.7 728.364C1197.92 727.636 1201.14 727.061 1204.39 726.636C1208.63 726.091 1212.07 725.682 1214.7 725.409C1217.37 725.106 1219.31 724.606 1220.52 723.909C1221.77 723.212 1222.39 722 1222.39 720.273V719.909C1222.39 715.424 1221.16 711.939 1218.7 709.455C1216.28 706.97 1212.6 705.727 1207.66 705.727C1202.54 705.727 1198.52 706.848 1195.61 709.091C1192.7 711.333 1190.66 713.727 1189.48 716.273L1179.3 712.636C1181.11 708.394 1183.54 705.091 1186.57 702.727C1189.63 700.333 1192.96 698.667 1196.57 697.727C1200.2 696.758 1203.78 696.273 1207.3 696.273C1209.54 696.273 1212.11 696.545 1215.02 697.091C1217.96 697.606 1220.8 698.682 1223.52 700.318C1226.28 701.955 1228.57 704.424 1230.39 707.727C1232.2 711.03 1233.11 715.455 1233.11 721V767H1222.39V757.545H1221.84C1221.11 759.061 1219.9 760.682 1218.2 762.409C1216.51 764.136 1214.25 765.606 1211.43 766.818C1208.61 768.03 1205.17 768.636 1201.11 768.636ZM1202.75 759C1206.99 759 1210.57 758.167 1213.48 756.5C1216.42 754.833 1218.63 752.682 1220.11 750.045C1221.63 747.409 1222.39 744.636 1222.39 741.727V731.909C1221.93 732.455 1220.93 732.955 1219.39 733.409C1217.87 733.833 1216.11 734.212 1214.11 734.545C1212.14 734.848 1210.22 735.121 1208.34 735.364C1206.49 735.576 1204.99 735.758 1203.84 735.909C1201.05 736.273 1198.45 736.864 1196.02 737.682C1193.63 738.47 1191.69 739.667 1190.2 741.273C1188.75 742.848 1188.02 745 1188.02 747.727C1188.02 751.455 1189.4 754.273 1192.16 756.182C1194.95 758.061 1198.48 759 1202.75 759ZM1302.15 712.818L1292.51 715.545C1291.91 713.939 1291.01 712.379 1289.83 710.864C1288.68 709.318 1287.1 708.045 1285.1 707.045C1283.1 706.045 1280.54 705.545 1277.42 705.545C1273.15 705.545 1269.59 706.53 1266.74 708.5C1263.92 710.439 1262.51 712.909 1262.51 715.909C1262.51 718.576 1263.48 720.682 1265.42 722.227C1267.36 723.773 1270.39 725.061 1274.51 726.091L1284.88 728.636C1291.12 730.152 1295.77 732.47 1298.83 735.591C1301.89 738.682 1303.42 742.667 1303.42 747.545C1303.42 751.545 1302.27 755.121 1299.97 758.273C1297.69 761.424 1294.51 763.909 1290.42 765.727C1286.33 767.545 1281.57 768.455 1276.15 768.455C1269.03 768.455 1263.13 766.909 1258.47 763.818C1253.8 760.727 1250.84 756.212 1249.6 750.273L1259.78 747.727C1260.75 751.485 1262.59 754.303 1265.28 756.182C1268.01 758.061 1271.57 759 1275.97 759C1280.97 759 1284.94 757.939 1287.88 755.818C1290.84 753.667 1292.33 751.091 1292.33 748.091C1292.33 745.667 1291.48 743.636 1289.78 742C1288.09 740.333 1285.48 739.091 1281.97 738.273L1270.33 735.545C1263.94 734.03 1259.24 731.682 1256.24 728.5C1253.27 725.288 1251.78 721.273 1251.78 716.455C1251.78 712.515 1252.89 709.03 1255.1 706C1257.34 702.97 1260.39 700.591 1264.24 698.864C1268.12 697.136 1272.51 696.273 1277.42 696.273C1284.33 696.273 1289.75 697.788 1293.69 700.818C1297.66 703.848 1300.48 707.848 1302.15 712.818ZM1348.84 768.455C1342.11 768.455 1336.31 766.97 1331.43 764C1326.58 761 1322.84 756.818 1320.2 751.455C1317.6 746.061 1316.3 739.788 1316.3 732.636C1316.3 725.485 1317.6 719.182 1320.2 713.727C1322.84 708.242 1326.51 703.97 1331.2 700.909C1335.93 697.818 1341.45 696.273 1347.75 696.273C1351.39 696.273 1354.98 696.879 1358.52 698.091C1362.07 699.303 1365.3 701.273 1368.2 704C1371.11 706.697 1373.43 710.273 1375.16 714.727C1376.89 719.182 1377.75 724.667 1377.75 731.182V735.727H1323.93V726.455H1366.84C1366.84 722.515 1366.05 719 1364.48 715.909C1362.93 712.818 1360.72 710.379 1357.84 708.591C1354.99 706.803 1351.63 705.909 1347.75 705.909C1343.48 705.909 1339.78 706.97 1336.66 709.091C1333.57 711.182 1331.19 713.909 1329.52 717.273C1327.86 720.636 1327.02 724.242 1327.02 728.091V734.273C1327.02 739.545 1327.93 744.015 1329.75 747.682C1331.6 751.318 1334.16 754.091 1337.43 756C1340.7 757.879 1344.51 758.818 1348.84 758.818C1351.66 758.818 1354.2 758.424 1356.48 757.636C1358.78 756.818 1360.77 755.606 1362.43 754C1364.1 752.364 1365.39 750.333 1366.3 747.909L1376.66 750.818C1375.57 754.333 1373.73 757.424 1371.16 760.091C1368.58 762.727 1365.4 764.788 1361.61 766.273C1357.83 767.727 1353.57 768.455 1348.84 768.455ZM1429.89 767V758.818L1460.61 725.182C1464.22 721.242 1467.19 717.818 1469.52 714.909C1471.86 711.97 1473.58 709.212 1474.7 706.636C1475.86 704.03 1476.43 701.303 1476.43 698.455C1476.43 695.182 1475.64 692.348 1474.07 689.955C1472.52 687.561 1470.4 685.712 1467.7 684.409C1465.01 683.106 1461.98 682.455 1458.61 682.455C1455.04 682.455 1451.92 683.197 1449.25 684.682C1446.61 686.136 1444.57 688.182 1443.11 690.818C1441.69 693.455 1440.98 696.545 1440.98 700.091H1430.25C1430.25 694.636 1431.51 689.848 1434.02 685.727C1436.54 681.606 1439.96 678.394 1444.3 676.091C1448.66 673.788 1453.55 672.636 1458.98 672.636C1464.43 672.636 1469.27 673.788 1473.48 676.091C1477.69 678.394 1480.99 681.5 1483.39 685.409C1485.78 689.318 1486.98 693.667 1486.98 698.455C1486.98 701.879 1486.36 705.227 1485.11 708.5C1483.9 711.742 1481.78 715.364 1478.75 719.364C1475.75 723.333 1471.58 728.182 1466.25 733.909L1445.34 756.273V757H1488.61V767H1429.89ZM1593.02 712.818L1583.39 715.545C1582.78 713.939 1581.89 712.379 1580.7 710.864C1579.55 709.318 1577.98 708.045 1575.98 707.045C1573.98 706.045 1571.42 705.545 1568.3 705.545C1564.02 705.545 1560.46 706.53 1557.61 708.5C1554.8 710.439 1553.39 712.909 1553.39 715.909C1553.39 718.576 1554.36 720.682 1556.3 722.227C1558.23 723.773 1561.27 725.061 1565.39 726.091L1575.75 728.636C1581.99 730.152 1586.64 732.47 1589.7 735.591C1592.77 738.682 1594.3 742.667 1594.3 747.545C1594.3 751.545 1593.14 755.121 1590.84 758.273C1588.57 761.424 1585.39 763.909 1581.3 765.727C1577.2 767.545 1572.45 768.455 1567.02 768.455C1559.9 768.455 1554.01 766.909 1549.34 763.818C1544.67 760.727 1541.72 756.212 1540.48 750.273L1550.66 747.727C1551.63 751.485 1553.46 754.303 1556.16 756.182C1558.89 758.061 1562.45 759 1566.84 759C1571.84 759 1575.81 757.939 1578.75 755.818C1581.72 753.667 1583.2 751.091 1583.2 748.091C1583.2 745.667 1582.36 743.636 1580.66 742C1578.96 740.333 1576.36 739.091 1572.84 738.273L1561.2 735.545C1554.81 734.03 1550.11 731.682 1547.11 728.5C1544.14 725.288 1542.66 721.273 1542.66 716.455C1542.66 712.515 1543.77 709.03 1545.98 706C1548.22 702.97 1551.27 700.591 1555.11 698.864C1558.99 697.136 1563.39 696.273 1568.3 696.273C1575.2 696.273 1580.63 697.788 1584.57 700.818C1588.54 703.848 1591.36 707.848 1593.02 712.818ZM1640.81 697.182V706.273H1604.62V697.182H1640.81ZM1615.17 680.455H1625.9V747C1625.9 750.03 1626.34 752.303 1627.22 753.818C1628.13 755.303 1629.28 756.303 1630.67 756.818C1632.09 757.303 1633.59 757.545 1635.17 757.545C1636.35 757.545 1637.32 757.485 1638.08 757.364C1638.84 757.212 1639.44 757.091 1639.9 757L1642.08 766.636C1641.35 766.909 1640.34 767.182 1639.03 767.455C1637.73 767.758 1636.08 767.909 1634.08 767.909C1631.05 767.909 1628.08 767.258 1625.17 765.955C1622.29 764.652 1619.9 762.667 1617.99 760C1616.11 757.333 1615.17 753.97 1615.17 749.909V680.455ZM1684.56 768.455C1678.25 768.455 1672.72 766.955 1667.97 763.955C1663.24 760.955 1659.54 756.758 1656.88 751.364C1654.24 745.97 1652.92 739.667 1652.92 732.455C1652.92 725.182 1654.24 718.833 1656.88 713.409C1659.54 707.985 1663.24 703.773 1667.97 700.773C1672.72 697.773 1678.25 696.273 1684.56 696.273C1690.86 696.273 1696.38 697.773 1701.1 700.773C1705.86 703.773 1709.56 707.985 1712.19 713.409C1714.86 718.833 1716.19 725.182 1716.19 732.455C1716.19 739.667 1714.86 745.97 1712.19 751.364C1709.56 756.758 1705.86 760.955 1701.1 763.955C1696.38 766.955 1690.86 768.455 1684.56 768.455ZM1684.56 758.818C1689.34 758.818 1693.28 757.591 1696.38 755.136C1699.47 752.682 1701.75 749.455 1703.24 745.455C1704.72 741.455 1705.47 737.121 1705.47 732.455C1705.47 727.788 1704.72 723.439 1703.24 719.409C1701.75 715.379 1699.47 712.121 1696.38 709.636C1693.28 707.152 1689.34 705.909 1684.56 705.909C1679.77 705.909 1675.83 707.152 1672.74 709.636C1669.65 712.121 1667.36 715.379 1665.88 719.409C1664.39 723.439 1663.65 727.788 1663.65 732.455C1663.65 737.121 1664.39 741.455 1665.88 745.455C1667.36 749.455 1669.65 752.682 1672.74 755.136C1675.83 757.591 1679.77 758.818 1684.56 758.818ZM1760.93 768.455C1754.39 768.455 1748.75 766.909 1744.02 763.818C1739.3 760.727 1735.66 756.47 1733.11 751.045C1730.57 745.621 1729.3 739.424 1729.3 732.455C1729.3 725.364 1730.6 719.106 1733.2 713.682C1735.84 708.227 1739.51 703.97 1744.2 700.909C1748.93 697.818 1754.45 696.273 1760.75 696.273C1765.66 696.273 1770.08 697.182 1774.02 699C1777.96 700.818 1781.19 703.364 1783.7 706.636C1786.22 709.909 1787.78 713.727 1788.39 718.091H1777.66C1776.84 714.909 1775.02 712.091 1772.2 709.636C1769.42 707.152 1765.66 705.909 1760.93 705.909C1756.75 705.909 1753.08 707 1749.93 709.182C1746.81 711.333 1744.37 714.379 1742.61 718.318C1740.89 722.227 1740.02 726.818 1740.02 732.091C1740.02 737.485 1740.87 742.182 1742.57 746.182C1744.3 750.182 1746.72 753.288 1749.84 755.5C1752.99 757.712 1756.69 758.818 1760.93 758.818C1763.72 758.818 1766.25 758.333 1768.52 757.364C1770.8 756.394 1772.72 755 1774.3 753.182C1775.87 751.364 1776.99 749.182 1777.66 746.636H1788.39C1787.78 750.758 1786.28 754.47 1783.89 757.773C1781.52 761.045 1778.39 763.652 1774.48 765.591C1770.6 767.5 1766.08 768.455 1760.93 768.455ZM1814.07 741.545L1813.89 728.273H1816.07L1846.61 697.182H1859.89L1827.34 730.091H1826.43L1814.07 741.545ZM1804.07 767V673.909H1814.8V767H1804.07ZM1848.43 767L1821.16 732.455L1828.8 725L1862.07 767H1848.43Z" fill="white"/>
<defs>
<filter id="filter0_d_1119_66185" x="1387" y="310" width="108" height="60" filterUnits="userSpaceOnUse" color-interpolation-filters="sRGB">
<feFlood flood-opacity="0" result="BackgroundImageFix"/>
<feColorMatrix in="SourceAlpha" type="matrix" values="0 0 0 0 0 0 0 0 0 0 0 0 0 0 0 0 0 0 127 0" result="hardAlpha"/>
<feOffset dy="4"/>
<feGaussianBlur stdDeviation="2"/>
<feComposite in2="hardAlpha" operator="out"/>
<feColorMatrix type="matrix" values="0 0 0 0 0 0 0 0 0 0 0 0 0 0 0 0 0 0 0.1 0"/>
<feBlend mode="normal" in2="BackgroundImageFix" result="effect1_dropShadow_1119_66185"/>
<feBlend mode="normal" in="SourceGraphic" in2="effect1_dropShadow_1119_66185" result="shape"/>
</filter>
<filter id="filter1_d_1119_66185" x="1387" y="1078" width="108" height="60" filterUnits="userSpaceOnUse" color-interpolation-filters="sRGB">
<feFlood flood-opacity="0" result="BackgroundImageFix"/>
<feColorMatrix in="SourceAlpha" type="matrix" values="0 0 0 0 0 0 0 0 0 0 0 0 0 0 0 0 0 0 127 0" result="hardAlpha"/>
<feOffset dy="4"/>
<feGaussianBlur stdDeviation="2"/>
<feComposite in2="hardAlpha" operator="out"/>
<feColorMatrix type="matrix" values="0 0 0 0 0 0 0 0 0 0 0 0 0 0 0 0 0 0 0.1 0"/>
<feBlend mode="normal" in2="BackgroundImageFix" result="effect1_dropShadow_1119_66185"/>
<feBlend mode="normal" in="SourceGraphic" in2="effect1_dropShadow_1119_66185" result="shape"/>
</filter>
</defs>
</svg>
