<svg width="2880" height="1440" viewBox="0 0 2880 1440" fill="none" xmlns="http://www.w3.org/2000/svg">
<g filter="url(#filter0_d_1119_25499)">
<rect x="240" y="504" width="2448" height="96" fill="#D9D9D9"/>
<rect x="238" y="502" width="2452" height="100" stroke="#474747" stroke-width="4"/>
</g>
<g filter="url(#filter1_d_1119_25499)">
<mask id="path-3-outside-1_1119_25499" maskUnits="userSpaceOnUse" x="236" y="740" width="2456" height="224" fill="black">
<rect fill="white" x="236" y="740" width="2456" height="224"/>
<path fill-rule="evenodd" clip-rule="evenodd" d="M2688 744H240V840H552V960H2400V840H2688V744Z"/>
</mask>
<path fill-rule="evenodd" clip-rule="evenodd" d="M2688 744H240V840H552V960H2400V840H2688V744Z" fill="#D9D9D9"/>
<path d="M240 744V740H236V744H240ZM2688 744H2692V740H2688V744ZM240 840H236V844H240V840ZM552 840H556V836H552V840ZM552 960H548V964H552V960ZM2400 960V964H2404V960H2400ZM2400 840V836H2396V840H2400ZM2688 840V844H2692V840H2688ZM240 748H2688V740H240V748ZM244 840V744H236V840H244ZM552 836H240V844H552V836ZM556 960V840H548V960H556ZM2400 956H552V964H2400V956ZM2396 840V960H2404V840H2396ZM2688 836H2400V844H2688V836ZM2684 744V840H2692V744H2684Z" fill="#474747" mask="url(#path-3-outside-1_1119_25499)"/>
</g>
<rect width="24" height="4" transform="matrix(-3.0598e-07 1 1 3.0598e-07 864 504)" fill="#212121"/>
<rect width="24" height="4" transform="matrix(-3.0598e-07 1 1 3.0598e-07 870 504)" fill="#212121"/>
<rect width="24" height="4" transform="matrix(-3.0598e-07 1 1 3.0598e-07 876 504)" fill="#212121"/>
<rect width="24" height="4" transform="matrix(-3.0598e-07 1 1 3.0598e-07 882 504)" fill="#212121"/>
<rect width="24" height="4" transform="matrix(-3.0598e-07 1 1 3.0598e-07 888 504)" fill="#212121"/>
<rect width="24" height="4" transform="matrix(-3.0598e-07 1 1 3.0598e-07 894 504)" fill="#212121"/>
<rect width="24" height="4" transform="matrix(-3.0598e-07 1 1 3.0598e-07 900 504)" fill="#212121"/>
<rect width="24" height="4" transform="matrix(-3.0598e-07 1 1 3.0598e-07 906 504)" fill="#212121"/>
<rect x="912" y="528" width="24" height="24" transform="rotate(-90 912 528)" fill="#212121"/>
<rect width="24" height="4" transform="matrix(-3.0598e-07 1 1 3.0598e-07 792 504)" fill="#212121"/>
<rect width="24" height="4" transform="matrix(-3.0598e-07 1 1 3.0598e-07 798 504)" fill="#212121"/>
<rect width="24" height="4" transform="matrix(-3.0598e-07 1 1 3.0598e-07 804 504)" fill="#212121"/>
<rect width="24" height="4" transform="matrix(-3.0598e-07 1 1 3.0598e-07 810 504)" fill="#212121"/>
<rect width="24" height="4" transform="matrix(-3.0598e-07 1 1 3.0598e-07 816 504)" fill="#212121"/>
<rect width="24" height="4" transform="matrix(-3.0598e-07 1 1 3.0598e-07 822 504)" fill="#212121"/>
<rect width="24" height="4" transform="matrix(-3.0598e-07 1 1 3.0598e-07 828 504)" fill="#212121"/>
<rect width="24" height="4" transform="matrix(-3.0598e-07 1 1 3.0598e-07 834 504)" fill="#212121"/>
<rect x="840" y="528" width="24" height="24" transform="rotate(-90 840 528)" fill="#212121"/>
<rect width="24" height="4" transform="matrix(-3.0598e-07 1 1 3.0598e-07 720 504)" fill="#212121"/>
<rect width="24" height="4" transform="matrix(-3.0598e-07 1 1 3.0598e-07 726 504)" fill="#212121"/>
<rect width="24" height="4" transform="matrix(-3.0598e-07 1 1 3.0598e-07 732 504)" fill="#212121"/>
<rect width="24" height="4" transform="matrix(-3.0598e-07 1 1 3.0598e-07 738 504)" fill="#212121"/>
<rect width="24" height="4" transform="matrix(-3.0598e-07 1 1 3.0598e-07 744 504)" fill="#212121"/>
<rect width="24" height="4" transform="matrix(-3.0598e-07 1 1 3.0598e-07 750 504)" fill="#212121"/>
<rect width="24" height="4" transform="matrix(-3.0598e-07 1 1 3.0598e-07 756 504)" fill="#212121"/>
<rect width="24" height="4" transform="matrix(-3.0598e-07 1 1 3.0598e-07 762 504)" fill="#212121"/>
<rect x="768" y="528" width="24" height="24" transform="rotate(-90 768 528)" fill="#212121"/>
<rect x="720" y="528" width="24" height="24" transform="rotate(-180 720 528)" fill="#212121"/>
<rect width="24" height="4" transform="matrix(-3.0598e-07 1 1 3.0598e-07 1032 864)" fill="#212121"/>
<rect width="24" height="4" transform="matrix(-3.0598e-07 1 1 3.0598e-07 1038 864)" fill="#212121"/>
<rect width="24" height="4" transform="matrix(-3.0598e-07 1 1 3.0598e-07 1044 864)" fill="#212121"/>
<rect width="24" height="4" transform="matrix(-3.0598e-07 1 1 3.0598e-07 1050 864)" fill="#212121"/>
<rect width="24" height="4" transform="matrix(-3.0598e-07 1 1 3.0598e-07 1056 864)" fill="#212121"/>
<rect width="24" height="4" transform="matrix(-3.0598e-07 1 1 3.0598e-07 1062 864)" fill="#212121"/>
<rect width="24" height="4" transform="matrix(-3.0598e-07 1 1 3.0598e-07 1068 864)" fill="#212121"/>
<rect width="24" height="4" transform="matrix(-3.0598e-07 1 1 3.0598e-07 1074 864)" fill="#212121"/>
<rect x="1080" y="888" width="24" height="24" transform="rotate(-90 1080 888)" fill="#212121"/>
<rect width="24" height="4" transform="matrix(-3.0598e-07 1 1 3.0598e-07 960 864)" fill="#212121"/>
<rect width="24" height="4" transform="matrix(-3.0598e-07 1 1 3.0598e-07 966 864)" fill="#212121"/>
<rect width="24" height="4" transform="matrix(-3.0598e-07 1 1 3.0598e-07 972 864)" fill="#212121"/>
<rect width="24" height="4" transform="matrix(-3.0598e-07 1 1 3.0598e-07 978 864)" fill="#212121"/>
<rect width="24" height="4" transform="matrix(-3.0598e-07 1 1 3.0598e-07 984 864)" fill="#212121"/>
<rect width="24" height="4" transform="matrix(-3.0598e-07 1 1 3.0598e-07 990 864)" fill="#212121"/>
<rect width="24" height="4" transform="matrix(-3.0598e-07 1 1 3.0598e-07 996 864)" fill="#212121"/>
<rect width="24" height="4" transform="matrix(-3.0598e-07 1 1 3.0598e-07 1002 864)" fill="#212121"/>
<rect x="1008" y="888" width="24" height="24" transform="rotate(-90 1008 888)" fill="#212121"/>
<rect width="24" height="4" transform="matrix(-3.0598e-07 1 1 3.0598e-07 888 864)" fill="#212121"/>
<rect width="24" height="4" transform="matrix(-3.0598e-07 1 1 3.0598e-07 894 864)" fill="#212121"/>
<rect width="24" height="4" transform="matrix(-3.0598e-07 1 1 3.0598e-07 900 864)" fill="#212121"/>
<rect width="24" height="4" transform="matrix(-3.0598e-07 1 1 3.0598e-07 906 864)" fill="#212121"/>
<rect width="24" height="4" transform="matrix(-3.0598e-07 1 1 3.0598e-07 912 864)" fill="#212121"/>
<rect width="24" height="4" transform="matrix(-3.0598e-07 1 1 3.0598e-07 918 864)" fill="#212121"/>
<rect width="24" height="4" transform="matrix(-3.0598e-07 1 1 3.0598e-07 924 864)" fill="#212121"/>
<rect width="24" height="4" transform="matrix(-3.0598e-07 1 1 3.0598e-07 930 864)" fill="#212121"/>
<rect x="936" y="888" width="24" height="24" transform="rotate(-90 936 888)" fill="#212121"/>
<rect x="888" y="888" width="24" height="24" transform="rotate(-180 888 888)" fill="#212121"/>
<rect width="24" height="4" transform="matrix(-3.0598e-07 1 1 3.0598e-07 1992 864)" fill="#212121"/>
<rect width="24" height="4" transform="matrix(-3.0598e-07 1 1 3.0598e-07 1998 864)" fill="#212121"/>
<rect width="24" height="4" transform="matrix(-3.0598e-07 1 1 3.0598e-07 2004 864)" fill="#212121"/>
<rect width="24" height="4" transform="matrix(-3.0598e-07 1 1 3.0598e-07 2010 864)" fill="#212121"/>
<rect width="24" height="4" transform="matrix(-3.0598e-07 1 1 3.0598e-07 2016 864)" fill="#212121"/>
<rect width="24" height="4" transform="matrix(-3.0598e-07 1 1 3.0598e-07 2022 864)" fill="#212121"/>
<rect width="24" height="4" transform="matrix(-3.0598e-07 1 1 3.0598e-07 2028 864)" fill="#212121"/>
<rect width="24" height="4" transform="matrix(-3.0598e-07 1 1 3.0598e-07 2034 864)" fill="#212121"/>
<rect x="2040" y="888" width="24" height="24" transform="rotate(-90 2040 888)" fill="#212121"/>
<rect width="24" height="4" transform="matrix(-3.0598e-07 1 1 3.0598e-07 1920 864)" fill="#212121"/>
<rect width="24" height="4" transform="matrix(-3.0598e-07 1 1 3.0598e-07 1926 864)" fill="#212121"/>
<rect width="24" height="4" transform="matrix(-3.0598e-07 1 1 3.0598e-07 1932 864)" fill="#212121"/>
<rect width="24" height="4" transform="matrix(-3.0598e-07 1 1 3.0598e-07 1938 864)" fill="#212121"/>
<rect width="24" height="4" transform="matrix(-3.0598e-07 1 1 3.0598e-07 1944 864)" fill="#212121"/>
<rect width="24" height="4" transform="matrix(-3.0598e-07 1 1 3.0598e-07 1950 864)" fill="#212121"/>
<rect width="24" height="4" transform="matrix(-3.0598e-07 1 1 3.0598e-07 1956 864)" fill="#212121"/>
<rect width="24" height="4" transform="matrix(-3.0598e-07 1 1 3.0598e-07 1962 864)" fill="#212121"/>
<rect x="1968" y="888" width="24" height="24" transform="rotate(-90 1968 888)" fill="#212121"/>
<rect width="24" height="4" transform="matrix(-3.0598e-07 1 1 3.0598e-07 1848 864)" fill="#212121"/>
<rect width="24" height="4" transform="matrix(-3.0598e-07 1 1 3.0598e-07 1854 864)" fill="#212121"/>
<rect width="24" height="4" transform="matrix(-3.0598e-07 1 1 3.0598e-07 1860 864)" fill="#212121"/>
<rect width="24" height="4" transform="matrix(-3.0598e-07 1 1 3.0598e-07 1866 864)" fill="#212121"/>
<rect width="24" height="4" transform="matrix(-3.0598e-07 1 1 3.0598e-07 1872 864)" fill="#212121"/>
<rect width="24" height="4" transform="matrix(-3.0598e-07 1 1 3.0598e-07 1878 864)" fill="#212121"/>
<rect width="24" height="4" transform="matrix(-3.0598e-07 1 1 3.0598e-07 1884 864)" fill="#212121"/>
<rect width="24" height="4" transform="matrix(-3.0598e-07 1 1 3.0598e-07 1890 864)" fill="#212121"/>
<rect x="1896" y="888" width="24" height="24" transform="rotate(-90 1896 888)" fill="#212121"/>
<rect x="1848" y="888" width="24" height="24" transform="rotate(-180 1848 888)" fill="#212121"/>
<rect width="24" height="4" transform="matrix(-3.0598e-07 1 1 3.0598e-07 1032 912)" fill="#212121"/>
<rect width="24" height="4" transform="matrix(-3.0598e-07 1 1 3.0598e-07 1038 912)" fill="#212121"/>
<rect width="24" height="4" transform="matrix(-3.0598e-07 1 1 3.0598e-07 1044 912)" fill="#212121"/>
<rect width="24" height="4" transform="matrix(-3.0598e-07 1 1 3.0598e-07 1050 912)" fill="#212121"/>
<rect width="24" height="4" transform="matrix(-3.0598e-07 1 1 3.0598e-07 1056 912)" fill="#212121"/>
<rect width="24" height="4" transform="matrix(-3.0598e-07 1 1 3.0598e-07 1062 912)" fill="#212121"/>
<rect width="24" height="4" transform="matrix(-3.0598e-07 1 1 3.0598e-07 1068 912)" fill="#212121"/>
<rect width="24" height="4" transform="matrix(-3.0598e-07 1 1 3.0598e-07 1074 912)" fill="#212121"/>
<rect x="1080" y="936" width="24" height="24" transform="rotate(-90 1080 936)" fill="#212121"/>
<rect width="24" height="4" transform="matrix(-3.0598e-07 1 1 3.0598e-07 960 912)" fill="#212121"/>
<rect width="24" height="4" transform="matrix(-3.0598e-07 1 1 3.0598e-07 966 912)" fill="#212121"/>
<rect width="24" height="4" transform="matrix(-3.0598e-07 1 1 3.0598e-07 972 912)" fill="#212121"/>
<rect width="24" height="4" transform="matrix(-3.0598e-07 1 1 3.0598e-07 978 912)" fill="#212121"/>
<rect width="24" height="4" transform="matrix(-3.0598e-07 1 1 3.0598e-07 984 912)" fill="#212121"/>
<rect width="24" height="4" transform="matrix(-3.0598e-07 1 1 3.0598e-07 990 912)" fill="#212121"/>
<rect width="24" height="4" transform="matrix(-3.0598e-07 1 1 3.0598e-07 996 912)" fill="#212121"/>
<rect width="24" height="4" transform="matrix(-3.0598e-07 1 1 3.0598e-07 1002 912)" fill="#212121"/>
<rect x="1008" y="936" width="24" height="24" transform="rotate(-90 1008 936)" fill="#212121"/>
<rect width="24" height="4" transform="matrix(-3.0598e-07 1 1 3.0598e-07 888 912)" fill="#212121"/>
<rect width="24" height="4" transform="matrix(-3.0598e-07 1 1 3.0598e-07 894 912)" fill="#212121"/>
<rect width="24" height="4" transform="matrix(-3.0598e-07 1 1 3.0598e-07 900 912)" fill="#212121"/>
<rect width="24" height="4" transform="matrix(-3.0598e-07 1 1 3.0598e-07 906 912)" fill="#212121"/>
<rect width="24" height="4" transform="matrix(-3.0598e-07 1 1 3.0598e-07 912 912)" fill="#212121"/>
<rect width="24" height="4" transform="matrix(-3.0598e-07 1 1 3.0598e-07 918 912)" fill="#212121"/>
<rect width="24" height="4" transform="matrix(-3.0598e-07 1 1 3.0598e-07 924 912)" fill="#212121"/>
<rect width="24" height="4" transform="matrix(-3.0598e-07 1 1 3.0598e-07 930 912)" fill="#212121"/>
<rect x="936" y="936" width="24" height="24" transform="rotate(-90 936 936)" fill="#212121"/>
<rect x="888" y="936" width="24" height="24" transform="rotate(-180 888 936)" fill="#212121"/>
<rect width="24" height="4" transform="matrix(-3.0598e-07 1 1 3.0598e-07 1992 912)" fill="#212121"/>
<rect width="24" height="4" transform="matrix(-3.0598e-07 1 1 3.0598e-07 1998 912)" fill="#212121"/>
<rect width="24" height="4" transform="matrix(-3.0598e-07 1 1 3.0598e-07 2004 912)" fill="#212121"/>
<rect width="24" height="4" transform="matrix(-3.0598e-07 1 1 3.0598e-07 2010 912)" fill="#212121"/>
<rect width="24" height="4" transform="matrix(-3.0598e-07 1 1 3.0598e-07 2016 912)" fill="#212121"/>
<rect width="24" height="4" transform="matrix(-3.0598e-07 1 1 3.0598e-07 2022 912)" fill="#212121"/>
<rect width="24" height="4" transform="matrix(-3.0598e-07 1 1 3.0598e-07 2028 912)" fill="#212121"/>
<rect width="24" height="4" transform="matrix(-3.0598e-07 1 1 3.0598e-07 2034 912)" fill="#212121"/>
<rect x="2040" y="936" width="24" height="24" transform="rotate(-90 2040 936)" fill="#212121"/>
<rect width="24" height="4" transform="matrix(-3.0598e-07 1 1 3.0598e-07 1920 912)" fill="#212121"/>
<rect width="24" height="4" transform="matrix(-3.0598e-07 1 1 3.0598e-07 1926 912)" fill="#212121"/>
<rect width="24" height="4" transform="matrix(-3.0598e-07 1 1 3.0598e-07 1932 912)" fill="#212121"/>
<rect width="24" height="4" transform="matrix(-3.0598e-07 1 1 3.0598e-07 1938 912)" fill="#212121"/>
<rect width="24" height="4" transform="matrix(-3.0598e-07 1 1 3.0598e-07 1944 912)" fill="#212121"/>
<rect width="24" height="4" transform="matrix(-3.0598e-07 1 1 3.0598e-07 1950 912)" fill="#212121"/>
<rect width="24" height="4" transform="matrix(-3.0598e-07 1 1 3.0598e-07 1956 912)" fill="#212121"/>
<rect width="24" height="4" transform="matrix(-3.0598e-07 1 1 3.0598e-07 1962 912)" fill="#212121"/>
<rect x="1968" y="936" width="24" height="24" transform="rotate(-90 1968 936)" fill="#212121"/>
<rect width="24" height="4" transform="matrix(-3.0598e-07 1 1 3.0598e-07 1848 912)" fill="#212121"/>
<rect width="24" height="4" transform="matrix(-3.0598e-07 1 1 3.0598e-07 1854 912)" fill="#212121"/>
<rect width="24" height="4" transform="matrix(-3.0598e-07 1 1 3.0598e-07 1860 912)" fill="#212121"/>
<rect width="24" height="4" transform="matrix(-3.0598e-07 1 1 3.0598e-07 1866 912)" fill="#212121"/>
<rect width="24" height="4" transform="matrix(-3.0598e-07 1 1 3.0598e-07 1872 912)" fill="#212121"/>
<rect width="24" height="4" transform="matrix(-3.0598e-07 1 1 3.0598e-07 1878 912)" fill="#212121"/>
<rect width="24" height="4" transform="matrix(-3.0598e-07 1 1 3.0598e-07 1884 912)" fill="#212121"/>
<rect width="24" height="4" transform="matrix(-3.0598e-07 1 1 3.0598e-07 1890 912)" fill="#212121"/>
<rect x="1896" y="936" width="24" height="24" transform="rotate(-90 1896 936)" fill="#212121"/>
<rect x="1848" y="936" width="24" height="24" transform="rotate(-180 1848 936)" fill="#212121"/>
<rect width="24" height="4" transform="matrix(-3.0598e-07 1 1 3.0598e-07 552 504)" fill="#212121"/>
<rect width="24" height="4" transform="matrix(-3.0598e-07 1 1 3.0598e-07 558 504)" fill="#212121"/>
<rect width="24" height="4" transform="matrix(-3.0598e-07 1 1 3.0598e-07 564 504)" fill="#212121"/>
<rect width="24" height="4" transform="matrix(-3.0598e-07 1 1 3.0598e-07 570 504)" fill="#212121"/>
<rect width="24" height="4" transform="matrix(-3.0598e-07 1 1 3.0598e-07 576 504)" fill="#212121"/>
<rect width="24" height="4" transform="matrix(-3.0598e-07 1 1 3.0598e-07 582 504)" fill="#212121"/>
<rect width="24" height="4" transform="matrix(-3.0598e-07 1 1 3.0598e-07 588 504)" fill="#212121"/>
<rect width="24" height="4" transform="matrix(-3.0598e-07 1 1 3.0598e-07 594 504)" fill="#212121"/>
<rect x="600" y="528" width="24" height="24" transform="rotate(-90 600 528)" fill="#212121"/>
<rect width="24" height="4" transform="matrix(-3.0598e-07 1 1 3.0598e-07 480 504)" fill="#212121"/>
<rect width="24" height="4" transform="matrix(-3.0598e-07 1 1 3.0598e-07 486 504)" fill="#212121"/>
<rect width="24" height="4" transform="matrix(-3.0598e-07 1 1 3.0598e-07 492 504)" fill="#212121"/>
<rect width="24" height="4" transform="matrix(-3.0598e-07 1 1 3.0598e-07 498 504)" fill="#212121"/>
<rect width="24" height="4" transform="matrix(-3.0598e-07 1 1 3.0598e-07 504 504)" fill="#212121"/>
<rect width="24" height="4" transform="matrix(-3.0598e-07 1 1 3.0598e-07 510 504)" fill="#212121"/>
<rect width="24" height="4" transform="matrix(-3.0598e-07 1 1 3.0598e-07 516 504)" fill="#212121"/>
<rect width="24" height="4" transform="matrix(-3.0598e-07 1 1 3.0598e-07 522 504)" fill="#212121"/>
<rect x="528" y="528" width="24" height="24" transform="rotate(-90 528 528)" fill="#212121"/>
<rect width="24" height="4" transform="matrix(-3.0598e-07 1 1 3.0598e-07 408 504)" fill="#212121"/>
<rect width="24" height="4" transform="matrix(-3.0598e-07 1 1 3.0598e-07 414 504)" fill="#212121"/>
<rect width="24" height="4" transform="matrix(-3.0598e-07 1 1 3.0598e-07 420 504)" fill="#212121"/>
<rect width="24" height="4" transform="matrix(-3.0598e-07 1 1 3.0598e-07 426 504)" fill="#212121"/>
<rect width="24" height="4" transform="matrix(-3.0598e-07 1 1 3.0598e-07 432 504)" fill="#212121"/>
<rect width="24" height="4" transform="matrix(-3.0598e-07 1 1 3.0598e-07 438 504)" fill="#212121"/>
<rect width="24" height="4" transform="matrix(-3.0598e-07 1 1 3.0598e-07 444 504)" fill="#212121"/>
<rect width="24" height="4" transform="matrix(-3.0598e-07 1 1 3.0598e-07 450 504)" fill="#212121"/>
<rect x="456" y="528" width="24" height="24" transform="rotate(-90 456 528)" fill="#212121"/>
<rect x="408" y="528" width="24" height="24" transform="rotate(-180 408 528)" fill="#212121"/>
<rect width="24" height="4" transform="matrix(-3.0598e-07 1 1 3.0598e-07 2160 504)" fill="#212121"/>
<rect width="24" height="4" transform="matrix(-3.0598e-07 1 1 3.0598e-07 2166 504)" fill="#212121"/>
<rect width="24" height="4" transform="matrix(-3.0598e-07 1 1 3.0598e-07 2172 504)" fill="#212121"/>
<rect width="24" height="4" transform="matrix(-3.0598e-07 1 1 3.0598e-07 2178 504)" fill="#212121"/>
<rect width="24" height="4" transform="matrix(-3.0598e-07 1 1 3.0598e-07 2184 504)" fill="#212121"/>
<rect width="24" height="4" transform="matrix(-3.0598e-07 1 1 3.0598e-07 2190 504)" fill="#212121"/>
<rect width="24" height="4" transform="matrix(-3.0598e-07 1 1 3.0598e-07 2196 504)" fill="#212121"/>
<rect width="24" height="4" transform="matrix(-3.0598e-07 1 1 3.0598e-07 2202 504)" fill="#212121"/>
<rect x="2208" y="528" width="24" height="24" transform="rotate(-90 2208 528)" fill="#212121"/>
<rect width="24" height="4" transform="matrix(-3.0598e-07 1 1 3.0598e-07 2088 504)" fill="#212121"/>
<rect width="24" height="4" transform="matrix(-3.0598e-07 1 1 3.0598e-07 2094 504)" fill="#212121"/>
<rect width="24" height="4" transform="matrix(-3.0598e-07 1 1 3.0598e-07 2100 504)" fill="#212121"/>
<rect width="24" height="4" transform="matrix(-3.0598e-07 1 1 3.0598e-07 2106 504)" fill="#212121"/>
<rect width="24" height="4" transform="matrix(-3.0598e-07 1 1 3.0598e-07 2112 504)" fill="#212121"/>
<rect width="24" height="4" transform="matrix(-3.0598e-07 1 1 3.0598e-07 2118 504)" fill="#212121"/>
<rect width="24" height="4" transform="matrix(-3.0598e-07 1 1 3.0598e-07 2124 504)" fill="#212121"/>
<rect width="24" height="4" transform="matrix(-3.0598e-07 1 1 3.0598e-07 2130 504)" fill="#212121"/>
<rect x="2136" y="528" width="24" height="24" transform="rotate(-90 2136 528)" fill="#212121"/>
<rect width="24" height="4" transform="matrix(-3.0598e-07 1 1 3.0598e-07 2016 504)" fill="#212121"/>
<rect width="24" height="4" transform="matrix(-3.0598e-07 1 1 3.0598e-07 2022 504)" fill="#212121"/>
<rect width="24" height="4" transform="matrix(-3.0598e-07 1 1 3.0598e-07 2028 504)" fill="#212121"/>
<rect width="24" height="4" transform="matrix(-3.0598e-07 1 1 3.0598e-07 2034 504)" fill="#212121"/>
<rect width="24" height="4" transform="matrix(-3.0598e-07 1 1 3.0598e-07 2040 504)" fill="#212121"/>
<rect width="24" height="4" transform="matrix(-3.0598e-07 1 1 3.0598e-07 2046 504)" fill="#212121"/>
<rect width="24" height="4" transform="matrix(-3.0598e-07 1 1 3.0598e-07 2052 504)" fill="#212121"/>
<rect width="24" height="4" transform="matrix(-3.0598e-07 1 1 3.0598e-07 2058 504)" fill="#212121"/>
<rect x="2064" y="528" width="24" height="24" transform="rotate(-90 2064 528)" fill="#212121"/>
<rect x="2016" y="528" width="24" height="24" transform="rotate(-180 2016 528)" fill="#212121"/>
<rect width="24" height="4" transform="matrix(-3.0598e-07 1 1 3.0598e-07 2472 504)" fill="#212121"/>
<rect width="24" height="4" transform="matrix(-3.0598e-07 1 1 3.0598e-07 2478 504)" fill="#212121"/>
<rect width="24" height="4" transform="matrix(-3.0598e-07 1 1 3.0598e-07 2484 504)" fill="#212121"/>
<rect width="24" height="4" transform="matrix(-3.0598e-07 1 1 3.0598e-07 2490 504)" fill="#212121"/>
<rect width="24" height="4" transform="matrix(-3.0598e-07 1 1 3.0598e-07 2496 504)" fill="#212121"/>
<rect width="24" height="4" transform="matrix(-3.0598e-07 1 1 3.0598e-07 2502 504)" fill="#212121"/>
<rect width="24" height="4" transform="matrix(-3.0598e-07 1 1 3.0598e-07 2508 504)" fill="#212121"/>
<rect width="24" height="4" transform="matrix(-3.0598e-07 1 1 3.0598e-07 2514 504)" fill="#212121"/>
<rect x="2520" y="528" width="24" height="24" transform="rotate(-90 2520 528)" fill="#212121"/>
<rect width="24" height="4" transform="matrix(-3.0598e-07 1 1 3.0598e-07 2400 504)" fill="#212121"/>
<rect width="24" height="4" transform="matrix(-3.0598e-07 1 1 3.0598e-07 2406 504)" fill="#212121"/>
<rect width="24" height="4" transform="matrix(-3.0598e-07 1 1 3.0598e-07 2412 504)" fill="#212121"/>
<rect width="24" height="4" transform="matrix(-3.0598e-07 1 1 3.0598e-07 2418 504)" fill="#212121"/>
<rect width="24" height="4" transform="matrix(-3.0598e-07 1 1 3.0598e-07 2424 504)" fill="#212121"/>
<rect width="24" height="4" transform="matrix(-3.0598e-07 1 1 3.0598e-07 2430 504)" fill="#212121"/>
<rect width="24" height="4" transform="matrix(-3.0598e-07 1 1 3.0598e-07 2436 504)" fill="#212121"/>
<rect width="24" height="4" transform="matrix(-3.0598e-07 1 1 3.0598e-07 2442 504)" fill="#212121"/>
<rect x="2448" y="528" width="24" height="24" transform="rotate(-90 2448 528)" fill="#212121"/>
<rect width="24" height="4" transform="matrix(-3.0598e-07 1 1 3.0598e-07 2328 504)" fill="#212121"/>
<rect width="24" height="4" transform="matrix(-3.0598e-07 1 1 3.0598e-07 2334 504)" fill="#212121"/>
<rect width="24" height="4" transform="matrix(-3.0598e-07 1 1 3.0598e-07 2340 504)" fill="#212121"/>
<rect width="24" height="4" transform="matrix(-3.0598e-07 1 1 3.0598e-07 2346 504)" fill="#212121"/>
<rect width="24" height="4" transform="matrix(-3.0598e-07 1 1 3.0598e-07 2352 504)" fill="#212121"/>
<rect width="24" height="4" transform="matrix(-3.0598e-07 1 1 3.0598e-07 2358 504)" fill="#212121"/>
<rect width="24" height="4" transform="matrix(-3.0598e-07 1 1 3.0598e-07 2364 504)" fill="#212121"/>
<rect width="24" height="4" transform="matrix(-3.0598e-07 1 1 3.0598e-07 2370 504)" fill="#212121"/>
<rect x="2376" y="528" width="24" height="24" transform="rotate(-90 2376 528)" fill="#212121"/>
<rect x="2328" y="528" width="24" height="24" transform="rotate(-180 2328 528)" fill="#212121"/>
<rect width="24" height="4" transform="matrix(-3.0598e-07 1 1 3.0598e-07 864 528)" fill="#212121"/>
<rect width="24" height="4" transform="matrix(-3.0598e-07 1 1 3.0598e-07 870 528)" fill="#212121"/>
<rect width="24" height="4" transform="matrix(-3.0598e-07 1 1 3.0598e-07 876 528)" fill="#212121"/>
<rect width="24" height="4" transform="matrix(-3.0598e-07 1 1 3.0598e-07 882 528)" fill="#212121"/>
<rect width="24" height="4" transform="matrix(-3.0598e-07 1 1 3.0598e-07 888 528)" fill="#212121"/>
<rect width="24" height="4" transform="matrix(-3.0598e-07 1 1 3.0598e-07 894 528)" fill="#212121"/>
<rect width="24" height="4" transform="matrix(-3.0598e-07 1 1 3.0598e-07 900 528)" fill="#212121"/>
<rect width="24" height="4" transform="matrix(-3.0598e-07 1 1 3.0598e-07 906 528)" fill="#212121"/>
<rect x="912" y="552" width="24" height="24" transform="rotate(-90 912 552)" fill="#212121"/>
<rect width="24" height="4" transform="matrix(-3.0598e-07 1 1 3.0598e-07 792 528)" fill="#212121"/>
<rect width="24" height="4" transform="matrix(-3.0598e-07 1 1 3.0598e-07 798 528)" fill="#212121"/>
<rect width="24" height="4" transform="matrix(-3.0598e-07 1 1 3.0598e-07 804 528)" fill="#212121"/>
<rect width="24" height="4" transform="matrix(-3.0598e-07 1 1 3.0598e-07 810 528)" fill="#212121"/>
<rect width="24" height="4" transform="matrix(-3.0598e-07 1 1 3.0598e-07 816 528)" fill="#212121"/>
<rect width="24" height="4" transform="matrix(-3.0598e-07 1 1 3.0598e-07 822 528)" fill="#212121"/>
<rect width="24" height="4" transform="matrix(-3.0598e-07 1 1 3.0598e-07 828 528)" fill="#212121"/>
<rect width="24" height="4" transform="matrix(-3.0598e-07 1 1 3.0598e-07 834 528)" fill="#212121"/>
<rect x="840" y="552" width="24" height="24" transform="rotate(-90 840 552)" fill="#212121"/>
<rect width="24" height="4" transform="matrix(-3.0598e-07 1 1 3.0598e-07 720 528)" fill="#212121"/>
<rect width="24" height="4" transform="matrix(-3.0598e-07 1 1 3.0598e-07 726 528)" fill="#212121"/>
<rect width="24" height="4" transform="matrix(-3.0598e-07 1 1 3.0598e-07 732 528)" fill="#212121"/>
<rect width="24" height="4" transform="matrix(-3.0598e-07 1 1 3.0598e-07 738 528)" fill="#212121"/>
<rect width="24" height="4" transform="matrix(-3.0598e-07 1 1 3.0598e-07 744 528)" fill="#212121"/>
<rect width="24" height="4" transform="matrix(-3.0598e-07 1 1 3.0598e-07 750 528)" fill="#212121"/>
<rect width="24" height="4" transform="matrix(-3.0598e-07 1 1 3.0598e-07 756 528)" fill="#212121"/>
<rect width="24" height="4" transform="matrix(-3.0598e-07 1 1 3.0598e-07 762 528)" fill="#212121"/>
<rect x="768" y="552" width="24" height="24" transform="rotate(-90 768 552)" fill="#212121"/>
<rect x="720" y="552" width="24" height="24" transform="rotate(-180 720 552)" fill="#212121"/>
<rect width="24" height="4" transform="matrix(-3.0598e-07 1 1 3.0598e-07 1032 888)" fill="#212121"/>
<rect width="24" height="4" transform="matrix(-3.0598e-07 1 1 3.0598e-07 1038 888)" fill="#212121"/>
<rect width="24" height="4" transform="matrix(-3.0598e-07 1 1 3.0598e-07 1044 888)" fill="#212121"/>
<rect width="24" height="4" transform="matrix(-3.0598e-07 1 1 3.0598e-07 1050 888)" fill="#212121"/>
<rect width="24" height="4" transform="matrix(-3.0598e-07 1 1 3.0598e-07 1056 888)" fill="#212121"/>
<rect width="24" height="4" transform="matrix(-3.0598e-07 1 1 3.0598e-07 1062 888)" fill="#212121"/>
<rect width="24" height="4" transform="matrix(-3.0598e-07 1 1 3.0598e-07 1068 888)" fill="#212121"/>
<rect width="24" height="4" transform="matrix(-3.0598e-07 1 1 3.0598e-07 1074 888)" fill="#212121"/>
<rect x="1080" y="912" width="24" height="24" transform="rotate(-90 1080 912)" fill="#212121"/>
<rect width="24" height="4" transform="matrix(-3.0598e-07 1 1 3.0598e-07 960 888)" fill="#212121"/>
<rect width="24" height="4" transform="matrix(-3.0598e-07 1 1 3.0598e-07 966 888)" fill="#212121"/>
<rect width="24" height="4" transform="matrix(-3.0598e-07 1 1 3.0598e-07 972 888)" fill="#212121"/>
<rect width="24" height="4" transform="matrix(-3.0598e-07 1 1 3.0598e-07 978 888)" fill="#212121"/>
<rect width="24" height="4" transform="matrix(-3.0598e-07 1 1 3.0598e-07 984 888)" fill="#212121"/>
<rect width="24" height="4" transform="matrix(-3.0598e-07 1 1 3.0598e-07 990 888)" fill="#212121"/>
<rect width="24" height="4" transform="matrix(-3.0598e-07 1 1 3.0598e-07 996 888)" fill="#212121"/>
<rect width="24" height="4" transform="matrix(-3.0598e-07 1 1 3.0598e-07 1002 888)" fill="#212121"/>
<rect x="1008" y="912" width="24" height="24" transform="rotate(-90 1008 912)" fill="#212121"/>
<rect width="24" height="4" transform="matrix(-3.0598e-07 1 1 3.0598e-07 888 888)" fill="#212121"/>
<rect width="24" height="4" transform="matrix(-3.0598e-07 1 1 3.0598e-07 894 888)" fill="#212121"/>
<rect width="24" height="4" transform="matrix(-3.0598e-07 1 1 3.0598e-07 900 888)" fill="#212121"/>
<rect width="24" height="4" transform="matrix(-3.0598e-07 1 1 3.0598e-07 906 888)" fill="#212121"/>
<rect width="24" height="4" transform="matrix(-3.0598e-07 1 1 3.0598e-07 912 888)" fill="#212121"/>
<rect width="24" height="4" transform="matrix(-3.0598e-07 1 1 3.0598e-07 918 888)" fill="#212121"/>
<rect width="24" height="4" transform="matrix(-3.0598e-07 1 1 3.0598e-07 924 888)" fill="#212121"/>
<rect width="24" height="4" transform="matrix(-3.0598e-07 1 1 3.0598e-07 930 888)" fill="#212121"/>
<rect x="936" y="912" width="24" height="24" transform="rotate(-90 936 912)" fill="#212121"/>
<rect x="888" y="912" width="24" height="24" transform="rotate(-180 888 912)" fill="#212121"/>
<rect width="24" height="4" transform="matrix(-3.0598e-07 1 1 3.0598e-07 1992 888)" fill="#212121"/>
<rect width="24" height="4" transform="matrix(-3.0598e-07 1 1 3.0598e-07 1998 888)" fill="#212121"/>
<rect width="24" height="4" transform="matrix(-3.0598e-07 1 1 3.0598e-07 2004 888)" fill="#212121"/>
<rect width="24" height="4" transform="matrix(-3.0598e-07 1 1 3.0598e-07 2010 888)" fill="#212121"/>
<rect width="24" height="4" transform="matrix(-3.0598e-07 1 1 3.0598e-07 2016 888)" fill="#212121"/>
<rect width="24" height="4" transform="matrix(-3.0598e-07 1 1 3.0598e-07 2022 888)" fill="#212121"/>
<rect width="24" height="4" transform="matrix(-3.0598e-07 1 1 3.0598e-07 2028 888)" fill="#212121"/>
<rect width="24" height="4" transform="matrix(-3.0598e-07 1 1 3.0598e-07 2034 888)" fill="#212121"/>
<rect x="2040" y="912" width="24" height="24" transform="rotate(-90 2040 912)" fill="#212121"/>
<rect width="24" height="4" transform="matrix(-3.0598e-07 1 1 3.0598e-07 1920 888)" fill="#212121"/>
<rect width="24" height="4" transform="matrix(-3.0598e-07 1 1 3.0598e-07 1926 888)" fill="#212121"/>
<rect width="24" height="4" transform="matrix(-3.0598e-07 1 1 3.0598e-07 1932 888)" fill="#212121"/>
<rect width="24" height="4" transform="matrix(-3.0598e-07 1 1 3.0598e-07 1938 888)" fill="#212121"/>
<rect width="24" height="4" transform="matrix(-3.0598e-07 1 1 3.0598e-07 1944 888)" fill="#212121"/>
<rect width="24" height="4" transform="matrix(-3.0598e-07 1 1 3.0598e-07 1950 888)" fill="#212121"/>
<rect width="24" height="4" transform="matrix(-3.0598e-07 1 1 3.0598e-07 1956 888)" fill="#212121"/>
<rect width="24" height="4" transform="matrix(-3.0598e-07 1 1 3.0598e-07 1962 888)" fill="#212121"/>
<rect x="1968" y="912" width="24" height="24" transform="rotate(-90 1968 912)" fill="#212121"/>
<rect width="24" height="4" transform="matrix(-3.0598e-07 1 1 3.0598e-07 1848 888)" fill="#212121"/>
<rect width="24" height="4" transform="matrix(-3.0598e-07 1 1 3.0598e-07 1854 888)" fill="#212121"/>
<rect width="24" height="4" transform="matrix(-3.0598e-07 1 1 3.0598e-07 1860 888)" fill="#212121"/>
<rect width="24" height="4" transform="matrix(-3.0598e-07 1 1 3.0598e-07 1866 888)" fill="#212121"/>
<rect width="24" height="4" transform="matrix(-3.0598e-07 1 1 3.0598e-07 1872 888)" fill="#212121"/>
<rect width="24" height="4" transform="matrix(-3.0598e-07 1 1 3.0598e-07 1878 888)" fill="#212121"/>
<rect width="24" height="4" transform="matrix(-3.0598e-07 1 1 3.0598e-07 1884 888)" fill="#212121"/>
<rect width="24" height="4" transform="matrix(-3.0598e-07 1 1 3.0598e-07 1890 888)" fill="#212121"/>
<rect x="1896" y="912" width="24" height="24" transform="rotate(-90 1896 912)" fill="#212121"/>
<rect x="1848" y="912" width="24" height="24" transform="rotate(-180 1848 912)" fill="#212121"/>
<rect width="24" height="4" transform="matrix(-3.0598e-07 1 1 3.0598e-07 1032 936)" fill="#212121"/>
<rect width="24" height="4" transform="matrix(-3.0598e-07 1 1 3.0598e-07 1038 936)" fill="#212121"/>
<rect width="24" height="4" transform="matrix(-3.0598e-07 1 1 3.0598e-07 1044 936)" fill="#212121"/>
<rect width="24" height="4" transform="matrix(-3.0598e-07 1 1 3.0598e-07 1050 936)" fill="#212121"/>
<rect width="24" height="4" transform="matrix(-3.0598e-07 1 1 3.0598e-07 1056 936)" fill="#212121"/>
<rect width="24" height="4" transform="matrix(-3.0598e-07 1 1 3.0598e-07 1062 936)" fill="#212121"/>
<rect width="24" height="4" transform="matrix(-3.0598e-07 1 1 3.0598e-07 1068 936)" fill="#212121"/>
<rect width="24" height="4" transform="matrix(-3.0598e-07 1 1 3.0598e-07 1074 936)" fill="#212121"/>
<rect x="1080" y="960" width="24" height="24" transform="rotate(-90 1080 960)" fill="#212121"/>
<rect width="24" height="4" transform="matrix(-3.0598e-07 1 1 3.0598e-07 960 936)" fill="#212121"/>
<rect width="24" height="4" transform="matrix(-3.0598e-07 1 1 3.0598e-07 966 936)" fill="#212121"/>
<rect width="24" height="4" transform="matrix(-3.0598e-07 1 1 3.0598e-07 972 936)" fill="#212121"/>
<rect width="24" height="4" transform="matrix(-3.0598e-07 1 1 3.0598e-07 978 936)" fill="#212121"/>
<rect width="24" height="4" transform="matrix(-3.0598e-07 1 1 3.0598e-07 984 936)" fill="#212121"/>
<rect width="24" height="4" transform="matrix(-3.0598e-07 1 1 3.0598e-07 990 936)" fill="#212121"/>
<rect width="24" height="4" transform="matrix(-3.0598e-07 1 1 3.0598e-07 996 936)" fill="#212121"/>
<rect width="24" height="4" transform="matrix(-3.0598e-07 1 1 3.0598e-07 1002 936)" fill="#212121"/>
<rect x="1008" y="960" width="24" height="24" transform="rotate(-90 1008 960)" fill="#212121"/>
<rect width="24" height="4" transform="matrix(-3.0598e-07 1 1 3.0598e-07 888 936)" fill="#212121"/>
<rect width="24" height="4" transform="matrix(-3.0598e-07 1 1 3.0598e-07 894 936)" fill="#212121"/>
<rect width="24" height="4" transform="matrix(-3.0598e-07 1 1 3.0598e-07 900 936)" fill="#212121"/>
<rect width="24" height="4" transform="matrix(-3.0598e-07 1 1 3.0598e-07 906 936)" fill="#212121"/>
<rect width="24" height="4" transform="matrix(-3.0598e-07 1 1 3.0598e-07 912 936)" fill="#212121"/>
<rect width="24" height="4" transform="matrix(-3.0598e-07 1 1 3.0598e-07 918 936)" fill="#212121"/>
<rect width="24" height="4" transform="matrix(-3.0598e-07 1 1 3.0598e-07 924 936)" fill="#212121"/>
<rect width="24" height="4" transform="matrix(-3.0598e-07 1 1 3.0598e-07 930 936)" fill="#212121"/>
<rect x="936" y="960" width="24" height="24" transform="rotate(-90 936 960)" fill="#212121"/>
<rect x="888" y="960" width="24" height="24" transform="rotate(-180 888 960)" fill="#212121"/>
<rect width="24" height="4" transform="matrix(-3.0598e-07 1 1 3.0598e-07 1992 936)" fill="#212121"/>
<rect width="24" height="4" transform="matrix(-3.0598e-07 1 1 3.0598e-07 1998 936)" fill="#212121"/>
<rect width="24" height="4" transform="matrix(-3.0598e-07 1 1 3.0598e-07 2004 936)" fill="#212121"/>
<rect width="24" height="4" transform="matrix(-3.0598e-07 1 1 3.0598e-07 2010 936)" fill="#212121"/>
<rect width="24" height="4" transform="matrix(-3.0598e-07 1 1 3.0598e-07 2016 936)" fill="#212121"/>
<rect width="24" height="4" transform="matrix(-3.0598e-07 1 1 3.0598e-07 2022 936)" fill="#212121"/>
<rect width="24" height="4" transform="matrix(-3.0598e-07 1 1 3.0598e-07 2028 936)" fill="#212121"/>
<rect width="24" height="4" transform="matrix(-3.0598e-07 1 1 3.0598e-07 2034 936)" fill="#212121"/>
<rect x="2040" y="960" width="24" height="24" transform="rotate(-90 2040 960)" fill="#212121"/>
<rect width="24" height="4" transform="matrix(-3.0598e-07 1 1 3.0598e-07 1920 936)" fill="#212121"/>
<rect width="24" height="4" transform="matrix(-3.0598e-07 1 1 3.0598e-07 1926 936)" fill="#212121"/>
<rect width="24" height="4" transform="matrix(-3.0598e-07 1 1 3.0598e-07 1932 936)" fill="#212121"/>
<rect width="24" height="4" transform="matrix(-3.0598e-07 1 1 3.0598e-07 1938 936)" fill="#212121"/>
<rect width="24" height="4" transform="matrix(-3.0598e-07 1 1 3.0598e-07 1944 936)" fill="#212121"/>
<rect width="24" height="4" transform="matrix(-3.0598e-07 1 1 3.0598e-07 1950 936)" fill="#212121"/>
<rect width="24" height="4" transform="matrix(-3.0598e-07 1 1 3.0598e-07 1956 936)" fill="#212121"/>
<rect width="24" height="4" transform="matrix(-3.0598e-07 1 1 3.0598e-07 1962 936)" fill="#212121"/>
<rect x="1968" y="960" width="24" height="24" transform="rotate(-90 1968 960)" fill="#212121"/>
<rect width="24" height="4" transform="matrix(-3.0598e-07 1 1 3.0598e-07 1848 936)" fill="#212121"/>
<rect width="24" height="4" transform="matrix(-3.0598e-07 1 1 3.0598e-07 1854 936)" fill="#212121"/>
<rect width="24" height="4" transform="matrix(-3.0598e-07 1 1 3.0598e-07 1860 936)" fill="#212121"/>
<rect width="24" height="4" transform="matrix(-3.0598e-07 1 1 3.0598e-07 1866 936)" fill="#212121"/>
<rect width="24" height="4" transform="matrix(-3.0598e-07 1 1 3.0598e-07 1872 936)" fill="#212121"/>
<rect width="24" height="4" transform="matrix(-3.0598e-07 1 1 3.0598e-07 1878 936)" fill="#212121"/>
<rect width="24" height="4" transform="matrix(-3.0598e-07 1 1 3.0598e-07 1884 936)" fill="#212121"/>
<rect width="24" height="4" transform="matrix(-3.0598e-07 1 1 3.0598e-07 1890 936)" fill="#212121"/>
<rect x="1896" y="960" width="24" height="24" transform="rotate(-90 1896 960)" fill="#212121"/>
<rect x="1848" y="960" width="24" height="24" transform="rotate(-180 1848 960)" fill="#212121"/>
<rect width="24" height="4" transform="matrix(-3.0598e-07 1 1 3.0598e-07 552 528)" fill="#212121"/>
<rect width="24" height="4" transform="matrix(-3.0598e-07 1 1 3.0598e-07 558 528)" fill="#212121"/>
<rect width="24" height="4" transform="matrix(-3.0598e-07 1 1 3.0598e-07 564 528)" fill="#212121"/>
<rect width="24" height="4" transform="matrix(-3.0598e-07 1 1 3.0598e-07 570 528)" fill="#212121"/>
<rect width="24" height="4" transform="matrix(-3.0598e-07 1 1 3.0598e-07 576 528)" fill="#212121"/>
<rect width="24" height="4" transform="matrix(-3.0598e-07 1 1 3.0598e-07 582 528)" fill="#212121"/>
<rect width="24" height="4" transform="matrix(-3.0598e-07 1 1 3.0598e-07 588 528)" fill="#212121"/>
<rect width="24" height="4" transform="matrix(-3.0598e-07 1 1 3.0598e-07 594 528)" fill="#212121"/>
<rect x="600" y="552" width="24" height="24" transform="rotate(-90 600 552)" fill="#212121"/>
<rect width="24" height="4" transform="matrix(-3.0598e-07 1 1 3.0598e-07 480 528)" fill="#212121"/>
<rect width="24" height="4" transform="matrix(-3.0598e-07 1 1 3.0598e-07 486 528)" fill="#212121"/>
<rect width="24" height="4" transform="matrix(-3.0598e-07 1 1 3.0598e-07 492 528)" fill="#212121"/>
<rect width="24" height="4" transform="matrix(-3.0598e-07 1 1 3.0598e-07 498 528)" fill="#212121"/>
<rect width="24" height="4" transform="matrix(-3.0598e-07 1 1 3.0598e-07 504 528)" fill="#212121"/>
<rect width="24" height="4" transform="matrix(-3.0598e-07 1 1 3.0598e-07 510 528)" fill="#212121"/>
<rect width="24" height="4" transform="matrix(-3.0598e-07 1 1 3.0598e-07 516 528)" fill="#212121"/>
<rect width="24" height="4" transform="matrix(-3.0598e-07 1 1 3.0598e-07 522 528)" fill="#212121"/>
<rect x="528" y="552" width="24" height="24" transform="rotate(-90 528 552)" fill="#212121"/>
<rect width="24" height="4" transform="matrix(-3.0598e-07 1 1 3.0598e-07 408 528)" fill="#212121"/>
<rect width="24" height="4" transform="matrix(-3.0598e-07 1 1 3.0598e-07 414 528)" fill="#212121"/>
<rect width="24" height="4" transform="matrix(-3.0598e-07 1 1 3.0598e-07 420 528)" fill="#212121"/>
<rect width="24" height="4" transform="matrix(-3.0598e-07 1 1 3.0598e-07 426 528)" fill="#212121"/>
<rect width="24" height="4" transform="matrix(-3.0598e-07 1 1 3.0598e-07 432 528)" fill="#212121"/>
<rect width="24" height="4" transform="matrix(-3.0598e-07 1 1 3.0598e-07 438 528)" fill="#212121"/>
<rect width="24" height="4" transform="matrix(-3.0598e-07 1 1 3.0598e-07 444 528)" fill="#212121"/>
<rect width="24" height="4" transform="matrix(-3.0598e-07 1 1 3.0598e-07 450 528)" fill="#212121"/>
<rect x="456" y="552" width="24" height="24" transform="rotate(-90 456 552)" fill="#212121"/>
<rect x="408" y="552" width="24" height="24" transform="rotate(-180 408 552)" fill="#212121"/>
<rect width="24" height="4" transform="matrix(-3.0598e-07 1 1 3.0598e-07 2160 528)" fill="#212121"/>
<rect width="24" height="4" transform="matrix(-3.0598e-07 1 1 3.0598e-07 2166 528)" fill="#212121"/>
<rect width="24" height="4" transform="matrix(-3.0598e-07 1 1 3.0598e-07 2172 528)" fill="#212121"/>
<rect width="24" height="4" transform="matrix(-3.0598e-07 1 1 3.0598e-07 2178 528)" fill="#212121"/>
<rect width="24" height="4" transform="matrix(-3.0598e-07 1 1 3.0598e-07 2184 528)" fill="#212121"/>
<rect width="24" height="4" transform="matrix(-3.0598e-07 1 1 3.0598e-07 2190 528)" fill="#212121"/>
<rect width="24" height="4" transform="matrix(-3.0598e-07 1 1 3.0598e-07 2196 528)" fill="#212121"/>
<rect width="24" height="4" transform="matrix(-3.0598e-07 1 1 3.0598e-07 2202 528)" fill="#212121"/>
<rect x="2208" y="552" width="24" height="24" transform="rotate(-90 2208 552)" fill="#212121"/>
<rect width="24" height="4" transform="matrix(-3.0598e-07 1 1 3.0598e-07 2088 528)" fill="#212121"/>
<rect width="24" height="4" transform="matrix(-3.0598e-07 1 1 3.0598e-07 2094 528)" fill="#212121"/>
<rect width="24" height="4" transform="matrix(-3.0598e-07 1 1 3.0598e-07 2100 528)" fill="#212121"/>
<rect width="24" height="4" transform="matrix(-3.0598e-07 1 1 3.0598e-07 2106 528)" fill="#212121"/>
<rect width="24" height="4" transform="matrix(-3.0598e-07 1 1 3.0598e-07 2112 528)" fill="#212121"/>
<rect width="24" height="4" transform="matrix(-3.0598e-07 1 1 3.0598e-07 2118 528)" fill="#212121"/>
<rect width="24" height="4" transform="matrix(-3.0598e-07 1 1 3.0598e-07 2124 528)" fill="#212121"/>
<rect width="24" height="4" transform="matrix(-3.0598e-07 1 1 3.0598e-07 2130 528)" fill="#212121"/>
<rect x="2136" y="552" width="24" height="24" transform="rotate(-90 2136 552)" fill="#212121"/>
<rect width="24" height="4" transform="matrix(-3.0598e-07 1 1 3.0598e-07 2016 528)" fill="#212121"/>
<rect width="24" height="4" transform="matrix(-3.0598e-07 1 1 3.0598e-07 2022 528)" fill="#212121"/>
<rect width="24" height="4" transform="matrix(-3.0598e-07 1 1 3.0598e-07 2028 528)" fill="#212121"/>
<rect width="24" height="4" transform="matrix(-3.0598e-07 1 1 3.0598e-07 2034 528)" fill="#212121"/>
<rect width="24" height="4" transform="matrix(-3.0598e-07 1 1 3.0598e-07 2040 528)" fill="#212121"/>
<rect width="24" height="4" transform="matrix(-3.0598e-07 1 1 3.0598e-07 2046 528)" fill="#212121"/>
<rect width="24" height="4" transform="matrix(-3.0598e-07 1 1 3.0598e-07 2052 528)" fill="#212121"/>
<rect width="24" height="4" transform="matrix(-3.0598e-07 1 1 3.0598e-07 2058 528)" fill="#212121"/>
<rect x="2064" y="552" width="24" height="24" transform="rotate(-90 2064 552)" fill="#212121"/>
<rect x="2016" y="552" width="24" height="24" transform="rotate(-180 2016 552)" fill="#212121"/>
<rect width="24" height="4" transform="matrix(-3.0598e-07 1 1 3.0598e-07 2472 528)" fill="#212121"/>
<rect width="24" height="4" transform="matrix(-3.0598e-07 1 1 3.0598e-07 2478 528)" fill="#212121"/>
<rect width="24" height="4" transform="matrix(-3.0598e-07 1 1 3.0598e-07 2484 528)" fill="#212121"/>
<rect width="24" height="4" transform="matrix(-3.0598e-07 1 1 3.0598e-07 2490 528)" fill="#212121"/>
<rect width="24" height="4" transform="matrix(-3.0598e-07 1 1 3.0598e-07 2496 528)" fill="#212121"/>
<rect width="24" height="4" transform="matrix(-3.0598e-07 1 1 3.0598e-07 2502 528)" fill="#212121"/>
<rect width="24" height="4" transform="matrix(-3.0598e-07 1 1 3.0598e-07 2508 528)" fill="#212121"/>
<rect width="24" height="4" transform="matrix(-3.0598e-07 1 1 3.0598e-07 2514 528)" fill="#212121"/>
<rect x="2520" y="552" width="24" height="24" transform="rotate(-90 2520 552)" fill="#212121"/>
<rect width="24" height="4" transform="matrix(-3.0598e-07 1 1 3.0598e-07 2400 528)" fill="#212121"/>
<rect width="24" height="4" transform="matrix(-3.0598e-07 1 1 3.0598e-07 2406 528)" fill="#212121"/>
<rect width="24" height="4" transform="matrix(-3.0598e-07 1 1 3.0598e-07 2412 528)" fill="#212121"/>
<rect width="24" height="4" transform="matrix(-3.0598e-07 1 1 3.0598e-07 2418 528)" fill="#212121"/>
<rect width="24" height="4" transform="matrix(-3.0598e-07 1 1 3.0598e-07 2424 528)" fill="#212121"/>
<rect width="24" height="4" transform="matrix(-3.0598e-07 1 1 3.0598e-07 2430 528)" fill="#212121"/>
<rect width="24" height="4" transform="matrix(-3.0598e-07 1 1 3.0598e-07 2436 528)" fill="#212121"/>
<rect width="24" height="4" transform="matrix(-3.0598e-07 1 1 3.0598e-07 2442 528)" fill="#212121"/>
<rect x="2448" y="552" width="24" height="24" transform="rotate(-90 2448 552)" fill="#212121"/>
<rect width="24" height="4" transform="matrix(-3.0598e-07 1 1 3.0598e-07 2328 528)" fill="#212121"/>
<rect width="24" height="4" transform="matrix(-3.0598e-07 1 1 3.0598e-07 2334 528)" fill="#212121"/>
<rect width="24" height="4" transform="matrix(-3.0598e-07 1 1 3.0598e-07 2340 528)" fill="#212121"/>
<rect width="24" height="4" transform="matrix(-3.0598e-07 1 1 3.0598e-07 2346 528)" fill="#212121"/>
<rect width="24" height="4" transform="matrix(-3.0598e-07 1 1 3.0598e-07 2352 528)" fill="#212121"/>
<rect width="24" height="4" transform="matrix(-3.0598e-07 1 1 3.0598e-07 2358 528)" fill="#212121"/>
<rect width="24" height="4" transform="matrix(-3.0598e-07 1 1 3.0598e-07 2364 528)" fill="#212121"/>
<rect width="24" height="4" transform="matrix(-3.0598e-07 1 1 3.0598e-07 2370 528)" fill="#212121"/>
<rect x="2376" y="552" width="24" height="24" transform="rotate(-90 2376 552)" fill="#212121"/>
<rect x="2328" y="552" width="24" height="24" transform="rotate(-180 2328 552)" fill="#212121"/>
<rect width="48" height="48" transform="translate(1440 504)" fill="#212121"/>
<path d="M1471.97 532.849C1471.95 532.776 1471.91 532.707 1471.86 532.648C1471.8 532.59 1471.74 532.542 1471.67 532.507C1471.6 532.472 1471.53 532.451 1471.45 532.446C1471.37 532.44 1471.29 532.45 1471.22 532.475L1469.93 532.905L1467.79 528.623C1467.74 528.525 1467.66 528.442 1467.57 528.384C1467.48 528.326 1467.37 528.296 1467.26 528.296H1461.33V526.518H1465.48C1465.64 526.518 1465.79 526.455 1465.9 526.344C1466.01 526.233 1466.07 526.082 1466.07 525.925C1466.07 525.768 1466.01 525.617 1465.9 525.506C1465.79 525.395 1465.64 525.333 1465.48 525.333H1461.33V524.666C1461.89 524.522 1462.38 524.179 1462.7 523.701C1463.02 523.223 1463.16 522.644 1463.09 522.072C1463.02 521.499 1462.74 520.973 1462.31 520.592C1461.87 520.21 1461.32 520 1460.74 520C1460.16 520 1459.6 520.21 1459.17 520.592C1458.74 520.973 1458.46 521.499 1458.39 522.072C1458.31 522.644 1458.45 523.223 1458.78 523.701C1459.1 524.179 1459.59 524.522 1460.15 524.666V525.467C1458.87 525.759 1457.74 526.511 1456.98 527.58C1456.23 528.649 1455.89 529.96 1456.03 531.263C1456.18 532.565 1456.8 533.768 1457.78 534.642C1458.76 535.516 1460.02 535.999 1461.33 536C1463.81 536 1466.05 534.318 1466.65 532C1466.67 531.924 1466.67 531.846 1466.66 531.769C1466.65 531.692 1466.62 531.617 1466.58 531.55C1466.54 531.483 1466.49 531.425 1466.43 531.378C1466.37 531.331 1466.3 531.297 1466.22 531.277C1466.15 531.258 1466.07 531.254 1465.99 531.264C1465.91 531.275 1465.84 531.301 1465.77 531.341C1465.7 531.38 1465.65 531.433 1465.6 531.495C1465.55 531.557 1465.52 531.628 1465.5 531.703C1465.04 533.481 1463.25 534.815 1461.33 534.815C1460.33 534.814 1459.37 534.456 1458.62 533.804C1457.86 533.152 1457.37 532.251 1457.23 531.265C1457.08 530.279 1457.3 529.275 1457.83 528.435C1458.37 527.595 1459.19 526.976 1460.15 526.691V528.888C1460.15 529.046 1460.21 529.196 1460.32 529.307C1460.43 529.419 1460.58 529.481 1460.74 529.481H1466.89L1469.1 533.895C1469.16 534.022 1469.27 534.122 1469.4 534.177C1469.53 534.231 1469.68 534.236 1469.82 534.191L1471.59 533.598C1471.74 533.549 1471.87 533.442 1471.94 533.301C1472.01 533.161 1472.02 532.998 1471.97 532.849ZM1459.55 522.369C1459.55 522.135 1459.62 521.906 1459.75 521.711C1459.88 521.516 1460.07 521.364 1460.28 521.274C1460.5 521.185 1460.74 521.161 1460.97 521.207C1461.2 521.253 1461.41 521.365 1461.58 521.531C1461.74 521.697 1461.86 521.908 1461.9 522.138C1461.95 522.368 1461.92 522.606 1461.83 522.823C1461.74 523.04 1461.59 523.225 1461.4 523.355C1461.2 523.485 1460.97 523.555 1460.74 523.555C1460.42 523.555 1460.12 523.43 1459.9 523.207C1459.68 522.985 1459.55 522.684 1459.55 522.369Z" fill="white"/>
<rect width="48" height="48" transform="translate(1440 864)" fill="#212121"/>
<path d="M1471.97 892.849C1471.95 892.776 1471.91 892.707 1471.86 892.648C1471.8 892.59 1471.74 892.542 1471.67 892.507C1471.6 892.472 1471.53 892.451 1471.45 892.446C1471.37 892.44 1471.29 892.45 1471.22 892.475L1469.93 892.905L1467.79 888.623C1467.74 888.525 1467.66 888.442 1467.57 888.384C1467.48 888.326 1467.37 888.296 1467.26 888.296H1461.33V886.518H1465.48C1465.64 886.518 1465.79 886.455 1465.9 886.344C1466.01 886.233 1466.07 886.082 1466.07 885.925C1466.07 885.768 1466.01 885.617 1465.9 885.506C1465.79 885.395 1465.64 885.333 1465.48 885.333H1461.33V884.666C1461.89 884.522 1462.38 884.179 1462.7 883.701C1463.02 883.223 1463.16 882.644 1463.09 882.072C1463.02 881.499 1462.74 880.973 1462.31 880.592C1461.87 880.21 1461.32 880 1460.74 880C1460.16 880 1459.6 880.21 1459.17 880.592C1458.74 880.973 1458.46 881.499 1458.39 882.072C1458.31 882.644 1458.45 883.223 1458.78 883.701C1459.1 884.179 1459.59 884.522 1460.15 884.666V885.467C1458.87 885.759 1457.74 886.511 1456.98 887.58C1456.23 888.649 1455.89 889.96 1456.03 891.263C1456.18 892.565 1456.8 893.768 1457.78 894.642C1458.76 895.516 1460.02 895.999 1461.33 896C1463.81 896 1466.05 894.318 1466.65 892C1466.67 891.924 1466.67 891.846 1466.66 891.769C1466.65 891.692 1466.62 891.617 1466.58 891.55C1466.54 891.483 1466.49 891.425 1466.43 891.378C1466.37 891.331 1466.3 891.297 1466.22 891.277C1466.15 891.258 1466.07 891.254 1465.99 891.264C1465.91 891.275 1465.84 891.301 1465.77 891.341C1465.7 891.38 1465.65 891.433 1465.6 891.495C1465.55 891.557 1465.52 891.628 1465.5 891.703C1465.04 893.481 1463.25 894.815 1461.33 894.815C1460.33 894.814 1459.37 894.456 1458.62 893.804C1457.86 893.152 1457.37 892.251 1457.23 891.265C1457.08 890.279 1457.3 889.275 1457.83 888.435C1458.37 887.595 1459.19 886.976 1460.15 886.691V888.888C1460.15 889.046 1460.21 889.196 1460.32 889.307C1460.43 889.419 1460.58 889.481 1460.74 889.481H1466.89L1469.1 893.895C1469.16 894.022 1469.27 894.122 1469.4 894.177C1469.53 894.231 1469.68 894.236 1469.82 894.191L1471.59 893.598C1471.74 893.549 1471.87 893.442 1471.94 893.301C1472.01 893.161 1472.02 892.998 1471.97 892.849ZM1459.55 882.369C1459.55 882.135 1459.62 881.906 1459.75 881.711C1459.88 881.516 1460.07 881.364 1460.28 881.274C1460.5 881.185 1460.74 881.161 1460.97 881.207C1461.2 881.253 1461.41 881.365 1461.58 881.531C1461.74 881.697 1461.86 881.908 1461.9 882.138C1461.95 882.368 1461.92 882.606 1461.83 882.823C1461.74 883.04 1461.59 883.225 1461.4 883.355C1461.2 883.485 1460.97 883.555 1460.74 883.555C1460.42 883.555 1460.12 883.43 1459.9 883.207C1459.68 882.985 1459.55 882.684 1459.55 882.369Z" fill="white"/>
<defs>
<filter id="filter0_d_1119_25499" x="236" y="500" width="2468" height="116" filterUnits="userSpaceOnUse" color-interpolation-filters="sRGB">
<feFlood flood-opacity="0" result="BackgroundImageFix"/>
<feColorMatrix in="SourceAlpha" type="matrix" values="0 0 0 0 0 0 0 0 0 0 0 0 0 0 0 0 0 0 127 0" result="hardAlpha"/>
<feOffset dx="8" dy="8"/>
<feGaussianBlur stdDeviation="2"/>
<feComposite in2="hardAlpha" operator="out"/>
<feColorMatrix type="matrix" values="0 0 0 0 0 0 0 0 0 0 0 0 0 0 0 0 0 0 0.4 0"/>
<feBlend mode="normal" in2="BackgroundImageFix" result="effect1_dropShadow_1119_25499"/>
<feBlend mode="normal" in="SourceGraphic" in2="effect1_dropShadow_1119_25499" result="shape"/>
</filter>
<filter id="filter1_d_1119_25499" x="236" y="740" width="2468" height="236" filterUnits="userSpaceOnUse" color-interpolation-filters="sRGB">
<feFlood flood-opacity="0" result="BackgroundImageFix"/>
<feColorMatrix in="SourceAlpha" type="matrix" values="0 0 0 0 0 0 0 0 0 0 0 0 0 0 0 0 0 0 127 0" result="hardAlpha"/>
<feOffset dx="8" dy="8"/>
<feGaussianBlur stdDeviation="2"/>
<feComposite in2="hardAlpha" operator="out"/>
<feColorMatrix type="matrix" values="0 0 0 0 0 0 0 0 0 0 0 0 0 0 0 0 0 0 0.4 0"/>
<feBlend mode="normal" in2="BackgroundImageFix" result="effect1_dropShadow_1119_25499"/>
<feBlend mode="normal" in="SourceGraphic" in2="effect1_dropShadow_1119_25499" result="shape"/>
</filter>
</defs>
</svg>
